<svg width="194" height="62" viewBox="0 0 194 62" fill="none" xmlns="http://www.w3.org/2000/svg">
<path d="M49.8847 6.5H2.11531C1.2232 6.5 0.5 7.26126 0.5 8.20032V53.7997C0.5 54.7387 1.2232 55.5 2.11531 55.5H49.8847C50.7768 55.5 51.5 54.7387 51.5 53.7997V8.20032C51.5 7.26126 50.7768 6.5 49.8847 6.5Z" fill="#007FFF"/>
<path d="M19.9574 34.3472V40.4803C19.9574 41.7944 19.4385 42.9856 18.6032 43.8454C17.7651 44.7081 16.608 45.2395 15.3315 45.2395C12.7757 45.2395 10.7055 43.1084 10.7055 40.4803V31.1306C10.8415 28.8596 13.5999 27.7969 15.201 29.4423L19.9574 34.3472Z" fill="white"/>
<path d="M41.3 21.898V30.2108C41.2834 27.8341 38.439 26.6943 36.8045 28.3711L29.4563 35.9412L29.4368 35.964C29.3841 36.024 29.3286 36.0811 29.2731 36.1411C28.3962 37.041 27.2307 37.478 26.0569 37.478H26.0042C24.8081 37.4952 23.6177 37.0553 22.7297 36.1411C22.6603 36.0669 22.5909 35.9954 22.5271 35.9183L19.9547 33.2759L15.1983 28.374C13.5638 26.6943 10.7194 27.8369 10.7 30.2136V21.898C10.7 19.2985 12.6675 17.0789 15.1927 17.0017C16.4443 16.9675 17.5848 17.4388 18.4367 18.2415L24.7721 24.7661L25.9986 26.0258L26.956 25.0431L33.5605 18.2415C34.4152 17.4388 35.5585 16.9675 36.81 17.0017C39.3353 17.0789 41.3 19.3013 41.3 21.898Z" fill="white"/>
<path d="M41.2999 31.2792V40.4804C41.2999 43.1113 39.227 45.2395 36.674 45.2395C35.3975 45.2395 34.2403 44.7082 33.4023 43.8455C32.567 42.9856 32.0481 41.7944 32.0481 40.4804V34.3415L36.8072 29.4395C38.4389 27.7627 41.2833 28.9024 41.2999 31.2792Z" fill="white"/>
<path d="M75.2238 46.9117C74.0274 46.9117 73.1002 46.588 72.4422 45.9407C71.8141 45.2933 71.5 44.3812 71.5 43.2041V18.7076C71.5 17.5012 71.844 16.589 72.5319 15.971C73.2198 15.3237 74.1919 15 75.4482 15C76.495 15 77.3175 15.206 77.9157 15.6179C78.5439 16.0005 79.1122 16.6478 79.6206 17.56L89.2667 34.5972H87.6964L97.2976 17.56C97.836 16.6478 98.4043 16.0005 99.0025 15.6179C99.6306 15.206 100.468 15 101.515 15C102.711 15 103.624 15.3237 104.252 15.971C104.91 16.589 105.239 17.5012 105.239 18.7076V43.2041C105.239 44.3812 104.925 45.2933 104.297 45.9407C103.668 46.588 102.741 46.9117 101.515 46.9117C100.319 46.9117 99.3913 46.588 98.7333 45.9407C98.1052 45.2933 97.7911 44.3812 97.7911 43.2041V28.0207H98.7333L91.51 40.3793C91.0912 41.0267 90.6426 41.5122 90.164 41.8359C89.7153 42.1595 89.1022 42.3214 88.3245 42.3214C87.5768 42.3214 86.9636 42.1595 86.485 41.8359C86.0065 41.5122 85.5728 41.0267 85.1839 40.3793L77.9157 27.9766H78.9477V43.2041C78.9477 44.3812 78.6336 45.2933 78.0055 45.9407C77.3774 46.588 76.4501 46.9117 75.2238 46.9117Z" fill="#007FFF"/>
<path d="M121.695 47C119.242 47 117.104 46.5439 115.279 45.6317C113.455 44.7195 112.034 43.4101 111.017 41.7034C110 39.9968 109.491 37.9811 109.491 35.6566C109.491 33.891 109.776 32.3168 110.344 30.9338C110.912 29.5214 111.735 28.3297 112.812 27.3586C113.888 26.3582 115.174 25.6078 116.67 25.1076C118.165 24.5779 119.84 24.3131 121.695 24.3131C124.148 24.3131 126.286 24.7692 128.111 25.6814C129.935 26.5936 131.341 27.903 132.328 29.6097C133.345 31.2869 133.853 33.3025 133.853 35.6566C133.853 37.3926 133.569 38.9669 133.001 40.3793C132.433 41.7917 131.61 42.9982 130.533 43.9986C129.486 44.9697 128.2 45.72 126.675 46.2497C125.179 46.7499 123.519 47 121.695 47ZM121.695 41.2179C122.502 41.2179 123.22 41.0267 123.848 40.6441C124.477 40.2322 124.955 39.629 125.284 38.8345C125.643 38.0106 125.822 36.9513 125.822 35.6566C125.822 33.6851 125.434 32.2726 124.656 31.4193C123.878 30.5366 122.891 30.0952 121.695 30.0952C120.887 30.0952 120.169 30.2864 119.541 30.669C118.913 31.0515 118.42 31.6547 118.061 32.4786C117.702 33.2731 117.522 34.3324 117.522 35.6566C117.522 37.5986 117.911 39.011 118.689 39.8938C119.467 40.7766 120.469 41.2179 121.695 41.2179Z" fill="#007FFF"/>
<path d="M152.049 47C150.344 47 148.819 46.6028 147.473 45.8083C146.157 44.9844 145.289 43.9103 144.871 42.5862L145.364 40.7766V42.9393C145.364 44.234 145.02 45.2198 144.332 45.8966C143.674 46.5733 142.717 46.9117 141.461 46.9117C140.175 46.9117 139.188 46.5733 138.5 45.8966C137.842 45.2198 137.513 44.234 137.513 42.9393V18.9724C137.513 17.6777 137.857 16.692 138.545 16.0152C139.233 15.3384 140.205 15 141.461 15C142.747 15 143.734 15.3384 144.422 16.0152C145.14 16.692 145.499 17.6777 145.499 18.9724V28.4179H144.96C145.409 27.2115 146.291 26.2257 147.607 25.4607C148.923 24.6956 150.404 24.3131 152.049 24.3131C153.963 24.3131 155.638 24.7692 157.074 25.6814C158.54 26.5936 159.676 27.8883 160.484 29.5655C161.291 31.2428 161.695 33.2731 161.695 35.6566C161.695 37.9811 161.291 39.9968 160.484 41.7034C159.676 43.4101 158.54 44.7195 157.074 45.6317C155.638 46.5439 153.963 47 152.049 47ZM149.537 41.2179C150.344 41.2179 151.047 41.0267 151.645 40.6441C152.273 40.2322 152.767 39.629 153.126 38.8345C153.485 38.0106 153.664 36.9513 153.664 35.6566C153.664 33.6851 153.275 32.2726 152.498 31.4193C151.72 30.5366 150.733 30.0952 149.537 30.0952C148.729 30.0952 148.011 30.2864 147.383 30.669C146.755 31.0515 146.261 31.6547 145.903 32.4786C145.544 33.2731 145.364 34.3324 145.364 35.6566C145.364 37.5986 145.753 39.011 146.531 39.8938C147.308 40.7766 148.31 41.2179 149.537 41.2179Z" fill="#007FFF"/>
<path d="M169.103 36.3186C168.326 36.3186 167.697 36.0685 167.219 35.5683C166.77 35.068 166.486 34.3766 166.366 33.4938L164.796 20.1641C164.587 18.634 164.871 17.3982 165.649 16.4566C166.426 15.4855 167.578 15 169.103 15C170.659 15 171.81 15.4855 172.558 16.4566C173.306 17.3982 173.575 18.634 173.365 20.1641L171.84 33.4938C171.72 34.3766 171.436 35.068 170.988 35.5683C170.539 36.0685 169.911 36.3186 169.103 36.3186ZM169.103 46.7793C167.757 46.7793 166.68 46.3821 165.873 45.5876C165.095 44.7931 164.706 43.7485 164.706 42.4538C164.706 41.1885 165.095 40.1733 165.873 39.4083C166.68 38.6138 167.757 38.2166 169.103 38.2166C170.509 38.2166 171.586 38.6138 172.334 39.4083C173.111 40.1733 173.5 41.1885 173.5 42.4538C173.5 43.7485 173.111 44.7931 172.334 45.5876C171.586 46.3821 170.509 46.7793 169.103 46.7793Z" fill="#007FFF"/>
</svg>
