<svg width="238" height="73" viewBox="0 0 238 73" fill="none" xmlns="http://www.w3.org/2000/svg">
<path d="M75.6693 0H2.47505C1.10812 0 0 1.13412 0 2.53312V70.4669C0 71.8659 1.10812 73 2.47505 73H75.6693C77.0362 73 78.1443 71.8659 78.1443 70.4669V2.53312C78.1443 1.13412 77.0362 0 75.6693 0Z" fill="white"/>
<path d="M29.8134 41.4866V50.6238C29.8134 52.5814 29.0183 54.3561 27.7385 55.6371C26.4544 56.9223 24.6813 57.7139 22.7254 57.7139C18.8093 57.7139 15.6373 54.5391 15.6373 50.6238V36.6946C15.8457 33.3112 20.0722 31.7281 22.5255 34.1794L29.8134 41.4866Z" fill="#007FFF"/>
<path d="M62.5155 22.9399V35.3242C62.49 31.7834 58.1317 30.0854 55.6273 32.5835L44.368 43.8613L44.3383 43.8954C44.2575 43.9848 44.1724 44.0699 44.0874 44.1592C42.7438 45.4998 40.9579 46.1509 39.1593 46.1509H39.0786C37.2459 46.1765 35.4218 45.5211 34.0612 44.1592C33.9549 44.0486 33.8486 43.9422 33.7508 43.8273L29.8092 39.8907L22.5213 32.5878C20.0169 30.0854 15.6586 31.7877 15.6289 35.3285V22.9399C15.6289 19.0671 18.6435 15.7604 22.5128 15.6455C24.4305 15.5944 26.178 16.2966 27.4834 17.4925L37.1907 27.2127L39.07 29.0895L40.537 27.6255L50.6567 17.4925C51.9663 16.2966 53.7181 15.5944 55.6358 15.6455C59.5051 15.7604 62.5155 19.0714 62.5155 22.9399Z" fill="#007FFF"/>
<path d="M62.5154 36.9159V50.6238C62.5154 54.5434 59.3392 57.7139 55.4273 57.7139C53.4714 57.7139 51.6984 56.9224 50.4143 55.6371C49.1344 54.3561 48.3393 52.5815 48.3393 50.6238V41.4781L55.6314 34.1752C58.1316 31.677 62.4899 33.3751 62.5154 36.9159Z" fill="#007FFF"/>
<path d="M101.062 59.057C99.3947 59.057 98.1027 58.5982 97.1858 57.6804C96.3106 56.7627 95.873 55.4696 95.873 53.801V19.0739C95.873 17.3636 96.3523 16.0704 97.3109 15.1944C98.2694 14.2767 99.6239 13.8179 101.374 13.8179C102.833 13.8179 103.979 14.1099 104.813 14.6939C105.688 15.2361 106.48 16.1539 107.188 17.447L120.629 41.5996H118.441L131.819 17.447C132.57 16.1539 133.361 15.2361 134.195 14.6939C135.07 14.1099 136.237 13.8179 137.696 13.8179C139.363 13.8179 140.634 14.2767 141.509 15.1944C142.426 16.0704 142.885 17.3636 142.885 19.0739V53.801C142.885 55.4696 142.447 56.7627 141.572 57.6804C140.697 58.5982 139.405 59.057 137.696 59.057C136.029 59.057 134.737 58.5982 133.82 57.6804C132.945 56.7627 132.507 55.4696 132.507 53.801V32.2764H133.82L123.755 49.7964C123.171 50.7142 122.546 51.4024 121.879 51.8613C121.254 52.3202 120.4 52.5496 119.316 52.5496C118.274 52.5496 117.42 52.3202 116.753 51.8613C116.086 51.4024 115.482 50.7142 114.94 49.7964L104.813 32.2139H106.251V53.801C106.251 55.4696 105.813 56.7627 104.938 57.6804C104.063 58.5982 102.771 59.057 101.062 59.057Z" fill="white"/>
<path d="M165.815 59.1822C162.397 59.1822 159.417 58.5356 156.875 57.2424C154.333 55.9493 152.353 54.093 150.936 51.6736C149.519 49.2542 148.81 46.3967 148.81 43.1013C148.81 40.5984 149.206 38.3667 149.998 36.4062C150.79 34.4039 151.936 32.7144 153.437 31.3379C154.937 29.9196 156.729 28.8559 158.813 28.1467C160.897 27.3959 163.231 27.0204 165.815 27.0204C169.232 27.0204 172.212 27.667 174.754 28.9602C177.297 30.2533 179.255 32.1096 180.631 34.529C182.048 36.9067 182.756 39.7642 182.756 43.1013C182.756 45.5624 182.36 47.7942 181.569 49.7964C180.777 51.7987 179.631 53.509 178.13 54.9273C176.671 56.3039 174.879 57.3676 172.754 58.1184C170.67 58.8276 168.357 59.1822 165.815 59.1822ZM165.815 50.9853C166.94 50.9853 167.94 50.7142 168.815 50.1719C169.691 49.5879 170.357 48.7327 170.816 47.6064C171.316 46.4384 171.566 44.9367 171.566 43.1013C171.566 40.3064 171.024 38.3042 169.941 37.0944C168.857 35.843 167.482 35.2173 165.815 35.2173C164.689 35.2173 163.689 35.4884 162.814 36.0307C161.939 36.573 161.251 37.4282 160.751 38.5962C160.251 39.7224 160.001 41.2242 160.001 43.1013C160.001 45.8544 160.542 47.8567 161.626 49.1082C162.71 50.3596 164.106 50.9853 165.815 50.9853Z" fill="white"/>
<path d="M208.11 59.1822C205.735 59.1822 203.609 58.619 201.734 57.4927C199.9 56.3247 198.691 54.8022 198.108 52.925L198.795 50.3596V53.4256C198.795 55.261 198.316 56.6584 197.358 57.6179C196.441 58.5773 195.107 59.057 193.357 59.057C191.564 59.057 190.189 58.5773 189.231 57.6179C188.314 56.6584 187.855 55.261 187.855 53.4256V19.4493C187.855 17.6139 188.335 16.2164 189.293 15.257C190.252 14.2976 191.606 13.8179 193.357 13.8179C195.149 13.8179 196.524 14.2976 197.483 15.257C198.483 16.2164 198.983 17.6139 198.983 19.4493V32.8396H198.233C198.858 31.1293 200.087 29.7319 201.921 28.6473C203.755 27.5627 205.818 27.0204 208.11 27.0204C210.778 27.0204 213.112 27.667 215.112 28.9602C217.154 30.2533 218.738 32.0887 219.863 34.4664C220.988 36.8442 221.551 39.7224 221.551 43.1013C221.551 46.3967 220.988 49.2542 219.863 51.6736C218.738 54.093 217.154 55.9493 215.112 57.2424C213.112 58.5356 210.778 59.1822 208.11 59.1822ZM204.609 50.9853C205.735 50.9853 206.714 50.7142 207.548 50.1719C208.423 49.5879 209.111 48.7327 209.611 47.6064C210.111 46.4384 210.361 44.9367 210.361 43.1013C210.361 40.3064 209.819 38.3042 208.735 37.0944C207.652 35.843 206.276 35.2173 204.609 35.2173C203.484 35.2173 202.484 35.4884 201.609 36.0307C200.733 36.573 200.046 37.4282 199.546 38.5962C199.046 39.7224 198.795 41.2242 198.795 43.1013C198.795 45.8544 199.337 47.8567 200.421 49.1082C201.504 50.3596 202.901 50.9853 204.609 50.9853Z" fill="white"/>
<path d="M231.873 44.0399C230.79 44.0399 229.915 43.6853 229.248 42.9762C228.623 42.267 228.227 41.2867 228.06 40.0353L225.872 21.1387C225.58 18.9696 225.976 17.2176 227.06 15.8827C228.143 14.5061 229.748 13.8179 231.873 13.8179C234.041 13.8179 235.645 14.5061 236.687 15.8827C237.729 17.2176 238.104 18.9696 237.812 21.1387L235.687 40.0353C235.52 41.2867 235.124 42.267 234.499 42.9762C233.874 43.6853 232.999 44.0399 231.873 44.0399ZM231.873 58.8693C229.998 58.8693 228.498 58.3062 227.372 57.1799C226.289 56.0536 225.747 54.5727 225.747 52.7373C225.747 50.9436 226.289 49.5044 227.372 48.4199C228.498 47.2936 229.998 46.7304 231.873 46.7304C233.832 46.7304 235.333 47.2936 236.375 48.4199C237.458 49.5044 238 50.9436 238 52.7373C238 54.5727 237.458 56.0536 236.375 57.1799C235.333 58.3062 233.832 58.8693 231.873 58.8693Z" fill="white"/>
</svg>
