<svg width="581" height="388" viewBox="0 0 581 388" fill="none" xmlns="http://www.w3.org/2000/svg">
<path d="M477.569 189.596C477.569 189.596 505.99 192.411 520.387 210.032C520.387 210.032 535.615 189.621 562.945 190.043C569.624 181.985 573.877 172.196 575.208 161.816C576.539 151.435 574.895 140.89 570.465 131.407C566.036 121.925 559.004 113.896 550.188 108.255C541.373 102.615 531.136 99.5942 520.67 99.5455C510.205 99.4969 499.941 102.422 491.073 107.981C482.205 113.539 475.099 121.503 470.582 130.943C466.064 140.384 464.322 150.913 465.556 161.306C466.791 171.699 470.953 181.527 477.557 189.646L477.569 189.596Z" fill="#0072E5"/>
<path opacity="0.5" d="M477.569 189.596C477.569 189.596 505.99 192.411 520.387 210.032C520.387 210.032 535.615 189.621 562.945 190.043C569.624 181.985 573.877 172.196 575.208 161.816C576.539 151.435 574.895 140.89 570.465 131.407C566.036 121.925 559.004 113.896 550.188 108.255C541.373 102.615 531.136 99.5942 520.67 99.5455C510.205 99.4969 499.941 102.422 491.073 107.981C482.205 113.539 475.099 121.503 470.582 130.943C466.064 140.384 464.322 150.913 465.556 161.306C466.791 171.699 470.953 181.527 477.557 189.646L477.569 189.596Z" fill="white"/>
<path d="M519.432 103.439L518.478 287.633H523.276L519.432 103.439Z" fill="#B8B8B8"/>
<path d="M520.883 204.663C520.883 204.663 530.468 187.389 547.742 182.106C547.742 182.106 529.513 186.434 520.461 201.302L520.883 204.663Z" fill="#B8B8B8"/>
<path d="M520.883 155.732C520.883 155.732 530.468 138.458 547.742 133.176C547.742 133.176 529.513 137.491 520.461 152.371L520.883 155.732Z" fill="#B8B8B8"/>
<path d="M520.883 180.172C520.883 180.172 530.468 162.899 547.742 157.616C547.742 157.616 529.513 161.944 520.461 176.812L520.883 180.172Z" fill="#B8B8B8"/>
<path d="M519.457 168.194C519.457 168.194 510.194 150.933 493.528 145.65C493.528 145.65 511.124 149.966 519.916 164.846L519.457 168.194Z" fill="#B8B8B8"/>
<path d="M519.457 192.188C519.457 192.188 510.194 174.915 493.528 169.645C493.528 169.645 511.124 173.96 519.916 188.828L519.457 192.188Z" fill="#B8B8B8"/>
<path d="M12.3986 189.596C12.3986 189.596 40.8199 192.411 55.2166 210.032C55.2166 210.032 70.4441 189.621 97.7743 190.043C104.453 181.985 108.706 172.196 110.037 161.816C111.369 151.435 109.724 140.89 105.295 131.407C100.865 121.925 93.8332 113.896 85.0176 108.255C76.2021 102.615 65.9655 99.5942 55.4999 99.5455C45.0342 99.4969 34.77 102.422 25.9024 107.981C17.0348 113.539 9.92861 121.503 5.41121 130.943C0.893806 140.384 -0.848932 150.913 0.385905 161.306C1.62074 171.699 5.78235 181.527 12.3862 189.646L12.3986 189.596Z" fill="#0072E5"/>
<path opacity="0.5" d="M12.3986 189.596C12.3986 189.596 40.8199 192.411 55.2166 210.032C55.2166 210.032 70.4441 189.621 97.7743 190.043C104.453 181.985 108.706 172.196 110.037 161.816C111.369 151.435 109.724 140.89 105.295 131.407C100.865 121.925 93.8332 113.896 85.0176 108.255C76.2021 102.615 65.9655 99.5942 55.4999 99.5455C45.0342 99.4969 34.77 102.422 25.9024 107.981C17.0348 113.539 9.92861 121.503 5.41121 130.943C0.893806 140.384 -0.848932 150.913 0.385905 161.306C1.62074 171.699 5.78235 181.527 12.3862 189.646L12.3986 189.596Z" fill="white"/>
<path d="M54.2864 103.439L53.3192 287.633H58.1181L54.2864 103.439Z" fill="#B8B8B8"/>
<path d="M55.7251 204.663C55.7251 204.663 65.3105 187.389 82.584 182.106C82.584 182.106 64.3556 186.434 55.3035 201.302L55.7251 204.663Z" fill="#B8B8B8"/>
<path d="M55.7251 155.732C55.7251 155.732 65.3105 138.458 82.584 133.176C82.584 133.176 64.3556 137.491 55.3035 152.371L55.7251 155.732Z" fill="#B8B8B8"/>
<path d="M55.7251 180.172C55.7251 180.172 65.3105 162.899 82.584 157.616C82.584 157.616 64.3556 161.944 55.3035 176.812L55.7251 180.172Z" fill="#B8B8B8"/>
<path d="M54.2988 168.194C54.2988 168.194 45.0359 150.933 28.3699 145.65C28.3699 145.65 45.9659 149.966 54.7576 164.846L54.2988 168.194Z" fill="#B8B8B8"/>
<path d="M54.2988 192.188C54.2988 192.188 45.0359 174.915 28.3699 169.645C28.3699 169.645 45.9659 173.96 54.7576 188.828L54.2988 192.188Z" fill="#B8B8B8"/>
<path d="M362.086 207.452C362.086 207.452 385.349 209.746 397.129 224.168C397.129 224.168 409.591 207.465 431.961 207.799C437.425 201.204 440.903 193.192 441.99 184.696C443.077 176.2 441.729 167.571 438.102 159.812C434.475 152.053 428.719 145.484 421.503 140.869C414.288 136.255 405.91 133.785 397.345 133.747C388.78 133.709 380.381 136.104 373.125 140.655C365.869 145.205 360.054 151.723 356.359 159.449C352.663 167.176 351.238 175.793 352.25 184.298C353.262 192.803 356.668 200.846 362.073 207.489L362.086 207.452Z" fill="#0072E5"/>
<path opacity="0.5" d="M362.086 207.452C362.086 207.452 385.349 209.746 397.129 224.168C397.129 224.168 409.591 207.465 431.961 207.799C437.425 201.204 440.903 193.192 441.99 184.696C443.077 176.2 441.729 167.571 438.102 159.812C434.475 152.053 428.719 145.484 421.503 140.869C414.288 136.255 405.91 133.785 397.345 133.747C388.78 133.709 380.381 136.104 373.125 140.655C365.869 145.205 360.054 151.723 356.359 159.449C352.663 167.176 351.238 175.793 352.25 184.298C353.262 192.803 356.668 200.846 362.073 207.489L362.086 207.452Z" fill="white"/>
<path d="M396.36 136.87L395.579 287.632H399.51L396.36 136.87Z" fill="#B8B8B8"/>
<path d="M397.538 219.729C397.538 219.729 405.4 205.592 419.523 201.265C419.523 201.265 404.643 204.799 397.203 216.976L397.538 219.729Z" fill="#B8B8B8"/>
<path d="M397.538 179.676C397.538 179.676 405.4 165.54 419.523 161.225C419.523 161.225 404.643 164.759 397.203 176.923L397.538 179.676Z" fill="#B8B8B8"/>
<path d="M397.538 199.702C397.538 199.702 405.4 185.566 419.523 181.238C419.523 181.238 404.643 184.772 397.203 196.949L397.538 199.702Z" fill="#B8B8B8"/>
<path d="M396.372 189.881C396.372 189.881 388.796 175.745 375.156 171.43C375.156 171.43 389.552 174.964 396.757 187.128L396.372 189.881Z" fill="#B8B8B8"/>
<path d="M396.372 209.511C396.372 209.511 388.796 195.375 375.156 191.06C375.156 191.06 389.552 194.594 396.757 206.771L396.372 209.511Z" fill="#B8B8B8"/>
<path d="M137.009 207.452C137.009 207.452 160.272 209.746 172.052 224.168C172.052 224.168 184.452 207.465 206.884 207.799C212.348 201.204 215.826 193.192 216.913 184.696C218 176.2 216.652 167.571 213.025 159.812C209.398 152.053 203.642 145.484 196.426 140.869C189.211 136.255 180.833 133.785 172.268 133.747C163.703 133.709 155.304 136.104 148.048 140.655C140.792 145.205 134.977 151.723 131.282 159.449C127.586 167.176 126.161 175.793 127.173 184.298C128.185 192.803 131.591 200.846 136.996 207.489L137.009 207.452Z" fill="#0072E5"/>
<path opacity="0.5" d="M137.009 207.452C137.009 207.452 160.272 209.746 172.052 224.168C172.052 224.168 184.452 207.465 206.884 207.799C212.348 201.204 215.826 193.192 216.913 184.696C218 176.2 216.652 167.571 213.025 159.812C209.398 152.053 203.642 145.484 196.426 140.869C189.211 136.255 180.833 133.785 172.268 133.747C163.703 133.709 155.304 136.104 148.048 140.655C140.792 145.205 134.977 151.723 131.282 159.449C127.586 167.176 126.161 175.793 127.173 184.298C128.185 192.803 131.591 200.846 136.996 207.489L137.009 207.452Z" fill="white"/>
<path d="M171.283 136.87L170.502 287.632H174.433L171.283 136.87Z" fill="#B8B8B8"/>
<path d="M172.523 219.729C172.523 219.729 180.385 205.592 194.508 201.265C194.508 201.265 179.628 204.799 172.188 216.976L172.523 219.729Z" fill="#B8B8B8"/>
<path d="M172.523 179.676C172.523 179.676 180.385 165.54 194.508 161.225C194.508 161.225 179.628 164.759 172.188 176.923L172.523 179.676Z" fill="#B8B8B8"/>
<path d="M172.523 199.702C172.523 199.702 180.385 185.566 194.508 181.238C194.508 181.238 179.628 184.772 172.188 196.949L172.523 199.702Z" fill="#B8B8B8"/>
<path d="M171.283 189.882C171.283 189.882 163.719 175.745 150.079 171.492C150.079 171.492 164.475 175.026 171.68 187.191L171.283 189.882Z" fill="#B8B8B8"/>
<path d="M171.283 209.511C171.283 209.511 163.706 195.375 150.066 191.06C150.066 191.06 164.463 194.594 171.667 206.771L171.283 209.511Z" fill="#B8B8B8"/>
<path d="M20.9547 288.29H556.075" stroke="#263238" stroke-width="1.04742" stroke-miterlimit="10"/>
<path opacity="0.3" d="M167.054 348.133C167.054 351.853 144.201 354.817 115.99 354.817C87.7797 354.817 64.9261 351.828 64.9261 348.133C64.9261 344.438 87.7921 341.449 115.99 341.449C144.188 341.449 167.054 344.45 167.054 348.133Z" fill="black"/>
<path opacity="0.3" d="M273.957 348.133C273.957 351.853 251.091 354.817 222.893 354.817C194.695 354.817 171.829 351.828 171.829 348.133C171.829 344.438 194.695 341.449 222.893 341.449C251.091 341.449 273.957 344.45 273.957 348.133Z" fill="black"/>
<path opacity="0.3" d="M415.568 348.133C415.568 351.853 392.714 354.817 364.516 354.817C336.318 354.817 313.452 351.828 313.452 348.133C313.452 344.438 336.305 341.449 364.516 341.449C392.727 341.449 415.568 344.45 415.568 348.133Z" fill="black"/>
<path opacity="0.3" d="M533.866 348.133C533.866 351.853 511 354.817 482.802 354.817C454.604 354.817 431.688 351.828 431.688 348.133C431.688 344.438 454.554 341.449 482.752 341.449C510.951 341.449 533.866 344.45 533.866 348.133Z" fill="black"/>
<path d="M370.034 152.605C370.034 152.605 367.939 161.286 367.939 162.749C367.937 163.654 367.838 164.556 367.641 165.44C367.641 165.44 363.164 170.809 363.76 172.297C364.483 173.454 365.519 174.383 366.748 174.976C366.748 174.976 369.129 183.656 371.522 184.226C373.98 184.685 376.466 184.984 378.962 185.119L379.855 192.274L391.784 190.488L388.808 179.75L390.048 170.499C390.048 170.499 392.131 166.63 390.048 160.368C387.965 154.106 383.488 153.808 380.5 153.808C376.993 153.586 373.5 153.185 370.034 152.605Z" fill="white" stroke="#263238" stroke-width="1.04742" stroke-linecap="round" stroke-linejoin="round"/>
<path d="M375.403 148.142C375.403 148.142 364.962 147.832 365.26 150.523C365.558 153.213 376.296 156.723 376.296 156.723C376.296 156.723 372.713 159.104 374.498 161.497C376.284 163.89 380.463 165.973 380.463 165.973C380.463 165.973 379.223 171.045 381.07 171.343C382.918 171.64 384.046 168.949 384.344 168.057C384.642 167.164 387.928 167.461 388.82 169.842C389.325 171.079 389.627 172.39 389.713 173.723C389.713 173.723 393.297 162.985 393.892 158.211C394.487 153.437 381.07 148.142 375.403 148.142Z" fill="#263238" stroke="#263238" stroke-width="1.04742" stroke-linecap="round" stroke-linejoin="round"/>
<path d="M382.013 171.492C382.013 171.492 385.621 163.556 387.779 167.462C389.936 171.368 389.019 175.435 386.898 175.869C384.778 176.303 383.005 176.725 383.005 176.725" fill="white"/>
<path d="M382.013 171.492C382.013 171.492 385.621 163.556 387.779 167.462C389.936 171.368 389.019 175.435 386.898 175.869C384.778 176.303 383.005 176.725 383.005 176.725" stroke="#263238" stroke-width="1.04742" stroke-linecap="round" stroke-linejoin="round"/>
<path d="M367.343 254.313C366.76 254.995 357.2 275.492 356.009 282.35C354.819 289.207 347.069 330.078 346.759 331.864C346.449 333.649 330.068 337.233 328.865 337.531C327.662 337.828 330.105 341.114 333.639 342.007C337.173 342.9 347.366 347.079 349.76 344.686C352.153 342.292 355.427 328.875 356.319 327.387C357.212 325.899 374.002 286.342 374.002 286.342C374.002 286.342 382.608 267.358 384.394 265.56C386.179 263.762 382.273 255.813 380.773 253.42C379.272 251.027 371.522 249.538 367.343 254.313Z" fill="#263238" stroke="#263238" stroke-width="1.04742" stroke-linecap="round" stroke-linejoin="round"/>
<path d="M365.558 254.573C365.558 254.573 369.737 274.562 371.82 281.717C373.77 287.726 376.703 293.371 380.5 298.42C382.893 301.706 394.525 330.661 394.525 330.661L396.31 335.137C396.31 335.137 395.715 336.923 392.442 339.304C389.168 341.685 379.905 345.566 382.298 346.471C384.691 347.376 394.227 347.364 398.704 347.066C402.558 346.793 406.171 345.091 408.835 342.292C410.633 340.197 405.859 334.232 405.859 333.042C405.859 331.851 395.418 295.469 394.822 293.671C394.227 291.873 391.239 279.063 391.239 279.063V264.493C391.239 264.493 392.739 261.815 392.739 255.813C392.739 249.811 388.263 248.646 388.263 248.646L363.797 251.039L365.558 254.573Z" fill="#263238" stroke="#263238" stroke-width="1.04742" stroke-linecap="round" stroke-linejoin="round"/>
<path d="M363.487 252.824C363.487 252.824 364.094 257.896 365.88 258.194C367.666 258.491 386.154 263.563 394.215 257.598C394.215 257.598 395.703 253.122 394.81 251.932C393.917 250.741 391.821 251.336 381.095 251.336C370.369 251.336 363.487 251.336 363.487 252.824Z" fill="#0072E5" stroke="#263238" stroke-width="1.04742" stroke-linecap="round" stroke-linejoin="round"/>
<path d="M390.904 186.012C390.904 186.012 379.867 187.5 375.093 192.212C370.319 196.924 366.153 205.641 364.069 213.689C361.986 221.737 360.486 251.274 363.462 252.762C366.438 254.25 391.499 255.751 395.702 254.002C399.906 252.254 395.405 238.192 395.405 232.823C395.405 227.453 400.179 209.262 399.286 199.131C398.393 189 390.904 186.012 390.904 186.012Z" fill="#0072E5" stroke="#263238" stroke-width="1.04742" stroke-linecap="round" stroke-linejoin="round"/>
<path d="M351.087 217.013C350.95 204.736 345.941 194.258 339.282 189.732V187.252L320.929 187.438C310.6 187.55 302.329 201.078 302.54 217.571C302.751 234.063 311.22 247.418 321.562 247.331L339.914 247.145V244.665C346.362 239.866 351.149 229.289 351.087 217.013Z" fill="#263238" stroke="#263238" stroke-width="1.04742" stroke-linecap="round" stroke-linejoin="round"/>
<path d="M359.32 216.926C359.184 204.03 354.211 193.019 347.217 188.232V185.591L339.356 185.678C328.493 185.789 319.85 199.963 320.036 217.335C320.222 234.708 329.163 248.696 340.025 248.584L347.887 248.497V245.868C354.72 240.933 359.456 229.773 359.32 216.926Z" fill="white" stroke="#263238" stroke-width="1.04742" stroke-linecap="round" stroke-linejoin="round"/>
<path d="M367.207 216.839C367.393 234.2 358.738 248.386 347.887 248.497C337.037 248.609 328.047 234.621 327.898 217.261C327.749 199.901 336.368 185.715 347.218 185.591C358.068 185.467 366.996 199.467 367.207 216.839Z" fill="#737373" stroke="#263238" stroke-width="1.04742" stroke-linecap="round" stroke-linejoin="round"/>
<path d="M362.693 216.306C362.78 224.527 358.675 231.248 353.529 231.31C348.383 231.372 344.142 224.726 344.055 216.43C343.969 208.134 348.073 201.55 353.219 201.426C358.365 201.302 362.606 208.072 362.693 216.306Z" fill="#263238" stroke="#263238" stroke-width="1.04742" stroke-linecap="round" stroke-linejoin="round"/>
<path d="M508.818 278.134C509.841 270.49 510.277 262.779 510.12 255.069C506.09 256.929 482.579 257.611 480.421 257.661C478.264 257.711 454.753 256.929 450.723 255.069C450.545 262.778 450.96 270.489 451.963 278.134C453.587 288.19 467.872 328.454 468.195 330.401C468.613 332.278 469.155 334.126 469.819 335.931C469.819 335.931 461.697 341.772 458.126 344.041C454.554 346.31 457.158 347.29 460.73 347.29C464.301 347.29 471.766 346.31 474.035 346.31C476.044 346.31 479.541 344.562 480.359 344.14C481.178 344.562 484.674 346.31 486.671 346.31C488.953 346.31 496.417 347.29 499.989 347.29C503.56 347.29 506.189 346.31 502.593 344.041C498.997 341.772 490.899 335.931 490.899 335.931C491.563 334.126 492.106 332.278 492.524 330.401C492.908 328.417 507.193 288.153 508.818 278.134Z" fill="#263238" stroke="#263238" stroke-width="1.04742" stroke-linecap="round" stroke-linejoin="round"/>
<path d="M475.511 191.939C475.511 191.939 462.949 196.044 456.464 200.161C449.979 204.278 443.469 226.573 443.469 227.441C443.096 228.995 442.59 230.513 441.956 231.98C441.956 231.98 435.458 230.467 434.168 235.874C432.879 241.28 440.654 248.212 444.771 248.435C448.887 248.658 450.177 247.356 450.177 247.356C450.177 247.356 447.585 252.552 448.664 254.709C449.743 256.867 458.845 264.89 476.813 264.63C494.781 264.369 507.813 261.381 509.711 258.789C511.608 256.198 511.881 250.779 511.881 250.779C511.881 250.779 518.589 249.043 520.97 244.715C523.351 240.387 522.917 235.836 521.615 231.298C520.313 226.759 513.604 213.578 509.066 206.212C504.527 198.846 494.992 194.742 490.465 193.44C485.939 192.138 478.536 191.939 475.511 191.939Z" fill="#0072E5" stroke="#263238" stroke-width="1.04742" stroke-linecap="round" stroke-linejoin="round"/>
<path d="M479.317 210.168C481.116 209.573 486.758 204.563 488.928 199.553C489.786 197.635 490.391 195.613 490.726 193.539L490.44 193.452C485.902 192.15 478.536 191.939 475.56 191.939C475.56 191.939 472.931 192.795 469.459 194.122C469.481 196.802 469.985 199.457 470.947 201.959C472.907 206.969 477.569 210.775 479.317 210.168Z" fill="white" stroke="#263238" stroke-width="1.04742" stroke-linecap="round" stroke-linejoin="round"/>
<path d="M499.964 220.286C499.964 220.286 505.16 248.001 511.05 250.853" stroke="#263238" stroke-width="1.04742" stroke-linecap="round" stroke-linejoin="round"/>
<path d="M450.177 247.356C450.177 247.356 456.675 222.891 457.109 220.51" stroke="#263238" stroke-width="1.04742" stroke-linecap="round" stroke-linejoin="round"/>
<path d="M508.359 232.811C508.359 232.811 504.763 233.617 504.763 236.221" stroke="#263238" stroke-width="1.04742" stroke-linecap="round" stroke-linejoin="round"/>
<path d="M447.263 233.208C447.263 233.208 451.268 235.812 450.871 239.817" stroke="#263238" stroke-width="1.04742" stroke-linecap="round" stroke-linejoin="round"/>
<path d="M474.097 346.335C476.106 346.335 479.603 344.587 480.421 344.165C481.239 344.587 484.736 346.335 486.733 346.335C489.014 346.335 496.479 347.315 500.051 347.315C503.622 347.315 506.251 346.335 502.655 344.066C499.542 342.094 493.02 337.432 491.358 336.241C487.526 339.738 479.95 338.87 479.95 338.87C478.415 338.639 476.895 338.316 475.399 337.903C473.13 337.246 469.881 335.956 469.881 335.956C469.881 335.956 461.759 341.797 458.187 344.066C454.616 346.335 457.22 347.315 460.791 347.315C464.363 347.315 471.828 346.335 474.097 346.335Z" fill="#0072E5" stroke="#263238" stroke-width="1.04742" stroke-linecap="round" stroke-linejoin="round"/>
<path d="M479.95 336.005V279.386" stroke="white" stroke-width="1.04742" stroke-linecap="round" stroke-linejoin="round"/>
<path d="M480.421 344.103L479.95 338.808V336.006" stroke="#263238" stroke-width="1.04742" stroke-linecap="round" stroke-linejoin="round"/>
<path d="M475.399 277.439H484.811" stroke="white" stroke-width="1.04742" stroke-linecap="round" stroke-linejoin="round"/>
<path d="M463.098 159.451C463.098 159.451 456.353 163.493 457.357 167.04C458.361 170.586 461.412 171.268 460.742 173.24C460.073 175.211 457.729 176.451 460.395 177.691C461.913 178.371 463.502 178.883 465.132 179.217C465.132 179.217 467.612 187.822 471.878 189.335C476.143 190.848 483.534 189.844 488.767 189.174C490.534 189.001 492.208 188.294 493.563 187.146C494.919 185.999 495.893 184.465 496.356 182.751C496.864 180.903 494.161 183.098 492.809 181.064C491.458 179.031 493.491 173.81 495.004 169.247C496.517 164.683 491.966 156.078 486.063 153.213C480.161 150.349 468.889 151.849 463.098 159.451Z" fill="#263238" stroke="#263238" stroke-width="1.04742" stroke-linecap="round" stroke-linejoin="round"/>
<path d="M474.432 188.852C473.574 191.682 472.992 194.589 472.696 197.532C472.472 201.252 475.51 205.332 478.759 205.109C482.008 204.885 484.811 198.4 485.245 195.188C485.679 191.977 484.166 183.284 484.166 183.284C484.166 183.284 479.206 183.507 477.234 185.231C476.076 186.247 475.125 187.476 474.432 188.852Z" fill="white" stroke="#263238" stroke-width="1.04742" stroke-linecap="round" stroke-linejoin="round"/>
<path d="M470.03 164.175C470.03 164.175 470.191 169.234 475.263 174.095C478.312 177.043 481.927 179.342 485.89 180.853C485.801 181.961 485.516 183.045 485.047 184.052C484.826 184.474 484.483 184.818 484.062 185.039C483.641 185.261 483.163 185.349 482.691 185.292H480.992C480.992 185.292 478.512 191.108 475.511 191.951C472.51 192.795 465.132 192.212 464.115 184.784C463.098 177.356 462.937 171.28 463.78 169.755C464.623 168.23 470.03 164.175 470.03 164.175Z" fill="white" stroke="#263238" stroke-width="1.04742" stroke-linecap="round" stroke-linejoin="round"/>
<path d="M523.09 229.525C523.86 227.974 524.327 226.29 524.467 224.565C524.467 222.308 520.276 219.071 519.507 218.265C518.738 217.459 517.969 217.546 517.808 218.674C517.806 219.308 517.933 219.935 518.183 220.517C518.432 221.099 518.799 221.624 519.259 222.06C519.887 222.555 520.343 223.237 520.561 224.007C520.635 224.565 519.172 227.305 519.904 229.078C520.635 230.851 522.694 231.385 523.09 229.525Z" fill="white" stroke="#263238" stroke-width="1.04742" stroke-linecap="round" stroke-linejoin="round"/>
<path d="M355.154 216.864C355.154 216.864 373.407 222.705 384.381 236.345C395.355 249.985 402.56 248.026 416.2 243.488C429.841 238.949 435.036 222.705 453.872 236.345C472.708 249.985 476.602 255.169 492.189 247.381C507.776 239.594 516.208 220.758 530.506 227.243C544.803 233.729 538.293 266.924 539.595 283.044C540.897 299.165 538.938 339.552 542.187 344.748C545.436 349.944 578.557 345.988 578.557 345.988" stroke="#263238" stroke-width="3.14226" stroke-linecap="round" stroke-linejoin="round"/>
<path d="M389.341 195.189C389.341 195.189 385.708 189.261 380.351 190.811C374.684 192.448 371.758 200.545 370.431 205.592C369.104 210.639 368.211 216.095 365.781 220.795C365.781 220.795 355.042 220.609 349.053 218.873C344.483 217.448 339.988 215.793 335.586 213.913C335.586 213.913 333.466 210.949 331.965 210.366C330.465 209.784 326.571 208.643 326.286 209.536C326.001 210.428 330.8 213.367 330.8 213.367C330.8 213.367 321.871 214.607 320.979 215.562C320.086 216.517 327.29 219.369 327.29 219.369C327.29 219.369 329.981 220.237 336.529 218.675C336.529 218.675 360.548 233.927 365.334 235.675C370.121 237.424 372.774 237.982 376.036 231.682C379.297 225.383 390.122 209.759 391.846 203.472" fill="#0072E5"/>
<path d="M389.341 195.189C389.341 195.189 385.708 189.261 380.351 190.811C374.684 192.448 371.758 200.545 370.431 205.592C369.104 210.639 368.211 216.095 365.781 220.795C365.781 220.795 355.042 220.609 349.053 218.873C344.483 217.448 339.988 215.793 335.586 213.913C335.586 213.913 333.466 210.949 331.965 210.366C330.465 209.784 326.571 208.643 326.286 209.536C326.001 210.428 330.8 213.367 330.8 213.367C330.8 213.367 321.871 214.607 320.979 215.562C320.086 216.517 327.29 219.369 327.29 219.369C327.29 219.369 329.981 220.237 336.529 218.675C336.529 218.675 360.548 233.927 365.334 235.675C370.121 237.424 372.774 237.982 376.036 231.682C379.297 225.383 390.122 209.759 391.846 203.472" stroke="#263238" stroke-width="1.04742" stroke-linecap="round" stroke-linejoin="round"/>
<path d="M341.824 216.442C338.314 215.127 335.624 213.962 335.624 213.962C335.624 213.962 333.503 210.998 332.003 210.415C330.502 209.832 326.609 208.692 326.323 209.584C326.038 210.477 330.837 213.416 330.837 213.416C330.837 213.416 321.909 214.656 321.016 215.611C320.123 216.566 327.328 219.418 327.328 219.418C327.328 219.418 330.019 220.286 336.566 218.723L339.926 220.844L341.824 216.442Z" fill="white" stroke="#263238" stroke-width="1.04742" stroke-linecap="round" stroke-linejoin="round"/>
<path d="M434.404 231.806C433.634 230.255 433.167 228.572 433.027 226.846C433.027 224.589 437.231 221.365 437.988 220.559C438.744 219.753 439.513 219.84 439.674 220.968C439.676 221.602 439.549 222.229 439.299 222.811C439.05 223.393 438.683 223.918 438.223 224.354C437.595 224.849 437.139 225.53 436.921 226.3C436.847 226.846 438.31 229.599 437.578 231.372C436.847 233.145 434.801 233.654 434.404 231.806Z" fill="white" stroke="#263238" stroke-width="1.04742" stroke-linecap="round" stroke-linejoin="round"/>
<path d="M437.293 224.999C437.293 224.999 433.833 231.385 435.842 233.679C437.851 235.973 439.798 228.52 440.17 226.462C440.542 224.403 438.57 222.333 437.293 224.999Z" fill="white" stroke="#263238" stroke-width="1.04742" stroke-linecap="round" stroke-linejoin="round"/>
<path d="M440.145 227.292C440.145 227.292 436.685 233.679 438.694 235.973C440.703 238.267 442.65 230.814 443.022 228.756C443.394 226.697 441.422 224.552 440.145 227.292Z" fill="white" stroke="#263238" stroke-width="1.04742" stroke-linecap="round" stroke-linejoin="round"/>
<path d="M443.283 227.825C443.283 227.825 439.823 234.212 441.832 236.506C443.841 238.8 445.787 231.347 446.159 229.289C446.531 227.23 444.56 225.147 443.283 227.825Z" fill="white" stroke="#263238" stroke-width="1.04742" stroke-linecap="round" stroke-linejoin="round"/>
<path d="M447.3 227.876C447.3 227.876 444.076 232.836 445.837 234.708C447.598 236.581 449.495 230.69 449.867 228.992C450.239 227.293 448.491 225.644 447.3 227.876Z" fill="white" stroke="#263238" stroke-width="1.04742" stroke-linecap="round" stroke-linejoin="round"/>
<path d="M520.784 225.247C520.784 225.247 524.244 231.633 522.235 233.927C520.226 236.221 518.279 228.756 517.907 226.698C517.535 224.639 519.507 222.568 520.784 225.247Z" fill="white" stroke="#263238" stroke-width="1.04742" stroke-linecap="round" stroke-linejoin="round"/>
<path d="M517.932 227.479C517.932 227.479 521.392 233.865 519.383 236.159C517.374 238.453 515.427 230.988 515.055 228.929C514.683 226.871 516.655 224.812 517.932 227.479Z" fill="white" stroke="#263238" stroke-width="1.04742" stroke-linecap="round" stroke-linejoin="round"/>
<path d="M514.77 228.074C514.77 228.074 518.229 234.46 516.221 236.754C514.212 239.048 512.265 231.595 511.905 229.525C511.546 227.454 513.53 225.395 514.77 228.074Z" fill="white" stroke="#263238" stroke-width="1.04742" stroke-linecap="round" stroke-linejoin="round"/>
<path d="M510.777 228.124C510.777 228.124 514.001 233.146 512.24 234.956C510.479 236.767 508.582 230.938 508.222 229.24C507.863 227.541 509.586 225.892 510.777 228.124Z" fill="white" stroke="#263238" stroke-width="1.04742" stroke-linecap="round" stroke-linejoin="round"/>
<path d="M84.1342 298.78V305.824C81.6899 308.495 79.9323 311.721 79.0129 315.223C77.5124 320.977 72.8127 345.74 74.0528 346.385C75.2928 347.03 86.9614 349.696 90.6815 349.138C94.9472 348.493 98.5805 348.716 96.4352 346.36C94.29 344.004 83.0181 337.419 83.0181 337.419C83.0181 337.419 95.4184 319.489 98.1712 312.867C100.924 306.245 101.371 296.003 101.371 296.003L84.7294 295.37L84.1342 298.78Z" fill="white" stroke="#263238" stroke-width="1.04742" stroke-linecap="round" stroke-linejoin="round"/>
<path d="M90.6814 349.137C94.9471 348.492 98.5803 348.716 96.4351 346.36C94.2898 344.003 83.018 337.419 83.018 337.419L82.5964 339.973L74.4743 338.981C73.879 343.123 73.6186 346.161 74.0526 346.422C75.3795 347.017 86.9613 349.695 90.6814 349.137Z" fill="#263238" stroke="#263238" stroke-width="1.04742" stroke-linecap="round" stroke-linejoin="round"/>
<path d="M124.906 302.426L126.828 305.848C126.031 307.385 125.563 309.07 125.452 310.797C125.341 312.524 125.59 314.255 126.183 315.88C128.105 321.857 132.594 343.843 132.594 345.12C132.594 346.397 135.359 347.253 137.554 347.253C139.749 347.253 145.825 347.674 146.681 347.674C147.536 347.674 153.724 348.741 155.857 347.464C157.99 346.186 153.141 343.62 149.942 342.132C146.743 340.644 139.699 336.799 139.699 336.799C139.699 336.799 141.398 319.29 141.398 311.602C141.398 303.914 143.11 301.36 140.766 296.66C138.422 291.96 123.691 298.805 123.691 298.805L124.906 302.426Z" fill="white" stroke="#263238" stroke-width="1.04742" stroke-linecap="round" stroke-linejoin="round"/>
<path d="M149.88 342.131C146.681 340.63 139.638 336.799 139.638 336.799L138.782 339.998L131.925 341.238C132.334 343.371 132.594 344.834 132.594 345.132C132.594 346.372 135.36 347.265 137.554 347.265C139.749 347.265 145.825 347.686 146.681 347.686C147.537 347.686 153.724 348.753 155.857 347.475C157.99 346.198 153.08 343.619 149.88 342.131Z" fill="#263238" stroke="#263238" stroke-width="1.04742" stroke-linecap="round" stroke-linejoin="round"/>
<path d="M113.411 160.332C111.738 157.472 109.825 154.759 107.694 152.222C104.756 148.911 95.5421 149.097 91.4996 153.462C87.4572 157.827 88.7344 165.614 90.2596 167.821C91.7849 170.029 94.8601 180.346 94.8601 180.346L95.5917 187.711L112.716 193.787L109.22 181.821C109.22 181.821 115.854 180.581 116.399 178.51C116.945 176.439 115.296 169.483 115.296 169.483C115.296 169.483 117.503 168.007 117.317 166.718C117.131 165.428 113.411 160.332 113.411 160.332Z" fill="white" stroke="#263238" stroke-width="1.04742" stroke-linecap="round" stroke-linejoin="round"/>
<path d="M93.7071 168.267C93.7071 168.267 96.6336 170.747 98.2332 167.908C99.8328 165.068 101.048 162.29 101.048 159.885C101.048 157.479 95.0339 155.483 99.0392 153.871C103.044 152.258 105.934 155.842 107.719 152.246C109.505 148.65 107.881 148.266 98.258 148.266C88.6354 148.266 83.8241 153.077 85.8577 159.091C87.4842 163.532 89.4966 167.823 91.8719 171.913L93.7071 168.267Z" fill="#263238" stroke="#263238" stroke-width="1.04742" stroke-linecap="round" stroke-linejoin="round"/>
<path d="M113.957 164.585C113.957 165.495 113.687 166.384 113.181 167.141C112.676 167.897 111.957 168.487 111.117 168.835C110.276 169.183 109.351 169.274 108.459 169.097C107.566 168.919 106.747 168.481 106.103 167.838C105.46 167.195 105.022 166.375 104.844 165.482C104.667 164.59 104.758 163.665 105.106 162.824C105.454 161.984 106.044 161.265 106.8 160.76C107.557 160.254 108.446 159.984 109.356 159.984C110.576 159.984 111.747 160.469 112.609 161.332C113.472 162.195 113.957 163.365 113.957 164.585Z" stroke="#263238" stroke-width="1.04742" stroke-linecap="round" stroke-linejoin="round"/>
<path d="M113.287 160.505C113.823 160.286 114.395 160.172 114.974 160.17C115.932 160.172 116.862 160.491 117.619 161.078C118.376 161.666 118.916 162.487 119.156 163.415C119.395 164.342 119.321 165.323 118.943 166.203C118.565 167.084 117.906 167.814 117.069 168.28" stroke="#263238" stroke-width="1.04742" stroke-linecap="round" stroke-linejoin="round"/>
<path d="M104.756 164.584L93.7069 168.267" stroke="#263238" stroke-width="1.04742" stroke-linecap="round" stroke-linejoin="round"/>
<path d="M96.8813 170.66C96.8813 170.66 94.674 166.06 92.4668 166.94C90.2595 167.821 91.3632 175.05 93.5704 175.781C94.3121 175.948 95.0831 175.935 95.8187 175.743C96.5544 175.551 97.2334 175.186 97.7989 174.678C97.7989 174.678 99.6465 178.547 101.854 179.638" fill="white"/>
<path d="M96.8813 170.66C96.8813 170.66 94.674 166.06 92.4668 166.94C90.2595 167.821 91.3632 175.05 93.5704 175.781C94.3121 175.948 95.0831 175.935 95.8187 175.743C96.5544 175.551 97.2334 175.186 97.7989 174.678C97.7989 174.678 99.6465 178.547 101.854 179.638" stroke="#263238" stroke-width="1.04742" stroke-linecap="round" stroke-linejoin="round"/>
<path d="M82.3981 253.333L81.0216 270.966L76.9048 297.069C76.9048 297.069 86.5273 304.621 95.5051 304.621C104.483 304.621 106.951 303.48 106.951 303.48L111.985 276.695L117.02 304.856C117.02 304.856 126.94 303.257 133.512 301.645C138.082 300.373 142.413 298.362 146.334 295.693L133.053 261.121L130.176 243.289C130.176 243.289 115.296 244.666 106.355 245.124C97.4148 245.583 85.5229 243.289 85.5229 243.289L82.3981 253.333Z" fill="#0072E5" stroke="#263238" stroke-width="1.04742" stroke-linecap="round" stroke-linejoin="round"/>
<path d="M91.8345 182.875C91.8345 182.875 112.915 190.228 119.425 197.371C123.021 201.339 127.051 228.495 128.502 235.129C129.953 241.764 132.483 254.97 132.483 254.97C132.483 254.97 119.623 260.773 109.678 260.984C99.7335 261.195 80.6495 256.631 80.6495 256.631C80.6495 256.631 82.9187 227.206 82.9187 213.528C82.9187 199.851 83.1295 190.923 85.3988 186.57C85.4112 186.607 89.1436 182.453 91.8345 182.875Z" fill="#263238" stroke="#263238" stroke-width="1.04742" stroke-linecap="round" stroke-linejoin="round"/>
<path d="M86.2916 258.765C86.2916 258.765 87.4325 277.997 86.2916 285.103C85.4905 289.687 84.107 294.15 82.1748 298.383" stroke="#263238" stroke-width="1.04742" stroke-linecap="round" stroke-linejoin="round"/>
<path d="M86.7503 267.928C88.4721 267.337 90.0106 266.308 91.215 264.943C92.4193 263.578 93.2481 261.923 93.6201 260.141" stroke="#263238" stroke-width="1.04742" stroke-linecap="round" stroke-linejoin="round"/>
<path d="M78.0455 293.349C78.0455 293.349 89.5033 303.194 107.36 299.549" stroke="#263238" stroke-width="1.04742" stroke-linecap="round" stroke-linejoin="round"/>
<path d="M116.524 299.065C116.524 299.065 135.298 297.007 143.544 291.514" stroke="#263238" stroke-width="1.04742" stroke-linecap="round" stroke-linejoin="round"/>
<path d="M200.498 173.972C200.498 173.972 198.687 175.311 192.376 179.924C186.064 184.537 191.036 191.506 191.036 191.506C191.036 191.506 186.523 192.213 180.496 198.549C174.47 204.886 183.187 215.761 191.334 217.46C199.481 219.159 209.004 209.077 211.856 199.727C214.709 190.378 210.939 176.278 209.042 173.364C207.144 170.45 200.498 173.972 200.498 173.972Z" fill="#263238" stroke="#263238" stroke-width="1.04742" stroke-linecap="round" stroke-linejoin="round"/>
<path d="M224.406 172.731C224.406 172.731 227.543 167.883 224.703 160.852C221.864 153.821 213.382 150.609 205.123 155.706C202.371 157.343 200.236 159.844 199.05 162.819C197.863 165.795 197.693 169.078 198.564 172.161C199.37 175.41 203.437 180.407 204.292 180.481C205.148 180.556 212.576 183.259 217.648 180.891C222.719 178.522 224.406 172.731 224.406 172.731Z" fill="#263238" stroke="#263238" stroke-width="1.04742" stroke-linecap="round" stroke-linejoin="round"/>
<path d="M187.912 336.415C187.912 336.415 193.802 345.579 204.032 347.141C214.262 348.704 205.061 339.527 203.338 338.139C201.614 336.75 189.301 333.749 187.912 336.415Z" fill="#737373" stroke="#263238" stroke-width="1.04742" stroke-linecap="round" stroke-linejoin="round"/>
<path d="M242.411 338.771C242.411 338.771 253.658 341.536 252.79 343.966C251.922 346.397 242.758 346.211 237.401 344.822C232.044 343.433 227.01 341.362 227.704 339.118C228.398 336.873 242.411 338.771 242.411 338.771Z" fill="#737373" stroke="#263238" stroke-width="1.04742" stroke-linecap="round" stroke-linejoin="round"/>
<path d="M210.43 190.96C210.43 190.96 195.376 193.167 192.624 198.487C189.871 203.807 193.752 232.786 193.752 232.786C193.752 232.786 187.329 246.959 187.242 256.086C187.155 265.213 191.222 281.271 190.9 285.276C190.578 289.282 186.461 334.877 186.461 336.117C186.461 337.357 195.141 340.135 207.653 341.623C220.165 343.111 244.097 338.659 244.097 338.659C244.097 338.659 243.626 311.751 244.878 295.705C246.131 279.659 244.345 265.237 241.158 259.248C237.971 253.259 223.128 231.695 223.128 231.695C223.128 231.695 230.32 218.65 230.767 212.946C231.213 207.241 228.894 204.265 223.463 197.706C221.849 195.771 219.865 194.177 217.627 193.019C215.389 191.861 212.942 191.161 210.43 190.96Z" fill="#0072E5" stroke="#263238" stroke-width="1.04742" stroke-linecap="round" stroke-linejoin="round"/>
<path d="M223.166 231.707C223.166 231.707 230.358 218.662 230.804 212.958C231.251 207.254 228.932 204.277 223.5 197.718C223.24 197.395 222.967 197.11 222.694 196.812L222.496 196.999C216.916 206.113 198.464 221.687 192.971 226.226C193.393 230.107 193.752 232.786 193.752 232.786C193.752 232.786 187.329 246.959 187.242 256.086C187.345 260.244 187.759 264.389 188.482 268.486C201.515 261.046 218.95 247.12 228.386 239.358C225.435 234.993 223.166 231.707 223.166 231.707Z" fill="#737373" stroke="#263238" stroke-width="1.04742" stroke-linecap="round" stroke-linejoin="round"/>
<path d="M207.653 180.32C208.069 183.723 208.297 187.147 208.335 190.575C208.136 193.117 208.955 198.921 213.295 200.743C217.635 202.566 220.363 200.024 220.351 197.47C220.193 195.36 219.777 193.278 219.111 191.27L219.235 184.264C219.235 184.264 211.745 179.576 207.653 180.32Z" fill="white" stroke="#263238" stroke-width="1.04742" stroke-linecap="round" stroke-linejoin="round"/>
<path d="M203.759 175.77C203.759 175.77 200.573 172.967 200.473 177.01C200.374 181.052 204.094 182.391 204.913 182.664C205.603 182.758 206.304 182.585 206.872 182.18C206.872 182.18 212.65 187.141 217.288 187.463C221.926 187.785 223.811 185.64 224.902 177.22C225.993 168.801 217.301 160.257 217.301 160.257C217.301 160.257 209.86 173.972 203.759 175.77Z" fill="white" stroke="#263238" stroke-width="1.04742" stroke-linecap="round" stroke-linejoin="round"/>
<path d="M132.842 254.796C132.8 253.359 133.036 251.927 133.537 250.58C134.306 248.893 138.497 247.926 139.427 247.604C140.357 247.281 140.828 247.604 140.555 248.484C140.338 248.957 140.028 249.382 139.642 249.731C139.256 250.081 138.803 250.348 138.311 250.518C137.669 250.672 137.093 251.023 136.662 251.522C136.426 251.919 136.575 254.461 135.422 255.54C134.268 256.619 132.458 256.321 132.842 254.796Z" fill="white" stroke="#263238" stroke-width="1.04742" stroke-linecap="round" stroke-linejoin="round"/>
<path d="M227.878 217.509C227.878 217.509 212.997 215.562 206.438 225.953C199.878 236.345 187.614 272.702 164.884 278.555C142.155 284.408 135.657 237.635 122.017 238.937C109.021 240.177 99.9443 238.937 92.1445 253.222C87.9781 260.873 67.1456 344.413 57.2998 345.269C25.9396 348.009 5.75201 346.223 5.75201 346.223" stroke="#263238" stroke-width="3.14226" stroke-linecap="round" stroke-linejoin="round"/>
<path d="M92.8019 183.47C92.8019 183.47 89.367 182.093 84.7789 184.834C80.1908 187.574 67.8402 217.583 68.7578 220.794C69.6754 224.006 82.7205 229.958 90.049 232.017C97.3776 234.075 110.658 236.605 110.658 236.605C110.658 236.605 114.775 243.016 116.152 243.239C118.153 243.212 120.148 242.983 122.104 242.557C122.104 242.557 124.584 244.615 125.539 242.321C126.493 240.027 124.621 237.064 122.562 234.77C120.504 232.475 111.799 231.335 111.799 231.335L88.2014 215.066L98.1216 196.75" fill="#263238"/>
<path d="M92.8019 183.47C92.8019 183.47 89.367 182.093 84.7789 184.834C80.1908 187.574 67.8402 217.583 68.7578 220.794C69.6754 224.006 82.7205 229.958 90.049 232.017C97.3776 234.075 110.658 236.605 110.658 236.605C110.658 236.605 114.775 243.016 116.152 243.239C118.153 243.212 120.148 242.983 122.104 242.557C122.104 242.557 124.584 244.615 125.539 242.321C126.493 240.027 124.621 237.064 122.562 234.77C120.504 232.475 111.799 231.335 111.799 231.335L88.2014 215.066L98.1216 196.75" stroke="#263238" stroke-width="1.04742" stroke-linecap="round" stroke-linejoin="round"/>
<path d="M116.152 243.227C118.153 243.2 120.148 242.972 122.104 242.545C122.104 242.545 124.584 244.604 125.539 242.31C126.493 240.016 124.621 237.052 122.563 234.758C120.504 232.464 111.799 231.323 111.799 231.323L88.2014 215.066L91.7231 208.507C82.9065 203.013 77.0536 203.423 73.8915 204.526C70.7295 212.115 68.3238 219.307 68.7454 220.783C69.6631 223.995 82.7081 229.947 90.0367 232.005C97.3652 234.064 110.646 236.593 110.646 236.593C110.646 236.593 114.775 243.004 116.152 243.227Z" fill="white" stroke="#263238" stroke-width="1.04742" stroke-linecap="round" stroke-linejoin="round"/>
<path d="M263.652 218.017C262.648 207.192 257.452 198.301 251.252 194.767L251.054 192.56L234.859 194.06C225.745 194.903 219.458 207.415 220.809 221.998C222.161 236.58 230.643 247.703 239.757 246.798L255.952 245.298L255.741 243.091C261.197 238.527 264.657 228.843 263.652 218.017Z" fill="#263238" stroke="#263238" stroke-width="1.04742" stroke-linecap="round" stroke-linejoin="round"/>
<path d="M270.981 217.373C269.927 206.002 264.781 196.64 258.221 192.919L257.998 190.601L251.066 191.245C241.493 192.138 234.884 205.27 236.297 220.597C237.711 235.924 246.639 247.617 256.212 246.724L263.144 246.079L262.933 243.76C268.662 238.875 272.035 228.707 270.981 217.373Z" fill="white" stroke="#263238" stroke-width="1.04742" stroke-linecap="round" stroke-linejoin="round"/>
<path d="M277.925 216.691C279.351 232.017 272.742 245.149 263.156 246.042C253.571 246.935 244.655 235.229 243.204 219.915C241.753 204.6 248.388 191.394 257.961 190.563C267.534 189.732 276.487 201.376 277.925 216.691Z" fill="white" stroke="#263238" stroke-width="1.04742" stroke-linecap="round" stroke-linejoin="round"/>
<path d="M285.365 207.738L258.469 210.218C258.092 210.253 257.712 210.214 257.35 210.103C256.987 209.991 256.651 209.809 256.36 209.567C256.068 209.325 255.827 209.028 255.651 208.693C255.475 208.358 255.366 207.991 255.332 207.614C255.296 207.236 255.335 206.856 255.447 206.494C255.558 206.132 255.74 205.796 255.982 205.504C256.224 205.213 256.521 204.972 256.857 204.795C257.192 204.619 257.559 204.511 257.936 204.476L284.832 201.996C285.209 201.96 285.59 201.999 285.952 202.111C286.314 202.223 286.65 202.405 286.942 202.647C287.233 202.889 287.474 203.186 287.65 203.521C287.827 203.856 287.935 204.223 287.969 204.6C288.005 204.977 287.966 205.358 287.855 205.72C287.743 206.082 287.561 206.418 287.319 206.71C287.077 207.001 286.78 207.242 286.445 207.419C286.109 207.595 285.743 207.703 285.365 207.738Z" fill="#737373" stroke="#263238" stroke-width="1.04742" stroke-linecap="round" stroke-linejoin="round"/>
<path d="M287.361 229.053L260.465 231.533C260.088 231.569 259.708 231.53 259.346 231.418C258.984 231.307 258.647 231.125 258.356 230.883C258.064 230.641 257.823 230.344 257.647 230.008C257.471 229.673 257.362 229.306 257.328 228.929C257.292 228.552 257.331 228.171 257.443 227.809C257.554 227.447 257.736 227.111 257.978 226.819C258.22 226.528 258.517 226.287 258.853 226.111C259.188 225.934 259.555 225.826 259.932 225.792L286.828 223.312C287.589 223.246 288.344 223.482 288.931 223.97C289.519 224.457 289.89 225.156 289.966 225.916C290.001 226.293 289.962 226.673 289.851 227.035C289.739 227.397 289.557 227.734 289.315 228.025C289.073 228.317 288.776 228.558 288.441 228.734C288.106 228.91 287.739 229.019 287.361 229.053Z" fill="#737373" stroke="#263238" stroke-width="1.04742" stroke-linecap="round" stroke-linejoin="round"/>
<path d="M201.131 192.981C201.131 192.981 194.658 194.221 191.595 197.942C188.532 201.662 182.245 230.368 183.696 233.667C185.147 236.965 208.397 241.107 215.577 241.702C221.35 241.93 227.132 241.673 232.863 240.933C232.863 240.933 239.063 240.772 240.762 240.487C242.461 240.202 245.585 238.528 245.635 237.895C245.685 237.263 245.375 235.75 243.056 235.564C240.737 235.378 235.764 233.716 235.132 233.667C236.622 233.275 238.133 232.968 239.658 232.749C239.658 232.749 239.98 231.509 237.426 231.509C234.872 231.509 232.553 231.335 231.586 232.749C230.894 233.85 230.305 235.013 229.825 236.221C229.825 236.221 215.502 237.226 207.727 233.431C199.952 229.637 197.497 228.372 197.497 228.372L203.077 206.051" fill="#0072E5"/>
<path d="M201.131 192.981C201.131 192.981 194.658 194.221 191.595 197.942C188.532 201.662 182.245 230.368 183.696 233.667C185.147 236.965 208.397 241.107 215.577 241.702C221.35 241.93 227.132 241.673 232.863 240.933C232.863 240.933 239.063 240.772 240.762 240.487C242.461 240.202 245.585 238.528 245.635 237.895C245.685 237.263 245.375 235.75 243.056 235.564C240.737 235.378 235.764 233.716 235.132 233.667C236.622 233.275 238.133 232.968 239.658 232.749C239.658 232.749 239.98 231.509 237.426 231.509C234.872 231.509 232.553 231.335 231.586 232.749C230.894 233.85 230.305 235.013 229.825 236.221C229.825 236.221 215.502 237.226 207.727 233.431C199.952 229.637 197.497 228.372 197.497 228.372L203.077 206.051" stroke="#263238" stroke-width="1.04742" stroke-linecap="round" stroke-linejoin="round"/>
<path d="M240.724 240.523C242.448 240.238 245.548 238.564 245.598 237.932C245.647 237.299 245.337 235.786 243.018 235.6C240.7 235.414 235.727 233.753 235.095 233.703C236.585 233.311 238.096 233.005 239.621 232.785C239.621 232.785 239.943 231.545 237.389 231.545C234.834 231.545 232.515 231.372 231.548 232.785C230.857 233.887 230.267 235.049 229.787 236.258C229.787 236.258 215.465 237.262 207.69 233.467C199.915 229.673 197.46 228.408 197.46 228.408L200.858 214.768C196.435 212.948 191.767 211.79 187.006 211.333C184.688 220.683 182.79 231.694 183.658 233.653C185.097 236.952 208.36 241.094 215.539 241.689C221.313 241.917 227.095 241.66 232.825 240.92C232.825 240.92 239.038 240.808 240.724 240.523Z" fill="white" stroke="#263238" stroke-width="1.04742" stroke-linecap="round" stroke-linejoin="round"/>
<path d="M135.992 252.391C135.992 252.391 131.205 255.975 131.937 258.343C132.668 260.712 136.661 255.863 137.653 254.437C138.645 253.011 137.864 250.854 135.992 252.391Z" fill="white" stroke="#263238" stroke-width="1.04742" stroke-linecap="round" stroke-linejoin="round"/>
<path d="M136.934 255.603C136.934 255.603 132.16 259.186 132.879 261.555C133.598 263.923 137.616 259.075 138.596 257.649C139.575 256.223 138.807 254.04 136.934 255.603Z" fill="white" stroke="#263238" stroke-width="1.04742" stroke-linecap="round" stroke-linejoin="round"/>
<path d="M139.204 257.686C139.204 257.686 134.429 261.269 135.161 263.638C135.893 266.006 139.886 261.158 140.878 259.732C141.87 258.306 141.088 256.123 139.204 257.686Z" fill="white" stroke="#263238" stroke-width="1.04742" stroke-linecap="round" stroke-linejoin="round"/>
<path d="M141.076 259.372C141.076 259.372 136.946 262.025 137.641 263.985C138.335 265.944 141.745 262.236 142.601 261.095C143.457 259.955 142.762 258.119 141.076 259.372Z" fill="white" stroke="#263238" stroke-width="1.04742" stroke-linecap="round" stroke-linejoin="round"/>
</svg>
