<svg width="324" height="242" viewBox="0 0 324 242" fill="none" xmlns="http://www.w3.org/2000/svg">
<path d="M291.535 222.594H270.073V222.756H291.535V222.594Z" fill="#EBEBEB"/>
<path d="M214.631 224.356H209V224.518H214.631V224.356Z" fill="#EBEBEB"/>
<path d="M269.425 216.58H256.99V216.742H269.425V216.58Z" fill="#EBEBEB"/>
<path d="M61.9811 217.669H33.994V217.831H61.9811V217.669Z" fill="#EBEBEB"/>
<path d="M71.8567 217.669H67.7549V217.831H71.8567V217.669Z" fill="#EBEBEB"/>
<path d="M145.897 220.403H85.1925V220.565H145.897V220.403Z" fill="#EBEBEB"/>
<path d="M153.576 183.267H28.4536C27.4734 183.265 26.5339 182.874 25.8414 182.181C25.1489 181.487 24.76 180.547 24.76 179.567V3.67989C24.7685 2.70531 25.1612 1.77346 25.8528 1.08673C26.5444 0.400008 27.479 0.0138765 28.4536 0.012207H153.576C154.557 0.012207 155.498 0.402036 156.192 1.09594C156.886 1.78984 157.276 2.73096 157.276 3.71229V179.567C157.276 180.548 156.886 181.489 156.192 182.183C155.498 182.877 154.557 183.267 153.576 183.267ZM28.4536 0.141808C27.5164 0.143524 26.6181 0.517041 25.956 1.18037C25.2939 1.84371 24.922 2.74265 24.922 3.67989V179.567C24.922 180.504 25.2939 181.403 25.956 182.066C26.6181 182.729 27.5164 183.103 28.4536 183.105H153.576C154.514 183.103 155.413 182.73 156.076 182.066C156.739 181.403 157.112 180.504 157.114 179.567V3.67989C157.112 2.74206 156.739 1.84313 156.076 1.17998C155.413 0.516831 154.514 0.14352 153.576 0.141808H28.4536Z" fill="#EBEBEB"/>
<path d="M293.745 183.435H168.616C167.635 183.433 166.695 183.043 166.002 182.349C165.308 181.656 164.918 180.715 164.916 179.735V3.84803C164.918 2.86723 165.308 1.9271 166.002 1.23357C166.695 0.540043 167.635 0.149662 168.616 0.147949H293.745C294.724 0.151379 295.662 0.542722 296.353 1.23625C297.044 1.92978 297.432 2.86895 297.432 3.84803V179.735C297.432 180.714 297.044 181.653 296.353 182.346C295.662 183.04 294.724 183.431 293.745 183.435ZM168.616 0.309949C167.678 0.311662 166.779 0.684975 166.116 1.34812C165.453 2.01127 165.08 2.9102 165.078 3.84803V179.735C165.08 180.673 165.453 181.571 166.116 182.235C166.779 182.898 167.678 183.271 168.616 183.273H293.745C294.683 183.271 295.582 182.898 296.245 182.235C296.908 181.571 297.281 180.673 297.283 179.735V3.84803C297.281 2.9102 296.908 2.01127 296.245 1.34812C295.582 0.684975 294.683 0.311662 293.745 0.309949H168.616Z" fill="#EBEBEB"/>
<path d="M324 212.167H0V212.329H324V212.167Z" fill="#EBEBEB"/>
<path d="M49.0276 60.2762H107.795C115.325 60.2762 117.139 49.7397 110.03 47.2643L109.752 47.1736C117.618 40.6158 100.362 26.8005 81.6155 45.9294C83.08 39.5531 66.4135 41.86 61.3202 50.5626C59.5058 44.8473 43.6168 54.7747 49.0276 60.2762Z" fill="#E6E6E6"/>
<path d="M206.213 33.9997H241.451C241.451 33.9997 249.713 30.8893 248.644 22.6468C247.575 14.4042 235.101 21.273 235.101 21.273C235.101 21.273 238.879 9.771 226.8 13.0369C214.721 16.3028 213.542 27.7012 213.542 27.7012C213.542 27.7012 197.672 24.9277 206.213 33.9997Z" fill="#EBEBEB"/>
<path d="M238.587 57.1853H261.85C261.85 57.1853 267.306 55.1312 266.6 49.688C265.894 44.2448 257.658 48.7808 257.658 48.7808C257.658 48.7808 260.153 41.1927 252.176 43.344C249.927 43.9186 247.898 45.1435 246.342 46.8655C244.786 48.5874 243.772 50.73 243.428 53.0252C243.428 53.0252 232.95 51.2043 238.587 57.1853Z" fill="#EBEBEB"/>
<path d="M234.116 175.108L234.051 168.227V167.844L233.993 161.708V161.319L233.935 155.487V155.105L233.883 149.551V149.188L233.831 143.888V143.551L233.779 138.483V138.166L233.734 133.325V133.014L233.695 129.01C233.492 129.137 233.274 129.24 233.047 129.314V132.697H228.757L232.217 129.528C231.861 129.599 231.499 129.643 231.135 129.658L228.284 132.25L228.336 129.191C228.101 129.097 227.882 128.965 227.688 128.802L227.61 133.001V133.312L227.532 138.153V138.483L227.435 143.531V143.868L227.344 149.156V149.519L227.247 155.072V155.454L227.143 161.286V161.682L227.033 167.812V168.227L226.917 175.102L226.256 204.78L234.524 204.877L234.116 175.108ZM233.254 173.812L228.271 168.427H233.222L233.254 173.812ZM233.176 167.786H228.245L233.137 162.641L233.176 167.786ZM233.228 160.224L228.485 155.364H233.202L233.228 160.224ZM233.17 154.696H228.478L233.144 150.024L233.17 154.696ZM233.137 148.262L228.601 143.849H233.099L233.137 148.262ZM233.137 143.162H228.653L233.099 138.898L233.137 143.162ZM233.06 133.345V137.382L228.738 133.364L233.06 133.345ZM228.187 134.265L232.509 138.295H228.128L228.187 134.265ZM228.122 138.995H232.502L228.025 143.22L228.122 138.995ZM228.031 144.899L232.567 149.318H227.992L228.031 144.899ZM227.966 149.992H232.561L227.902 154.644L227.966 149.992ZM227.876 156.426L232.626 161.306H227.811L227.876 156.426ZM227.83 161.96H232.632L227.733 167.08L227.83 161.96ZM227.798 168.738L232.781 174.143H227.72L227.798 168.738Z" fill="#EBEBEB"/>
<path d="M233.623 128.277H233.293L233.053 128.057L231.109 129.871C231.47 129.853 231.83 129.81 232.185 129.741L232.995 129.003V129.502C233.222 129.425 233.439 129.323 233.643 129.197L233.623 128.277ZM227.623 128.316V129.042C227.821 129.199 228.039 129.33 228.271 129.43V128.316H227.623Z" fill="#EBEBEB"/>
<path d="M234.576 127.739C234.599 127.919 234.58 128.101 234.52 128.272C234.461 128.443 234.362 128.598 234.233 128.724L233.999 128.945C233.876 129.043 233.747 129.132 233.61 129.21C233.407 129.336 233.189 129.438 232.962 129.515C232.701 129.621 232.43 129.701 232.152 129.755C231.797 129.823 231.438 129.867 231.077 129.884H230.591C229.796 129.886 229.009 129.727 228.277 129.418C228.045 129.317 227.827 129.186 227.629 129.029L227.571 128.983L227.357 128.776C227.232 128.655 227.138 128.504 227.084 128.338C227.03 128.172 227.017 127.996 227.046 127.824L227.539 125.063H226.243L230.779 122.763L235.503 124.914H234.174L234.576 127.739Z" fill="#EBEBEB"/>
<path d="M255.39 131.2L255.565 204.793H260.904H291.943H297.283L297.516 131.2H255.39Z" fill="#EBEBEB"/>
<path d="M263.535 121.836L263.555 138.243H266.859H286.073H289.377L289.41 121.836H263.535Z" fill="#EBEBEB"/>
<path d="M263.503 138.243H258.047L258.04 133.332H263.496L263.503 138.243Z" fill="#FAFAFA"/>
<path d="M273.968 133.325H268.512V138.244H273.968V133.325Z" fill="#FAFAFA"/>
<path d="M284.44 133.325H278.983V138.244H284.44V133.325Z" fill="#FAFAFA"/>
<path d="M294.905 138.243H289.449L289.462 133.332H294.918L294.905 138.243Z" fill="#F0F0F0"/>
<path d="M263.431 147.205H258.105L258.092 142.41H263.425L263.431 147.205Z" fill="#F0F0F0"/>
<path d="M273.884 142.41H268.551V147.205H273.884V142.41Z" fill="#F0F0F0"/>
<path d="M284.342 142.41H279.009V147.205H284.342V142.41Z" fill="#FAFAFA"/>
<path d="M294.788 147.205H289.455L289.468 142.41H294.801L294.788 147.205Z" fill="#FAFAFA"/>
<path d="M263.386 155.94H258.183L258.17 151.262H263.38L263.386 155.94Z" fill="#F0F0F0"/>
<path d="M273.832 151.262H268.622V155.94H273.832V151.262Z" fill="#FAFAFA"/>
<path d="M284.271 151.262H279.061V155.94H284.271V151.262Z" fill="#FAFAFA"/>
<path d="M273.936 126.191H268.376V131.206H273.936V126.191Z" fill="#FAFAFA"/>
<path d="M284.42 126.191H278.854V131.206H284.42V126.191Z" fill="#F0F0F0"/>
<path d="M294.704 155.94H289.5L289.507 151.262H294.717L294.704 155.94Z" fill="#F0F0F0"/>
<path d="M263.373 164.475H258.286L258.273 159.906H263.367L263.373 164.475Z" fill="#FAFAFA"/>
<path d="M273.799 159.906H268.713V164.475H273.799V159.906Z" fill="#F0F0F0"/>
<path d="M284.232 164.475H279.146L279.152 159.906H284.239L284.232 164.475Z" fill="#F0F0F0"/>
<path d="M294.659 164.475H289.572L289.585 159.906H294.672L294.659 164.475Z" fill="#FAFAFA"/>
<path d="M263.6 174.065H257.93L257.917 168.978H263.593L263.6 174.065Z" fill="#F0F0F0"/>
<path d="M274.007 174.065H268.343L268.337 168.978H274.013L274.007 174.065Z" fill="#FAFAFA"/>
<path d="M284.42 174.065H278.75V168.978H284.427L284.42 174.065Z" fill="#FAFAFA"/>
<path d="M294.827 174.065H289.157L289.17 168.978H294.84L294.827 174.065Z" fill="#F0F0F0"/>
<path d="M263.632 182.165H258.092L258.079 177.201H263.626L263.632 182.165Z" fill="#F0F0F0"/>
<path d="M274.033 177.201H268.492V182.165H274.033V177.201Z" fill="#FAFAFA"/>
<path d="M284.446 177.201H278.906V182.165H284.446V177.201Z" fill="#F0F0F0"/>
<path d="M294.846 182.165H289.306L289.319 177.201H294.866L294.846 182.165Z" fill="#FAFAFA"/>
<path d="M263.516 191.282H258.111L258.105 186.448H263.509L263.516 191.282Z" fill="#FAFAFA"/>
<path d="M273.903 186.448H268.499V191.282H273.903V186.448Z" fill="#FAFAFA"/>
<path d="M284.291 186.448H278.886V191.282H284.291V186.448Z" fill="#F0F0F0"/>
<path d="M294.672 191.282H289.274L289.28 186.448H294.684L294.672 191.282Z" fill="#F0F0F0"/>
<path d="M263.516 199.57H258.241L258.234 194.859H263.509L263.516 199.57Z" fill="#F0F0F0"/>
<path d="M294.652 199.57H289.384L289.39 194.859H294.665L294.652 199.57Z" fill="#FAFAFA"/>
<path d="M284.316 194.859H268.57L268.602 196.045H269.037L269.043 204.793H270.618L270.611 196.045H282.301L282.288 204.793H283.863L283.876 196.045H284.349L284.316 194.859Z" fill="#F5F5F5"/>
<path d="M276.521 204.793H270.689V196.045H276.527L276.521 204.793Z" fill="#E6E6E6"/>
<path d="M282.217 204.793H276.378L276.385 196.045H282.23L282.217 204.793Z" fill="#EBEBEB"/>
<path d="M255.448 154.612L255.565 204.793H248.871H209.952H203.252L202.772 154.612H255.448Z" fill="#F5F5F5"/>
<path d="M245.436 165.764H251.968L251.949 159.906H245.417L245.436 165.764Z" fill="#E6E6E6"/>
<path d="M232.405 165.764H238.937L238.911 159.906H232.373L232.405 165.764Z" fill="#E6E6E6"/>
<path d="M219.374 165.764H225.906L225.867 159.906H219.335L219.374 165.764Z" fill="#E6E6E6"/>
<path d="M206.343 165.764H212.874L212.823 159.906H206.291L206.343 165.764Z" fill="#E6E6E6"/>
<path d="M245.19 177.201H252.228L252.208 170.896H245.164L245.19 177.201Z" fill="#E6E6E6"/>
<path d="M232.185 177.201H239.222L239.19 170.896H232.146L232.185 177.201Z" fill="#E6E6E6"/>
<path d="M219.173 177.201H226.21L226.171 170.896H219.128L219.173 177.201Z" fill="#E6E6E6"/>
<path d="M206.168 177.201H213.205L213.153 170.896H206.109L206.168 177.201Z" fill="#E6E6E6"/>
<path d="M245.372 187.66H252.202L252.189 181.549H245.352L245.372 187.66Z" fill="#E6E6E6"/>
<path d="M232.379 187.66H239.209L239.183 181.549H232.347L232.379 187.66Z" fill="#E6E6E6"/>
<path d="M219.387 187.66H226.217L226.178 181.549H219.342L219.387 187.66Z" fill="#E6E6E6"/>
<path d="M206.388 187.66H213.218L213.173 181.549H206.336L206.388 187.66Z" fill="#E6E6E6"/>
<path d="M245.521 198.397H252.143L252.13 192.474H245.495L245.521 198.397Z" fill="#E6E6E6"/>
<path d="M206.589 198.397H213.218L213.166 192.474H206.537L206.589 198.397Z" fill="#E6E6E6"/>
<path d="M219.076 192.474H239.572L239.579 194.263H238.27L238.321 204.793H236.423L236.371 194.263H222.309L222.381 204.793H220.488L220.411 194.263H219.095L219.076 192.474Z" fill="#F5F5F5"/>
<path d="M229.45 204.793H236.468L236.416 194.263H229.385L229.45 204.793Z" fill="#E6E6E6"/>
<path d="M222.335 204.793H229.353L229.295 194.263H222.264L222.335 204.793Z" fill="#EBEBEB"/>
<path d="M98.5608 111.656V109.297C98.5506 109.23 98.5165 109.169 98.4648 109.124C98.4131 109.08 98.3471 109.055 98.2789 109.055C98.2107 109.055 98.1448 109.08 98.0931 109.124C98.0414 109.169 98.0073 109.23 97.9971 109.297V111.889C98.0001 111.963 98.0303 112.033 98.0817 112.085C98.1331 112.138 98.2022 112.17 98.2757 112.175C98.5003 112.175 98.7198 112.241 98.9064 112.366C99.093 112.491 99.2383 112.669 99.324 112.876C99.4096 113.084 99.4317 113.312 99.3874 113.532C99.3431 113.752 99.2345 113.954 99.0752 114.113C98.916 114.271 98.7133 114.379 98.4929 114.422C98.2725 114.465 98.0443 114.441 97.8372 114.354C97.6301 114.268 97.4535 114.121 97.3297 113.934C97.2058 113.747 97.1404 113.527 97.1417 113.302C97.1417 112.946 96.5455 112.946 96.5779 113.302C96.7205 114.708 98.3599 115.635 99.4745 114.507C99.6883 114.287 99.8382 114.012 99.9082 113.713C99.9782 113.413 99.9656 113.101 99.8718 112.808C99.778 112.515 99.6065 112.254 99.3756 112.051C99.1448 111.848 98.8631 111.712 98.5608 111.656Z" fill="#EBEBEB"/>
<path d="M57.024 94.6976V99.8038L51.6391 94.4189L51.3734 94.6846H50.9976V143.285H57.7756V94.6846L57.024 94.6976ZM51.7492 131.776L56.4926 136.52H51.7492V131.776ZM51.7492 119.717L56.4926 124.46H51.7492V119.717ZM51.7492 107.664L56.4926 112.407H51.7492V107.664ZM51.7492 95.6048L56.4926 100.355H51.7492V95.6048ZM56.4926 101.1L51.7492 105.85V101.1H56.4926ZM57.024 101.631V106.381H52.2806L57.024 101.631ZM56.4926 113.159L51.7492 117.902V113.159H56.4926ZM57.024 113.69V118.434H52.2806L57.024 113.69ZM56.4926 125.212L51.7492 129.962V125.212H56.4926ZM57.024 125.724V130.474H52.2806L57.024 125.724ZM56.4926 137.252L51.7492 141.995V137.252H56.4926ZM52.2806 142.572L57.024 137.803V142.572H52.2806ZM57.024 135.988L52.2806 131.245H57.024V135.988ZM57.024 123.929L52.2806 119.186H57.024V123.929ZM57.024 111.876L52.2806 107.133H57.024V111.876Z" fill="#F0F0F0"/>
<path d="M51.7493 78.6919V88.1397H52.488V84.5304L56.376 88.4184L56.6417 88.1527H57.024V78.6919H51.7493ZM55.728 79.4436L52.488 82.6836V79.4436H55.728ZM56.2593 87.2196L53.0193 83.9796H56.2593V87.2196ZM53.0193 83.2344L56.2593 79.9944V83.2344H53.0193Z" fill="#F0F0F0"/>
<path d="M39.3725 94.6978H30.3329V103.737H39.3725V94.6978Z" fill="#E6E6E6"/>
<path d="M98.3988 107.742H97.8933V90.3628L55.7928 76.3984H53.0128L30.4689 90.3887L30.2032 89.9675L52.8638 75.8994H55.877L55.9159 75.9124L98.3988 89.9999V107.742Z" fill="#E6E6E6"/>
<path d="M93.2472 95.0928H93.7656L99.0533 89.8052H29.957V95.0734H93.2472V95.0928ZM93.9989 90.5568H97.2389L93.9989 93.7968V90.5568ZM30.7087 94.3217V91.0817L33.9487 94.3217H30.7087ZM34.4801 93.7904L31.2401 90.5504H34.4801V93.7904ZM35.2318 90.5504H38.4718L35.2318 93.7904V90.5504ZM39.0031 94.3153H35.7631L39.0031 91.0753V94.3153ZM39.7548 94.3153V91.0753L42.9948 94.3153H39.7548ZM43.5197 93.7839L40.2797 90.5439H43.5197V93.7839ZM44.2714 90.5439H47.5114L44.2714 93.7839V90.5439ZM48.0427 94.3088H44.8027L48.0427 91.0688V94.3088ZM48.7944 94.3088V91.0688L52.0344 94.3088H48.7944ZM52.5658 93.7774L49.3258 90.5374H52.5658V93.7774ZM53.3174 90.5374H56.5574L53.3174 93.7774V90.5374ZM57.0823 94.3023H53.8423L57.0823 91.0623V94.3023ZM57.834 94.3023V91.0623L61.074 94.3023H57.834ZM61.6054 93.7709L58.3654 90.5309H61.6054V93.7709ZM62.357 90.5309H65.597L62.357 93.7709V90.5309ZM66.1219 94.2958H62.8819L66.1219 91.0558V94.2958ZM66.8736 94.2958V91.0558L70.1136 94.2958H66.8736ZM70.645 93.7644L67.4049 90.5244H70.645V93.7644ZM71.3966 90.5244H74.6366L71.3966 93.7644V90.5244ZM75.168 94.2893H71.928L75.168 91.0493V94.2893ZM75.9197 94.2893V91.0493L79.1597 94.2893H75.9197ZM79.6846 93.758L76.4446 90.518H79.6846V93.758ZM80.4362 90.518H83.6762L80.4362 93.758V90.518ZM84.2076 94.2828H80.9676L84.2076 91.0428V94.2828ZM84.9593 90.518H88.1993L84.9593 93.758V90.518ZM88.7306 94.2828H85.4906L88.7306 91.0428V94.2828ZM89.4823 94.2828V91.0428L92.7223 94.2828H89.4823ZM90.0137 90.518H93.2537V93.758L90.0137 90.518Z" fill="#F0F0F0"/>
<path d="M61.1193 96.7518H47.2133L47.7252 90.9198C47.7902 90.1572 48.1393 89.4469 48.7034 88.9296C49.2675 88.4123 50.0054 88.1258 50.7708 88.127H57.3933C58.1436 88.1282 58.8674 88.4046 59.4275 88.9039C59.9877 89.4031 60.3452 90.0904 60.4325 90.8356L61.1193 96.7518Z" fill="#F0F0F0"/>
<path d="M52.1251 90.5376H49.4553V93.2074H52.1251V90.5376Z" fill="#FAFAFA"/>
<path d="M55.5012 90.5376H52.8314V93.2074H55.5012V90.5376Z" fill="#FAFAFA"/>
<path d="M58.8773 90.5376H56.2075V93.2074H58.8773V90.5376Z" fill="#FAFAFA"/>
<path d="M56.2076 77.2471C56.2076 77.6073 56.1008 77.9593 55.9007 78.2588C55.7006 78.5582 55.4162 78.7916 55.0835 78.9294C54.7508 79.0672 54.3847 79.1033 54.0314 79.033C53.6782 78.9628 53.3538 78.7894 53.0991 78.5347C52.8445 78.28 52.671 77.9556 52.6008 77.6024C52.5305 77.2492 52.5666 76.883 52.7044 76.5503C52.8422 76.2176 53.0756 75.9332 53.3751 75.7331C53.6745 75.5331 54.0265 75.4263 54.3867 75.4263C54.8696 75.4263 55.3327 75.6181 55.6742 75.9596C56.0157 76.3011 56.2076 76.7642 56.2076 77.2471Z" fill="#E6E6E6"/>
<path d="M98.2757 110.853C98.0714 110.853 97.8692 110.812 97.6805 110.734C97.4918 110.656 97.3204 110.541 97.176 110.397C97.0316 110.253 96.917 110.081 96.8388 109.893C96.7607 109.704 96.7205 109.502 96.7205 109.297V107.742H99.8309V109.297C99.8309 109.502 99.7906 109.704 99.7125 109.893C99.6343 110.081 99.5198 110.253 99.3754 110.397C99.2309 110.541 99.0595 110.656 98.8708 110.734C98.6821 110.812 98.4799 110.853 98.2757 110.853Z" fill="#E6E6E6"/>
<path d="M24.6499 131.2L25.8552 204.793H31.2012H62.2404H67.5799L66.7829 131.2H24.6499Z" fill="#F5F5F5"/>
<path d="M27.2808 133.332L27.4298 142.287L27.4687 144.743L27.5076 147.205H32.9702L32.9313 144.743L32.8989 142.287L32.7564 133.332H27.2808Z" fill="#E6E6E6"/>
<path d="M37.7524 133.332L37.8885 142.287L37.9209 144.743L37.9598 147.205H43.4224L43.39 144.743L43.3576 142.287L43.2345 133.332H37.7524Z" fill="#E6E6E6"/>
<path d="M48.2242 133.332L48.3474 142.287L48.3798 144.743L48.4122 147.205H53.8748L53.8489 144.743L53.8165 142.287L53.7063 133.332H48.2242Z" fill="#E6E6E6"/>
<path d="M58.7023 133.332L58.806 142.287L58.8513 146.084L58.8643 147.205H64.3334L64.3204 146.084L64.2751 142.287L64.1779 133.332H58.7023Z" fill="#E6E6E6"/>
<path d="M27.6113 151.262L27.7604 160.211L27.7992 162.667L27.8381 165.122H33.3072L33.2748 162.667L33.236 160.211L33.0999 151.262H27.6113Z" fill="#E6E6E6"/>
<path d="M38.057 151.262L38.1866 160.211L38.2384 163.671L38.2579 165.122H43.7335L43.714 163.671L43.6687 160.211L43.5391 151.262H38.057Z" fill="#E6E6E6"/>
<path d="M48.4963 151.262L48.6195 160.211L48.6519 162.667L48.6843 165.122H54.1599L54.1275 162.667L54.0951 160.211L53.9849 151.262H48.4963Z" fill="#E6E6E6"/>
<path d="M58.942 151.262L59.0522 160.211L59.0781 162.667L59.1105 165.122H64.5796L64.5537 162.667L64.5278 160.211L64.4306 151.262H58.942Z" fill="#E6E6E6"/>
<path d="M27.9222 168.978L28.0648 177.888L28.1102 180.337L28.149 182.78H33.6117L33.5728 180.337L33.5339 177.888L33.4043 168.978H27.9222Z" fill="#E6E6E6"/>
<path d="M38.3422 168.978L38.4718 177.888L38.5042 180.337L38.543 182.78H44.0057L43.9733 180.337L43.9409 177.888L43.8178 168.978H38.3422Z" fill="#E6E6E6"/>
<path d="M48.7555 168.978L48.8721 177.888L48.9045 180.337L48.9369 182.78H54.4061L54.3737 180.337L54.3413 177.888L54.2311 168.978H48.7555Z" fill="#E6E6E6"/>
<path d="M59.1753 168.978L59.279 177.888L59.3179 181.271L59.3373 182.78H64.7999L64.787 181.271L64.7481 177.888L64.6509 168.978H59.1753Z" fill="#E6E6E6"/>
<path d="M62.208 186.448H59.5059H54.445H49.0342H43.9733H38.569H28.0973L28.175 191.282H38.6403H44.0381H49.099H54.5033H59.5642H62.2663H64.9685L64.9166 186.448H62.208Z" fill="#E6E6E6"/>
<path d="M54.4384 194.859H38.692L38.6791 196.045H39.1521L39.2817 204.793H40.8564L40.7268 196.045H52.4167L52.5268 204.793H54.095L53.9913 196.045H54.4255L54.4384 194.859Z" fill="#FAFAFA"/>
<path d="M46.7597 204.793H40.9277L40.7981 196.045H46.6431L46.7597 204.793Z" fill="#E6E6E6"/>
<path d="M52.4491 204.793H46.6171L46.5005 196.045H52.339L52.4491 204.793Z" fill="#E6E6E6"/>
<path d="M106.518 135.444L106.991 204.793H101.956H72.7121H67.6771L66.8153 135.444H106.518Z" fill="#E6E6E6"/>
<path d="M92.4955 187.66H94.6404H104.263L104.276 189.883L104.289 192.105L104.354 200.154H99.3708L99.306 191.879H94.446H92.5279H89.7286L89.6897 187.66H92.4955Z" fill="#F0F0F0"/>
<path d="M73.5092 187.66H75.4272H84.564L84.6094 191.879H75.1551L75.2523 200.154H70.2692L70.1784 192.105L70.1396 188.891L70.1201 187.66H73.5092Z" fill="#F0F0F0"/>
<path d="M80.4686 195.449H94.0183L94.0312 196.635H94.1803L94.2451 204.793H92.7806L92.7093 196.635H81.8099L81.8942 204.793H80.4297L80.339 196.635H80.4815L80.4686 195.449Z" fill="#F5F5F5"/>
<path d="M87.2792 204.793H92.7224L92.6511 196.635H87.2014L87.2792 204.793Z" fill="#EBEBEB"/>
<path d="M81.9525 204.793H87.3957L87.318 196.635H81.8683L81.9525 204.793Z" fill="#E0E0E0"/>
<path d="M88.9769 138.243H104.082L104.173 151.261H89.1001L88.9769 138.243Z" fill="#F0F0F0"/>
<path d="M69.3943 138.243H84.4992L84.6223 151.261H69.5498L69.3943 138.243Z" fill="#F0F0F0"/>
<path d="M89.3981 154.612H103.855L103.952 167.053H89.5082L89.3981 154.612Z" fill="#F0F0F0"/>
<path d="M69.8479 154.612H84.3048L84.4344 167.053H69.9905L69.8479 154.612Z" fill="#F0F0F0"/>
<path d="M89.5471 171.531H104.088L104.179 184.005H89.6573L89.5471 171.531Z" fill="#F0F0F0"/>
<path d="M70.0553 171.531H84.5964L84.7195 184.005H70.1979L70.0553 171.531Z" fill="#F0F0F0"/>
<path d="M162 241.075C231.389 241.075 287.641 237.79 287.641 233.739C287.641 229.688 231.389 226.404 162 226.404C92.6105 226.404 36.3593 229.688 36.3593 233.739C36.3593 237.79 92.6105 241.075 162 241.075Z" fill="#F5F5F5"/>
<path d="M104.218 19.2061L106.635 22.3294H217.352L219.789 19.2061H104.218Z" fill="#0072E5"/>
<g opacity="0.4">
<path d="M104.218 19.2061L106.635 22.3294H217.352L219.789 19.2061H104.218Z" fill="black"/>
</g>
<path d="M217.378 15.1816H106.408V211.901H217.378V15.1816Z" fill="#0072E5"/>
<g opacity="0.4">
<path d="M217.378 15.1816H106.408V211.901H217.378V15.1816Z" fill="white"/>
</g>
<g opacity="0.8">
<path d="M110.905 20.0223C110.948 20.3081 110.929 20.5997 110.849 20.8774C110.769 21.1552 110.63 21.4125 110.442 21.6319C110.254 21.8513 110.021 22.0277 109.759 22.1491C109.497 22.2705 109.211 22.3341 108.922 22.3356C108.301 22.3112 107.709 22.0641 107.254 21.6394C106.8 21.2147 106.513 20.6407 106.447 20.0223C106.402 19.7346 106.42 19.4407 106.499 19.1606C106.579 18.8805 106.717 18.6208 106.906 18.3993C107.095 18.1778 107.33 17.9997 107.594 17.8772C107.858 17.7547 108.145 17.6907 108.436 17.6895C109.06 17.716 109.653 17.9666 110.106 18.3951C110.56 18.8236 110.843 19.4014 110.905 20.0223Z" fill="#F0F0F0"/>
<path d="M114.994 20.0223C115.034 20.3097 115.012 20.6023 114.929 20.8805C114.846 21.1586 114.705 21.4159 114.515 21.635C114.325 21.8541 114.09 22.0299 113.826 22.1508C113.562 22.2716 113.275 22.3346 112.985 22.3356C112.368 22.3051 111.783 22.0553 111.333 21.6312C110.884 21.207 110.602 20.6365 110.536 20.0223C110.493 19.7339 110.513 19.4397 110.594 19.1596C110.675 18.8795 110.815 18.6201 111.005 18.3989C111.195 18.1777 111.43 17.9999 111.694 17.8775C111.959 17.7551 112.247 17.6909 112.538 17.6895C113.159 17.7191 113.749 17.9709 114.2 18.3992C114.651 18.8274 114.933 19.4035 114.994 20.0223Z" fill="#F0F0F0"/>
<path d="M119.076 20.0223C119.114 20.3104 119.09 20.6033 119.006 20.8814C118.922 21.1596 118.779 21.4166 118.588 21.6354C118.397 21.8543 118.161 22.0299 117.897 22.1506C117.632 22.2713 117.345 22.3344 117.055 22.3356C116.437 22.3128 115.848 22.0652 115.399 21.6393C114.951 21.2134 114.673 20.6384 114.618 20.0223C114.579 19.7328 114.601 19.4382 114.684 19.1581C114.768 18.8781 114.91 18.619 115.101 18.3982C115.292 18.1774 115.529 18 115.794 17.8778C116.059 17.7556 116.348 17.6914 116.64 17.6895C117.261 17.7128 117.852 17.9631 118.301 18.393C118.75 18.823 119.026 19.4026 119.076 20.0223Z" fill="#F0F0F0"/>
<path d="M123.159 20.0223C123.193 20.3113 123.165 20.6042 123.078 20.8819C122.991 21.1596 122.847 21.4158 122.654 21.634C122.462 21.8522 122.225 22.0275 121.961 22.1483C121.696 22.2692 121.409 22.333 121.118 22.3356C120.502 22.3123 119.916 22.064 119.47 21.6377C119.025 21.2115 118.751 20.6367 118.701 20.0223C118.665 19.7314 118.691 19.4362 118.778 19.1562C118.864 18.8761 119.009 18.6175 119.202 18.3973C119.395 18.177 119.633 18.0001 119.9 17.8781C120.166 17.7561 120.455 17.6918 120.748 17.6895C121.367 17.7134 121.955 17.9646 122.4 18.3951C122.844 18.8255 123.115 19.4049 123.159 20.0223Z" fill="#F0F0F0"/>
<path d="M127.248 20.0223C127.278 20.3123 127.248 20.6056 127.159 20.8833C127.07 21.1611 126.923 21.417 126.729 21.6348C126.535 21.8527 126.298 22.0275 126.032 22.1482C125.767 22.2689 125.479 22.3327 125.187 22.3356C124.573 22.3133 123.988 22.0648 123.546 21.6378C123.103 21.2109 122.834 20.6355 122.79 20.0223C122.756 19.7307 122.784 19.4352 122.872 19.1552C122.96 18.8752 123.106 18.6167 123.3 18.3967C123.494 18.1767 123.733 18.0001 124 17.8782C124.267 17.7564 124.557 17.6921 124.85 17.6895C125.468 17.7108 126.056 17.9616 126.499 18.3928C126.943 18.8241 127.209 19.405 127.248 20.0223Z" fill="#F0F0F0"/>
<path d="M131.33 20.0223C131.358 20.3134 131.325 20.6071 131.233 20.8848C131.142 21.1626 130.994 21.4182 130.798 21.6357C130.603 21.8532 130.364 22.0277 130.098 22.1481C129.831 22.2686 129.542 22.3325 129.25 22.3356C128.637 22.3143 128.054 22.0656 127.614 21.6379C127.175 21.2103 126.91 20.6344 126.872 20.0223C126.841 19.7296 126.872 19.4338 126.962 19.1537C127.053 18.8737 127.2 18.6156 127.396 18.3959C127.592 18.1763 127.832 18 128.099 17.8784C128.367 17.7567 128.658 17.6924 128.952 17.6895C129.569 17.7097 130.155 17.9607 130.595 18.3927C131.036 18.8246 131.298 19.4062 131.33 20.0223Z" fill="#F0F0F0"/>
<path d="M135.432 20.0223C135.457 20.3144 135.421 20.6085 135.328 20.8863C135.234 21.1641 135.084 21.4195 134.887 21.6366C134.689 21.8537 134.45 22.0278 134.182 22.1481C133.915 22.2684 133.626 22.3322 133.332 22.3356C132.721 22.3154 132.14 22.0665 131.703 21.6381C131.266 21.2098 131.006 20.6332 130.974 20.0223C130.945 19.7289 130.978 19.4328 131.069 19.1527C131.161 18.8727 131.31 18.6147 131.507 18.3954C131.704 18.176 131.944 17.9999 132.213 17.8784C132.481 17.7569 132.772 17.6925 133.067 17.6895C133.682 17.7099 134.267 17.9613 134.705 18.3936C135.144 18.8259 135.403 19.4073 135.432 20.0223Z" fill="#F0F0F0"/>
<path d="M139.501 20.0223C139.524 20.3159 139.485 20.611 139.389 20.8893C139.292 21.1675 139.14 21.423 138.94 21.6399C138.741 21.8568 138.5 22.0304 138.23 22.1501C137.961 22.2698 137.671 22.3329 137.376 22.3356C136.766 22.3165 136.186 22.0674 135.752 21.6384C135.318 21.2093 135.063 20.6319 135.037 20.0223C135.012 19.7281 135.048 19.432 135.142 19.1523C135.237 18.8726 135.388 18.6153 135.586 18.3965C135.784 18.1777 136.025 18.002 136.294 17.8804C136.563 17.7587 136.854 17.6937 137.149 17.6895C137.764 17.7071 138.349 17.958 138.786 18.3912C139.223 18.8244 139.479 19.4075 139.501 20.0223Z" fill="#F0F0F0"/>
<path d="M143.584 20.0223C143.603 20.3158 143.563 20.6103 143.465 20.8877C143.367 21.1652 143.213 21.4198 143.014 21.6362C142.815 21.8526 142.573 22.0261 142.305 22.1464C142.036 22.2666 141.746 22.331 141.452 22.3356C140.843 22.3179 140.263 22.0688 139.831 21.6391C139.399 21.2094 139.147 20.6313 139.126 20.0223C139.103 19.7266 139.142 19.4295 139.239 19.1493C139.336 18.8691 139.49 18.6118 139.69 18.3932C139.89 18.1746 140.133 17.9994 140.404 17.8784C140.675 17.7574 140.967 17.6931 141.264 17.6895C141.876 17.7075 142.457 17.9595 142.889 18.3935C143.32 18.8275 143.569 19.4104 143.584 20.0223Z" fill="#F0F0F0"/>
<path d="M147.673 20.0223C147.688 20.3171 147.645 20.6122 147.544 20.8897C147.443 21.1673 147.287 21.4216 147.086 21.6376C146.884 21.8535 146.641 22.0266 146.371 22.1466C146.101 22.2665 145.81 22.3308 145.515 22.3356C144.907 22.3208 144.328 22.0721 143.898 21.6412C143.468 21.2104 143.221 20.6306 143.208 20.0223C143.189 19.7261 143.23 19.4291 143.329 19.1493C143.428 18.8695 143.582 18.6127 143.784 18.3946C143.985 18.1764 144.228 18.0014 144.499 17.8802C144.77 17.759 145.063 17.6941 145.359 17.6895C145.972 17.7044 146.554 17.9556 146.985 18.3904C147.417 18.8252 147.663 19.41 147.673 20.0223Z" fill="#F0F0F0"/>
<path d="M151.755 20.0223C151.768 20.3176 151.722 20.6125 151.619 20.8897C151.517 21.1669 151.359 21.4208 151.157 21.6363C150.955 21.8519 150.712 22.0248 150.441 22.1449C150.171 22.265 149.88 22.3298 149.584 22.3356C148.978 22.319 148.402 22.0691 147.976 21.6381C147.55 21.2071 147.307 20.6283 147.297 20.0223C147.28 19.7251 147.324 19.4277 147.425 19.1478C147.526 18.868 147.683 18.6114 147.886 18.3935C148.088 18.1757 148.333 18.001 148.605 17.88C148.877 17.7591 149.17 17.6942 149.468 17.6895C150.077 17.7046 150.657 17.9567 151.084 18.3922C151.511 18.8276 151.752 19.4123 151.755 20.0223Z" fill="#F0F0F0"/>
<path d="M155.838 20.0223C155.848 20.3185 155.799 20.6139 155.694 20.8912C155.59 21.1685 155.431 21.4222 155.227 21.6375C155.023 21.8527 154.778 22.0253 154.507 22.1452C154.236 22.2651 153.944 22.3298 153.647 22.3356C153.043 22.3188 152.469 22.0683 152.046 21.6368C151.623 21.2053 151.384 20.6265 151.379 20.0223C151.366 19.7244 151.413 19.4269 151.517 19.1473C151.62 18.8678 151.779 18.6118 151.983 18.3944C152.187 18.177 152.433 18.0027 152.705 17.8816C152.978 17.7606 153.271 17.6952 153.57 17.6895C154.178 17.703 154.757 17.9552 155.181 18.3916C155.605 18.828 155.841 19.4136 155.838 20.0223Z" fill="#F0F0F0"/>
<path d="M159.926 20.0223C159.934 20.3195 159.883 20.6153 159.776 20.8927C159.669 21.1701 159.508 21.4236 159.303 21.6386C159.097 21.8536 158.852 22.0259 158.579 22.1455C158.307 22.2651 158.014 22.3297 157.717 22.3356C157.113 22.322 156.54 22.0719 156.119 21.6392C155.698 21.2064 155.465 20.6257 155.468 20.0223C155.458 19.7234 155.507 19.4255 155.613 19.1459C155.719 18.8662 155.879 18.6104 156.085 18.3933C156.29 18.1762 156.537 18.0022 156.811 17.8814C157.084 17.7605 157.379 17.6953 157.678 17.6895C158.284 17.7047 158.86 17.9581 159.281 18.3947C159.701 18.8312 159.933 19.4159 159.926 20.0223Z" fill="#F0F0F0"/>
<path d="M164.009 20.0223C163.989 20.4581 163.841 20.8785 163.584 21.2312C163.327 21.5839 162.972 21.8534 162.563 22.0063C162.155 22.1592 161.71 22.1889 161.285 22.0915C160.859 21.9941 160.472 21.7741 160.17 21.4586C159.869 21.1431 159.667 20.7461 159.589 20.3167C159.511 19.8874 159.561 19.4446 159.732 19.0433C159.903 18.642 160.189 18.2998 160.553 18.0591C160.917 17.8185 161.343 17.6899 161.78 17.6895C162.08 17.6953 162.375 17.7604 162.65 17.881C162.924 18.0016 163.172 18.1753 163.38 18.3922C163.587 18.609 163.749 18.8646 163.857 19.1444C163.965 19.4241 164.017 19.7225 164.009 20.0223Z" fill="#F0F0F0"/>
<path d="M168.091 20.0223C168.097 20.6251 167.864 21.2058 167.445 21.6387C167.025 22.0717 166.452 22.322 165.849 22.3356C165.552 22.3297 165.259 22.2651 164.987 22.1455C164.714 22.0259 164.469 21.8536 164.263 21.6386C164.058 21.4236 163.897 21.1701 163.79 20.8927C163.683 20.6153 163.632 20.3195 163.64 20.0223C163.629 19.416 163.859 18.8304 164.279 18.3932C164.699 17.9561 165.275 17.7031 165.882 17.6895C166.181 17.6953 166.475 17.7605 166.749 17.8814C167.022 18.0022 167.269 18.1762 167.475 18.3933C167.68 18.6104 167.841 18.8662 167.947 19.1459C168.053 19.4255 168.102 19.7234 168.091 20.0223Z" fill="#F0F0F0"/>
<path d="M172.18 20.0223C172.179 20.6275 171.941 21.2082 171.517 21.6404C171.093 22.0726 170.517 22.3221 169.912 22.3356C169.616 22.3298 169.323 22.2651 169.052 22.1452C168.781 22.0253 168.536 21.8527 168.333 21.6375C168.129 21.4222 167.97 21.1685 167.865 20.8912C167.76 20.6139 167.711 20.3185 167.722 20.0223C167.718 19.4147 167.953 18.83 168.376 18.3938C168.799 17.9576 169.376 17.7047 169.983 17.6895C170.282 17.6952 170.576 17.7606 170.849 17.8815C171.122 18.0025 171.368 18.1768 171.572 18.394C171.777 18.6113 171.936 18.8673 172.04 19.1468C172.145 19.4264 172.192 19.7241 172.18 20.0223Z" fill="#F0F0F0"/>
<path d="M176.256 20.0223C176.248 20.6277 176.006 21.2065 175.581 21.6377C175.156 22.0689 174.58 22.3189 173.975 22.3356C173.679 22.3298 173.388 22.265 173.117 22.145C172.847 22.025 172.603 21.8522 172.4 21.6367C172.197 21.4213 172.039 21.1675 171.936 20.8902C171.833 20.613 171.786 20.3179 171.798 20.0223C171.801 19.4123 172.042 18.8276 172.469 18.3922C172.896 17.9567 173.475 17.7046 174.085 17.6895C174.382 17.6951 174.676 17.7606 174.947 17.8819C175.218 18.0031 175.463 18.1778 175.665 18.3955C175.868 18.6132 176.025 18.8694 176.126 19.1488C176.228 19.4283 176.272 19.7253 176.256 20.0223Z" fill="#F0F0F0"/>
<path d="M180.351 20.0223C180.337 20.63 180.089 21.209 179.66 21.6395C179.23 22.07 178.652 22.3192 178.044 22.3356C177.749 22.3308 177.458 22.2665 177.189 22.1465C176.919 22.0265 176.677 21.8533 176.476 21.6372C176.275 21.4212 176.12 21.1667 176.02 20.8892C175.92 20.6117 175.877 20.3168 175.893 20.0223C175.901 19.4117 176.145 18.8279 176.574 18.3931C177.003 17.9583 177.583 17.7061 178.194 17.6895C178.491 17.6941 178.784 17.759 179.055 17.8802C179.326 18.0013 179.57 18.1762 179.771 18.3942C179.973 18.6123 180.129 18.869 180.228 19.1488C180.328 19.4286 180.37 19.7258 180.351 20.0223Z" fill="#F0F0F0"/>
<path d="M184.434 20.0223C184.412 20.6346 184.157 21.2154 183.721 21.6456C183.285 22.0759 182.701 22.3227 182.088 22.3356C181.794 22.3309 181.503 22.2666 181.234 22.1464C180.965 22.0262 180.724 21.8528 180.524 21.6365C180.324 21.4203 180.17 21.1657 180.071 20.8882C179.973 20.6108 179.931 20.3162 179.95 20.0223C179.964 19.4104 180.213 18.8275 180.645 18.3935C181.076 17.9595 181.658 17.7075 182.269 17.6895C182.568 17.6895 182.864 17.7512 183.137 17.8707C183.411 17.9902 183.657 18.1648 183.86 18.3838C184.064 18.6028 184.219 18.8613 184.318 19.1432C184.417 19.4251 184.456 19.7244 184.434 20.0223Z" fill="#F0F0F0"/>
<path d="M188.516 20.0223C188.492 20.6314 188.238 21.2086 187.805 21.6379C187.372 22.0671 186.793 22.3164 186.183 22.3356C185.887 22.3355 185.594 22.2743 185.322 22.1559C185.05 22.0375 184.806 21.8643 184.604 21.6473C184.402 21.4302 184.247 21.1739 184.149 20.8943C184.051 20.6147 184.011 20.3179 184.032 20.0223C184.053 19.4091 184.307 18.827 184.741 18.3938C185.175 17.9606 185.758 17.7088 186.371 17.6895C186.669 17.6893 186.964 17.751 187.237 17.8707C187.51 17.9904 187.755 18.1654 187.956 18.3847C188.158 18.604 188.312 18.8628 188.408 19.1447C188.505 19.4266 188.541 19.7254 188.516 20.0223Z" fill="#F0F0F0"/>
<path d="M192.605 20.0223C192.573 20.6332 192.313 21.2098 191.876 21.6381C191.439 22.0665 190.858 22.3154 190.246 22.3356C189.953 22.3322 189.664 22.2684 189.397 22.1481C189.129 22.0278 188.889 21.8537 188.692 21.6366C188.495 21.4195 188.345 21.1641 188.251 20.8863C188.157 20.6085 188.122 20.3144 188.147 20.0223C188.173 19.4074 188.43 18.8251 188.868 18.3924C189.305 17.9597 189.891 17.7085 190.506 17.6895C190.8 17.6936 191.091 17.7586 191.359 17.8804C191.628 18.0021 191.868 18.1781 192.065 18.3971C192.262 18.6162 192.412 18.8736 192.505 19.1533C192.598 19.4329 192.632 19.7288 192.605 20.0223Z" fill="#F0F0F0"/>
<path d="M196.687 20.0223C196.651 20.6338 196.387 21.2097 195.949 21.6374C195.51 22.0652 194.928 22.3141 194.316 22.3356C194.023 22.3324 193.734 22.2685 193.467 22.1481C193.201 22.0277 192.962 21.8533 192.766 21.636C192.57 21.4187 192.421 21.1631 192.328 20.8853C192.236 20.6076 192.202 20.3137 192.229 20.0223C192.261 19.4062 192.524 18.8246 192.964 18.3927C193.404 17.9607 193.991 17.7097 194.607 17.6895C194.902 17.6924 195.192 17.7567 195.46 17.8784C195.728 18 195.967 18.1763 196.163 18.3959C196.359 18.6156 196.507 18.8737 196.597 19.1537C196.687 19.4338 196.718 19.7296 196.687 20.0223Z" fill="#F0F0F0"/>
<path d="M200.77 20.0223C200.729 20.6355 200.461 21.2116 200.019 21.6389C199.578 22.0663 198.993 22.3145 198.379 22.3356C198.09 22.3282 197.805 22.2611 197.543 22.1385C197.281 22.016 197.047 21.8406 196.856 21.6234C196.665 21.4062 196.521 21.1518 196.433 20.8763C196.345 20.6008 196.315 20.31 196.344 20.0223C196.382 19.405 196.649 18.8241 197.092 18.3928C197.536 17.9616 198.124 17.7108 198.742 17.6895C199.032 17.6965 199.319 17.7641 199.582 17.888C199.845 18.0118 200.079 18.1891 200.27 18.4086C200.461 18.6281 200.604 18.8849 200.69 19.1628C200.776 19.4406 200.803 19.7333 200.77 20.0223Z" fill="#F0F0F0"/>
<path d="M204.859 20.0223C204.81 20.6362 204.538 21.2108 204.093 21.6372C203.649 22.0636 203.064 22.3121 202.448 22.3356C202.157 22.3339 201.869 22.2708 201.603 22.1503C201.338 22.0298 201.101 21.8547 200.907 21.6364C200.714 21.4181 200.569 21.1615 200.482 20.8834C200.395 20.6053 200.367 20.3118 200.401 20.0223C200.443 19.4044 200.713 18.8242 201.158 18.3935C201.603 17.9628 202.192 17.712 202.811 17.6895C203.104 17.6918 203.393 17.7561 203.66 17.8781C203.926 18.0001 204.164 18.177 204.357 18.3973C204.551 18.6175 204.695 18.8761 204.782 19.1562C204.868 19.4362 204.894 19.7314 204.859 20.0223Z" fill="#F0F0F0"/>
<path d="M208.941 20.0223C208.886 20.6373 208.61 21.2114 208.162 21.6372C207.715 22.063 207.128 22.3113 206.511 22.3356C206.221 22.3332 205.934 22.2695 205.67 22.1485C205.406 22.0275 205.17 21.852 204.978 21.6335C204.787 21.4151 204.644 21.1586 204.558 20.8809C204.473 20.6032 204.447 20.3106 204.483 20.0223C204.533 19.4037 204.808 18.8249 205.256 18.3951C205.703 17.9654 206.293 17.7143 206.913 17.6895C207.205 17.6915 207.494 17.7557 207.759 17.8779C208.025 18.0001 208.262 18.1773 208.454 18.398C208.645 18.6187 208.788 18.8776 208.872 19.1577C208.956 19.4377 208.98 19.7324 208.941 20.0223Z" fill="#F0F0F0"/>
<path d="M213.03 20.0223C212.965 20.6333 212.685 21.2014 212.24 21.6251C211.795 22.0489 211.214 22.3007 210.6 22.3356C210.31 22.3346 210.023 22.2716 209.759 22.1508C209.496 22.0299 209.261 21.8541 209.07 21.635C208.88 21.4159 208.739 21.1586 208.656 20.8805C208.574 20.6023 208.551 20.3097 208.591 20.0223C208.652 19.4045 208.933 18.8293 209.383 18.4012C209.832 17.9731 210.421 17.7206 211.041 17.6895C211.331 17.6938 211.617 17.76 211.879 17.8836C212.142 18.0071 212.375 18.1852 212.563 18.4059C212.751 18.6267 212.89 18.885 212.971 19.1637C213.051 19.4424 213.071 19.7351 213.03 20.0223Z" fill="#F0F0F0"/>
<path d="M217.112 20.0223C217.046 20.6396 216.761 21.2127 216.307 21.6373C215.854 22.0619 215.264 22.3097 214.644 22.3356C214.354 22.334 214.069 22.2704 213.806 22.149C213.544 22.0276 213.31 21.8514 213.122 21.6321C212.933 21.4128 212.794 21.1557 212.713 20.8779C212.633 20.6002 212.612 20.3084 212.654 20.0223C212.716 19.4014 213 18.8236 213.453 18.3951C213.907 17.9666 214.5 17.716 215.123 17.6895C215.414 17.6907 215.702 17.7547 215.966 17.8772C216.23 17.9997 216.464 18.1778 216.653 18.3993C216.842 18.6208 216.981 18.8805 217.06 19.1606C217.139 19.4407 217.157 19.7346 217.112 20.0223Z" fill="#F0F0F0"/>
</g>
<path d="M104.211 16.0435H219.795L219.789 19.2057H104.218L104.211 16.0435Z" fill="#0072E5"/>
<path d="M104.205 12.8813L106.616 16.0436H217.365L219.802 12.8813H104.205Z" fill="#0072E5"/>
<g opacity="0.4">
<path d="M104.205 12.8813L106.616 16.0436H217.365L219.802 12.8813H104.205Z" fill="black"/>
</g>
<path d="M104.192 9.70654H219.808L219.802 12.8817H104.205L104.192 9.70654Z" fill="#0072E5"/>
<g opacity="0.8">
<path d="M106.609 12.8813H217.372L217.365 16.0436H106.615L106.609 12.8813Z" fill="white"/>
</g>
<g opacity="0.7">
<path d="M217.404 78.2969H106.44V79.6901H217.404V78.2969Z" fill="white"/>
</g>
<g opacity="0.8">
<path d="M217.398 147.445H106.667V148.832H217.398V147.445Z" fill="white"/>
</g>
<path d="M143.156 28.3882H129.438V43.2079H143.156V28.3882Z" fill="#0072E5"/>
<path d="M169.504 28.3882H155.786V43.2079H169.504V28.3882Z" fill="#0072E5"/>
<path d="M195.852 28.3882H182.133V43.2079H195.852V28.3882Z" fill="#0072E5"/>
<path d="M143.156 50.5757H129.438V65.3954H143.156V50.5757Z" fill="#0072E5"/>
<path d="M169.504 50.5757H155.786V65.3954H169.504V50.5757Z" fill="#0072E5"/>
<path d="M195.852 50.5757H182.133V65.3954H195.852V50.5757Z" fill="#0072E5"/>
<path d="M143.156 158.118H129.438V172.937H143.156V158.118Z" fill="#0072E5"/>
<path d="M169.504 158.118H155.786V172.937H169.504V158.118Z" fill="#0072E5"/>
<path d="M195.852 158.118H182.133V172.937H195.852V158.118Z" fill="#0072E5"/>
<path d="M128.46 189.319H114.741V204.139H128.46V189.319Z" fill="#0072E5"/>
<path d="M209.058 189.319H195.34V204.139H209.058V189.319Z" fill="#0072E5"/>
<path d="M143.156 91.3672H129.438V106.187H143.156V91.3672Z" fill="#0072E5"/>
<path d="M169.504 91.3672H155.786V106.187H169.504V91.3672Z" fill="#0072E5"/>
<path d="M195.852 91.3672H182.133V106.187H195.852V91.3672Z" fill="#0072E5"/>
<path d="M143.156 113.555H129.438V128.374H143.156V113.555Z" fill="#0072E5"/>
<path d="M169.504 113.555H155.786V128.374H169.504V113.555Z" fill="#0072E5"/>
<path d="M195.852 113.555H182.133V128.374H195.852V113.555Z" fill="#0072E5"/>
<g opacity="0.8">
<path d="M146.027 191.056H160.225L160.166 205.798H145.93L146.027 191.056Z" fill="white"/>
</g>
<g opacity="0.8">
<path d="M162.966 191.056H177.746L177.047 205.798H162.81L162.966 191.056Z" fill="white"/>
</g>
<path d="M180.008 208.765H142.547L142.398 205.797H180.15L180.008 208.765Z" fill="#0072E5"/>
<g opacity="0.1">
<path d="M180.008 208.765H142.547L142.398 205.797H180.15L180.008 208.765Z" fill="white"/>
</g>
<path d="M181.518 211.902H141.225L141.063 208.979H181.667L181.518 211.902Z" fill="#0072E5"/>
<g opacity="0.4">
<path d="M182.853 185.833H139.787L139.599 182.496H183.021L182.853 185.833Z" fill="white"/>
</g>
<path d="M139.787 185.833L146.027 191.055H177.746L182.853 185.833H139.787Z" fill="#263238"/>
<path d="M142.703 188.276L144.906 205.772H146.655L145.949 188.276C145.448 188.018 144.893 187.884 144.329 187.884C143.766 187.884 143.21 188.018 142.709 188.276H142.703Z" fill="#0072E5"/>
<path d="M180.546 188.276L178.388 205.772H176.638L177.286 188.276C177.768 187.96 178.331 187.792 178.906 187.792C179.482 187.792 180.045 187.96 180.526 188.276H180.546Z" fill="#0072E5"/>
<path d="M125.349 4.89809C125.349 2.03393 127.546 0.00569125 130.533 0.00569125C131.299 -0.0310107 132.064 0.110182 132.766 0.418216C133.469 0.726249 134.091 1.19276 134.583 1.78121L132.892 3.31049C132.63 2.96916 132.294 2.69236 131.909 2.50139C131.523 2.31041 131.099 2.21035 130.669 2.20889C129.956 2.20889 129.272 2.49222 128.768 2.99654C128.263 3.50086 127.98 4.18487 127.98 4.89809C127.98 5.61131 128.263 6.29532 128.768 6.79964C129.272 7.30397 129.956 7.58729 130.669 7.58729C131.099 7.5873 131.524 7.48789 131.91 7.2968C132.295 7.10571 132.631 6.82812 132.892 6.48569L134.583 8.02145C134.09 8.60875 133.468 9.07445 132.766 9.38238C132.063 9.69031 131.299 9.83218 130.533 9.79697C127.546 9.79697 125.349 7.78817 125.349 4.89809Z" fill="#263238"/>
<path d="M135.069 4.89826C135.069 2.07946 137.292 0.00585938 140.305 0.00585938C143.318 0.00585938 145.534 2.07946 145.534 4.89826C145.534 7.71706 143.318 9.79714 140.305 9.79714C137.292 9.79714 135.069 7.72354 135.069 4.89826ZM142.845 4.89826C142.817 4.40133 142.644 3.92345 142.348 3.5237C142.051 3.12395 141.644 2.81984 141.177 2.64897C140.709 2.47809 140.202 2.44794 139.718 2.56224C139.233 2.67654 138.793 2.93029 138.451 3.29211C138.109 3.65393 137.881 4.10796 137.795 4.59809C137.708 5.08822 137.767 5.59297 137.964 6.04994C138.162 6.50691 138.488 6.89607 138.904 7.16932C139.32 7.44258 139.807 7.58795 140.305 7.58746C140.652 7.59092 140.997 7.52255 141.316 7.38666C141.636 7.25077 141.924 7.05028 142.163 6.79778C142.401 6.54527 142.585 6.2462 142.702 5.91932C142.82 5.59244 142.868 5.24482 142.845 4.89826Z" fill="#263238"/>
<path d="M155.429 9.60929V4.61969L153.006 8.68265H151.826L149.416 4.75577V9.60929H146.953V0.193848H149.15L152.455 5.62409L155.695 0.193848H157.885V9.60929H155.429Z" fill="#263238"/>
<path d="M168.24 3.68009C168.24 5.81201 166.627 7.14689 164.061 7.14689H162.415V9.60929H159.758V0.193848H164.061C166.627 0.193848 168.24 1.52225 168.24 3.68009ZM165.551 3.68009C165.551 2.80529 165 2.29337 163.899 2.29337H162.415V5.04737H163.899C165 5.04737 165.551 4.54841 165.551 3.68009Z" fill="#263238"/>
<path d="M175.368 7.78814H171.383L170.644 9.62198H167.929L172.083 0.206543H174.707L178.848 9.60902H176.081L175.368 7.78814ZM174.584 5.84414L173.372 2.83742L172.167 5.84414H174.584Z" fill="#263238"/>
<path d="M188.568 0.193848V9.60929H186.378L182.224 4.59377V9.60929H179.632V0.193848H181.822L185.976 5.19641V0.193848H188.568Z" fill="#263238"/>
<path d="M195.502 6.23321V9.60929H192.838V6.19433L189.248 0.193848H192.061L194.296 3.93281L196.525 0.193848H199.117L195.502 6.23321Z" fill="#263238"/>
<path d="M106.609 12.8813H217.372L217.365 16.0436H106.615L106.609 12.8813Z" fill="#0072E5"/>
<path d="M234.693 114.144C231.213 118.836 229.865 120.994 228.517 122.322C227.046 123.774 212.026 122.666 210.211 121.907C208.824 121.324 209.784 119.523 210.438 119.613C212.913 119.957 222.206 118.317 224.96 117.125C225.439 116.911 230.144 111.189 230.144 111.189L234.693 114.144Z" fill="#FFB573"/>
<path d="M228.977 111.04C231.919 105.643 237.719 101.683 239.475 101.457C242.002 101.126 242.851 101.631 242.112 103.66C240.855 107.114 238.542 110.742 235.282 115.136L228.977 111.04Z" fill="#0072E5"/>
<g opacity="0.1">
<path d="M228.977 111.04C231.919 105.643 237.719 101.683 239.475 101.457C242.002 101.126 242.851 101.631 242.112 103.66C240.855 107.114 238.542 110.742 235.282 115.136L228.977 111.04Z" fill="black"/>
</g>
<path d="M239.475 101.457C240.896 100.94 242.345 100.507 243.817 100.161C246.504 99.5143 249.235 99.0638 251.988 98.8127C253.589 98.6404 255.198 98.5517 256.809 98.547C256.972 98.545 257.136 98.5624 257.295 98.5989C257.901 98.7499 258.425 99.1298 258.758 99.659C259.09 100.188 259.204 100.825 259.077 101.437C256.375 115.726 256.245 122.063 256.634 129.424L240.188 130.007C239.979 130.008 239.776 129.934 239.617 129.799C239.457 129.663 239.352 129.475 239.319 129.269C238.587 125.562 236.313 117.326 236.313 117.326C234.259 115.35 233.915 112.913 233.721 111.494C233.604 110.723 235.328 109.887 237.2 105.805C237.168 105.805 238.633 101.748 239.475 101.457Z" fill="#0072E5"/>
<path d="M249.869 129.651L243.875 129.871C242.981 122.743 243.149 116.451 243.46 109.362C245.243 116.231 247.382 123.004 249.869 129.651Z" fill="#263238"/>
<path d="M251.605 184.472C251.456 184.141 251.307 183.824 251.165 183.448C244.698 167.993 239.76 136.74 239.76 136.74L251.288 130.908C251.288 130.908 254.567 158.37 259.064 176.236C259.751 178.957 260.457 181.42 261.189 183.578L253.316 187.193L251.605 184.472Z" fill="#FFB573"/>
<g opacity="0.8">
<path d="M251.605 184.472C251.456 184.141 251.307 183.824 251.165 183.448C244.698 167.993 239.76 136.74 239.76 136.74L251.288 130.908C251.288 130.908 254.567 158.37 259.064 176.236C259.751 178.957 260.457 181.42 261.189 183.578L253.316 187.193L251.605 184.472Z" fill="#263238"/>
</g>
<path d="M240.609 132.709C240.609 132.709 235.334 169.645 236.578 184.75C237.874 200.672 242.605 227.933 242.605 227.933L246.493 227.667C247.813 213.448 247.489 199.123 245.527 184.977C254.437 162.044 255.435 133.293 255.435 133.293L240.609 132.709Z" fill="#FFB573"/>
<path opacity="0.8" d="M240.609 132.709C240.609 132.709 235.334 169.645 236.578 184.75C237.874 200.672 242.605 227.933 242.605 227.933L246.493 227.667C247.813 213.448 247.489 199.123 245.527 184.977C254.437 162.044 255.435 133.293 255.435 133.293L240.609 132.709Z" fill="#263238"/>
<path d="M246.998 228.886C247.269 229.403 247.417 229.975 247.432 230.558C247.536 232.69 247.685 238.373 247.685 238.373L247.218 238.405C247.218 238.405 246.933 235.619 246.609 234.226C246.285 232.832 246.072 234.031 245.359 235.554C244.646 237.077 242.644 238.638 239.598 238.924C236.028 239.254 234.57 239.189 235.548 238.185C236.526 237.18 238.866 236.429 238.866 236.429C238.866 236.429 241.976 231.109 241.795 227.519C241.6 223.689 246.026 227.285 246.882 226.748C247.186 226.812 246.823 228.575 246.998 228.886Z" fill="#263238"/>
<path d="M259.323 177.564C257.062 178.05 255.053 179.715 249.111 180.311H248.754C248.501 180.311 248.242 180.357 247.97 180.37C246.376 180.454 237.246 180.026 235.554 179.035C237.025 163.839 239.922 131.549 239.922 131.549L246.888 130.72L255.876 130.448C255.876 130.448 265.79 140.686 263.509 149.978C260.107 163.878 261.792 166.036 259.323 177.564Z" fill="#263238"/>
<path d="M256.55 122.121C256.312 121.882 256.13 121.593 256.018 121.274C255.906 120.956 255.866 120.617 255.902 120.281C255.902 120.281 255.902 119.257 255.869 117.689C255.817 113.153 255.779 104.081 256.252 102.876C257.288 100.284 259.064 98.8645 259.991 100.381C261.079 102.156 261.157 115.628 261.157 115.628C260.878 124.545 257.612 123.365 256.55 122.121Z" fill="#FFB573"/>
<path d="M254.392 98.2812L253.847 99.2597C251.748 103.044 246.888 107.975 244.989 108.455C244.546 107.428 243.864 106.521 243 105.811C242.495 106.061 242.046 106.411 241.68 106.84C241.315 107.268 241.041 107.767 240.874 108.306C239.248 105.662 239.391 102.318 239.799 100.666C240.758 100.374 241.782 100.076 242.754 99.8365C245.444 99.2137 248.174 98.7806 250.925 98.5405C252.074 98.3813 253.232 98.2947 254.392 98.2812Z" fill="#0072E5"/>
<path opacity="0.8" d="M254.392 98.2812L253.848 99.2597C251.748 103.044 246.888 107.975 244.989 108.455C244.632 107.537 244.331 106.598 244.089 105.643C243.071 106.148 242.32 107.587 241.983 108.675C240.35 106.031 239.391 102.318 239.799 100.666C240.758 100.374 241.782 100.076 242.754 99.8365C245.444 99.2137 248.174 98.7806 250.925 98.5405C252.074 98.3813 253.232 98.2947 254.392 98.2812Z" fill="white"/>
<path d="M241.885 116.821L239.63 113.762L237.615 117.754C237.615 117.754 239.676 118.907 241.386 118.519L241.885 116.821Z" fill="#FFB573"/>
<path d="M236.06 112.823L235.101 116.05L237.615 117.735L239.63 113.762L236.06 112.823Z" fill="#FFB573"/>
<path d="M256.608 131.304L248.281 131.53H247.581L245.78 131.582H245.093L240.201 131.712C240.052 131.712 239.915 131.634 239.909 131.537L239.715 129.969C239.715 129.865 239.838 129.768 240.006 129.761L244.84 129.567H245.417L247.808 129.476H248.372L256.394 129.159C256.449 129.153 256.505 129.161 256.556 129.182C256.607 129.204 256.652 129.238 256.686 129.282L256.88 131.064C256.958 131.168 256.815 131.297 256.608 131.304Z" fill="#0072E5"/>
<path opacity="0.2" d="M256.608 131.304L248.281 131.53H247.581L245.78 131.582H245.093L240.201 131.712C240.052 131.712 239.915 131.634 239.909 131.537L239.715 129.969C239.715 129.865 239.838 129.768 240.006 129.761L244.84 129.567H245.417L247.808 129.476H248.372L256.394 129.159C256.449 129.153 256.505 129.161 256.556 129.182C256.607 129.204 256.652 129.238 256.686 129.282L256.88 131.064C256.958 131.168 256.815 131.297 256.608 131.304Z" fill="white"/>
<path d="M242.52 131.887H243.052C243.073 131.891 243.095 131.891 243.116 131.887C243.137 131.882 243.157 131.873 243.174 131.86C243.191 131.848 243.205 131.831 243.216 131.812C243.226 131.793 243.232 131.772 243.233 131.751L242.935 129.528C242.935 129.463 242.832 129.405 242.721 129.405H242.19C242.08 129.405 242.002 129.47 242.009 129.534L242.307 131.764C242.324 131.804 242.355 131.838 242.393 131.86C242.432 131.883 242.476 131.892 242.52 131.887Z" fill="#263238"/>
<path d="M251.8 131.75H252.305C252.324 131.755 252.344 131.756 252.364 131.752C252.383 131.749 252.402 131.742 252.418 131.731C252.435 131.72 252.449 131.705 252.459 131.689C252.47 131.672 252.477 131.653 252.48 131.634L252.176 129.398C252.176 129.34 252.072 129.282 251.975 129.288H251.469C251.366 129.288 251.294 129.34 251.301 129.411L251.599 131.627C251.605 131.705 251.696 131.75 251.8 131.75Z" fill="#263238"/>
<path d="M254.56 141.347L253.264 140.887L259.032 123.631C259.952 120.89 259.602 118.272 256.2 117.073C253.018 115.952 250.517 117.553 249.59 120.313L243.758 137.518L242.462 137.057L248.294 119.866C249.37 116.684 251.443 114.527 256.446 116.296C261.449 118.065 261.351 120.916 260.282 124.11L254.56 141.347Z" fill="#0072E5"/>
<path d="M257.82 151.994L232.548 142.922L238.276 126.191C238.403 125.803 238.606 125.445 238.873 125.137C239.14 124.828 239.466 124.576 239.832 124.395C240.197 124.215 240.595 124.108 241.002 124.083C241.41 124.057 241.818 124.113 242.203 124.247L260.619 130.792C261.626 131.164 262.448 131.913 262.914 132.88C263.379 133.847 263.451 134.957 263.114 135.976L257.82 151.994Z" fill="#0072E5"/>
<path opacity="0.4" d="M255.02 150.996L235.328 143.92C234.584 143.64 233.979 143.079 233.643 142.359C233.308 141.638 233.268 140.814 233.533 140.065L238.283 126.191C238.41 125.803 238.613 125.445 238.88 125.137C239.147 124.828 239.473 124.576 239.838 124.395C240.204 124.215 240.602 124.108 241.009 124.083C241.416 124.057 241.824 124.113 242.209 124.247L260.626 130.792C261.632 131.164 262.455 131.913 262.92 132.88C263.386 133.847 263.457 134.957 263.12 135.976L258.772 149.111C258.655 149.484 258.464 149.831 258.211 150.129C257.957 150.428 257.646 150.672 257.296 150.848C256.946 151.024 256.564 151.128 256.173 151.153C255.782 151.179 255.39 151.125 255.02 150.996Z" fill="white"/>
<g opacity="0.3">
<path d="M254.56 141.347L253.543 142.235L253.277 140.887L259.044 123.631C259.965 120.89 259.615 118.272 256.213 117.073C253.031 115.952 250.53 117.553 249.603 120.313L243.771 137.518L242.721 138.392L242.495 137.057L248.327 119.866C249.402 116.684 251.476 114.527 256.478 116.296C261.481 118.065 261.384 120.916 260.315 124.11L254.56 141.347Z" fill="white"/>
</g>
<path d="M246.396 130.96L244.29 130.209L244.555 129.412L246.661 130.163L246.396 130.96Z" fill="#0072E5"/>
<path d="M244.646 136.131L242.533 135.38L242.806 134.583L244.912 135.334L244.646 136.131Z" fill="#0072E5"/>
<path d="M257.224 134.822L255.111 134.07L255.377 133.267L257.489 134.018L257.224 134.822Z" fill="#0072E5"/>
<path d="M255.493 140.012L253.375 139.254L253.64 138.451L255.759 139.209L255.493 140.012Z" fill="#0072E5"/>
<path d="M253.044 133.844L248.521 132.23L249.091 130.52L253.614 132.133L253.044 133.844Z" fill="white"/>
<path d="M258.5 122.918C256.472 124.085 248.268 122.769 241.328 118.596C241.004 118.395 240.68 118.421 240.557 118.344C240.123 118.026 241.205 117.294 241.853 116.957C242.209 116.775 257.522 118.713 258.578 118.855C259.777 121.979 258.695 121.94 258.5 122.918Z" fill="#FFB573"/>
<path d="M251.962 185.723C253.076 188.904 256.815 190.304 259.433 188.315C259.539 188.234 259.641 188.147 259.738 188.056C271.078 177.558 285.502 162.259 285.502 162.259L283.072 159.181C274.576 164.105 266.551 169.798 259.096 176.191C256.504 178.413 253.815 180.843 251.197 183.435L251.962 185.723Z" fill="#FFB573"/>
<path opacity="0.8" d="M251.962 185.723C253.076 188.904 256.815 190.304 259.433 188.315C259.539 188.234 259.641 188.147 259.738 188.056C271.078 177.558 285.502 162.259 285.502 162.259L283.072 159.181C274.576 164.105 266.551 169.798 259.096 176.191C256.504 178.413 253.815 180.843 251.197 183.435L251.962 185.723Z" fill="#263238"/>
<path d="M281.601 159.569C281.761 159.049 282.046 158.575 282.431 158.189C283.792 156.77 287.472 153.115 287.472 153.115L287.803 153.446C287.803 153.446 286.144 155.39 285.431 156.504C284.718 157.619 285.658 157.023 287.142 156.601C288.626 156.18 290.997 156.692 293.214 158.779C295.806 161.235 296.752 162.369 295.436 162.259C294.121 162.148 292.054 160.891 292.054 160.891C292.054 160.891 286.435 161.922 284.155 164.326C281.705 166.918 281.174 161.299 280.267 160.995C280.072 160.716 281.504 159.893 281.601 159.569Z" fill="#263238"/>
<path d="M242.682 97.808C243.901 99.2596 244.847 101.048 243.227 103.154C242.872 103.603 242.684 104.162 242.695 104.735C242.734 105.649 243.343 106.504 246.143 104.547C250.225 101.722 249.668 98.8902 249.668 98.8902C247.387 98.3588 245.728 93.7062 245.028 91.0688L242.682 97.808Z" fill="#FFB573"/>
<path opacity="0.2" d="M245.067 95.1323C245.469 96.2599 244.387 98.1779 243.518 98.9685C243.278 98.5571 243.001 98.1687 242.689 97.8086L244.076 93.8169C244.491 94.1842 244.829 94.6316 245.067 95.1323Z" fill="black"/>
<path d="M232.943 85.438C231.854 89.6695 233.474 94.3092 236.462 97.4973C239.481 94.186 245.19 94.9053 248.365 91.7431C250.491 89.6435 250.88 86.1184 249.564 83.4357C248.152 80.5456 243.979 77.7592 240.687 78.2128C237 78.7247 233.857 81.874 232.943 85.438Z" fill="#263238"/>
<path d="M245.521 83.9996C245.082 83.3544 244.52 82.8021 243.867 82.3744C243.214 81.9466 242.484 81.6518 241.717 81.5068C240.95 81.3617 240.162 81.3693 239.398 81.5291C238.634 81.6888 237.91 81.9977 237.265 82.4379C233.435 85.0299 234.148 91.5099 235.859 95.1711C237.738 99.2664 243.227 99.4349 245.786 95.4173C247.504 92.7411 247.141 90.9137 246.506 86.5656C246.38 85.6457 246.043 84.7673 245.521 83.9996Z" fill="#FFB573"/>
<path d="M238.023 93.0715C237.821 93.1668 237.599 93.2162 237.375 93.2162C237.151 93.2162 236.93 93.1668 236.727 93.0715C237.104 92.2805 237.368 91.4408 237.511 90.5767L238.023 93.0715Z" fill="#ED893E"/>
<path d="M241.348 92.6763C241.354 92.6637 241.357 92.6498 241.358 92.6358C241.358 92.6217 241.355 92.6077 241.35 92.5948C241.344 92.5818 241.336 92.5702 241.326 92.5608C241.315 92.5514 241.303 92.5444 241.289 92.5402C241.263 92.5313 241.235 92.5323 241.21 92.5431C241.185 92.5539 241.165 92.5736 241.153 92.5985C240.965 93.0006 240.684 93.3517 240.332 93.6223C239.98 93.893 239.568 94.0752 239.131 94.1537C239.105 94.1626 239.083 94.1805 239.069 94.2042C239.054 94.228 239.049 94.256 239.054 94.2833C239.056 94.2962 239.061 94.3085 239.068 94.3194C239.075 94.3304 239.085 94.3398 239.095 94.347C239.106 94.3543 239.119 94.3593 239.131 94.3617C239.144 94.3641 239.158 94.3639 239.17 94.3611C239.338 94.3288 239.502 94.2832 239.663 94.225C240.033 94.0928 240.373 93.8876 240.662 93.6216C240.952 93.3555 241.185 93.0341 241.348 92.6763Z" fill="#263238"/>
<path d="M238.27 80.4614C237.926 81.0128 237.705 81.6315 237.622 82.2758C242.682 83.4422 246.415 88.7558 247.853 93.7907C249.221 91.9893 251.903 89.7861 252.947 87.6218C254.107 85.1918 252.558 82.4378 250.225 81.077C248.16 80.0576 246.014 79.2102 243.81 78.5433C242.805 78.2028 241.714 78.2064 240.711 78.5537C239.708 78.9009 238.849 79.5721 238.27 80.4614Z" fill="#263238"/>
<path d="M248.411 89.1833C248.374 88.9985 248.3 88.8228 248.195 88.6664C248.09 88.5099 247.955 88.3758 247.798 88.2716C247.641 88.1675 247.465 88.0954 247.28 88.0594C247.095 88.0235 246.904 88.0245 246.72 88.0623C245.65 88.2956 245.262 89.7925 245.326 90.7515C245.417 91.8077 246.24 92.54 247.147 91.879C247.839 91.3775 248.305 90.6229 248.443 89.7795C248.472 89.5806 248.461 89.378 248.411 89.1833Z" fill="#FFB573"/>
<path d="M240.071 88.7882C240.188 89.2094 240.071 89.6176 239.773 89.6954C239.475 89.7732 239.183 89.488 239.073 89.0474C238.963 88.6068 239.073 88.218 239.365 88.1467C239.656 88.0754 239.954 88.3281 240.071 88.7882Z" fill="#263238"/>
<path d="M236.209 90.1424C236.326 90.5636 236.209 90.9718 235.911 91.0431C235.613 91.1144 235.321 90.8358 235.204 90.3951C235.088 89.9545 235.204 89.5657 235.503 89.4879C235.801 89.4102 236.099 89.7082 236.209 90.1424Z" fill="#263238"/>
<path d="M235.632 89.4946H234.537C234.537 89.4946 235.269 90.1297 235.632 89.4946Z" fill="#263238"/>
<path d="M240.888 86.8443C240.92 86.8253 240.946 86.7986 240.965 86.7665C240.996 86.7188 241.007 86.6613 240.996 86.6058C240.985 86.5503 240.953 86.5011 240.907 86.4684C240.576 86.241 240.195 86.0975 239.797 86.0501C239.398 86.0026 238.994 86.0528 238.62 86.1963C238.569 86.2215 238.53 86.2647 238.509 86.3175C238.489 86.3702 238.489 86.4287 238.509 86.4814C238.533 86.5315 238.575 86.5707 238.627 86.5911C238.679 86.6116 238.736 86.6117 238.788 86.5916C239.1 86.4766 239.434 86.4384 239.763 86.4802C240.093 86.5219 240.407 86.6423 240.68 86.8313C240.711 86.8498 240.746 86.8607 240.782 86.8629C240.818 86.8652 240.854 86.8588 240.888 86.8443Z" fill="#263238"/>
<path d="M234.375 89.1574C234.4 89.1299 234.422 89.0994 234.44 89.0667C234.554 88.7555 234.741 88.4758 234.984 88.2506C235.227 88.0253 235.521 87.8608 235.84 87.7707C235.895 87.7612 235.945 87.7299 235.978 87.6837C236.011 87.6376 236.024 87.5803 236.015 87.5245C236.008 87.4966 235.997 87.4703 235.98 87.4471C235.964 87.4238 235.943 87.404 235.919 87.389C235.895 87.3739 235.868 87.3637 235.84 87.3592C235.812 87.3546 235.783 87.3558 235.755 87.3625C235.367 87.4658 235.008 87.6602 234.71 87.9295C234.411 88.1988 234.181 88.5353 234.038 88.9112C234.026 88.9367 234.019 88.9643 234.018 88.9925C234.017 89.0207 234.021 89.0488 234.031 89.0753C234.04 89.1018 234.055 89.1261 234.074 89.1469C234.093 89.1677 234.116 89.1845 234.142 89.1963C234.18 89.2121 234.222 89.2174 234.263 89.2117C234.304 89.206 234.343 89.1895 234.375 89.1639V89.1574Z" fill="#263238"/>
<path d="M239.494 88.1401H238.399C238.399 88.1401 239.112 88.7428 239.494 88.1401Z" fill="#263238"/>
<path d="M233.779 91.5485C234.278 94.2118 236.436 97.886 238.736 99.3245C237.188 100.497 234.414 99.169 232.781 98.1258C231.98 97.5742 231.305 96.8586 230.801 96.0263C230.297 95.194 229.976 94.264 229.859 93.2982C229.632 91.3612 229.895 89.3984 230.623 87.5893C231.812 84.6601 233.782 82.1137 236.319 80.228C236.812 79.8262 237.654 79.5087 237.978 80.053C238.205 80.4289 237.946 80.9019 237.699 81.2583C235.308 84.7186 233.429 87.1551 233.779 91.5485Z" fill="#263238"/>
<path d="M245.806 96.4153H245.767C245.726 96.4046 245.691 96.3783 245.669 96.3419C245.647 96.3056 245.64 96.2621 245.65 96.2209C247.38 89.229 239.883 83.9089 237.544 82.4185C237.508 82.3958 237.483 82.3601 237.473 82.3189C237.463 82.2777 237.47 82.2344 237.492 82.1982C237.503 82.1799 237.517 82.1639 237.534 82.1512C237.551 82.1386 237.57 82.1296 237.591 82.1247C237.612 82.1199 237.633 82.1193 237.654 82.123C237.675 82.1267 237.695 82.1347 237.712 82.1464C240.103 83.6432 247.75 89.0929 245.968 96.2987C245.958 96.3334 245.936 96.3638 245.907 96.3849C245.878 96.4061 245.842 96.4168 245.806 96.4153Z" fill="#263238"/>
<path d="M247.121 91.3477L246.979 93.8165L247.64 94.3609L247.964 93.6027L247.121 91.3477Z" fill="#0072E5"/>
<path d="M258.04 98.7674C257.523 98.6356 256.981 98.6417 256.467 98.7849C255.953 98.9282 255.485 99.2037 255.111 99.5839C254.285 100.493 253.764 101.637 253.621 102.856C253.381 104.723 253.854 106.615 254.36 108.436C254.978 110.231 255.324 112.11 255.383 114.008C257.366 112.926 260.25 110.768 263.023 110.483C262.641 106.07 262.129 103.128 261.274 101.67C260.831 100.802 260.237 100.021 259.518 99.3636C259.07 99.0681 258.568 98.8653 258.04 98.7674Z" fill="#0072E5"/>
<g opacity="0.1">
<path d="M258.04 98.7674C257.523 98.6356 256.981 98.6417 256.467 98.7849C255.953 98.9282 255.485 99.2037 255.111 99.5839C254.285 100.493 253.764 101.637 253.621 102.856C253.381 104.723 253.854 106.615 254.36 108.436C254.978 110.231 255.324 112.11 255.383 114.008C257.366 112.926 260.25 110.768 263.023 110.483C262.641 106.07 262.129 103.128 261.274 101.67C260.831 100.802 260.237 100.021 259.518 99.3636C259.07 99.0681 258.568 98.8653 258.04 98.7674Z" fill="white"/>
</g>
<path d="M210.814 119.568C210.814 119.568 205.921 120.378 205.857 120.598C205.792 120.819 205.818 123.573 205.818 123.573L210.211 121.907L210.814 119.568Z" fill="#FFB573"/>
<path d="M205.818 123.573L201.683 119.678L203.53 119.141L206.595 120.806L205.818 123.573Z" fill="#FFB573"/>
<path d="M81.0065 222.393L85.6267 222.14L86.035 233.085L81.4147 233.331L81.0065 222.393Z" fill="#F7978D"/>
<path d="M87.169 232.094C88.6075 232.981 90.6876 233.759 94.4784 234.141C95.3208 234.225 95.593 236.15 93.6425 236.364C91.692 236.578 88.29 236.882 86.8774 237.012C84.577 237.258 83.7216 237.465 81.9072 237.692C81.6891 237.714 81.4712 237.649 81.3012 237.51C81.1312 237.372 81.0229 237.172 81 236.954L80.8056 232.793C80.8021 232.749 80.8074 232.705 80.8212 232.663C80.835 232.622 80.8571 232.583 80.8861 232.55C80.915 232.516 80.9504 232.489 80.99 232.47C81.0296 232.451 81.0727 232.439 81.1167 232.437L86.3395 231.867C86.6335 231.849 86.9251 231.929 87.169 232.094Z" fill="#263238"/>
<path opacity="0.2" d="M81.2138 228.037L85.8405 227.784L85.6267 222.146L81.0065 222.399L81.2138 228.037Z" fill="black"/>
<path d="M89.424 232.482C89.4875 232.398 89.5276 232.298 89.5402 232.194C89.5527 232.089 89.5372 231.983 89.4953 231.886C89.4739 231.819 89.4359 231.758 89.385 231.71C89.334 231.661 89.2717 231.626 89.2037 231.607C88.614 231.445 87.3958 232.489 87.2597 232.612C87.2506 232.629 87.2458 232.648 87.2458 232.667C87.2458 232.686 87.2506 232.705 87.2597 232.722C87.2681 232.743 87.2814 232.761 87.2982 232.776C87.3151 232.79 87.3352 232.801 87.3569 232.806C87.7725 232.852 88.1919 232.852 88.6075 232.806C88.9091 232.797 89.1978 232.682 89.424 232.482ZM87.6096 232.612C88.1021 232.242 88.8408 231.737 89.1583 231.828C89.1903 231.838 89.2194 231.855 89.2431 231.879C89.2668 231.903 89.2844 231.932 89.2944 231.964C89.3311 232.023 89.3506 232.092 89.3506 232.161C89.3506 232.231 89.3311 232.3 89.2944 232.359C89.1 232.612 88.4909 232.702 87.6355 232.625L87.6096 232.612Z" fill="#0072E5"/>
<path d="M87.4022 232.78C87.8364 232.45 88.4196 231.4 88.2641 230.907C88.2333 230.82 88.175 230.745 88.0978 230.693C88.0207 230.642 87.9289 230.617 87.8364 230.622C87.7513 230.618 87.6664 230.634 87.5886 230.669C87.5109 230.704 87.4425 230.757 87.3893 230.823C86.9681 231.329 87.2467 232.657 87.2337 232.709C87.2353 232.727 87.2416 232.744 87.2518 232.759C87.262 232.773 87.2759 232.785 87.2921 232.793H87.3504L87.4022 232.78ZM87.8105 230.836C87.9725 230.836 88.0438 230.914 88.0308 230.972C88.021 231.537 87.7881 232.075 87.3828 232.469C87.2733 231.963 87.3231 231.436 87.5254 230.959C87.5525 230.925 87.5868 230.896 87.6259 230.876C87.6651 230.856 87.7082 230.844 87.7521 230.843L87.8105 230.836Z" fill="#0072E5"/>
<path d="M44.4917 217.54L49.0731 218.505L45.7359 228.873L41.161 227.901L44.4917 217.54Z" fill="#F7978D"/>
<path d="M46.98 228.879C48.0492 230.175 50.2653 231.743 53.7516 233.286C54.5292 233.636 54.1857 235.541 52.2677 235.139C50.3496 234.737 46.5458 233.772 45.1397 233.48C42.8781 233 42.0033 232.923 40.2084 232.579C40.1005 232.558 39.9978 232.516 39.9065 232.455C39.8152 232.394 39.737 232.315 39.6766 232.223C39.6162 232.132 39.5748 232.029 39.5548 231.921C39.5349 231.813 39.5368 231.702 39.5604 231.594L40.6684 227.577C40.6913 227.492 40.746 227.42 40.8209 227.376C40.8959 227.331 40.9852 227.317 41.0702 227.337L46.2153 228.426C46.5144 228.485 46.7841 228.645 46.98 228.879Z" fill="#263238"/>
<path opacity="0.2" d="M42.7745 222.885L47.3494 223.851L49.0731 218.511L44.4917 217.546L42.7745 222.885Z" fill="black"/>
<path d="M73.5803 120.54C73.5803 120.54 78.4533 162.705 78.8226 178.471C79.1661 192.993 78.9263 225.127 78.9263 225.127L87.3503 224.732C87.3503 224.732 90.856 194.879 91.8863 180.24C92.8065 166.846 89.9423 123.987 89.9423 123.987L73.5803 120.54Z" fill="#0072E5"/>
<path opacity="0.2" d="M75.5828 137.175C76.3344 145.897 77.3583 157.12 78.2914 166.51C80.2354 161.079 81.4018 147.407 79.0949 139.028C77.7017 133.928 76.464 135.049 75.5828 137.175Z" fill="black"/>
<path d="M77.5461 223.442L88.4131 222.613L87.9141 226.183L78.7709 226.941L77.5461 223.442Z" fill="#263238"/>
<path d="M64.0418 122.167C64.0418 122.167 56.1751 160.975 53.4599 176.508C50.9522 190.816 41.1479 221.155 41.1479 221.155L49.5072 222.924C49.5072 222.924 63.4003 192.228 67.2494 178.057C70.768 165.097 79.5614 125.445 79.5614 125.445L64.0418 122.167Z" fill="#0072E5"/>
<path d="M40.9211 218.311L52.1834 220.177L51.0105 223.248L40.785 221.084L40.9211 218.311Z" fill="#263238"/>
<path d="M48.6 229.527C48.6891 229.466 48.7597 229.382 48.8043 229.284C48.8488 229.186 48.8656 229.077 48.8527 228.97C48.8569 228.9 48.8423 228.83 48.8104 228.767C48.7785 228.704 48.7305 228.651 48.6713 228.614C48.1658 228.277 46.6754 228.886 46.5069 228.957C46.4894 228.969 46.4746 228.984 46.4634 229.002C46.4522 229.02 46.445 229.04 46.4421 229.061C46.4434 229.081 46.4501 229.101 46.4615 229.118C46.4729 229.135 46.4885 229.149 46.5069 229.158C46.8864 229.339 47.2839 229.481 47.6928 229.579C47.9915 229.672 48.3137 229.653 48.6 229.527ZM46.8698 229.054C47.466 228.827 48.3084 228.601 48.5546 228.795C48.5828 228.814 48.6054 228.841 48.6202 228.871C48.6349 228.902 48.6414 228.936 48.6389 228.97C48.6489 229.04 48.6398 229.111 48.6124 229.176C48.585 229.241 48.5404 229.298 48.4833 229.339C48.2241 229.501 47.615 229.398 46.8309 229.067L46.8698 229.054Z" fill="#0072E5"/>
<path d="M46.5846 229.165C47.0901 228.983 47.9843 228.18 47.9843 227.655C47.9843 227.561 47.9531 227.47 47.8956 227.396C47.8381 227.322 47.7576 227.27 47.6668 227.247C47.5869 227.217 47.5013 227.207 47.4168 227.217C47.3323 227.227 47.2514 227.257 47.1808 227.305C46.6235 227.655 46.455 228.99 46.4421 229.048C46.4399 229.065 46.4423 229.083 46.4491 229.099C46.456 229.115 46.467 229.128 46.481 229.139H46.5328L46.5846 229.165ZM47.5955 227.46C47.751 227.519 47.7834 227.596 47.7705 227.661C47.7705 228.005 47.1614 228.633 46.6948 228.886C46.7363 228.357 46.9503 227.856 47.3039 227.46C47.341 227.437 47.3827 227.421 47.4262 227.414C47.4697 227.408 47.5141 227.41 47.5566 227.422L47.5955 227.46Z" fill="#0072E5"/>
<path d="M48.6907 130.824C49.7793 129.735 49.9413 128.543 50.6347 127.28C51.0948 126.418 50.0321 126.755 51.0948 126.865C51.489 126.952 51.8718 127.084 52.2353 127.26C53.1554 127.617 54.0432 128.057 54.9763 128.388C55.7733 128.673 57.2054 128.543 57.8858 128.938C58.9874 129.586 57.9312 132.438 57.6979 133.358C57.4257 134.472 59.13 135.056 59.4021 133.928C59.8039 132.321 60.8277 129.457 59.5901 127.947C58.8189 127.007 57.6461 127.195 56.5704 126.988C54.5551 126.599 52.4945 124.759 50.382 124.979C50.0666 124.991 49.7619 125.097 49.5069 125.282C49.2518 125.468 49.0579 125.726 48.9499 126.022C48.6129 126.761 48.8073 127.584 48.3667 128.362C48.1351 128.766 47.8519 129.139 47.5243 129.47C46.7078 130.286 47.8872 131.641 48.7101 130.824H48.6907Z" fill="#0072E5"/>
<g opacity="0.3">
<path d="M48.6907 130.824C49.7793 129.735 49.9413 128.543 50.6347 127.28C51.0948 126.418 50.0321 126.755 51.0948 126.865C51.489 126.952 51.8718 127.084 52.2353 127.26C53.1554 127.617 54.0432 128.057 54.9763 128.388C55.7733 128.673 57.2054 128.543 57.8858 128.938C58.9874 129.586 57.9312 132.438 57.6979 133.358C57.4257 134.472 59.13 135.056 59.4021 133.928C59.8039 132.321 60.8277 129.457 59.5901 127.947C58.8189 127.007 57.6461 127.195 56.5704 126.988C54.5551 126.599 52.4945 124.759 50.382 124.979C50.0666 124.991 49.7619 125.097 49.5069 125.282C49.2518 125.468 49.0579 125.726 48.9499 126.022C48.6129 126.761 48.8073 127.584 48.3667 128.362C48.1351 128.766 47.8519 129.139 47.5243 129.47C46.7078 130.286 47.8872 131.641 48.7101 130.824H48.6907Z" fill="black"/>
</g>
<path d="M36.4401 126.241L68.8378 137.1C69.3657 137.277 69.8018 137.656 70.05 138.154C70.2982 138.653 70.3382 139.23 70.1612 139.758L64.3497 157.096C64.0444 158.007 63.3898 158.759 62.5298 159.187C61.6698 159.616 60.6749 159.685 59.764 159.379L30.2725 149.495C29.3616 149.189 28.6093 148.535 28.1811 147.675C27.7529 146.815 27.6839 145.82 27.9892 144.909L33.8007 127.57C33.9765 127.045 34.3525 126.611 34.8468 126.362C35.3411 126.113 35.9138 126.07 36.4401 126.241Z" fill="#0072E5"/>
<path opacity="0.3" d="M36.4401 126.241L68.8378 137.1C69.3657 137.277 69.8018 137.656 70.05 138.154C70.2982 138.653 70.3382 139.23 70.1612 139.758L64.3497 157.096C64.0444 158.007 63.3898 158.759 62.5298 159.187C61.6698 159.616 60.6749 159.685 59.764 159.379L30.2725 149.495C29.3616 149.189 28.6093 148.535 28.1811 147.675C27.7529 146.815 27.6839 145.82 27.9892 144.909L33.8007 127.57C33.9765 127.045 34.3525 126.611 34.8468 126.362C35.3411 126.113 35.9138 126.07 36.4401 126.241Z" fill="white"/>
<path d="M50.8002 139.63L45.7012 154.199L46.3128 154.413L51.4119 139.844L50.8002 139.63Z" fill="#0072E5"/>
<g opacity="0.3">
<path d="M50.8002 139.63L45.7012 154.199L46.3128 154.413L51.4119 139.844L50.8002 139.63Z" fill="black"/>
</g>
<path opacity="0.2" d="M68.2798 139.216L35.5817 128.258C35.0936 128.096 34.561 128.133 34.1007 128.363C33.6404 128.593 33.2898 128.995 33.1258 129.483L32.899 130.131C32.4387 131.507 32.5432 133.009 33.1896 134.307C33.8359 135.606 34.9713 136.595 36.3463 137.058L62.357 145.812C63.0382 146.04 63.7576 146.131 64.4741 146.081C65.1905 146.03 65.89 145.839 66.5327 145.519C67.1753 145.198 67.7485 144.754 68.2195 144.212C68.6905 143.669 69.0501 143.04 69.2777 142.358L69.5045 141.71C69.5908 141.466 69.6275 141.208 69.6125 140.949C69.5974 140.691 69.5309 140.438 69.4168 140.205C69.3028 139.973 69.1434 139.766 68.9482 139.596C68.7529 139.426 68.5256 139.297 68.2798 139.216Z" fill="black"/>
<path d="M68.999 137.155L36.288 126.197C36.0459 126.116 35.7901 126.083 35.5353 126.1C35.2805 126.118 35.0317 126.185 34.803 126.299C34.5743 126.413 34.3703 126.571 34.2026 126.763C34.0349 126.956 33.9068 127.18 33.8256 127.422L33.5988 128.07C33.1385 129.445 33.2431 130.948 33.8894 132.246C34.5358 133.545 35.6711 134.534 37.0461 134.997L63.0763 143.738C64.4504 144.194 65.9491 144.086 67.244 143.439C68.5388 142.792 69.5241 141.657 69.984 140.284L70.2108 139.636C70.2954 139.394 70.3312 139.137 70.316 138.881C70.3008 138.625 70.2349 138.374 70.1223 138.143C70.0096 137.912 69.8523 137.706 69.6595 137.536C69.4667 137.367 69.2422 137.237 68.999 137.155Z" fill="#0072E5"/>
<path d="M68.999 137.155L36.288 126.197C36.0459 126.116 35.7901 126.083 35.5353 126.1C35.2805 126.118 35.0317 126.185 34.803 126.299C34.5743 126.413 34.3703 126.571 34.2026 126.763C34.0349 126.956 33.9068 127.18 33.8256 127.422L33.5988 128.07C33.1385 129.445 33.2431 130.948 33.8894 132.246C34.5358 133.545 35.6711 134.534 37.0461 134.997L63.0763 143.738C64.4504 144.194 65.9491 144.086 67.244 143.439C68.5388 142.792 69.5241 141.657 69.984 140.284L70.2108 139.636C70.2954 139.394 70.3312 139.137 70.316 138.881C70.3008 138.625 70.2349 138.374 70.1223 138.143C70.0096 137.912 69.8523 137.706 69.6595 137.536C69.4667 137.367 69.2422 137.237 68.999 137.155Z" fill="#0072E5"/>
<path opacity="0.5" d="M68.999 137.155L36.288 126.197C36.0459 126.116 35.7901 126.083 35.5353 126.1C35.2805 126.118 35.0317 126.185 34.803 126.299C34.5743 126.413 34.3703 126.571 34.2026 126.763C34.0349 126.956 33.9068 127.18 33.8256 127.422L33.5988 128.07C33.1385 129.445 33.2431 130.948 33.8894 132.246C34.5358 133.545 35.6711 134.534 37.0461 134.997L63.0763 143.738C64.4504 144.194 65.9491 144.086 67.244 143.439C68.5388 142.792 69.5241 141.657 69.984 140.284L70.2108 139.636C70.2954 139.394 70.3312 139.137 70.316 138.881C70.3008 138.625 70.2349 138.374 70.1223 138.143C70.0096 137.912 69.8523 137.706 69.6595 137.536C69.4667 137.367 69.2422 137.237 68.999 137.155Z" fill="white"/>
<path d="M42.8831 133.513L41.8017 133.151C41.14 132.929 40.4238 133.286 40.2021 133.948L38.5555 138.863C38.3339 139.525 38.6906 140.241 39.3523 140.463L40.4337 140.825C41.0955 141.047 41.8116 140.69 42.0333 140.028L43.6799 135.113C43.9016 134.451 43.5448 133.735 42.8831 133.513Z" fill="#0072E5"/>
<path d="M60.4968 139.411L59.4153 139.049C58.7535 138.828 58.0374 139.184 57.8159 139.846L56.1701 144.762C55.9486 145.424 56.3054 146.14 56.9672 146.361L58.0487 146.723C58.7104 146.945 59.4265 146.588 59.6481 145.926L61.2938 141.011C61.5154 140.349 61.1585 139.633 60.4968 139.411Z" fill="#0072E5"/>
<path d="M42.8831 133.513L41.8017 133.151C41.14 132.929 40.4238 133.286 40.2021 133.948L38.5555 138.863C38.3339 139.525 38.6906 140.241 39.3523 140.463L40.4337 140.825C41.0955 141.047 41.8116 140.69 42.0333 140.028L43.6799 135.113C43.9016 134.451 43.5448 133.735 42.8831 133.513Z" fill="white"/>
<path d="M60.4968 139.411L59.4153 139.049C58.7535 138.828 58.0374 139.184 57.8159 139.846L56.1701 144.762C55.9486 145.424 56.3054 146.14 56.9672 146.361L58.0487 146.723C58.7104 146.945 59.4265 146.588 59.6481 145.926L61.2938 141.011C61.5154 140.349 61.1585 139.633 60.4968 139.411Z" fill="white"/>
<path d="M95.8132 88.9828C96.1048 89.5595 96.4612 90.2464 96.8111 90.8749C97.1611 91.5035 97.5239 92.1709 97.8933 92.8189C98.6385 94.0825 99.3967 95.3267 100.2 96.506C100.977 97.6506 101.817 98.7517 102.714 99.8044C103.442 100.69 104.301 101.459 105.261 102.085L105.391 102.163H105.449H105.611C105.972 102.157 106.327 102.075 106.654 101.923C107.765 101.392 108.793 100.702 109.706 99.8756C110.792 98.9543 111.814 97.9606 112.765 96.9013C113.257 96.357 113.75 95.8192 114.223 95.2554C114.696 94.6916 115.182 94.0955 115.603 93.5771L115.681 93.4734C116.061 92.9388 116.636 92.5736 117.281 92.4556C117.927 92.3376 118.593 92.476 119.138 92.8414C119.683 93.2067 120.064 93.7703 120.2 94.4123C120.336 95.0543 120.217 95.724 119.867 96.2792C118.262 99.2121 116.304 101.937 114.035 104.392C112.752 105.767 111.271 106.942 109.642 107.878C108.597 108.462 107.451 108.842 106.265 108.999C105.547 109.088 104.819 109.066 104.108 108.935C103.735 108.87 103.368 108.772 103.012 108.643C102.835 108.592 102.663 108.523 102.501 108.436L102.112 108.261C100.366 107.353 98.7829 106.161 97.4267 104.736C96.2166 103.523 95.0969 102.224 94.0766 100.848C93.0787 99.5063 92.1326 98.1455 91.2902 96.7458C90.8366 96.0524 90.4348 95.372 90.0331 94.6398C89.6313 93.9076 89.249 93.2401 88.8407 92.4301C88.6089 91.9727 88.4693 91.4741 88.4301 90.9628C88.3909 90.4515 88.4528 89.9375 88.6123 89.4501C88.7717 88.9627 89.0256 88.5115 89.3595 88.1222C89.6933 87.7329 90.1005 87.4132 90.5579 87.1813C91.0153 86.9494 91.5139 86.8099 92.0252 86.7707C92.5366 86.7315 93.0506 86.7934 93.538 86.9529C94.0254 87.1123 94.4766 87.3662 94.8659 87.7C95.2551 88.0339 95.5749 88.4411 95.8067 88.8985L95.8132 88.9828Z" fill="#263238"/>
<path d="M117.761 95.5403L121.435 96.8752L121.182 92.5854C121.182 92.5854 117.359 91.2311 116.854 93.2334V94.173C116.845 94.4668 116.927 94.7561 117.09 95.0011C117.252 95.246 117.487 95.4344 117.761 95.5403Z" fill="#F7978D"/>
<path d="M125.213 95.8576L125.991 92.1899L121.182 92.5787L121.435 96.875L125.213 95.8576Z" fill="#F7978D"/>
<path opacity="0.3" d="M96.9019 104.016C96.4743 103.517 96.0595 103.024 95.6578 102.525C94.4054 100.919 93.2748 99.2204 92.2752 97.4452C91.2892 95.7193 90.4021 93.9388 89.6184 92.1121C89.5083 91.8529 89.4046 91.5937 89.3009 91.3345C91.2449 90.1617 95.4439 90.7384 96.7983 96.1881C97.3412 98.7658 97.3764 101.425 96.9019 104.016Z" fill="black"/>
<path d="M88.4844 127.338L64.0419 122.154C64.327 119.931 66.3228 112.926 67.878 103.796C68.8512 97.4976 69.4119 91.1423 69.5563 84.7708C69.5563 84.7708 69.5563 84.7319 69.5563 84.7125C69.5779 84.32 69.6766 83.9356 69.847 83.5813C70.0173 83.2271 70.2559 82.9099 70.5491 82.648C70.8423 82.3862 71.1843 82.1847 71.5554 82.0553C71.9266 81.9258 72.3197 81.8709 72.7121 81.8937H72.7639C74.2867 81.9844 76.1854 82.1594 78.0192 82.451C81.5245 82.9902 84.9968 83.7257 88.4196 84.6542C89.5477 85.0155 90.6515 85.4484 91.7244 85.9502C92.4774 86.2737 93.1287 86.7952 93.6091 87.4592C94.0894 88.1233 94.3809 88.9051 94.4525 89.7215C94.8867 95.1129 94.6793 105.565 88.4844 127.338Z" fill="white"/>
<path d="M85.3999 88.205L84.7001 89.6047C84.6598 89.716 84.587 89.8126 84.4911 89.8819C84.3951 89.9513 84.2806 89.9902 84.1623 89.9935L82.944 89.8898C82.7691 89.8898 82.6265 89.7343 82.5617 89.5075L82.0692 87.8292L83.8836 86.7017L85.3999 88.205Z" fill="#0072E5"/>
<path d="M77.7599 82.0427C75.8159 81.7317 73.8266 81.5567 72.2195 81.453H72.1677H72.077C71.2449 81.4285 70.437 81.7345 69.8298 82.304C69.2227 82.8735 68.8657 83.6602 68.837 84.4921C68.6836 91.2192 68.0948 97.9292 67.0744 104.58C64.6962 121.616 62.344 125.005 62.344 125.005L73.2239 127.02C76.5222 111.546 79.0559 90.4084 78.7967 82.1853L77.7599 82.0427Z" fill="#263238"/>
<path opacity="0.3" d="M67.4374 102.182C68.2279 96.6808 68.5714 91.0044 68.7334 86.8572C68.785 86.8025 68.8414 86.7527 68.9019 86.7081C70.2691 85.5417 73.6841 88.3346 72.751 93.564C71.8891 98.5082 69.4721 101.515 67.4374 102.182Z" fill="black"/>
<path d="M90.3246 130.908L83.741 129.146C87.8752 100.148 88.8407 92.4428 87.9076 84.3169C89.5386 84.7457 91.1457 85.2605 92.7222 85.8591C93.5466 86.2587 94.2533 86.8651 94.7734 87.6192C95.2935 88.3733 95.6094 89.2493 95.6901 90.1618C96.2474 94.6849 92.8 106.284 90.3246 130.908Z" fill="#263238"/>
<path d="M82.7367 118.927C82.9017 118.846 83.081 118.799 83.2642 118.788C83.4475 118.777 83.6311 118.803 83.8045 118.863C83.9779 118.923 84.1378 119.017 84.2748 119.139C84.4118 119.261 84.5233 119.409 84.6029 119.575C84.729 119.822 84.7788 120.101 84.7461 120.376C84.7134 120.651 84.5997 120.911 84.4193 121.121C84.2389 121.332 84 121.484 83.7329 121.559C83.4658 121.634 83.1826 121.627 82.9191 121.541C82.6557 121.454 82.4239 121.291 82.2532 121.073C82.0825 120.854 81.9805 120.59 81.9603 120.313C81.94 120.037 82.0024 119.76 82.1395 119.519C82.2766 119.278 82.4822 119.083 82.7302 118.959L82.7367 118.927Z" fill="#263238"/>
<path d="M81.9138 120.929C81.8162 120.739 81.7571 120.531 81.7398 120.318C81.7225 120.105 81.7474 119.891 81.813 119.688C81.8786 119.484 81.9836 119.296 82.1221 119.133C82.2606 118.97 82.4298 118.836 82.6201 118.739C82.8104 118.64 83.0186 118.581 83.2323 118.564C83.446 118.547 83.6609 118.574 83.8642 118.642C84.1194 118.723 84.3505 118.866 84.537 119.058C84.7235 119.251 84.8597 119.486 84.9334 119.744C85.0071 120.001 85.016 120.273 84.9594 120.535C84.9029 120.796 84.7825 121.04 84.609 121.244C84.4356 121.448 84.2144 121.607 83.9651 121.705C83.7159 121.803 83.4463 121.838 83.1802 121.806C82.9142 121.775 82.66 121.679 82.4402 121.526C82.2204 121.373 82.0418 121.168 81.9202 120.929H81.9138Z" fill="white"/>
<path d="M84.0521 86.7339C78.8357 85.9239 77.6174 82.4442 77.6174 82.4442C80.3585 80.6622 80.7797 74.3701 80.7214 70.8579L83.0088 73.7545L86.1322 77.7008C85.9185 78.1853 85.7303 78.6806 85.5684 79.1847C84.9204 81.1935 85.0694 83.1829 87.9401 84.5372C87.9401 84.5372 88.4974 87.4078 84.0521 86.7339Z" fill="#F7978D"/>
<path d="M76.6455 81.8288L78.3562 81.5825C79.7218 83.6685 81.5543 85.4079 83.7087 86.6628C82.569 87.1203 81.5919 87.9078 80.9029 88.9244C75.8161 85.9047 76.6455 81.8288 76.6455 81.8288Z" fill="white"/>
<path d="M87.979 84.252L86.5663 83.604C86.5663 83.604 85.3157 86.5589 83.7021 86.669C86.1451 88.2631 86.2941 89.6693 86.2941 89.6693C90.3895 89.2546 87.979 84.252 87.979 84.252Z" fill="white"/>
<path opacity="0.2" d="M85.7369 78.712L82.7432 74.9536C82.6093 75.4272 82.5267 75.9139 82.4969 76.4051C82.3997 77.8955 83.9484 79.7812 85.2963 80.3774L85.7369 78.712Z" fill="black"/>
<path d="M89.0223 71.8496C89.0223 71.8496 89.1843 74.1824 91.6143 73.2882C91.7179 70.8063 92.5344 70.9942 93.3768 69.5362C93.9238 68.732 94.2427 67.7947 94.2998 66.8237C94.3568 65.8528 94.1499 64.8845 93.7008 64.0218L92.1521 63.2377C86.1127 61.365 89.0223 71.8496 89.0223 71.8496Z" fill="#263238"/>
<path opacity="0.6" d="M89.0223 71.8496C89.0223 71.8496 89.1843 74.1824 91.6143 73.2882C91.7179 70.8063 92.5344 70.9942 93.3768 69.5362C93.9238 68.732 94.2427 67.7947 94.2998 66.8237C94.3568 65.8528 94.1499 64.8845 93.7008 64.0218L92.1521 63.2377C86.1127 61.365 89.0223 71.8496 89.0223 71.8496Z" fill="white"/>
<path d="M82.7107 62.4146C83.7918 61.2033 85.3098 60.4709 86.9309 60.3786C88.5519 60.2862 90.1432 60.8414 91.355 61.9221C95.1199 65.1168 93.7979 71.9208 91.679 75.6079C91.1451 76.5717 90.3583 77.3715 89.4034 77.921C88.4484 78.4706 87.3616 78.749 86.2601 78.7264C85.1585 78.7037 84.0841 78.3807 83.1525 77.7924C82.221 77.204 81.4678 76.3725 80.974 75.3876C79.4123 72.3679 80.2418 69.7694 81.2851 65.2334C81.5064 64.1856 81.9979 63.2139 82.7107 62.4146Z" fill="#F7978D"/>
<path d="M80.5464 69.348C80.5464 69.348 81.1555 71.3633 83.3587 70.2876C82.9764 68.1103 83.8058 68.1687 84.3501 66.7884C84.7251 65.9921 84.8545 65.1021 84.7218 64.2319C84.5891 63.3618 84.2003 62.5508 83.605 61.9025L81.9396 61.4165C74.021 60.6713 80.5464 69.348 80.5464 69.348Z" fill="#263238"/>
<path opacity="0.6" d="M80.5464 69.348C80.5464 69.348 81.1555 71.3633 83.3587 70.2876C82.9764 68.1103 83.8058 68.1687 84.3501 66.7884C84.7251 65.9921 84.8545 65.1021 84.7218 64.2319C84.5891 63.3618 84.2003 62.5508 83.605 61.9025L81.9396 61.4165C74.021 60.6713 80.5464 69.348 80.5464 69.348Z" fill="white"/>
<path d="M88.4066 56.9131C87.9983 56.764 87.5578 56.7256 87.1298 56.8019C86.7019 56.8781 86.3017 57.0663 85.9701 57.3473C85.5359 57.7231 85.1147 58.2998 84.551 58.1897C84.2749 58.0903 84.0232 57.9335 83.8122 57.7296C82.905 57.0816 81.5831 57.3602 80.7018 58.0471C79.8752 58.8004 79.1905 59.6959 78.6801 60.691C78.1698 61.6934 77.3914 62.5346 76.4315 63.121C77.3306 63.5503 78.3103 63.785 79.3064 63.8095C80.3025 63.8341 81.2925 63.648 82.2117 63.2635C81.6948 63.9018 80.9857 64.3563 80.1899 64.5595C82.0195 65.0827 83.9767 64.9238 85.6979 64.1124C86.6634 63.6523 87.5577 62.9849 88.6139 62.8164C89.6702 62.6479 90.9662 63.2052 91.0634 64.2679C91.1214 64.1375 91.2056 64.0205 91.3107 63.9239C91.4159 63.8274 91.5397 63.7535 91.6745 63.7067C91.8094 63.6599 91.9524 63.6413 92.0947 63.652C92.237 63.6627 92.3756 63.7025 92.5019 63.769C93.0012 64.0757 93.3947 64.528 93.6294 65.065C93.8618 65.5982 94.2306 66.0609 94.6986 66.4063C94.9379 66.5685 95.2315 66.6295 95.5155 66.5761C95.7996 66.5227 96.051 66.3592 96.215 66.1212C95.829 66.0899 95.4669 65.922 95.1937 65.6476C94.9205 65.3732 94.7541 65.0104 94.7246 64.6243C95.2938 64.9423 95.9566 65.0501 96.5973 64.9289C95.7549 64.877 94.1025 61.8638 93.8498 61.0409C93.642 60.2142 93.1712 59.4774 92.5084 58.9414C91.7178 58.397 90.9208 59.3431 90.1756 58.9414C89.4304 58.5396 89.249 57.2306 88.4066 56.9131Z" fill="#263238"/>
<path d="M87.3569 73.2819C86.7516 72.7767 86.3717 72.0518 86.3007 71.2666L87.5967 71.785C88.1475 71.9988 89.7286 72.6663 89.3787 73.5346C89.0287 74.4029 87.7781 73.6253 87.3569 73.2819Z" fill="#263238"/>
<path d="M91.0763 74.7071C91.4676 74.6985 91.8533 74.6128 92.2113 74.4549C92.5694 74.297 92.8927 74.07 93.1629 73.7869L91.8086 73.3722C91.2448 73.1972 89.5924 72.7242 89.3202 73.6379C89.0481 74.5516 90.5255 74.7136 91.0763 74.7071Z" fill="#263238"/>
<path d="M89.2815 73.2365C89.5448 73.4029 89.8412 73.51 90.15 73.5503C90.4589 73.5906 90.7728 73.5631 91.07 73.4698C90.6383 72.2912 90.368 71.0596 90.2665 69.8086L89.2815 73.2365Z" fill="#FF5652"/>
<path d="M80.8056 66.2249C81.9072 66.5943 82.3413 68.4411 82.2895 69.5945C82.2312 70.8905 81.3823 71.6876 80.4297 70.8905C79.696 70.2079 79.2219 69.2918 79.0884 68.2985C78.9199 67.0025 79.704 65.8491 80.8056 66.2249Z" fill="#F7978D"/>
<path d="M88.128 68.2724C88.3613 68.3567 88.452 68.7455 88.3548 69.076C88.2576 69.4065 87.979 69.6333 87.7457 69.5555C87.5124 69.4777 87.4347 69.1343 87.5124 68.7649C87.5902 68.3956 87.8883 68.1947 88.128 68.2724Z" fill="#263238"/>
<path d="M92.2168 69.4002C92.4566 69.4779 92.5538 69.8278 92.4501 70.1907C92.3464 70.5536 92.0678 70.7934 91.8345 70.7091C91.6012 70.6249 91.4975 70.275 91.6012 69.9121C91.7049 69.5492 92.0159 69.3483 92.2168 69.4002Z" fill="#263238"/>
<path d="M88.8732 75.2384C88.902 75.2409 88.9308 75.2332 88.9545 75.2166C88.9782 75.2 88.9953 75.1756 89.0028 75.1477C89.0067 75.1186 88.9996 75.0892 88.9828 75.0651C88.9659 75.0411 88.9407 75.0243 88.9121 75.0181C88.4406 74.9536 87.9903 74.7815 87.5959 74.5152C87.2015 74.2489 86.8736 73.8955 86.6376 73.4823C86.6237 73.4566 86.6008 73.437 86.5732 73.4274C86.5456 73.4178 86.5154 73.4189 86.4885 73.4305C86.4628 73.4443 86.4432 73.4673 86.4336 73.4949C86.424 73.5225 86.4251 73.5527 86.4367 73.5795C86.6482 73.9631 86.9352 74.2999 87.2805 74.5694C87.6257 74.8389 88.0221 75.0357 88.4455 75.1477C88.5816 75.1801 88.7306 75.1801 88.8732 75.2384Z" fill="#263238"/>
<path d="M92.0743 67.8384C92.0821 67.8744 92.0986 67.908 92.1223 67.9362C92.146 67.9645 92.1762 67.9865 92.2104 68.0004C92.4817 68.0829 92.7308 68.2261 92.9385 68.4192C93.1462 68.6124 93.3072 68.8503 93.4092 69.115C93.4152 69.1426 93.4268 69.1688 93.4433 69.1918C93.4598 69.2148 93.4808 69.2342 93.5051 69.2488C93.5294 69.2634 93.5564 69.2728 93.5845 69.2765C93.6126 69.2803 93.6411 69.2782 93.6684 69.2705C93.7231 69.2525 93.769 69.2144 93.7967 69.1639C93.8244 69.1133 93.8318 69.0541 93.8174 68.9983C93.6984 68.6632 93.5029 68.3605 93.2464 68.1141C92.99 67.8678 92.6796 67.6846 92.34 67.5792C92.2841 67.5626 92.224 67.5682 92.1721 67.5947C92.1202 67.6213 92.0806 67.6668 92.0613 67.7218C92.0526 67.761 92.0572 67.802 92.0743 67.8384Z" fill="#263238"/>
<path d="M87.3504 66.6849C87.3797 66.7068 87.4136 66.7216 87.4496 66.7284C87.4855 66.7351 87.5225 66.7335 87.5577 66.7238C87.8236 66.6241 88.1085 66.5857 88.3913 66.6115C88.674 66.6373 88.9473 66.7266 89.1907 66.8728C89.2355 66.9069 89.2919 66.9219 89.3477 66.9146C89.4035 66.9073 89.4542 66.8783 89.4888 66.8339C89.5225 66.7873 89.5366 66.7293 89.5281 66.6724C89.5197 66.6155 89.4893 66.5642 89.4434 66.5294C89.1444 66.3374 88.8044 66.2186 88.4508 66.1826C88.0973 66.1465 87.7403 66.1943 87.4087 66.322C87.381 66.3307 87.3554 66.345 87.3335 66.3639C87.3115 66.3829 87.2936 66.4061 87.2808 66.4321C87.2681 66.4582 87.2608 66.4866 87.2594 66.5156C87.258 66.5445 87.2625 66.5735 87.2726 66.6007C87.2923 66.6339 87.3188 66.6627 87.3504 66.6849Z" fill="#263238"/>
<path d="M52.3261 123.067L51.4837 122.977C49.5008 123.929 51.6521 127.597 51.6521 127.597L57.4841 126.884L55.7929 124.94C54.9145 123.901 53.6764 123.232 52.3261 123.067Z" fill="#F7978D"/>
<path d="M57.6719 129.398L57.4775 126.877L51.6455 127.59L51.9695 130.578C51.9665 130.621 51.9665 130.664 51.9695 130.707C51.9975 130.821 52.0478 130.928 52.1175 131.023C52.1872 131.117 52.2749 131.196 52.3755 131.257C52.4761 131.317 52.5877 131.357 52.7037 131.374C52.8198 131.39 52.9381 131.384 53.0517 131.355L57.0239 130.312C57.2205 130.257 57.3922 130.137 57.5102 129.97C57.6282 129.804 57.6853 129.602 57.6719 129.398Z" fill="#F7978D"/>
<path d="M86.3006 112.498C86.3006 112.498 84.2724 117.378 83.3781 116.704C82.4839 116.03 80.4232 112.297 80.4168 112.22C80.4103 112.142 82.944 89.8896 82.944 89.8896L84.1557 89.9933C83.6632 92.4881 86.3006 112.498 86.3006 112.498Z" fill="#0072E5"/>
<path d="M52.9027 100.452C50.4792 103.899 49.896 120.164 50.544 124.344C51.0565 123.77 51.7598 123.401 52.5236 123.305C53.2873 123.21 54.0597 123.395 54.6977 123.825C54.756 120.961 57.0758 110.729 58.0738 106.459C58.36 105.258 59.0654 104.199 60.0631 103.472C64.3399 100.374 72.0835 94.2443 72.9389 91.8078C74.3191 87.9198 73.1333 79.9494 69.6989 82.3988C66.4459 84.7381 54.8273 97.6722 52.9027 100.452Z" fill="#263238"/>
<path d="M246.791 18.4477C246.328 18.3393 245.875 18.1919 245.436 18.0071C244.62 17.6896 243.577 17.1517 242.482 16.6268C241.574 16.1764 240.597 15.8828 239.591 15.7585C238.82 15.6743 238.295 15.7585 238.224 15.5576C238.153 15.3568 238.607 14.9809 239.52 14.806C240.727 14.6423 241.955 14.8526 243.039 15.4086C244.054 15.9382 244.979 16.6249 245.78 17.4433C246.415 18.046 246.791 18.4477 246.791 18.4477Z" fill="#0072E5"/>
<path d="M251.547 14.618L250.569 15.0003C249.985 15.24 249.273 15.577 248.43 15.9334C246.791 16.6592 245.391 17.4108 245.19 17.0804C245.087 16.9313 245.3 16.562 245.773 16.1084C246.401 15.5138 247.13 15.0355 247.925 14.6957C248.74 14.3426 249.636 14.2171 250.517 14.3328C250.784 14.3681 251.047 14.4311 251.301 14.5208L251.547 14.618Z" fill="#0072E5"/>
<path d="M237.965 21.3054L237.699 21.1434C237.531 21.0332 237.278 20.8906 236.974 20.7286C236.205 20.3142 235.403 19.9652 234.576 19.6854C232.671 18.9985 230.967 19.154 230.915 18.8624C230.915 18.7328 231.304 18.5125 232.042 18.4088C233.009 18.2963 233.988 18.4049 234.906 18.7263C235.825 19.0498 236.646 19.603 237.291 20.3334C237.487 20.5488 237.66 20.7833 237.81 21.0332L237.965 21.3054Z" fill="#0072E5"/>
<path d="M239.838 17.3656L239.151 17.7608L237.628 18.6097C236.481 19.2577 235.593 19.977 235.373 19.7826C235.276 19.6854 235.373 19.3808 235.665 18.9856C236.06 18.4542 236.564 18.0126 237.142 17.6896C237.724 17.3804 238.375 17.2243 239.034 17.236C239.307 17.2452 239.577 17.2888 239.838 17.3656Z" fill="#0072E5"/>
<path d="M236.384 15.1233C236.384 15.1233 235.736 14.8965 234.751 14.4753C233.766 14.0541 232.438 13.4709 230.98 12.9914C229.752 12.5773 228.457 12.3971 227.163 12.46C226.165 12.5183 225.53 12.7127 225.439 12.5313C225.349 12.3498 225.873 11.8833 226.988 11.5269C228.445 11.15 229.98 11.2132 231.401 11.7083C232.768 12.1911 234.027 12.9375 235.107 13.905C235.556 14.2866 235.982 14.6934 236.384 15.1233Z" fill="#0072E5"/>
<path d="M240.764 9.55722L240.401 9.66089C240.162 9.71921 239.831 9.8229 239.436 9.94602C238.443 10.2745 237.469 10.6596 236.52 11.0995C234.304 12.0909 232.878 13.5619 232.574 13.3286C232.431 13.2184 232.613 12.6806 233.176 11.9807C233.934 11.0794 234.884 10.3597 235.956 9.87474C237.028 9.39088 238.205 9.18582 239.378 9.27858C239.728 9.30334 240.075 9.36193 240.414 9.45353L240.764 9.55722Z" fill="#0072E5"/>
<path d="M90.6747 34.8164C90.2126 34.7043 89.7599 34.557 89.3204 34.3758C88.5039 34.0582 87.4541 33.5204 86.3655 32.989C85.4547 32.5413 84.4758 32.2479 83.4689 32.1207C82.6978 32.0365 82.1729 32.1207 82.1016 31.9198C82.0304 31.719 82.484 31.3431 83.3976 31.1746C84.6046 31.0071 85.8338 31.2177 86.9163 31.7773C87.9335 32.3009 88.8591 32.9859 89.6573 33.8055C90.2988 34.4082 90.6747 34.8164 90.6747 34.8164Z" fill="#0072E5"/>
<path d="M95.431 30.9866L94.446 31.3689C93.8628 31.6022 93.15 31.9391 92.3076 32.302C90.6682 33.0213 89.275 33.773 89.0676 33.449C88.9575 33.2935 89.1778 32.9306 89.6443 32.4705C90.2734 31.8775 91.0015 31.3994 91.7957 31.0579C92.6123 30.7093 93.5068 30.5841 94.3877 30.695C94.6524 30.7323 94.9128 30.7953 95.1653 30.8829C95.2557 30.9126 95.3444 30.9473 95.431 30.9866Z" fill="#0072E5"/>
<path d="M81.849 37.6675L81.5768 37.5055C81.4083 37.3954 81.1621 37.2528 80.8575 37.0908C80.0879 36.6788 79.286 36.3299 78.4599 36.0475C76.5548 35.3995 74.8441 35.5162 74.7922 35.2246C74.7922 35.095 75.1875 34.8747 75.9198 34.771C76.8888 34.6579 77.8709 34.7688 78.7904 35.095C79.7092 35.4155 80.5303 35.9666 81.175 36.6955C81.369 36.9108 81.5405 37.1453 81.687 37.3954L81.849 37.6675Z" fill="#0072E5"/>
<path d="M83.7151 33.7081L83.0347 34.1034L81.5119 35.0041C80.3584 35.6521 79.4772 36.3714 79.2568 36.1705C79.1532 36.0798 79.2568 35.7752 79.5484 35.3735C79.9463 34.8544 80.4499 34.4259 81.0259 34.1163C81.6048 33.8044 82.254 33.646 82.9116 33.6563C83.1805 33.6401 83.4504 33.6575 83.7151 33.7081Z" fill="#0072E5"/>
</svg>
