<svg width="572" height="437" viewBox="0 0 572 437" fill="none" xmlns="http://www.w3.org/2000/svg">
<path d="M280.69 437C420.023 437 532.975 430.406 532.975 422.271C532.975 414.136 420.023 407.542 280.69 407.542C141.357 407.542 28.4058 414.136 28.4058 422.271C28.4058 430.406 141.357 437 280.69 437Z" fill="#F5F5F5"/>
<path d="M396.924 117.679C396.924 117.679 389.56 107.894 404.445 102.976C419.33 98.0572 425.979 100.256 425.979 100.256C425.979 100.256 420.28 101.31 418.537 102.442C416.793 103.574 430.104 99.5926 435.647 108.714C435.647 108.714 432.798 106.905 430.26 107.699C427.723 108.493 437.013 110.444 432.134 120.164C427.255 129.884 443.402 126.982 440.084 138.654C436.766 150.325 420.319 145.55 413.8 146.63C407.282 147.71 393.372 153.786 395.103 140.658C395.103 140.658 393.801 142.258 394.14 146.695C394.14 146.695 389.338 140.658 394.855 133.007C393.596 130.546 393.12 127.758 393.49 125.019C393.859 122.279 395.058 119.718 396.924 117.679Z" fill="#263238"/>
<path d="M451.469 263.423C451.469 263.423 463.831 294.795 466.68 311.567C469.53 328.339 476.829 394.595 476.829 394.595L466.056 395.896C466.056 395.896 449.609 355.325 448.945 316.667C448.945 316.667 434.047 284.021 427.072 271.66L451.469 263.423Z" fill="#FFB573"/>
<path d="M477.688 376.326L480.837 399.175C480.895 399.65 481.09 400.098 481.397 400.465C481.704 400.832 482.11 401.102 482.567 401.244C485.556 402.225 488.597 403.041 491.675 403.69C495.211 403.978 498.76 404.074 502.306 403.976C502.884 403.968 503.447 404.163 503.896 404.527C504.345 404.891 504.653 405.4 504.765 405.967C504.912 406.649 504.789 407.362 504.423 407.956C504.057 408.55 503.476 408.979 502.801 409.155L469.842 417.548C469.52 417.633 469.184 417.653 468.853 417.607C468.523 417.561 468.206 417.449 467.92 417.278C467.634 417.107 467.384 416.88 467.187 416.611C466.99 416.343 466.848 416.037 466.771 415.713L458.378 381.882C458.219 381.212 458.319 380.506 458.66 379.907C459 379.308 459.555 378.861 460.213 378.656L474.435 374.258C474.785 374.143 475.157 374.108 475.522 374.155C475.888 374.201 476.238 374.327 476.549 374.525C476.86 374.723 477.123 374.987 477.32 375.298C477.517 375.61 477.643 375.961 477.688 376.326Z" fill="#263238"/>
<path d="M438.796 216.842L442.595 230.491C442.595 230.491 448.62 243.165 456.544 269.787L429.297 279.298C429.297 279.298 412.811 260.6 409.012 239.365C405.213 218.13 409.012 218.078 409.012 218.078L438.796 216.842Z" fill="#263238"/>
<path opacity="0.2" d="M438.796 216.842L442.595 230.491C442.595 230.491 448.62 243.165 456.544 269.787L429.297 279.298C429.297 279.298 412.811 260.6 409.012 239.365C405.213 218.13 409.012 218.078 409.012 218.078L438.796 216.842Z" fill="white"/>
<path opacity="0.2" d="M433.019 227.133L428.022 228.565V236.372L422.896 252.545C422.896 252.545 422.193 261.719 422.258 269.903C424.704 273.585 426.864 276.409 428.126 277.905C441.437 257.815 433.019 227.133 433.019 227.133Z" fill="black"/>
<path d="M423.585 271.023C423.585 271.023 423.585 321.768 418.524 329.653C413.462 337.539 378.265 384.472 378.265 384.472L370.354 378.825C370.354 378.825 382.39 340.805 402.038 321.469C402.038 321.469 396.963 287.873 396.963 266.963L423.585 271.023Z" fill="#FFB573"/>
<path d="M390.678 372.54L376.886 391.043C376.594 391.42 376.416 391.873 376.375 392.349C376.333 392.824 376.429 393.301 376.652 393.723C378.084 396.51 379.661 399.22 381.375 401.843C383.693 404.53 386.151 407.093 388.74 409.52C389.153 409.923 389.414 410.457 389.478 411.031C389.542 411.605 389.406 412.184 389.091 412.669C388.713 413.255 388.124 413.674 387.446 413.839C386.768 414.004 386.053 413.901 385.448 413.553L356.106 396.339C355.818 396.172 355.566 395.95 355.365 395.685C355.164 395.42 355.018 395.117 354.936 394.794C354.853 394.472 354.836 394.136 354.885 393.807C354.934 393.478 355.049 393.162 355.221 392.878L373.048 362.951C373.406 362.361 373.974 361.929 374.637 361.74C375.301 361.552 376.011 361.622 376.626 361.936L389.833 368.819C390.155 368.986 390.437 369.222 390.66 369.509C390.882 369.797 391.039 370.129 391.119 370.483C391.2 370.838 391.202 371.205 391.126 371.56C391.05 371.916 390.897 372.25 390.678 372.54Z" fill="#263238"/>
<path d="M432.459 216.842C432.459 216.842 435.946 255.812 427.072 271.66L425.485 279.272H396.339C390.769 259.002 392.681 237.405 401.726 218.429L432.459 216.842Z" fill="#263238"/>
<path opacity="0.2" d="M432.459 216.842C432.459 216.842 435.946 255.812 427.072 271.66L425.485 279.272H396.339C390.769 259.002 392.681 237.405 401.726 218.429L432.459 216.842Z" fill="white"/>
<path d="M477.467 233.314L481.579 241.72L490.557 247.237C491.41 247.761 492.039 248.581 492.326 249.54C492.495 250.092 492.545 250.675 492.472 251.248C492.398 251.821 492.204 252.372 491.901 252.865C491.598 253.357 491.194 253.779 490.716 254.103C490.237 254.427 489.695 254.646 489.125 254.744L486.042 255.213C485.081 255.384 484.091 255.199 483.257 254.692L478.924 252.09C478.452 251.805 478.043 251.428 477.72 250.981C477.398 250.534 477.17 250.026 477.05 249.488L475.84 243.919L470.454 235.994L477.467 233.314Z" fill="#FFB573"/>
<path d="M431.939 151.119C431.939 151.119 440.383 150.598 448.62 165.432C456.856 180.265 457.117 191 461.632 198.716C467.11 208.11 469.556 207.577 480.329 237.374C479.461 238.536 478.369 239.514 477.118 240.249C475.867 240.984 474.481 241.462 473.043 241.655C473.043 241.655 457.819 219.691 450.52 204.467C443.22 189.243 430.247 161.372 430.247 161.372L431.939 151.119Z" fill="#407BFF"/>
<path opacity="0.2" d="M441.984 186.459C442.936 177.059 442.182 167.564 439.759 158.432L436.675 161.906C436.675 161.906 435.959 166.004 435.088 171.756C437.091 176.037 439.512 181.215 441.984 186.459Z" fill="black"/>
<path d="M407.008 134.074C408.479 139.786 410.209 150.312 406.384 154.398C411.146 157.691 416.316 160.35 421.764 162.309C427.879 156.636 424.366 153.383 424.366 153.383C417.86 152.173 417.73 147.411 418.55 142.87L407.008 134.074Z" fill="#FFB573"/>
<path opacity="0.2" d="M411.732 137.704L418.576 142.909C418.359 143.967 418.233 145.043 418.198 146.123C415.726 145.902 411.888 143.911 411.484 141.334C411.353 140.119 411.437 138.89 411.732 137.704Z" fill="black"/>
<path d="M400.659 125.902C404.354 134.698 405.733 138.511 411.888 141.516C421.139 146.058 431.132 139.591 430.104 129.871C429.206 121.114 423.312 108.206 413.267 107.751C411.046 107.626 408.83 108.073 406.831 109.048C404.832 110.023 403.116 111.494 401.848 113.322C400.579 115.149 399.8 117.27 399.585 119.484C399.37 121.698 399.726 123.93 400.62 125.967L400.659 125.902Z" fill="#FFB573"/>
<path d="M401.01 133.762C402.095 135.255 403.728 136.257 405.551 136.546C407.971 136.911 408.882 134.673 407.958 132.552C407.138 130.639 404.874 128.141 402.571 128.752C402.075 128.9 401.622 129.168 401.253 129.533C400.885 129.897 400.611 130.346 400.457 130.841C400.303 131.336 400.272 131.861 400.369 132.371C400.465 132.88 400.685 133.358 401.01 133.762Z" fill="#FFB573"/>
<path d="M421.673 122.766C423.001 124.323 424.538 125.689 426.24 126.826C425.942 127.251 425.554 127.607 425.105 127.867C424.655 128.128 424.155 128.288 423.637 128.335L421.673 122.766Z" fill="#ED893E"/>
<path d="M410.573 121.193C410.51 121.212 410.442 121.212 410.378 121.193C410.332 121.174 410.29 121.147 410.254 121.112C410.219 121.077 410.19 121.035 410.171 120.989C410.152 120.943 410.142 120.894 410.141 120.844C410.141 120.794 410.151 120.744 410.17 120.698C410.432 120.037 410.848 119.449 411.385 118.982C411.922 118.516 412.563 118.185 413.254 118.018C413.352 118.006 413.45 118.032 413.53 118.09C413.609 118.148 413.664 118.234 413.683 118.33C413.693 118.378 413.692 118.427 413.682 118.475C413.672 118.523 413.652 118.568 413.624 118.608C413.597 118.648 413.561 118.682 413.52 118.708C413.478 118.734 413.432 118.752 413.384 118.76C412.818 118.907 412.295 119.187 411.859 119.576C411.422 119.965 411.084 120.452 410.873 120.998C410.843 121.052 410.8 121.099 410.748 121.133C410.695 121.167 410.636 121.187 410.573 121.193Z" fill="#263238"/>
<path d="M426.096 115.87C426.033 115.889 425.965 115.889 425.901 115.87C425.363 115.647 424.779 115.555 424.198 115.6C423.617 115.645 423.055 115.827 422.557 116.13C422.518 116.16 422.474 116.182 422.426 116.194C422.379 116.207 422.329 116.209 422.28 116.202C422.232 116.195 422.185 116.178 422.143 116.152C422.101 116.126 422.065 116.092 422.037 116.052C421.98 115.968 421.958 115.866 421.975 115.767C421.992 115.667 422.047 115.578 422.128 115.518C422.73 115.141 423.414 114.912 424.122 114.851C424.83 114.789 425.543 114.898 426.201 115.167C426.248 115.183 426.291 115.208 426.328 115.241C426.366 115.274 426.396 115.314 426.418 115.359C426.44 115.404 426.452 115.452 426.455 115.502C426.458 115.552 426.451 115.601 426.435 115.648C426.409 115.716 426.365 115.774 426.307 115.818C426.25 115.862 426.181 115.888 426.11 115.896L426.096 115.87Z" fill="#263238"/>
<path d="M416.077 123.365C416.338 124.094 416.923 124.549 417.379 124.393C417.834 124.237 418.029 123.495 417.769 122.767C417.509 122.038 416.923 121.583 416.468 121.739C416.012 121.895 415.778 122.636 416.077 123.365Z" fill="#263238"/>
<path d="M424.353 120.477C424.613 121.206 425.199 121.661 425.654 121.492C426.11 121.323 426.305 120.607 426.058 119.865C425.81 119.124 425.212 118.681 424.756 118.85C424.301 119.02 424.093 119.735 424.353 120.477Z" fill="#263238"/>
<path d="M424.561 118.954L426.136 117.835C426.136 117.835 425.719 119.526 424.561 118.954Z" fill="#263238"/>
<path d="M416.286 121.855L417.86 120.736C417.86 120.736 417.444 122.415 416.286 121.855Z" fill="#263238"/>
<path d="M362.883 174.58L363.52 174.615C363.821 174.632 364.079 174.401 364.095 174.1L366.384 132.786C366.4 132.484 366.169 132.227 365.868 132.21L365.231 132.175C364.93 132.158 364.672 132.389 364.656 132.69L362.368 174.004C362.351 174.306 362.582 174.563 362.883 174.58Z" fill="#263238"/>
<path opacity="0.3" d="M362.883 174.58L363.52 174.615C363.821 174.632 364.079 174.401 364.095 174.1L366.384 132.786C366.4 132.484 366.169 132.227 365.868 132.21L365.231 132.175C364.93 132.158 364.672 132.389 364.656 132.69L362.368 174.004C362.351 174.306 362.582 174.563 362.883 174.58Z" fill="white"/>
<path d="M347.076 139.695L364.629 133.658C362.707 138.078 362.434 143.041 363.861 147.645L347.076 139.695Z" fill="#407BFF"/>
<path d="M398.759 220.433C398.759 220.433 414.191 222.541 441.437 218.741C439.123 209.277 438.341 199.502 439.121 189.79C440.422 173.526 444.183 151.132 431.939 151.132C417.99 151.132 397.913 151.978 391.798 157.469C385.682 162.96 407.321 187.266 398.759 220.433Z" fill="#407BFF"/>
<path d="M405.369 152.745V150C405.366 149.683 405.431 149.369 405.561 149.079C405.69 148.79 405.881 148.532 406.119 148.323C406.358 148.114 406.639 147.959 406.943 147.869C407.246 147.779 407.566 147.756 407.88 147.801C411.967 148.116 416.077 147.755 420.046 146.734C420.595 146.622 421.165 146.719 421.647 147.005C422.128 147.291 422.485 147.747 422.648 148.282L423.507 151.249C423.507 151.249 425.42 155.712 419.942 156.206C410.378 157.052 405.369 152.745 405.369 152.745Z" fill="#407BFF"/>
<path opacity="0.2" d="M401.023 181.827C400.555 174.853 396.963 165.588 396.963 165.588L392.422 167.852C395.883 177.924 403.001 194.019 400.099 213.758C400.099 213.667 400.099 213.589 400.099 213.498C402.454 198.99 407.659 194.969 407.269 190.857C407.086 188.463 401.465 187.227 401.023 181.827Z" fill="black"/>
<path opacity="0.2" d="M423.585 151.796C423.898 152.993 424.158 155.817 419.851 156.207C415.007 156.808 410.102 155.759 405.928 153.227C409.626 156.124 414.062 157.927 418.732 158.432C426.188 159.082 423.585 151.796 423.585 151.796Z" fill="black"/>
<path d="M371.538 181.553L367.518 174.163L368.741 166.03C368.848 165.332 368.722 164.617 368.384 163.996C368.045 163.376 367.513 162.884 366.867 162.595L363.926 161.294L362.625 159.629C362.322 159.265 361.943 158.973 361.515 158.772C361.087 158.572 360.619 158.468 360.146 158.468C359.673 158.468 359.206 158.572 358.778 158.772C358.35 158.973 357.971 159.265 357.668 159.629L355.924 161.658C355.405 162.272 355.128 163.054 355.143 163.857L355.287 168.255C355.31 168.977 355.575 169.669 356.041 170.22L361.662 176.973L365.462 185.001L371.538 181.553Z" fill="#FFB573"/>
<path d="M391.798 157.469C391.798 157.469 385.565 157.898 384.927 173.421C384.29 188.944 384.927 194.969 384.927 194.969C384.927 194.969 381.128 192.119 370.354 176.596L362.742 181.658C362.742 181.658 374.453 215.996 388.766 213.406C403.079 210.817 398.915 175.672 398.915 175.672C398.915 175.672 398.03 161.528 391.798 157.469Z" fill="#407BFF"/>
<path d="M422.284 134.373C422.674 134.399 423.065 134.399 423.455 134.373C423.514 134.355 423.564 134.316 423.595 134.263C423.626 134.21 423.637 134.147 423.624 134.087C423.612 134.043 423.587 134.003 423.552 133.973C423.517 133.943 423.475 133.924 423.429 133.918C422.445 133.972 421.462 133.795 420.558 133.402C419.655 133.009 418.856 132.41 418.224 131.654C418.181 131.611 418.122 131.588 418.062 131.588C418.001 131.588 417.943 131.611 417.899 131.654C417.862 131.7 417.842 131.757 417.842 131.816C417.842 131.875 417.862 131.933 417.899 131.979C418.436 132.647 419.1 133.203 419.853 133.614C420.605 134.025 421.431 134.283 422.284 134.373Z" fill="#263238"/>
<path d="M412.551 122.766L406.332 127.593V128.465L412.942 123.872L412.551 122.766Z" fill="#263238"/>
<path opacity="0.2" d="M412.551 122.766L406.332 127.593V128.465L412.942 123.872L412.551 122.766Z" fill="black"/>
<path d="M400.307 111.98C400.307 111.98 413.059 97.6668 425.914 112.617L420.71 113.788L413.709 110.561L418.394 114.803L411.888 117.835L407.347 113.788L410.118 117.835C409.09 118.3 408.2 119.024 407.536 119.936C406.872 120.849 406.457 121.918 406.332 123.04C405.655 127.164 411.042 140.775 404.315 140.632C397.588 140.488 397.106 125.33 397.106 125.33L400.307 111.98Z" fill="#263238"/>
<path d="M431.106 118.59C430.429 116.3 428.504 116.573 426.214 117.289C424.897 117.486 423.711 118.192 422.909 119.254L419.422 120.282C418.173 119.824 416.794 119.876 415.583 120.425C413.306 121.088 411.523 121.908 412.2 124.185C412.36 124.728 412.625 125.235 412.981 125.676C413.336 126.117 413.775 126.483 414.272 126.755C414.769 127.026 415.315 127.196 415.878 127.257C416.441 127.317 417.011 127.266 417.554 127.106C418.098 126.946 418.604 126.681 419.045 126.326C419.486 125.97 419.853 125.531 420.124 125.034C420.395 124.537 420.566 123.991 420.626 123.428C420.686 122.865 420.635 122.295 420.475 121.752C420.404 121.502 420.304 121.262 420.176 121.036C420.544 120.784 420.954 120.599 421.386 120.49C421.806 120.351 422.245 120.281 422.687 120.282C422.709 120.546 422.757 120.808 422.831 121.062C423.153 122.16 423.899 123.084 424.903 123.632C425.907 124.18 427.088 124.306 428.185 123.983C429.282 123.661 430.207 122.915 430.754 121.911C431.302 120.907 431.429 119.726 431.106 118.629V118.59Z" fill="#263238"/>
<path opacity="0.2" d="M431.106 118.59C430.429 116.3 428.504 116.573 426.214 117.289C424.897 117.486 423.711 118.192 422.909 119.254L419.422 120.282C418.173 119.824 416.794 119.876 415.583 120.425C413.306 121.088 411.523 121.908 412.2 124.185C412.36 124.728 412.625 125.235 412.981 125.676C413.336 126.117 413.775 126.483 414.272 126.755C414.769 127.026 415.315 127.196 415.878 127.257C416.441 127.317 417.011 127.266 417.554 127.106C418.098 126.946 418.604 126.681 419.045 126.326C419.486 125.97 419.853 125.531 420.124 125.034C420.395 124.537 420.566 123.991 420.626 123.428C420.686 122.865 420.635 122.295 420.475 121.752C420.404 121.502 420.304 121.262 420.176 121.036C420.544 120.784 420.954 120.599 421.386 120.49C421.806 120.351 422.245 120.281 422.687 120.282C422.709 120.546 422.757 120.808 422.831 121.062C423.153 122.16 423.899 123.084 424.903 123.632C425.907 124.18 427.088 124.306 428.185 123.983C429.282 123.661 430.207 122.915 430.754 121.911C431.302 120.907 431.429 119.726 431.106 118.629V118.59Z" fill="black"/>
<path d="M492.339 375.117C492.339 375.117 501.968 389.534 493.562 398.694L500.55 414.204C501.091 414.141 501.64 414.189 502.162 414.345C502.685 414.501 503.17 414.761 503.589 415.111C504.008 415.46 504.351 415.891 504.598 416.377C504.845 416.863 504.99 417.394 505.026 417.938L501.122 418.134C501.122 418.134 497.323 418.134 494.395 413.697C491.467 409.26 486.653 402.233 486.926 398.252C487.2 394.27 486.002 389.69 479.601 382.507C473.199 375.325 488.917 371.382 492.339 375.117Z" fill="#407BFF"/>
<path opacity="0.3" d="M492.339 375.117C492.339 375.117 501.968 389.534 493.562 398.694L500.55 414.204C501.091 414.141 501.64 414.189 502.162 414.345C502.685 414.501 503.17 414.761 503.589 415.111C504.008 415.46 504.351 415.891 504.598 416.377C504.845 416.863 504.99 417.394 505.026 417.938L501.122 418.134C501.122 418.134 497.323 418.134 494.395 413.697C491.467 409.26 486.653 402.233 486.926 398.252C487.2 394.27 486.002 389.69 479.601 382.507C473.199 375.325 488.917 371.382 492.339 375.117Z" fill="white"/>
<path d="M470.258 357.577C465.913 359.767 462.071 362.838 458.977 366.594C452.875 374.401 435.829 380.659 428.061 363.991C428.061 363.991 424.041 377.823 437.989 380.386C437.989 380.386 435.14 382.572 430.117 380.803C430.117 380.803 436.207 388.05 450.585 379.736C449.497 381.603 447.947 383.158 446.082 384.251C446.082 384.251 452.38 383.925 457.793 376.535C462.1 370.64 468.658 362.56 468.658 362.56L470.258 357.577Z" fill="#407BFF"/>
<path opacity="0.5" d="M470.258 357.577C465.913 359.767 462.071 362.838 458.977 366.594C452.875 374.401 435.829 380.659 428.061 363.991C428.061 363.991 424.041 377.823 437.989 380.386C437.989 380.386 435.14 382.572 430.117 380.803C430.117 380.803 436.207 388.05 450.585 379.736C449.497 381.603 447.947 383.158 446.082 384.251C446.082 384.251 452.38 383.925 457.793 376.535C462.1 370.64 468.658 362.56 468.658 362.56L470.258 357.577Z" fill="white"/>
<path d="M534.055 371.682L534.94 388.883L530.542 395.988L521.316 397.419C521.649 395.827 522.479 394.383 523.685 393.293C524.892 392.203 526.413 391.525 528.03 391.355L528.499 388.896L524.595 374.193L534.055 371.682Z" fill="#407BFF"/>
<path opacity="0.3" d="M534.055 371.682L534.94 388.883L530.542 395.988L521.316 397.419C521.649 395.827 522.479 394.383 523.685 393.293C524.892 392.203 526.413 391.525 528.03 391.355L528.499 388.896L524.595 374.193L534.055 371.682Z" fill="white"/>
<path d="M465.457 366.672C466.107 360.986 467.63 355.508 484.636 352.957C501.643 350.407 511.297 349.054 518.115 345.749C524.934 342.444 530.047 335.196 537.633 342.626C545.219 350.056 547.496 369.613 535.031 377.029C522.565 384.446 494.421 377.237 484.116 378.408C473.81 379.58 464.208 377.602 465.457 366.672Z" fill="#407BFF"/>
<path opacity="0.6" d="M465.457 366.672C466.107 360.986 467.63 355.508 484.636 352.957C501.643 350.407 511.297 349.054 518.115 345.749C524.934 342.444 530.047 335.196 537.633 342.626C545.219 350.056 547.496 369.613 535.031 377.029C522.565 384.446 494.421 377.237 484.116 378.408C473.81 379.58 464.208 377.602 465.457 366.672Z" fill="white"/>
<path d="M525.441 341.247C525.441 341.247 536.098 328.587 539.637 323.33C543.176 318.073 556.058 324.852 556.721 328.47C557.385 332.087 551.816 357.095 540.756 371.343C529.696 385.591 525.441 341.247 525.441 341.247Z" fill="#407BFF"/>
<path opacity="0.6" d="M525.441 341.247C525.441 341.247 536.098 328.587 539.637 323.33C543.176 318.073 556.058 324.852 556.721 328.47C557.385 332.087 551.816 357.095 540.756 371.343C529.696 385.591 525.441 341.247 525.441 341.247Z" fill="white"/>
<path opacity="0.2" d="M498.312 379.098C483.491 376.938 484.22 371.994 484.22 371.994L481.071 371.083L479.015 374.115L478.846 378.695C480.585 378.701 482.323 378.605 484.051 378.409C487.343 378.031 492.469 378.513 498.364 379.098H498.312Z" fill="black"/>
<path d="M484.48 370.445C484.48 370.445 481.539 390.275 473.889 395.584C469.478 398.642 468.293 406.201 467.786 411.913C467.422 416.129 470.388 418.133 464.949 419.057C464.949 419.057 463.83 406.761 461.788 400.359C461.554 399.637 461.514 398.867 461.671 398.125C461.829 397.383 462.179 396.695 462.685 396.13C464.936 393.619 468.372 389 467.617 384.81C466.498 378.682 463.856 374.531 465.457 366.672C467.057 358.813 483.439 365.735 484.48 370.445Z" fill="#407BFF"/>
<path opacity="0.6" d="M484.48 370.445C484.48 370.445 481.539 390.275 473.889 395.584C469.478 398.642 468.293 406.201 467.786 411.913C467.422 416.129 470.388 418.133 464.949 419.057C464.949 419.057 463.83 406.761 461.788 400.359C461.554 399.637 461.514 398.867 461.671 398.125C461.829 397.383 462.179 396.695 462.685 396.13C464.936 393.619 468.372 389 467.617 384.81C466.498 378.682 463.856 374.531 465.457 366.672C467.057 358.813 483.439 365.735 484.48 370.445Z" fill="white"/>
<path opacity="0.2" d="M534.771 366.177L530.06 365.396L528.356 367.374C528.356 367.374 534.159 377.784 523.06 380.217C527.215 380.047 531.282 378.959 534.966 377.029C535.95 376.447 536.871 375.762 537.711 374.986L534.771 366.177Z" fill="black"/>
<path d="M527.406 366.022C527.406 366.022 537.49 381.024 543.775 381.87C550.059 382.716 559.389 378.37 559.389 378.37C559.389 378.37 562.681 382.703 567.547 380.855L563.149 375.572L556.461 373.061H546.728C546.728 373.061 544.243 359.386 543.619 356.081C542.994 352.776 525.766 363.706 527.406 366.022Z" fill="#407BFF"/>
<path opacity="0.6" d="M527.406 366.022C527.406 366.022 537.49 381.024 543.775 381.87C550.059 382.716 559.389 378.37 559.389 378.37C559.389 378.37 562.681 382.703 567.547 380.855L563.149 375.572L556.461 373.061H546.728C546.728 373.061 544.243 359.386 543.619 356.081C542.994 352.776 525.766 363.706 527.406 366.022Z" fill="white"/>
<path opacity="0.2" d="M552.883 336.16L544.087 339.79L540.808 343.693C540.808 343.693 545.7 349.002 552.753 347.09C553.846 343.746 554.717 340.584 555.355 337.838C554.578 337.213 553.751 336.651 552.883 336.16Z" fill="black"/>
<path d="M537.594 323.746C537.594 323.746 542.994 317.592 549.148 316.967C555.303 316.343 558.048 320.467 560.104 320.207C562.16 319.947 568.822 317.032 570.514 318.906C572.205 320.78 572.752 328.235 570.11 329.485C570.11 329.485 569.772 335.21 560.664 336.953C560.664 336.953 554.158 346.179 546.195 345.632C538.232 345.086 529.214 333.388 537.594 323.746Z" fill="#407BFF"/>
<path opacity="0.6" d="M537.594 323.746C537.594 323.746 542.994 317.592 549.148 316.967C555.303 316.343 558.048 320.467 560.104 320.207C562.16 319.947 568.822 317.032 570.514 318.906C572.205 320.78 572.752 328.235 570.11 329.485C570.11 329.485 569.772 335.21 560.664 336.953C560.664 336.953 554.158 346.179 546.195 345.632C538.232 345.086 529.214 333.388 537.594 323.746Z" fill="white"/>
<path d="M539.39 323.916C539.599 323.777 539.839 323.691 540.088 323.663C540.338 323.636 540.591 323.669 540.825 323.76C541.059 323.85 541.269 323.995 541.435 324.183C541.602 324.371 541.722 324.596 541.784 324.839C542.903 329.446 544.711 340.362 537.685 343.576C528.694 347.688 532.975 330.5 535.395 327.117C536.582 325.881 537.925 324.805 539.39 323.916Z" fill="#407BFF"/>
<path opacity="0.3" d="M539.39 323.916C539.599 323.777 539.839 323.691 540.088 323.663C540.338 323.636 540.591 323.669 540.825 323.76C541.059 323.85 541.269 323.995 541.435 324.183C541.602 324.371 541.722 324.596 541.784 324.839C542.903 329.446 544.711 340.362 537.685 343.576C528.694 347.688 532.975 330.5 535.395 327.117C536.582 325.881 537.925 324.805 539.39 323.916Z" fill="white"/>
<path d="M525.168 340.935C526.905 345.801 529.716 350.214 533.392 353.845C537.068 357.476 541.515 360.232 546.403 361.91C546.701 362.012 547.027 362.003 547.319 361.883C547.611 361.763 547.85 361.541 547.99 361.259L548.836 359.658C548.926 359.492 548.978 359.308 548.989 359.119C549 358.93 548.97 358.742 548.9 358.566C548.831 358.39 548.724 358.231 548.587 358.101C548.45 357.97 548.287 357.872 548.108 357.811C543.646 356.245 539.563 353.759 536.124 350.513C532.685 347.267 529.968 343.334 528.147 338.97C528.078 338.813 527.971 338.675 527.835 338.571C527.699 338.466 527.539 338.397 527.37 338.369C527.2 338.342 527.027 338.358 526.865 338.415C526.703 338.472 526.558 338.569 526.443 338.697L525.376 339.907C525.251 340.043 525.166 340.211 525.129 340.392C525.092 340.573 525.106 340.761 525.168 340.935Z" fill="#263238"/>
<path opacity="0.3" d="M525.168 340.935C526.905 345.801 529.716 350.214 533.392 353.845C537.068 357.476 541.515 360.232 546.403 361.91C546.701 362.012 547.027 362.003 547.319 361.883C547.611 361.763 547.85 361.541 547.99 361.259L548.836 359.658C548.926 359.492 548.978 359.308 548.989 359.119C549 358.93 548.97 358.742 548.9 358.566C548.831 358.39 548.724 358.231 548.587 358.101C548.45 357.97 548.287 357.872 548.108 357.811C543.646 356.245 539.563 353.759 536.124 350.513C532.685 347.267 529.968 343.334 528.147 338.97C528.078 338.813 527.971 338.675 527.835 338.571C527.699 338.466 527.539 338.397 527.37 338.369C527.2 338.342 527.027 338.358 526.865 338.415C526.703 338.472 526.558 338.569 526.443 338.697L525.376 339.907C525.251 340.043 525.166 340.211 525.129 340.392C525.092 340.573 525.106 340.761 525.168 340.935Z" fill="white"/>
<path d="M551.881 323.473C552.336 324.254 553.117 324.644 553.638 324.345C554.158 324.046 554.184 323.161 553.716 322.393C553.247 321.626 552.493 321.222 551.972 321.522C551.452 321.821 551.413 322.693 551.881 323.473Z" fill="#263238"/>
<path d="M551.1 318.815C551.11 318.904 551.094 318.993 551.052 319.072C551.01 319.151 550.945 319.216 550.866 319.257C550.294 319.642 549.807 320.141 549.438 320.723C549.068 321.306 548.823 321.958 548.719 322.64C548.703 322.752 548.643 322.853 548.553 322.921C548.463 322.989 548.35 323.019 548.238 323.005C548.183 322.997 548.13 322.978 548.082 322.949C548.035 322.921 547.993 322.883 547.961 322.838C547.928 322.793 547.904 322.742 547.892 322.688C547.879 322.634 547.877 322.578 547.886 322.523C547.886 322.419 548.342 319.569 550.489 318.502C550.589 318.452 550.705 318.443 550.812 318.477C550.919 318.511 551.009 318.585 551.061 318.685C551.08 318.726 551.093 318.77 551.1 318.815Z" fill="#407BFF"/>
<path opacity="0.3" d="M551.1 318.815C551.11 318.904 551.094 318.993 551.052 319.072C551.01 319.151 550.945 319.216 550.866 319.257C550.294 319.642 549.807 320.141 549.438 320.723C549.068 321.306 548.823 321.958 548.719 322.64C548.703 322.752 548.643 322.853 548.553 322.921C548.463 322.989 548.35 323.019 548.238 323.005C548.183 322.997 548.13 322.978 548.082 322.949C548.035 322.921 547.993 322.883 547.961 322.838C547.928 322.793 547.904 322.742 547.892 322.688C547.879 322.634 547.877 322.578 547.886 322.523C547.886 322.419 548.342 319.569 550.489 318.502C550.589 318.452 550.705 318.443 550.812 318.477C550.919 318.511 551.009 318.585 551.061 318.685C551.08 318.726 551.093 318.77 551.1 318.815Z" fill="white"/>
<path d="M564.619 326.882C564.707 326.868 564.796 326.884 564.874 326.926C564.951 326.969 565.013 327.035 565.049 327.116C565.436 327.686 565.936 328.171 566.518 328.54C567.099 328.91 567.751 329.155 568.432 329.263C568.544 329.279 568.645 329.339 568.713 329.429C568.781 329.519 568.811 329.632 568.796 329.744C568.777 329.854 568.716 329.951 568.626 330.017C568.537 330.083 568.425 330.111 568.315 330.096C568.211 330.096 565.374 329.627 564.294 327.493C564.247 327.392 564.239 327.277 564.273 327.171C564.307 327.065 564.379 326.976 564.476 326.921C564.519 326.895 564.569 326.881 564.619 326.882Z" fill="#407BFF"/>
<path d="M566.012 318.633C566.6 319.637 567.444 320.468 568.458 321.04C569.439 321.612 570.549 321.926 571.685 321.951C571.546 320.866 571.139 319.833 570.501 318.945C569.746 318.073 567.937 318.203 566.012 318.633Z" fill="#263238"/>
<path d="M528.369 339.997L493.445 265.193L490.765 266.494L525.636 341.897C525.704 342.041 525.806 342.166 525.933 342.26C526.061 342.355 526.21 342.417 526.367 342.44C526.524 342.463 526.685 342.447 526.834 342.393C526.984 342.339 527.117 342.249 527.224 342.131L528.213 341.038C528.335 340.898 528.415 340.725 528.443 340.541C528.471 340.356 528.445 340.168 528.369 339.997Z" fill="#263238"/>
<path d="M481.852 247.718C472.9 253.235 487.057 265.115 490.96 268.159C491.244 268.385 491.581 268.533 491.939 268.59C492.297 268.647 492.663 268.611 493.003 268.485H493.159C493.612 268.317 493.994 268.001 494.243 267.587C494.491 267.173 494.591 266.686 494.525 266.208C493.706 260.418 490.57 242.344 481.852 247.718ZM490.96 265.492C490.768 265.564 490.56 265.584 490.357 265.552C490.155 265.521 489.963 265.437 489.802 265.31C487.2 263.345 476.79 254.653 483.218 250.646C489.646 246.638 491.754 260.261 492.235 264.035C492.278 264.309 492.223 264.589 492.081 264.827C491.938 265.065 491.717 265.245 491.455 265.336L490.96 265.492Z" fill="#263238"/>
<path opacity="0.3" d="M481.852 247.718C472.9 253.235 487.057 265.115 490.96 268.159C491.244 268.385 491.581 268.533 491.939 268.59C492.297 268.647 492.663 268.611 493.003 268.485H493.159C493.612 268.317 493.994 268.001 494.243 267.587C494.491 267.173 494.591 266.686 494.525 266.208C493.706 260.418 490.57 242.344 481.852 247.718ZM490.96 265.492C490.768 265.564 490.56 265.584 490.357 265.552C490.155 265.521 489.963 265.437 489.802 265.31C487.2 263.345 476.79 254.653 483.218 250.646C489.646 246.638 491.754 260.261 492.235 264.035C492.278 264.309 492.223 264.589 492.081 264.827C491.938 265.065 491.717 265.245 491.455 265.336L490.96 265.492Z" fill="white"/>
<path d="M121.791 382.833L122.871 407.048L135.766 407.36L136.364 382.325L121.791 382.833Z" fill="#FF8B7B"/>
<path opacity="0.1" d="M122.39 396.078C126.893 396.909 131.501 397.019 136.039 396.404L136.286 385.877L129.039 384.16L121.856 384.29L122.39 396.078Z" fill="black"/>
<path d="M136.976 403.86C136.915 403.849 136.86 403.819 136.818 403.775C136.776 403.73 136.749 403.673 136.742 403.612C136.729 403.554 136.737 403.493 136.763 403.439C136.788 403.384 136.831 403.34 136.885 403.313C137.067 403.209 141.374 400.776 143.391 401.348C143.776 401.451 144.107 401.698 144.314 402.038C144.45 402.228 144.523 402.455 144.523 402.689C144.523 402.922 144.45 403.149 144.314 403.339C143.794 403.99 142.22 404.263 140.684 404.25C139.439 404.228 138.198 404.097 136.976 403.86ZM137.913 403.469C140.203 403.769 143.312 403.769 143.885 402.962C143.976 402.871 144.054 402.689 143.885 402.324C143.826 402.218 143.744 402.127 143.645 402.057C143.546 401.987 143.432 401.941 143.313 401.921C143.135 401.869 142.951 401.843 142.766 401.843C141.059 402.067 139.411 402.62 137.913 403.469Z" fill="#407BFF"/>
<path d="M136.82 403.833C136.774 403.808 136.738 403.769 136.715 403.723C136.692 403.677 136.683 403.624 136.689 403.573C136.689 403.417 137.054 400.099 138.628 398.824C138.852 398.636 139.112 398.496 139.391 398.411C139.671 398.326 139.964 398.298 140.255 398.329C141.061 398.42 141.309 398.824 141.335 399.162C141.595 400.541 138.615 403.196 137.132 403.846H137.015C136.984 403.86 136.95 403.866 136.916 403.864C136.881 403.862 136.849 403.851 136.82 403.833ZM140.059 398.876C139.689 398.875 139.33 399.004 139.045 399.24C138.12 400.299 137.543 401.616 137.392 403.013C138.914 402.116 140.866 400.034 140.801 399.201C140.801 399.123 140.801 398.915 140.229 398.863L140.059 398.876Z" fill="#407BFF"/>
<path d="M135.726 402.129L122.285 402.051C122.039 402.048 121.799 402.128 121.605 402.28C121.411 402.431 121.275 402.644 121.218 402.884L118.72 413.814C118.613 414.273 118.689 414.755 118.932 415.158C119.175 415.561 119.566 415.854 120.021 415.974C120.147 415.986 120.273 415.986 120.399 415.974C125.252 415.974 129.507 415.675 135.596 415.714C142.714 415.714 140.905 416.599 149.272 416.768C154.32 416.859 155.27 411.134 153.175 410.834C143.39 409.533 142.388 406.592 138.641 403.027C137.81 402.385 136.775 402.066 135.726 402.129Z" fill="#263238"/>
<path d="M92.3453 205.105C92.3453 205.105 138.758 273.638 140.632 288.237C142.05 299.324 138.121 392.748 138.121 392.748C132.194 393.256 126.229 393.112 120.334 392.318C120.334 392.318 117.224 348.235 114.843 318.932C113.828 306.402 114.049 296.591 112.904 294.002C109.117 285.349 71.3573 245.858 66.8422 229.958C62.3272 214.058 64.0577 205.379 64.0577 205.379L92.3453 205.105Z" fill="#407BFF"/>
<path opacity="0.3" d="M92.3453 205.105C92.3453 205.105 138.758 273.638 140.632 288.237C142.05 299.324 138.121 392.748 138.121 392.748C132.194 393.256 126.229 393.112 120.334 392.318C120.334 392.318 117.224 348.235 114.843 318.932C113.828 306.402 114.049 296.591 112.904 294.002C109.117 285.349 71.3573 245.858 66.8422 229.958C62.3272 214.058 64.0577 205.379 64.0577 205.379L92.3453 205.105Z" fill="white"/>
<path opacity="0.2" d="M94.8958 270.541C83.1853 256.085 79.7242 216.555 79.7242 216.555L69.4709 226.015L68.6772 234.498C73.4265 244.101 84.8117 258.245 94.8958 270.541Z" fill="black"/>
<path d="M80.6217 207.564C80.6217 207.564 82.7166 293.442 73.8295 322.133C73.5243 323.048 73.0324 323.891 72.3849 324.606C71.7374 325.322 70.9484 325.896 70.0678 326.291C69.1873 326.686 68.2343 326.894 67.2692 326.901C66.3041 326.909 65.3479 326.717 64.4611 326.336L53.4271 321.847C52.5984 321.537 51.8416 321.062 51.2028 320.45C50.5641 319.838 50.0569 319.102 49.7122 318.287C49.3675 317.472 49.1927 316.596 49.1983 315.711C49.2039 314.826 49.3899 313.952 49.7448 313.142L51.4493 309.316C51.4493 309.316 48.4436 265.337 47.1164 250.581C45.7892 235.826 40.4414 225.326 47.1164 205.535L80.6217 207.564Z" fill="#407BFF"/>
<path opacity="0.3" d="M80.6217 207.564C80.6217 207.564 82.7166 293.442 73.8295 322.133C73.5243 323.048 73.0324 323.891 72.3849 324.606C71.7374 325.322 70.9484 325.896 70.0678 326.291C69.1873 326.686 68.2343 326.894 67.2692 326.901C66.3041 326.909 65.3479 326.717 64.4611 326.336L53.4271 321.847C52.5984 321.537 51.8416 321.062 51.2028 320.45C50.5641 319.838 50.0569 319.102 49.7122 318.287C49.3675 317.472 49.1927 316.596 49.1983 315.711C49.2039 314.826 49.3899 313.952 49.7448 313.142L51.4493 309.316C51.4493 309.316 48.4436 265.337 47.1164 250.581C45.7892 235.826 40.4414 225.326 47.1164 205.535L80.6217 207.564Z" fill="white"/>
<path d="M51.7359 324.188L46.5702 338.033L53.063 341.78L61.3125 329.744L51.7359 324.188Z" fill="#263238"/>
<path opacity="0.6" d="M51.7359 324.188L46.5702 338.033L53.063 341.78L61.3125 329.744L51.7359 324.188Z" fill="white"/>
<path d="M40.2596 410.209C27.3519 408.908 11.8289 406.215 13.2732 401.413C15.7194 393.281 30.1885 384.03 35.0679 377.654C41.0403 369.925 51.1764 342.067 51.1764 342.067C51.5198 341.351 52.1326 340.799 52.8811 340.534C53.6296 340.268 54.4529 340.309 55.171 340.649L43.0701 335.964L37.7353 345.268L24.7236 375.598L14.3142 384.706L4.46427 395.857L2.30432 401.96L5.46617 404.77L20.3126 409.832L33.7407 411.276L40.2596 410.209Z" fill="#263238"/>
<path opacity="0.1" d="M40.2596 410.209C27.3519 408.908 11.8289 406.215 13.2732 401.413C15.7194 393.281 30.1885 384.03 35.0679 377.654C41.0403 369.925 51.1764 342.067 51.1764 342.067C51.5198 341.351 52.1326 340.799 52.8811 340.534C53.6296 340.268 54.4529 340.309 55.171 340.649L43.0701 335.964L37.7353 345.268L24.7236 375.598L14.3142 384.706L4.46427 395.857L2.30432 401.96L5.46617 404.77L20.3126 409.832L33.7407 411.276L40.2596 410.209Z" fill="white"/>
<path d="M30.6308 412.031L40.4937 411.237C40.4937 411.237 41.7949 413.84 36.2519 414.49C30.7089 415.141 30.6308 412.031 30.6308 412.031Z" fill="#263238"/>
<path opacity="0.2" d="M30.6308 412.031L40.4937 411.237C40.4937 411.237 41.7949 413.84 36.2519 414.49C30.7089 415.141 30.6308 412.031 30.6308 412.031Z" fill="black"/>
<path d="M48.3269 317.214L71.3706 326.414C71.7404 326.552 72.0724 326.776 72.3394 327.067C72.6065 327.358 72.8011 327.708 72.9076 328.088C73.0141 328.468 73.0294 328.868 72.9522 329.256C72.8751 329.643 72.7077 330.007 72.4636 330.317C70.8111 332.347 66.6864 334.039 56.4722 330.2C45.5033 326.075 44.3062 321.651 44.9178 318.945C45.0047 318.593 45.1666 318.263 45.3923 317.979C45.618 317.695 45.9024 317.463 46.2259 317.299C46.5495 317.135 46.9046 317.042 47.2672 317.027C47.6297 317.013 47.9912 317.077 48.3269 317.214Z" fill="#263238"/>
<path opacity="0.7" d="M48.3269 317.214L71.3706 326.414C71.7404 326.552 72.0724 326.776 72.3394 327.067C72.6065 327.358 72.8011 327.708 72.9076 328.088C73.0141 328.468 73.0294 328.868 72.9522 329.256C72.8751 329.643 72.7077 330.007 72.4636 330.317C70.8111 332.347 66.6864 334.039 56.4722 330.2C45.5033 326.075 44.3062 321.651 44.9178 318.945C45.0047 318.593 45.1666 318.263 45.3923 317.979C45.618 317.695 45.9024 317.463 46.2259 317.299C46.5495 317.135 46.9046 317.042 47.2672 317.027C47.6297 317.013 47.9912 317.077 48.3269 317.214Z" fill="white"/>
<path d="M43.6425 409.923C43.8365 409.935 44.0204 410.014 44.1632 410.145C44.306 410.277 44.399 410.455 44.4265 410.647C44.454 410.84 44.4143 411.036 44.3142 411.202C44.2141 411.369 44.0596 411.496 43.8767 411.562C28.9002 416.507 -2.87447 408.348 0.209313 399.851C3.55333 390.652 17.1246 381.479 22.004 374.817C28.4318 366.164 39.4137 335.391 39.4137 335.391C39.5847 335.02 39.8303 334.688 40.1351 334.416C40.44 334.144 40.7975 333.937 41.1856 333.809C41.5737 333.681 41.984 333.634 42.391 333.671C42.798 333.708 43.193 333.829 43.5514 334.025L59.2566 342.392C59.4387 342.484 59.6001 342.613 59.731 342.77C59.8618 342.927 59.9594 343.109 60.0178 343.305C60.0762 343.501 60.0942 343.707 60.0707 343.91C60.0472 344.113 59.9827 344.309 59.8812 344.487C59.6774 344.824 59.3579 345.076 58.9821 345.196C58.6063 345.316 58.1998 345.295 57.8383 345.137L45.4121 339.308C45.0576 339.138 44.673 339.039 44.2803 339.017C43.8876 338.996 43.4945 339.052 43.1235 339.183C42.7526 339.313 42.4109 339.515 42.1182 339.778C41.8255 340.041 41.5874 340.358 41.4175 340.713C41.4175 340.713 31.2814 368.584 25.309 376.313C20.3775 382.689 5.9605 391.927 3.51429 400.06C1.51049 406.8 32.9338 409.272 43.6425 409.923Z" fill="#263238"/>
<path opacity="0.5" d="M43.6425 409.923C43.8365 409.935 44.0204 410.014 44.1632 410.145C44.306 410.277 44.399 410.455 44.4265 410.647C44.454 410.84 44.4143 411.036 44.3142 411.202C44.2141 411.369 44.0596 411.496 43.8767 411.562C28.9002 416.507 -2.87447 408.348 0.209313 399.851C3.55333 390.652 17.1246 381.479 22.004 374.817C28.4318 366.164 39.4137 335.391 39.4137 335.391C39.5847 335.02 39.8303 334.688 40.1351 334.416C40.44 334.144 40.7975 333.937 41.1856 333.809C41.5737 333.681 41.984 333.634 42.391 333.671C42.798 333.708 43.193 333.829 43.5514 334.025L59.2566 342.392C59.4387 342.484 59.6001 342.613 59.731 342.77C59.8618 342.927 59.9594 343.109 60.0178 343.305C60.0762 343.501 60.0942 343.707 60.0707 343.91C60.0472 344.113 59.9827 344.309 59.8812 344.487C59.6774 344.824 59.3579 345.076 58.9821 345.196C58.6063 345.316 58.1998 345.295 57.8383 345.137L45.4121 339.308C45.0576 339.138 44.673 339.039 44.2803 339.017C43.8876 338.996 43.4945 339.052 43.1235 339.183C42.7526 339.313 42.4109 339.515 42.1182 339.778C41.8255 340.041 41.5874 340.358 41.4175 340.713C41.4175 340.713 31.2814 368.584 25.309 376.313C20.3775 382.689 5.9605 391.927 3.51429 400.06C1.51049 406.8 32.9338 409.272 43.6425 409.923Z" fill="white"/>
<path d="M165.373 160.274L166.096 160.18C166.395 160.141 166.606 159.867 166.567 159.567L160.919 116.319C160.88 116.02 160.606 115.809 160.307 115.848L159.584 115.943C159.285 115.982 159.074 116.256 159.113 116.555L164.761 159.803C164.8 160.103 165.074 160.314 165.373 160.274Z" fill="#263238"/>
<path opacity="0.3" d="M165.373 160.274L166.096 160.18C166.395 160.141 166.606 159.867 166.567 159.567L160.919 116.319C160.88 116.02 160.606 115.809 160.307 115.848L159.584 115.943C159.285 115.982 159.074 116.256 159.113 116.555L164.761 159.803C164.8 160.103 165.074 160.314 165.373 160.274Z" fill="white"/>
<path d="M142.284 127.256L159.278 117.602C158.133 122.544 158.812 127.733 161.19 132.214L142.284 127.256Z" fill="#407BFF"/>
<path d="M120.295 156.325C120.295 156.325 128.297 170.104 130.964 170.781C133.632 171.457 155.869 156.325 155.869 156.325L157.43 148.335C157.494 148.003 157.65 147.695 157.88 147.446C158.11 147.198 158.405 147.019 158.731 146.93L162.284 146.084L166.278 142.259C166.452 142.088 166.659 141.955 166.886 141.867C167.113 141.778 167.355 141.737 167.599 141.746C167.842 141.754 168.082 141.812 168.302 141.916C168.522 142.02 168.719 142.168 168.881 142.35L169.258 142.779C169.515 143.05 169.675 143.397 169.713 143.768L170.936 154.347C170.965 154.619 170.934 154.894 170.845 155.154L169.115 159.981C169.006 160.286 168.817 160.556 168.567 160.762C168.317 160.968 168.016 161.103 167.696 161.152L160.085 162.323C160.085 162.323 138.954 185.458 129.845 185.458C120.737 185.458 109.183 166.968 109.183 166.968L120.295 156.325Z" fill="#FF8B7B"/>
<path d="M96.9905 129.91C102.965 133.488 108.318 138.015 112.839 143.312C118.447 149.818 124.549 160.657 124.549 160.657C124.549 160.657 117.211 168.061 110.236 170.364L94.7264 150.169C94.7264 150.169 91.7858 135.076 96.9905 129.91Z" fill="#407BFF"/>
<path opacity="0.2" d="M106.45 165.432C103.718 161.88 105.006 144.523 105.006 144.523L103.496 140.424L98.6691 141.192L95.2731 147.606L95.7935 151.588L106.45 165.432Z" fill="black"/>
<path d="M44.1241 212.977C44.1241 212.977 39.1146 131.927 63.1603 124.914C87.206 117.901 109.196 136.26 106.19 141.595C103.184 146.93 91.63 196.856 99.1898 212.977C99.1638 212.977 77.9676 222.684 44.1241 212.977Z" fill="#407BFF"/>
<path d="M47.8973 153.787C47.8973 153.787 34.222 161.971 33.5844 164.651C32.9469 167.332 47.0516 188.073 47.0516 188.073L56.394 190.857C56.7289 190.918 57.0397 191.073 57.2906 191.303C57.5415 191.534 57.7223 191.83 57.8123 192.158L58.6971 195.697L62.6006 199.601C62.777 199.769 62.9174 199.971 63.0134 200.194C63.1093 200.418 63.1588 200.659 63.1588 200.902C63.1588 201.146 63.1093 201.386 63.0134 201.61C62.9174 201.834 62.777 202.036 62.6006 202.203L62.1842 202.594C61.9102 202.845 61.5644 203.004 61.1953 203.049L50.6298 204.35C50.3585 204.389 50.0818 204.363 49.8231 204.272L44.9437 202.659C44.6376 202.558 44.3652 202.374 44.1563 202.129C43.9475 201.883 43.8102 201.585 43.7596 201.266L42.4584 193.668C42.4584 193.668 19.0373 172.849 18.9072 163.741C18.7771 154.632 37.1236 142.844 37.1236 142.844L47.8973 153.787Z" fill="#FF8B7B"/>
<path opacity="0.2" d="M67.1807 137.731C70.9801 122.416 56.1858 141.634 56.1858 141.634L48.652 146.162C47.263 151.549 46.2329 157.021 45.5682 162.544C50.6297 159.721 64.0579 150.378 67.1807 137.731Z" fill="black"/>
<path d="M93.4645 135.505C93.5257 135.376 93.5736 135.241 93.6076 135.102C93.6076 134.972 93.6076 134.829 93.6987 134.698C93.705 134.586 93.705 134.473 93.6987 134.36C93.6987 134.23 93.6987 134.1 93.6987 133.97V133.801C93.6987 133.514 93.6987 133.215 93.6987 132.916V132.903C93.4055 130.947 92.7946 129.053 91.8901 127.295L90.8101 126.839C90.7348 123.981 91.5635 121.171 93.1782 118.811L83.8618 103.809C83.2112 109.43 81.4416 118.525 77.7203 123.586C76.6143 123.495 75.4823 123.417 74.3242 123.417C74.6105 124.315 74.9878 125.408 75.4823 126.579L75.6774 127.048C75.8076 127.308 75.9247 127.581 76.0548 127.854L76.354 128.479L76.6143 128.947C76.7184 129.142 76.8225 129.338 76.9396 129.533L77.2128 130.001L77.6032 130.626L77.8764 131.042C78.0846 131.341 78.2928 131.641 78.514 131.927L78.7092 132.174C78.9304 132.46 79.1646 132.747 79.4118 133.02C79.5047 133.134 79.6047 133.243 79.7111 133.345C79.9063 133.553 80.1014 133.762 80.3096 133.957L80.6609 134.282C80.8821 134.49 81.1033 134.672 81.3375 134.855L81.6759 135.128C82.0201 135.397 82.3808 135.645 82.7558 135.87C83.1218 136.101 83.5046 136.306 83.9009 136.481L84.2912 136.65C84.5775 136.78 84.8767 136.897 85.176 137.002L85.6444 137.158C85.9567 137.249 86.282 137.327 86.6073 137.392L87.0497 137.483C87.5394 137.577 88.035 137.638 88.533 137.665C88.9145 137.685 89.2966 137.685 89.6781 137.665H89.9123C90.2234 137.641 90.5322 137.593 90.8361 137.522H90.9662C91.1975 137.462 91.4238 137.383 91.6428 137.288H91.799C92.0088 137.189 92.2091 137.072 92.3975 136.936L92.5276 136.819C92.6629 136.708 92.7891 136.586 92.905 136.455L92.9961 136.338C93.1194 136.191 93.2243 136.029 93.3083 135.857C93.4124 135.635 93.4385 135.505 93.4645 135.505Z" fill="#FF8B7B"/>
<path opacity="0.2" d="M87.6743 109.885L93.2303 118.733C92.5545 119.856 91.9797 121.036 91.5127 122.26C89.9423 121.434 88.5967 120.239 87.5923 118.776C86.588 117.314 85.9551 115.629 85.7485 113.867C85.6314 111.72 86.8675 109.872 87.6743 109.885Z" fill="black"/>
<path d="M99.9442 102.781C95.0778 96.5484 94.6224 87.4012 95.8195 85.8658C97.0166 84.3304 108.168 85.1371 109.248 86.3862C114.726 92.4497 106.801 100.192 106.801 100.192L107.972 104.212L99.9442 102.781Z" fill="#263238"/>
<path d="M84.3041 95.624C83.3803 105.149 82.3654 110.666 86.373 116.248C92.3714 124.666 104.694 122.168 108.415 113.138C111.785 104.953 112.696 90.7967 104.069 85.592C102.174 84.4311 100.013 83.7749 97.7921 83.6862C95.5714 83.5974 93.3649 84.0789 91.3831 85.0848C89.4013 86.0907 87.7102 87.5875 86.471 89.4324C85.2318 91.2774 84.4858 93.409 84.3041 95.624Z" fill="#FF8B7B"/>
<path d="M98.617 100.686C98.4999 101.466 98.7992 102.143 99.3066 102.221C99.8141 102.299 100.309 101.752 100.426 100.92C100.543 100.087 100.243 99.4754 99.736 99.3974C99.2285 99.3193 98.7341 99.9308 98.617 100.686Z" fill="#263238"/>
<path d="M107.283 102.065C107.166 102.82 107.465 103.51 107.973 103.588C108.48 103.666 108.975 103.106 109.092 102.352C109.209 101.597 108.909 100.894 108.402 100.816C107.895 100.738 107.4 101.298 107.283 102.065Z" fill="#263238"/>
<path d="M104.017 101.844C104.548 104.331 105.424 106.731 106.619 108.975C106.035 109.268 105.393 109.431 104.739 109.451C104.085 109.471 103.435 109.349 102.833 109.092L104.017 101.844Z" fill="#FF5652"/>
<path d="M96.2099 96.6266C96.1313 96.6099 96.0563 96.5791 95.9887 96.5355C95.9073 96.4468 95.8622 96.3307 95.8622 96.2103C95.8622 96.0898 95.9073 95.9737 95.9887 95.885C96.4934 95.3795 97.109 94.9987 97.7866 94.7728C98.4642 94.5469 99.1852 94.4822 99.8922 94.5838C99.9514 94.5961 100.008 94.6201 100.057 94.6544C100.107 94.6886 100.15 94.7325 100.182 94.7834C100.215 94.8342 100.237 94.8911 100.248 94.9507C100.258 95.0102 100.257 95.0713 100.244 95.1303C100.216 95.2481 100.143 95.3506 100.041 95.4161C99.9392 95.4816 99.8159 95.5051 99.697 95.4816C99.1313 95.3947 98.5529 95.4437 98.0099 95.6247C97.4668 95.8057 96.9747 96.1135 96.5742 96.5225C96.525 96.5658 96.4668 96.5976 96.4038 96.6156C96.3408 96.6336 96.2745 96.6373 96.2099 96.6266Z" fill="#263238"/>
<path d="M111.212 99.073C111.137 99.0541 111.068 99.0151 111.013 98.9601C110.958 98.9051 110.919 98.8362 110.9 98.7607C110.749 98.213 110.472 97.7084 110.09 97.288C109.708 96.8675 109.232 96.5429 108.701 96.3405C108.584 96.306 108.485 96.2263 108.426 96.119C108.368 96.0116 108.354 95.8854 108.389 95.768C108.423 95.6507 108.503 95.5519 108.61 95.4933C108.718 95.4348 108.844 95.4212 108.961 95.4558C109.644 95.7017 110.258 96.1077 110.751 96.6397C111.245 97.1717 111.604 97.8143 111.798 98.5135C111.816 98.569 111.823 98.6276 111.819 98.6859C111.814 98.7441 111.798 98.8009 111.771 98.8529C111.745 98.905 111.708 98.9512 111.663 98.989C111.619 99.0267 111.567 99.0553 111.512 99.073C111.465 99.0942 111.414 99.1052 111.362 99.1052C111.31 99.1052 111.259 99.0942 111.212 99.073Z" fill="#263238"/>
<path d="M90.1333 86.7629C90.1333 86.7629 121.648 93.6331 114.283 71.2139C114.283 71.2139 111.876 79.151 96.8083 75.3386C84.239 72.1377 77.6681 75.742 79.2815 81.1288C80.895 86.5157 90.1333 86.7629 90.1333 86.7629Z" fill="#263238"/>
<path d="M86.2821 104.004C86.2821 104.004 90.1856 103.861 88.5071 100.361C86.8286 96.8603 87.1018 94.0368 90.1075 92.6706C93.1132 91.3043 91.2525 84.8635 91.2525 84.8635L81.0123 82.4043C81.0123 82.4043 71.2925 84.6814 80.5309 100.985L86.2821 104.004Z" fill="#263238"/>
<path d="M78.3058 103.692C79.2561 105.895 81.0376 107.635 83.2632 108.532C86.2429 109.69 88.0386 107.127 87.479 104.147C86.9846 101.545 84.8767 97.6411 81.7278 97.7712C78.579 97.9014 77.1737 100.959 78.3058 103.692Z" fill="#FF8B7B"/>
<path d="M60.662 125.968C50.9644 130.144 42.09 136.017 34.4564 143.312L44.8658 156.675C44.8658 156.675 62.1453 149.037 67.2329 140.775C70.616 135.258 67.8055 130.04 65.5414 127.165C64.9707 126.459 64.1846 125.96 63.3034 125.744C62.4222 125.528 61.4944 125.606 60.662 125.968Z" fill="#407BFF"/>
<path d="M101.779 113.086C102.19 113.119 102.604 113.119 103.015 113.086C103.077 113.065 103.129 113.021 103.158 112.962C103.187 112.904 103.192 112.836 103.171 112.774C103.158 112.728 103.131 112.687 103.094 112.656C103.057 112.626 103.011 112.608 102.963 112.605C101.928 112.663 100.894 112.477 99.9445 112.061C98.9951 111.645 98.157 111.011 97.4982 110.21C97.4511 110.17 97.3911 110.148 97.329 110.148C97.267 110.148 97.207 110.17 97.1599 110.21C97.1186 110.26 97.0959 110.322 97.0959 110.386C97.0959 110.45 97.1186 110.513 97.1599 110.562C97.7251 111.267 98.4243 111.852 99.2171 112.286C100.01 112.719 100.881 112.991 101.779 113.086Z" fill="#263238"/>
<path d="M199.497 371.656V398.837C199.497 399.006 199.497 399.162 199.497 399.332C197.471 402.332 196.396 405.873 196.413 409.494C196.413 418.797 203.218 426.409 211.598 426.409C219.978 426.409 226.783 418.823 226.783 409.494C226.783 400.164 219.965 392.579 211.598 392.579C208.735 392.609 205.951 393.517 203.622 395.181V370.068L204.624 369.847C207.739 369.458 210.883 369.35 214.018 369.522H235.266C236.229 401.075 259.117 426.422 287.118 426.422C315.744 426.422 339.009 399.956 339.009 367.44C339.009 338.15 320.116 313.779 295.446 309.238L299.701 268.577C300.104 264.673 300.52 260.848 300.924 256.983C300.993 254.197 301.594 251.45 302.693 248.89C305.53 243.334 310.331 241.838 315.575 241.434C315.832 241.68 316.137 241.873 316.469 242C316.802 242.128 317.157 242.187 317.514 242.176H337.929C341.741 242.176 341.741 236.255 337.929 236.255H317.527C317.134 236.242 316.743 236.314 316.382 236.467C316.02 236.62 315.696 236.85 315.432 237.14H315.054C310.873 237.182 306.833 238.661 303.613 241.329C300.394 243.996 298.19 247.691 297.371 251.791C296.265 257.751 296.07 263.97 295.407 270.008L293.221 290.827H281.211C281.107 289.533 280.524 288.325 279.575 287.439C278.627 286.553 277.382 286.054 276.084 286.038H228.409C227.114 286.053 225.87 286.551 224.922 287.434C223.974 288.317 223.389 289.522 223.283 290.814C218.819 290.736 214.174 290.514 209.998 292.323C196.504 298.256 199.497 315.263 199.497 327.182V371.669V371.656ZM203.544 409.806C205.859 412.057 208.942 413.346 212.171 413.41C214.851 413.553 214.773 409.403 212.171 409.273C207.916 409.051 205.782 407.113 204.702 404.445C205.295 403.088 206.257 401.925 207.478 401.088C208.7 400.25 210.131 399.773 211.611 399.709C216.061 399.709 219.691 404.094 219.691 409.494C219.691 414.894 216.061 419.266 211.611 419.266C207.161 419.266 203.687 415.05 203.544 409.806ZM242.384 369.47H244.479C245.442 395.363 264.191 416.104 287.131 416.104C310.669 416.104 329.823 394.257 329.823 367.388C329.823 343.355 314.482 323.343 294.392 319.4C294.496 318.36 294.613 317.319 294.717 316.291C315.809 320.467 331.918 341.794 331.918 367.388C331.918 396.014 311.827 419.253 287.131 419.253C263.033 419.266 243.334 397.12 242.384 369.483V369.47ZM242.384 365.319C243.334 337.682 263.033 315.523 287.131 315.523C288.302 315.523 289.473 315.588 290.631 315.692C290.527 316.746 290.41 317.787 290.306 318.828C289.252 318.737 288.198 318.672 287.131 318.672C264.191 318.672 245.494 339.413 244.479 365.319H242.384ZM294.066 322.549C312.569 326.336 326.596 344.995 326.596 367.388C326.596 392.513 308.861 412.929 287.066 412.929C265.87 412.929 248.525 393.606 247.575 369.457H267.666C276.54 369.457 288.341 370.758 290.176 358.917C291.048 353.27 291.386 347.493 291.972 341.82L294.066 322.549ZM247.641 365.319C248.59 341.156 265.935 321.834 287.131 321.834C288.081 321.834 289.031 321.834 289.981 321.964C289.191 329.45 288.406 336.927 287.626 344.396C287.001 350.342 287.899 362.469 280.846 364.877C278.244 365.761 274.887 365.319 272.207 365.319H247.641ZM203.635 365.865V320.546C203.635 316.642 203.531 312.66 203.635 308.718C203.869 300.377 210.141 295.003 218.208 294.951H224.935C225.894 295.797 227.131 296.26 228.409 296.253H276.097C277.376 296.26 278.612 295.797 279.571 294.951H292.804C292.323 299.519 291.854 304.06 291.373 308.64C289.968 308.51 288.562 308.432 287.131 308.432C259.13 308.432 236.242 333.765 235.279 365.332H217.596C214.565 365.332 211.52 365.267 208.488 365.332C206.874 365.364 205.267 365.547 203.687 365.878L203.635 365.865Z" fill="#407BFF"/>
<path opacity="0.4" d="M199.497 371.656V398.837C199.497 399.006 199.497 399.162 199.497 399.332C197.471 402.332 196.396 405.873 196.413 409.494C196.413 418.797 203.218 426.409 211.598 426.409C219.978 426.409 226.783 418.823 226.783 409.494C226.783 400.164 219.965 392.579 211.598 392.579C208.735 392.609 205.951 393.517 203.622 395.181V370.068L204.624 369.847C207.739 369.458 210.883 369.35 214.018 369.522H235.266C236.229 401.075 259.117 426.422 287.118 426.422C315.744 426.422 339.009 399.956 339.009 367.44C339.009 338.15 320.116 313.779 295.446 309.238L299.701 268.577C300.104 264.673 300.52 260.848 300.924 256.983C300.993 254.197 301.594 251.45 302.693 248.89C305.53 243.334 310.331 241.838 315.575 241.434C315.832 241.68 316.137 241.873 316.469 242C316.802 242.128 317.157 242.187 317.514 242.176H337.929C341.741 242.176 341.741 236.255 337.929 236.255H317.527C317.134 236.242 316.743 236.314 316.382 236.467C316.02 236.62 315.696 236.85 315.432 237.14H315.054C310.873 237.182 306.833 238.661 303.613 241.329C300.394 243.996 298.19 247.691 297.371 251.791C296.265 257.751 296.07 263.97 295.407 270.008L293.221 290.827H281.211C281.107 289.533 280.524 288.325 279.575 287.439C278.627 286.553 277.382 286.054 276.084 286.038H228.409C227.114 286.053 225.87 286.551 224.922 287.434C223.974 288.317 223.389 289.522 223.283 290.814C218.819 290.736 214.174 290.514 209.998 292.323C196.504 298.256 199.497 315.263 199.497 327.182V371.669V371.656ZM203.544 409.806C205.859 412.057 208.942 413.346 212.171 413.41C214.851 413.553 214.773 409.403 212.171 409.273C207.916 409.051 205.782 407.113 204.702 404.445C205.295 403.088 206.257 401.925 207.478 401.088C208.7 400.25 210.131 399.773 211.611 399.709C216.061 399.709 219.691 404.094 219.691 409.494C219.691 414.894 216.061 419.266 211.611 419.266C207.161 419.266 203.687 415.05 203.544 409.806ZM242.384 369.47H244.479C245.442 395.363 264.191 416.104 287.131 416.104C310.669 416.104 329.823 394.257 329.823 367.388C329.823 343.355 314.482 323.343 294.392 319.4C294.496 318.36 294.613 317.319 294.717 316.291C315.809 320.467 331.918 341.794 331.918 367.388C331.918 396.014 311.827 419.253 287.131 419.253C263.033 419.266 243.334 397.12 242.384 369.483V369.47ZM242.384 365.319C243.334 337.682 263.033 315.523 287.131 315.523C288.302 315.523 289.473 315.588 290.631 315.692C290.527 316.746 290.41 317.787 290.306 318.828C289.252 318.737 288.198 318.672 287.131 318.672C264.191 318.672 245.494 339.413 244.479 365.319H242.384ZM294.066 322.549C312.569 326.336 326.596 344.995 326.596 367.388C326.596 392.513 308.861 412.929 287.066 412.929C265.87 412.929 248.525 393.606 247.575 369.457H267.666C276.54 369.457 288.341 370.758 290.176 358.917C291.048 353.27 291.386 347.493 291.972 341.82L294.066 322.549ZM247.641 365.319C248.59 341.156 265.935 321.834 287.131 321.834C288.081 321.834 289.031 321.834 289.981 321.964C289.191 329.45 288.406 336.927 287.626 344.396C287.001 350.342 287.899 362.469 280.846 364.877C278.244 365.761 274.887 365.319 272.207 365.319H247.641ZM203.635 365.865V320.546C203.635 316.642 203.531 312.66 203.635 308.718C203.869 300.377 210.141 295.003 218.208 294.951H224.935C225.894 295.797 227.131 296.26 228.409 296.253H276.097C277.376 296.26 278.612 295.797 279.571 294.951H292.804C292.323 299.519 291.854 304.06 291.373 308.64C289.968 308.51 288.562 308.432 287.131 308.432C259.13 308.432 236.242 333.765 235.279 365.332H217.596C214.565 365.332 211.52 365.267 208.488 365.332C206.874 365.364 205.267 365.547 203.687 365.878L203.635 365.865Z" fill="white"/>
<path d="M203.648 340.661H341.702C344.361 340.661 346.517 338.506 346.517 335.847V335.209C346.517 332.55 344.361 330.395 341.702 330.395H203.648C200.989 330.395 198.833 332.55 198.833 335.209V335.847C198.833 338.506 200.989 340.661 203.648 340.661Z" fill="#407BFF"/>
<path opacity="0.4" d="M203.648 340.661H341.702C344.361 340.661 346.517 338.506 346.517 335.847V335.209C346.517 332.55 344.361 330.395 341.702 330.395H203.648C200.989 330.395 198.833 332.55 198.833 335.209V335.847C198.833 338.506 200.989 340.661 203.648 340.661Z" fill="black"/>
<path d="M230.489 171.117L230.393 171.077C229.947 170.895 229.438 171.108 229.255 171.553L212.725 211.858C212.542 212.304 212.755 212.813 213.201 212.996L213.297 213.035C213.743 213.218 214.252 213.005 214.435 212.559L230.965 172.254C231.148 171.809 230.935 171.3 230.489 171.117Z" fill="#263238"/>
<path opacity="0.3" d="M230.489 171.117L230.393 171.077C229.947 170.895 229.438 171.108 229.255 171.553L212.725 211.858C212.542 212.304 212.755 212.813 213.201 212.996L213.297 213.035C213.743 213.218 214.252 213.005 214.435 212.559L230.965 172.254C231.148 171.809 230.935 171.3 230.489 171.117Z" fill="white"/>
<path d="M244.804 186.863L230.673 172.979C230.51 178.115 228.495 183.019 225 186.785L244.804 186.863Z" fill="#407BFF"/>
<path d="M223.087 209.36C223.087 209.36 224.245 202.854 223.556 200.603C223.238 199.743 222.8 198.933 222.255 198.196C221.24 196.778 219.652 192.718 218 192.119C217.245 191.846 215.593 192.692 214.994 193.212C212.665 195.255 209.972 201.124 210.05 204.22C210.05 206.315 212.808 209.985 214.291 211.468C215.029 212 215.818 212.458 216.647 212.834L221.045 221.201L227.55 216.946L223.087 209.36Z" fill="#FFC3BD"/>
<path d="M279.793 206.159C279.793 206.159 266.924 207.044 260.171 212.86C254.745 217.518 243.594 231.207 240.653 230.868C237.713 230.53 226.458 212.847 226.458 212.847C223.196 213.963 220.281 215.91 218 218.494C218 218.494 232.014 248.903 240.302 248.903C249.775 248.903 272.558 223.543 272.558 223.543L279.793 206.159Z" fill="#407BFF"/>
<path opacity="0.1" d="M254.211 241.265C256.814 225.416 261.003 219.444 261.003 219.444L266.208 222.254L268.576 227.758C264.043 232.524 259.247 237.033 254.211 241.265Z" fill="black"/>
<path d="M181.554 381.882L176.714 394.712L188.034 396.833L194.618 386.866L181.554 381.882Z" fill="#FFC3BD"/>
<path d="M176.141 392.708L189.153 395.206C189.392 395.251 189.609 395.376 189.767 395.56C189.926 395.745 190.017 395.978 190.024 396.221L190.363 407.307C190.374 407.778 190.2 408.235 189.879 408.58C189.559 408.925 189.116 409.131 188.645 409.155H188.268C183.571 408.166 179.433 407.112 173.578 405.993C166.655 404.692 168.256 405.837 160.097 404.406C155.179 403.534 155.348 397.796 157.495 397.9C167.228 398.524 168.763 395.831 173.109 393.137C174.032 392.625 175.112 392.473 176.141 392.708Z" fill="#263238"/>
<path d="M289.668 293.182C289.668 293.182 302.316 328.704 283.306 329.341L242.332 330.681C235.589 330.785 228.847 330.437 222.15 329.641C222.15 329.641 221.578 351.761 191.378 393.88C191.378 393.88 185.314 393.632 178.496 386.931C178.496 386.931 203.843 317.865 213.068 309.928C225.677 299.076 289.668 293.182 289.668 293.182Z" fill="#263238"/>
<path opacity="0.1" d="M289.668 293.182C289.668 293.182 302.316 328.704 283.306 329.341L242.332 330.681C235.589 330.785 228.847 330.437 222.15 329.641C222.15 329.641 221.578 351.761 191.378 393.88C191.378 393.88 185.314 393.632 178.496 386.931C178.496 386.931 203.843 317.865 213.068 309.928C225.677 299.076 289.668 293.182 289.668 293.182Z" fill="white"/>
<path d="M195.633 390.692L191.586 396.365L176.505 388.571L178.626 381.987L195.633 390.692Z" fill="#263238"/>
<path opacity="0.5" d="M195.633 390.692L191.586 396.365L176.505 388.571L178.626 381.987L195.633 390.692Z" fill="white"/>
<path d="M318.099 298.725C318.099 298.725 287.365 302.394 261.928 295.979C259.832 280.836 258.745 265.57 258.675 250.282C258.87 228.162 254.251 206.693 288.133 205.236C321.066 203.817 328.352 201.41 321.547 231.467C314.742 261.524 316.889 275.512 318.099 298.725Z" fill="#407BFF"/>
<path d="M197.116 389.208L191.859 401.869L203.114 404.367L210.023 394.621L197.116 389.208Z" fill="#FFC3BD"/>
<path d="M191.274 399.943L204.285 402.883C204.524 402.932 204.738 403.063 204.89 403.253C205.042 403.443 205.123 403.681 205.118 403.924V415.01C205.12 415.244 205.075 415.475 204.987 415.692C204.899 415.908 204.769 416.104 204.604 416.27C204.44 416.436 204.244 416.567 204.029 416.657C203.813 416.747 203.582 416.793 203.348 416.793C203.223 416.806 203.097 416.806 202.971 416.793C198.313 415.661 194.214 414.464 188.398 413.15C181.528 411.601 183.076 412.824 174.97 411.107C170.09 410.079 170.455 404.341 172.576 404.601C182.295 405.551 183.922 402.922 188.32 400.359C189.223 399.872 190.271 399.724 191.274 399.943Z" fill="#263238"/>
<path d="M316.499 297.619C316.499 297.619 327.949 330.395 308.926 330.395H267.939C261.194 330.274 254.466 329.704 247.797 328.691C247.797 328.691 242.006 357.642 207.786 400.555C207.786 400.555 200.941 400.099 194.357 393.177C194.357 393.177 221.214 317.891 230.686 310.253C243.659 299.805 316.499 297.619 316.499 297.619Z" fill="#263238"/>
<path opacity="0.2" d="M316.499 297.619C316.499 297.619 327.949 330.395 308.926 330.395H267.939C261.194 330.274 254.466 329.704 247.797 328.691C247.797 328.691 242.006 357.642 207.786 400.555C207.786 400.555 200.941 400.099 194.357 393.177C194.357 393.177 221.214 317.891 230.686 310.253C243.659 299.805 316.499 297.619 316.499 297.619Z" fill="white"/>
<path d="M211.234 398.486L206.992 404.016L192.184 395.727L194.527 389.208L211.234 398.486Z" fill="#263238"/>
<path opacity="0.5" d="M211.234 398.486L206.992 404.016L192.184 395.727L194.527 389.208L211.234 398.486Z" fill="white"/>
<path opacity="0.1" d="M318.567 216.53L323.473 221.279C323.083 224.181 322.445 227.551 321.547 231.467C320.766 234.928 320.103 238.168 319.543 241.239C314.547 231.545 311.945 217.922 311.945 217.922L318.567 216.53Z" fill="black"/>
<path d="M317.579 269.435L311.073 276.539C311.073 276.539 301.275 279.311 298.412 281.237C297.554 281.809 295.667 283.214 295.589 284.242C295.672 284.622 295.83 284.98 296.053 285.297C296.277 285.615 296.561 285.884 296.89 286.09C299.831 287.599 306.857 286.689 310.11 286.09C311.822 285.816 313.457 285.186 314.911 284.242C315.597 283.228 316.132 282.119 316.499 280.95L323.85 274.705L317.579 269.435Z" fill="#FFC3BD"/>
<path d="M319.921 206.653C330.538 213.276 350.915 231.922 350.889 243.971C350.863 256.02 320.871 279.103 320.871 279.103C320.871 279.103 317.097 278.309 314.248 271.4C314.248 271.4 334.091 248.499 333.7 245.637C333.31 242.774 318.086 232.625 313.428 222.619C308.77 212.613 314.703 203.414 319.921 206.653Z" fill="#407BFF"/>
<path d="M299.623 209.412C298.246 210.763 296.637 211.856 294.873 212.639C290.886 214.133 286.594 214.633 282.369 214.096L278.466 212.183L278.192 209.971L278.283 209.425H278.479C285.934 208.124 287.327 201.982 286.754 196.335L302.576 186.316C300.442 192.405 297.684 202.919 299.623 209.412Z" fill="#FFC3BD"/>
<path d="M303.292 204.572L300.689 208.254L293.741 213.055L285.635 214.357L279.754 213.485L277.854 210.895L279.571 206.159C282.409 205.65 285.278 205.341 288.159 205.235C293.975 204.988 298.998 204.702 303.292 204.572Z" fill="#FFC3BD"/>
<path d="M284.06 215.437C274.458 215.437 276.566 209.75 278.7 206.328C279.702 206.107 280.769 205.925 281.888 205.769C279.129 208.371 276.045 212.639 285.049 213.094C288.34 213.357 291.639 212.703 294.581 211.206C297.523 209.709 299.993 207.426 301.717 204.611L306.206 204.494C304.359 207.799 298.504 215.437 284.06 215.437Z" fill="#407BFF"/>
<path opacity="0.5" d="M284.06 215.437C274.458 215.437 276.566 209.75 278.7 206.328C279.702 206.107 280.769 205.925 281.888 205.769C279.129 208.371 276.045 212.639 285.049 213.094C288.34 213.357 291.639 212.703 294.581 211.206C297.523 209.709 299.993 207.426 301.717 204.611L306.206 204.494C304.359 207.799 298.504 215.437 284.06 215.437Z" fill="white"/>
<path opacity="0.2" d="M296.135 190.415L286.767 196.27C286.884 197.651 286.884 199.039 286.767 200.421C289.981 200.421 294.405 198.365 296.135 195.099C297.241 193.108 296.903 190.766 296.135 190.415Z" fill="black"/>
<path d="M287.209 176.415C294.405 172.134 298.347 163.26 297.749 161.295C297.15 159.33 285.856 155.856 284.308 156.676C276.592 160.579 281.432 171.236 281.432 171.236L278.752 174.749L287.209 176.415Z" fill="#263238"/>
<path d="M306.883 176.063C304.151 185.809 303.045 191.677 296.968 195.581C287.86 201.592 276.618 194.41 276.396 184.078C276.201 174.71 280.716 160.397 291.217 158.562C293.528 158.151 295.905 158.337 298.124 159.103C300.343 159.869 302.329 161.19 303.893 162.939C305.458 164.689 306.549 166.81 307.063 169.1C307.577 171.39 307.497 173.774 306.831 176.024L306.883 176.063Z" fill="#FFC3BD"/>
<path d="M307.43 183.024C314.157 178.067 317.045 169.362 316.173 167.514C315.614 166.289 314.818 165.185 313.831 164.267C312.845 163.35 311.687 162.635 310.424 162.165C309.161 161.695 307.818 161.479 306.471 161.528C305.125 161.577 303.801 161.892 302.576 162.453C294.769 166.187 301.145 178.496 301.145 178.496L298.803 182.348L307.43 183.024Z" fill="#263238"/>
<path d="M309.72 186.316C307.937 188.122 305.516 189.155 302.979 189.192C299.596 189.192 298.803 185.965 300.494 183.258C302.004 180.812 305.582 177.872 308.614 179.16C311.645 180.448 311.893 184.052 309.72 186.316Z" fill="#FFC3BD"/>
<path d="M290.866 175.581C290.696 176.388 290.137 176.883 289.564 176.883C288.992 176.883 288.758 176.037 288.927 175.23C289.096 174.423 289.668 173.864 290.228 173.929C290.787 173.994 291.009 174.788 290.866 175.581Z" fill="#263238"/>
<path d="M281.757 173.63C281.575 174.424 281.016 174.931 280.456 174.866C279.897 174.801 279.649 174.007 279.832 173.214C280.014 172.42 280.573 171.913 281.133 171.913C281.692 171.913 281.927 172.823 281.757 173.63Z" fill="#263238"/>
<path d="M285.062 174.658C283.572 176.903 281.776 178.931 279.728 180.682C280.194 181.193 280.766 181.598 281.404 181.867C282.042 182.137 282.731 182.265 283.423 182.244L285.062 174.658Z" fill="#ED847E"/>
<path d="M294.769 172.485C294.85 172.511 294.936 172.511 295.016 172.485C295.127 172.426 295.213 172.329 295.256 172.211C295.299 172.093 295.297 171.964 295.251 171.847C294.937 171.15 294.464 170.535 293.87 170.054C293.276 169.572 292.576 169.237 291.828 169.076C291.764 169.062 291.697 169.061 291.633 169.073C291.568 169.086 291.506 169.112 291.452 169.149C291.397 169.186 291.351 169.234 291.316 169.29C291.281 169.346 291.258 169.409 291.248 169.474C291.238 169.539 291.242 169.606 291.259 169.67C291.276 169.734 291.306 169.793 291.347 169.845C291.388 169.897 291.439 169.939 291.497 169.971C291.556 170.002 291.62 170.02 291.685 170.026C292.274 170.164 292.822 170.437 293.288 170.823C293.753 171.209 294.122 171.698 294.366 172.251C294.408 172.321 294.467 172.379 294.537 172.42C294.608 172.461 294.688 172.483 294.769 172.485Z" fill="#263238"/>
<path d="M279.012 169.206C279.092 169.212 279.173 169.197 279.246 169.163C279.319 169.129 279.382 169.076 279.428 169.011C279.789 168.529 280.257 168.138 280.794 167.867C281.331 167.596 281.923 167.453 282.525 167.449C282.651 167.46 282.776 167.421 282.873 167.341C282.97 167.261 283.032 167.145 283.046 167.02C283.053 166.956 283.047 166.892 283.028 166.831C283.009 166.769 282.978 166.713 282.937 166.664C282.896 166.615 282.845 166.575 282.787 166.547C282.73 166.519 282.667 166.503 282.603 166.499C281.836 166.481 281.076 166.646 280.385 166.981C279.695 167.316 279.095 167.811 278.635 168.425C278.596 168.474 278.567 168.529 278.549 168.589C278.532 168.649 278.527 168.712 278.534 168.773C278.542 168.835 278.561 168.895 278.592 168.949C278.622 169.003 278.663 169.051 278.713 169.089C278.752 169.128 278.799 169.158 278.85 169.178C278.902 169.199 278.957 169.208 279.012 169.206Z" fill="#263238"/>
<path d="M304.866 166.382C304.866 166.382 273.963 163.468 282.746 150.937C293.962 134.92 296.252 148.478 296.252 148.478C296.252 148.478 314.82 144.392 309.264 155.387C309.277 155.387 326.752 165.432 304.866 166.382Z" fill="#263238"/>
<path d="M283.566 186.668C283.124 186.606 282.689 186.506 282.265 186.368C282.196 186.35 282.138 186.306 282.102 186.245C282.065 186.184 282.054 186.112 282.07 186.043C282.081 186.009 282.1 185.977 282.124 185.95C282.148 185.923 282.177 185.9 282.21 185.885C282.242 185.869 282.278 185.86 282.314 185.858C282.35 185.856 282.387 185.862 282.421 185.874C283.522 186.228 284.692 186.319 285.835 186.141C286.978 185.962 288.064 185.519 289.005 184.846C289.058 184.797 289.128 184.769 289.2 184.769C289.272 184.769 289.342 184.797 289.395 184.846C289.444 184.897 289.471 184.964 289.471 185.035C289.471 185.105 289.444 185.172 289.395 185.223C288.573 185.849 287.632 186.3 286.63 186.548C285.627 186.796 284.585 186.837 283.566 186.668Z" fill="#263238"/>
<path d="M210.508 423.544L176.185 419.402C175.442 419.313 174.764 418.931 174.302 418.342C173.84 417.753 173.63 417.004 173.72 416.261L173.764 415.899C173.853 415.156 174.235 414.478 174.824 414.016C175.413 413.554 176.162 413.345 176.905 413.434L211.228 417.576C211.975 417.666 212.656 418.049 213.12 418.641C213.585 419.233 213.795 419.985 213.705 420.732L213.661 421.093C213.571 421.837 213.19 422.514 212.601 422.976C212.012 423.439 211.263 423.648 210.52 423.558L210.508 423.544Z" fill="#407BFF"/>
<g opacity="0.4">
<path d="M210.508 423.543L176.185 419.402C175.441 419.312 174.764 418.931 174.302 418.342C173.839 417.752 173.63 417.004 173.72 416.26L173.763 415.899C173.853 415.155 174.235 414.478 174.824 414.016C175.413 413.553 176.161 413.344 176.905 413.434L211.228 417.575C211.975 417.665 212.656 418.048 213.12 418.64C213.584 419.232 213.795 419.984 213.705 420.731L213.661 421.093C213.571 421.836 213.19 422.514 212.601 422.976C212.012 423.438 211.263 423.647 210.519 423.558L210.508 423.543Z" fill="black"/>
</g>
<path d="M387.465 241.251H372.709C365.605 241.251 358.462 241.525 354.714 248.85C353.611 251.41 353.006 254.157 352.932 256.944L351.721 268.537C349.119 292.973 346.56 317.409 344.045 341.845C343.459 347.518 343.121 353.295 342.236 358.943C340.401 370.77 328.613 369.482 319.739 369.482H266.039C262.9 369.31 259.752 369.419 256.632 369.807C245.845 371.837 239.521 384.003 233.458 392.11L213.003 419.434C212.548 420.059 212.079 420.735 211.611 421.295C210.037 423.416 206.406 421.295 208.033 419.2C219.028 404.497 229.867 389.637 241.044 375.064C243.312 372.049 246.248 369.599 249.62 367.907C252.992 366.214 256.71 365.323 260.483 365.305C263.528 365.24 266.573 365.305 269.591 365.305H324.241C326.921 365.305 330.291 365.748 332.881 364.863C339.933 362.456 339.035 350.329 339.66 344.382C342.262 319.582 344.864 294.773 347.467 269.955C348.091 263.944 348.312 257.724 349.418 251.739C350.231 247.633 352.433 243.933 355.653 241.26C358.874 238.587 362.916 237.104 367.101 237.062C372.124 236.905 377.185 237.062 382.221 237.062H387.504C388.052 237.062 388.579 237.28 388.967 237.668C389.355 238.056 389.573 238.582 389.573 239.13C389.573 239.679 389.355 240.205 388.967 240.593C388.579 240.981 388.052 241.199 387.504 241.199L387.465 241.251Z" fill="#407BFF"/>
<g opacity="0.5">
<path d="M387.465 241.251H372.709C365.605 241.251 358.462 241.525 354.714 248.85C353.611 251.41 353.006 254.157 352.932 256.944L351.721 268.537C349.119 292.973 346.56 317.409 344.045 341.845C343.459 347.518 343.121 353.295 342.236 358.943C340.401 370.77 328.613 369.482 319.739 369.482H266.039C262.9 369.31 259.752 369.419 256.632 369.807C245.845 371.837 239.521 384.003 233.458 392.11L213.003 419.434C212.548 420.059 212.079 420.735 211.611 421.295C210.037 423.416 206.406 421.295 208.033 419.2C219.028 404.497 229.867 389.637 241.044 375.064C243.312 372.049 246.248 369.599 249.62 367.907C252.992 366.214 256.71 365.323 260.483 365.305C263.528 365.24 266.573 365.305 269.591 365.305H324.241C326.921 365.305 330.291 365.748 332.881 364.863C339.933 362.456 339.035 350.329 339.66 344.382C342.262 319.582 344.864 294.773 347.467 269.955C348.091 263.944 348.312 257.724 349.418 251.739C350.231 247.633 352.433 243.933 355.653 241.26C358.874 238.587 362.916 237.104 367.101 237.062C372.124 236.905 377.185 237.062 382.221 237.062H387.504C388.052 237.062 388.579 237.28 388.967 237.668C389.355 238.056 389.573 238.582 389.573 239.13C389.573 239.679 389.355 240.205 388.967 240.593C388.579 240.981 388.052 241.199 387.504 241.199L387.465 241.251Z" fill="white"/>
</g>
<path d="M389.95 242.202H369.534C365.722 242.202 365.722 236.282 369.534 236.282H389.95C393.762 236.282 393.762 242.202 389.95 242.202Z" fill="#407BFF"/>
<g opacity="0.4">
<path d="M389.95 242.202H369.534C365.722 242.202 365.722 236.282 369.534 236.282H389.95C393.762 236.282 393.762 242.202 389.95 242.202Z" fill="black"/>
</g>
<path d="M248.434 409.493C248.434 400.176 255.24 392.578 263.619 392.578C271.999 392.578 278.804 400.15 278.804 409.493C278.804 418.835 271.986 426.408 263.619 426.408C255.253 426.408 248.434 418.796 248.434 409.493ZM255.539 409.493C255.539 414.88 259.156 419.265 263.619 419.265C268.082 419.265 271.686 414.88 271.686 409.493C271.686 404.106 268.069 399.708 263.619 399.708C259.169 399.708 255.539 404.093 255.539 409.493Z" fill="#263238"/>
<g opacity="0.1">
<path d="M248.434 409.493C248.434 400.176 255.24 392.578 263.619 392.578C271.999 392.578 278.804 400.15 278.804 409.493C278.804 418.835 271.986 426.408 263.619 426.408C255.253 426.408 248.434 418.796 248.434 409.493ZM255.539 409.493C255.539 414.88 259.156 419.265 263.619 419.265C268.082 419.265 271.686 414.88 271.686 409.493C271.686 404.106 268.069 399.708 263.619 399.708C259.169 399.708 255.539 404.093 255.539 409.493Z" fill="white"/>
</g>
<path d="M346.816 294.951C321.3 294.951 295.784 294.808 270.268 294.951C262.149 294.951 255.955 300.377 255.695 308.717C255.578 312.621 255.695 316.603 255.695 320.545V394.035C255.695 400.541 255.174 408.817 264.23 409.272C266.833 409.402 266.833 413.553 264.23 413.41C255.916 412.994 251.544 406.618 251.544 398.837V327.168C251.544 315.249 248.551 298.243 262.057 292.31C266.677 290.28 271.985 290.813 276.917 290.813H346.816C347.365 290.813 347.891 291.031 348.279 291.419C348.667 291.807 348.885 292.334 348.885 292.882C348.885 293.431 348.667 293.957 348.279 294.345C347.891 294.733 347.365 294.951 346.816 294.951Z" fill="#407BFF"/>
<g opacity="0.7">
<path d="M346.816 294.951C321.3 294.951 295.784 294.808 270.268 294.951C262.149 294.951 255.955 300.377 255.695 308.717C255.578 312.621 255.695 316.603 255.695 320.545V394.035C255.695 400.541 255.174 408.817 264.23 409.272C266.833 409.402 266.833 413.553 264.23 413.41C255.916 412.994 251.544 406.618 251.544 398.837V327.168C251.544 315.249 248.551 298.243 262.057 292.31C266.677 290.28 271.985 290.813 276.917 290.813H346.816C347.365 290.813 347.891 291.031 348.279 291.419C348.667 291.807 348.885 292.334 348.885 292.882C348.885 293.431 348.667 293.957 348.279 294.345C347.891 294.733 347.365 294.951 346.816 294.951Z" fill="white"/>
</g>
<path d="M280.092 296.291H328.43C331.089 296.291 333.245 294.136 333.245 291.477V290.839C333.245 288.18 331.089 286.025 328.43 286.025H280.092C277.433 286.025 275.277 288.18 275.277 290.839V291.477C275.277 294.136 277.433 296.291 280.092 296.291Z" fill="#407BFF"/>
<path opacity="0.4" d="M280.092 296.291H328.43C331.089 296.291 333.245 294.136 333.245 291.477V290.839C333.245 288.18 331.089 286.025 328.43 286.025H280.092C277.433 286.025 275.277 288.18 275.277 290.839V291.477C275.277 294.136 277.433 296.291 280.092 296.291Z" fill="black"/>
<path d="M287.235 367.401C287.235 334.872 310.513 308.432 339.126 308.432C367.739 308.432 391.056 334.885 391.056 367.401C391.056 399.917 367.778 426.383 339.152 426.383C310.526 426.383 287.235 399.917 287.235 367.401ZM294.353 367.401C294.353 396.027 314.443 419.266 339.126 419.266C363.809 419.266 383.913 396.001 383.913 367.401C383.913 338.801 363.822 315.536 339.126 315.536C314.43 315.536 294.353 338.801 294.353 367.401Z" fill="#263238"/>
<g opacity="0.1">
<path d="M287.235 367.401C287.235 334.872 310.513 308.432 339.126 308.432C367.739 308.432 391.056 334.885 391.056 367.401C391.056 399.917 367.778 426.383 339.152 426.383C310.526 426.383 287.235 399.917 287.235 367.401ZM294.353 367.401C294.353 396.027 314.443 419.266 339.126 419.266C363.809 419.266 383.913 396.001 383.913 367.401C383.913 338.801 363.822 315.536 339.126 315.536C314.43 315.536 294.353 338.801 294.353 367.401Z" fill="white"/>
</g>
<path d="M296.435 367.401C296.435 340.544 315.588 318.685 339.126 318.685C362.664 318.685 381.831 340.544 381.831 367.401C381.831 394.257 362.677 416.117 339.126 416.117C315.575 416.117 296.435 394.27 296.435 367.401ZM299.596 367.401C299.596 392.526 317.331 412.942 339.126 412.942C360.921 412.942 378.669 392.513 378.669 367.401C378.669 342.288 360.934 321.859 339.126 321.859C317.318 321.859 299.596 342.288 299.596 367.401Z" fill="#407BFF"/>
<g opacity="0.7">
<path d="M296.435 367.401C296.435 340.544 315.588 318.685 339.126 318.685C362.664 318.685 381.831 340.544 381.831 367.401C381.831 394.257 362.677 416.117 339.126 416.117C315.575 416.117 296.435 394.27 296.435 367.401ZM299.596 367.401C299.596 392.526 317.331 412.942 339.126 412.942C360.921 412.942 378.669 392.513 378.669 367.401C378.669 342.288 360.934 321.859 339.126 321.859C317.318 321.859 299.596 342.288 299.596 367.401Z" fill="white"/>
</g>
</svg>
