<svg width="7279" height="6447" viewBox="0 0 7279 6447" fill="none" xmlns="http://www.w3.org/2000/svg">
<path d="M6676.41 5280.18C6732.74 4956.32 7267.8 4336.76 7112.95 3956.55C6958.1 3576.35 6577.73 4786.98 6436.89 4801.47C6296.04 4815.96 6422.88 4252.25 6620.07 3717.19C6817.25 3182.14 6972.1 2618.75 6620.07 2407.57C6268.03 2196.38 6282.04 3872.04 6197.53 3815.71C6113.02 3759.37 6253.87 3055.3 6155.36 2618.75C6056.84 2182.21 5831.49 2534.25 5831.49 3042.11C5831.49 3549.97 5986.34 3830.69 5873.66 3872.53C5760.98 3914.38 5415.3 3756.92 5423.12 4309.08C5430.93 4861.23 5859.66 5520.19 5704.65 5435.69C5549.63 5351.18 5268.1 5027.31 5324.44 5548.36C5364.33 5916.68 5650.1 6270.67 5814.56 6446.69H6567.47C6682.27 6328.64 6905.34 6079.84 7055.96 5787.72C7267.8 5378.86 6620.07 5604.21 6676.41 5280.18Z" fill="#007FFF"/>
<path d="M5760.98 6413.8C5621.6 6214.01 5556.47 5969.76 5491.34 5741.8C5458.77 5595.26 5458.77 5432.43 5572.75 5334.73C5686.73 5253.32 5751.87 5399.86 5817 5464.99C5865.85 5432.43 5833.28 5383.58 5833.28 5351.01C5800.79 5091.76 5784.48 4830.73 5784.43 4569.44C5784.43 4406.61 5849.56 4276.35 5914.69 4129.8C5947.26 4080.95 5979.83 4032.1 6028.67 4015.82C6077.52 3999.54 6126.37 4015.82 6142.65 4064.67C6175.22 4178.65 6175.22 4292.63 6191.5 4406.61C6224.07 4374.04 6207.79 4325.2 6207.79 4292.63C6272.92 3820.43 6224.07 3364.51 6370.61 2908.59C6386.9 2876.02 6435.75 2843.46 6468.31 2859.74C6582.29 2876.02 6582.29 3022.57 6582.29 3120.27C6647.42 3592.47 6500.88 4048.39 6452.03 4520.59C6452.03 4553.16 6435.75 4585.72 6468.31 4618.29C6484.59 4504.31 6549.73 4390.33 6582.29 4276.35C6598.57 4227.5 6631.14 4162.37 6679.99 4129.8C6712.55 4113.52 6745.12 4129.8 6777.68 4162.37C6842.82 4260.06 6859.1 4357.76 6842.82 4471.74C6793.97 4748.55 6696.27 4976.51 6582.29 5220.75L6533.44 5367.3C6517.16 5464.99 6452.03 5578.97 6517.16 5660.39C6631.14 5644.11 6663.7 5513.84 6761.4 5448.71C6859.1 5383.58 6891.66 5464.99 6907.95 5530.13C6973.08 5855.78 6859.1 6148.87 6694.97 6413.14" stroke="#263238" stroke-linecap="round" stroke-linejoin="round"/>
<path d="M6217.07 6351.6C6217.07 6351.6 6179.13 5590.7 6274.22 4896.56" stroke="#263238" stroke-linecap="round" stroke-linejoin="round"/>
<path d="M5903.3 5866.53L6217.07 6208.96L6492.9 5971.07" stroke="#263238" stroke-linecap="round" stroke-linejoin="round"/>
<path d="M6131.42 5010.7L6217.07 5448.06L6464.4 5010.7" stroke="#263238" stroke-linecap="round" stroke-linejoin="round"/>
<path d="M6283.66 4782.42L6340.65 4373.56" stroke="#263238" stroke-linecap="round" stroke-linejoin="round"/>
<path d="M1776.41 1448.18H750.917V2730.13H1776.41V1448.18Z" stroke="#263238" stroke-linecap="round" stroke-linejoin="round"/>
<path d="M3058.36 1448.18H2032.86V2730.13H3058.36V1448.18Z" stroke="#263238" stroke-linecap="round" stroke-linejoin="round"/>
<path d="M1776.41 2939.85H750.917V4221.8H1776.41V2939.85Z" stroke="#263238" stroke-linecap="round" stroke-linejoin="round"/>
<path d="M3058.36 2939.85H2032.86V4221.8H3058.36V2939.85Z" stroke="#263238" stroke-linecap="round" stroke-linejoin="round"/>
<path d="M1776.41 4431.52H750.917V5713.47H1776.41V4431.52Z" stroke="#263238" stroke-linecap="round" stroke-linejoin="round"/>
<path d="M3058.36 4431.52H2032.86V5713.47H3058.36V4431.52Z" stroke="#263238" stroke-linecap="round" stroke-linejoin="round"/>
<path d="M1916.28 119.663C1613.38 119.663 1322.89 239.989 1108.71 454.17C894.527 668.351 774.201 958.843 774.201 1261.74H3058.36C3058.36 958.843 2938.03 668.351 2723.85 454.17C2509.67 239.989 2219.18 119.663 1916.28 119.663Z" stroke="#263238" stroke-linecap="round" stroke-linejoin="round"/>
<path d="M3393.3 731.898C3393.3 731.898 3393.3 487.656 2974.01 536.504C2554.73 585.353 2379.04 955.787 2252.36 1033.78C2125.68 1111.78 1891.53 1180.33 1881.76 1297.08C1871.99 1413.82 1979.46 1462.84 1871.99 1550.6C1764.52 1638.36 1599.74 1716.85 1638.01 1833.92C1676.27 1950.99 1784.55 2067.91 1735.7 2146.06C1686.85 2224.22 1550.4 2302.05 1677.08 2390.31C1803.77 2478.56 1862.38 2497.61 1862.38 2614.52C1862.38 2731.43 1813.54 2809.91 1930.77 2848.67C2048.01 2887.42 2115.91 2809.59 2184.3 2955.81C2252.68 3102.03 2320.75 3141.11 2437.82 3111.8C2554.89 3082.49 2720.49 3033.8 2779.76 3072.88C2839.03 3111.96 3024 3219.43 3101.51 3160.65C3179.01 3101.87 3248.05 3014.1 3364.8 3062.95C3481.55 3111.8 3579.41 3180.02 3628.1 3092.26C3676.78 3004.49 3628.1 2984.95 3813.39 2945.71C3998.69 2906.47 4066.92 2916.57 4066.92 2760.58C4066.92 2604.59 4057.15 2565.18 4144.91 2497.28C4232.68 2429.38 4310.67 2458.21 4281.53 2292.45C4252.38 2126.69 4193.76 2087.61 4222.91 1921.85C4252.05 1756.09 4174.06 1697.63 4115.6 1648.79C4057.15 1599.94 3988.92 1512.33 4008.46 1424.57C4028 1336.81 4174.22 1326.87 4027.84 1171.05C3881.46 1015.22 3813.39 1063.74 3783.6 946.669C3753.8 829.595 3656.59 575.909 3393.3 731.898Z" fill="#263238" stroke="#263238" stroke-linecap="round" stroke-linejoin="round"/>
<path d="M3018.95 1025.48C2958.87 1120.57 2912.46 1227.87 2815.74 1318.57C2676.04 1448.83 2318.14 1562.81 2300.72 1685.26C2283.3 1807.71 2344.36 1877.23 2222.23 1981.93C2100.11 2086.63 1907.98 2112.19 1907.98 2217.71C1907.98 2323.22 1960.24 2357.41 1934.19 2435.9" stroke="#616161" stroke-miterlimit="10"/>
<path d="M3278.5 908.242C3278.5 908.242 3234.86 794.262 3112.58 908.242C3103.14 917.034 3094.18 926.153 3085.71 935.434" stroke="#616161" stroke-miterlimit="10"/>
<path d="M2292.41 1407.15C2184.95 1433.2 2100.11 1451.93 2091.32 1528.13C2073.73 1676.47 2099.95 1772.37 1995.25 1816.17C1890.55 1859.97 1751.01 1930.15 1794.48 2016.94C1837.96 2103.73 1846.75 2130.92 1838.12 2165.28" stroke="#616161" stroke-miterlimit="10"/>
<path d="M3260.59 768.535C3260.59 768.535 3016.35 611.569 2886.09 751.112C2755.82 890.656 2816.23 1065.37 2615.46 1257.51C2564.48 1304.99 2504.29 1341.51 2438.63 1364.81" stroke="#616161" stroke-miterlimit="10"/>
<path d="M4110.07 2006.52C4124.72 2029.27 4144.96 2047.88 4168.85 2060.58" stroke="#616161" stroke-miterlimit="10"/>
<path d="M3435.63 987.213C3435.63 987.213 3653.82 917.36 3706.09 1039.48C3758.36 1161.6 3784.74 1379.96 3880.8 1414.96C3976.87 1449.97 4020.35 1502.24 4020.35 1694.21C4020.24 1756.09 4029.46 1817.62 4047.7 1876.74" stroke="#616161" stroke-miterlimit="10"/>
<path d="M2021.47 2540.6C2091.32 2426.62 2187.23 2470.91 2196.02 2348.62C2204.81 2226.34 2134.96 2191.49 2204.65 2113.01C2274.34 2034.53 2387.99 1999.03 2387.99 1999.03" stroke="#616161" stroke-miterlimit="10"/>
<path d="M2117.37 2785.16C2085.12 2758.46 2057.12 2727 2034.33 2691.86" stroke="#616161" stroke-miterlimit="10"/>
<path d="M4534.24 6446.2C4534.24 6446.2 4563.38 6046.46 4387.69 5646.55C4212 5246.64 4172.43 5217.82 4172.43 5100.75C4172.43 4983.67 4289.99 4847.06 4309.53 4583.77C4329.07 4320.47 4319.3 4192.98 4319.3 4192.98C4319.3 4192.98 4738.59 4856.02 5031.19 4895.1C5323.79 4934.17 5499.32 4661.11 5392.02 4290.51C5284.71 3919.92 4816.58 3617.71 4631.44 3373.79C4446.31 3129.87 4026.7 3129.55 3812.25 3129.55C3597.81 3129.55 3490.51 3051.55 3451.43 2905.33C3412.35 2759.11 3412.51 2465.7 3412.51 2465.7C3412.51 2465.7 3158.82 2621.69 2729.77 2446.16C2729.77 2446.16 2768.85 2982.51 2720 3060.51C2671.15 3138.5 2603.42 3217.96 2310.81 3217.96C2018.21 3217.96 1774.46 3276.58 1638.01 3413.36C1501.56 3550.13 935.89 4095.93 789.67 4310.54C643.45 4525.15 721.282 4759.13 896.811 4846.9C1072.34 4934.66 1247.87 4856.51 1374.71 4739.59C1501.56 4622.68 1901.3 4251.92 1901.3 4251.92C1901.3 4251.92 1901.3 4476.3 2008.6 4798.05C2115.91 5119.8 2204 5080.88 2125.51 5314.87C2047.03 5548.85 1891.53 5617.24 1842.84 5919.45C1813.68 6093.41 1800.6 6269.68 1803.77 6446.04" fill="#007FFF"/>
<mask id="mask0_801_1029" style="mask-type:luminance" maskUnits="userSpaceOnUse" x="712" y="2446" width="4712" height="4001">
<path d="M4534.24 6446.2C4534.24 6446.2 4563.38 6046.46 4387.69 5646.55C4212 5246.64 4172.43 5217.82 4172.43 5100.75C4172.43 4983.67 4289.99 4847.06 4309.53 4583.77C4329.07 4320.47 4319.3 4192.98 4319.3 4192.98C4319.3 4192.98 4738.59 4856.02 5031.19 4895.1C5323.79 4934.17 5499.32 4661.11 5392.02 4290.51C5284.71 3919.92 4816.58 3617.71 4631.44 3373.79C4446.31 3129.87 4026.7 3129.55 3812.25 3129.55C3597.81 3129.55 3490.51 3051.55 3451.43 2905.33C3412.35 2759.11 3412.51 2465.7 3412.51 2465.7C3412.51 2465.7 3158.82 2621.69 2729.77 2446.16C2729.77 2446.16 2768.85 2982.51 2720 3060.51C2671.15 3138.5 2603.42 3217.96 2310.81 3217.96C2018.21 3217.96 1774.46 3276.58 1638.01 3413.36C1501.56 3550.13 935.89 4095.93 789.67 4310.54C643.45 4525.15 721.282 4759.13 896.811 4846.9C1072.34 4934.66 1247.87 4856.51 1374.71 4739.59C1501.56 4622.68 1901.3 4251.92 1901.3 4251.92C1901.3 4251.92 1901.3 4476.3 2008.6 4798.05C2115.91 5119.8 2204 5080.88 2125.51 5314.87C2047.03 5548.85 1891.53 5617.24 1842.84 5919.45C1813.68 6093.41 1800.6 6269.68 1803.77 6446.04" fill="white"/>
</mask>
<g mask="url(#mask0_801_1029)">
<g opacity="0.2">
<path d="M3894.32 3435.34C3887.64 3435.34 3863.22 3451.62 3894.32 3499C3925.42 3451.95 3901 3435.34 3894.32 3435.34Z" fill="black"/>
<path d="M4675.9 3435.34C4669.22 3435.34 4644.8 3451.62 4675.9 3499C4707 3451.95 4682.57 3435.34 4675.9 3435.34Z" fill="black"/>
<path d="M4675.9 3826.13C4669.22 3826.13 4644.8 3842.41 4675.9 3889.79C4707 3842.74 4682.57 3826.13 4675.9 3826.13Z" fill="black"/>
<path d="M3894.32 3826.13C3887.64 3826.13 3863.22 3842.41 3894.32 3889.79C3925.42 3842.74 3901 3826.13 3894.32 3826.13Z" fill="black"/>
<path d="M4285.11 3630.73C4278.43 3630.73 4254.01 3647.02 4285.11 3694.4C4316.21 3647.34 4291.78 3630.73 4285.11 3630.73Z" fill="black"/>
<path d="M4285.11 3239.94C4278.43 3239.94 4254.01 3256.23 4285.11 3303.61C4316.21 3256.55 4291.78 3239.94 4285.11 3239.94Z" fill="black"/>
<path d="M3911.9 3508.77C3968.24 3511.87 3970.2 3482.4 3966.94 3476.21C3963.68 3470.02 3936.17 3458.13 3911.9 3508.77Z" fill="black"/>
<path d="M4741.19 3497.54L4719.53 3475.23C4707.65 3483.67 4698.39 3495.3 4692.83 3508.77C4709.8 3511.56 4727.19 3507.52 4741.19 3497.54Z" fill="black"/>
<path d="M4302.69 3704.17C4359.03 3707.26 4360.99 3677.79 4357.73 3671.6C4354.47 3665.42 4326.95 3653.53 4302.69 3704.17Z" fill="black"/>
<path d="M4302.69 3313.38C4359.03 3316.47 4360.99 3287 4357.73 3280.81C4354.47 3274.63 4326.95 3262.74 4302.69 3313.38Z" fill="black"/>
<path d="M4603.93 3476.7C4600.67 3482.4 4602.79 3511.87 4658.96 3509.26C4634.05 3458.14 4607.35 3470.84 4603.93 3476.7Z" fill="black"/>
<path d="M4603.93 3867.49C4602.78 3871.62 4602.99 3876.01 4604.51 3880.02C4606.03 3884.04 4608.79 3887.46 4612.39 3889.79C4626.25 3898.52 4642.77 3901.99 4658.96 3899.56C4657.43 3896.2 4655.69 3892.94 4653.75 3889.79C4630.47 3850.71 4607.18 3861.95 4603.93 3867.49Z" fill="black"/>
<path d="M4213.14 3672.09C4209.88 3677.79 4212 3707.26 4268.17 3704.66C4243.26 3653.53 4216.56 3666.23 4213.14 3672.09Z" fill="black"/>
<path d="M4213.14 3281.3C4209.88 3287 4212 3316.47 4268.17 3313.87C4243.26 3262.74 4216.56 3275.44 4213.14 3281.3Z" fill="black"/>
<path d="M3894.32 4607.7C3887.64 4607.7 3863.22 4623.99 3894.32 4671.37C3925.42 4624.31 3901 4607.7 3894.32 4607.7Z" fill="black"/>
<path d="M4675.9 4607.7C4671.01 4607.7 4657.01 4616.5 4661.4 4639.13C4668.24 4646.46 4675.08 4653.78 4682.08 4660.95C4703.25 4621.87 4682.08 4607.7 4675.9 4607.7Z" fill="black"/>
<path d="M3894.32 4998.49C3887.64 4998.49 3863.22 5014.78 3894.32 5062.16C3925.42 5015.1 3901 4998.49 3894.32 4998.49Z" fill="black"/>
<path d="M5066.68 4803.1C5060.01 4803.1 5035.58 4819.38 5066.68 4866.76C5097.78 4819.71 5073.36 4803.1 5066.68 4803.1Z" fill="black"/>
<path d="M3894.32 4216.92C3887.64 4216.92 3863.22 4233.2 3894.32 4280.58C3925.42 4233.52 3901 4216.92 3894.32 4216.92Z" fill="black"/>
<path d="M4675.9 4216.92C4669.22 4216.92 4644.8 4233.2 4675.9 4280.58C4707 4233.52 4682.57 4216.92 4675.9 4216.92Z" fill="black"/>
<path d="M4285.11 4412.31C4278.43 4412.31 4254.01 4428.59 4285.11 4475.98C4316.21 4428.92 4291.78 4412.31 4285.11 4412.31Z" fill="black"/>
<path d="M5066.68 4412.31C5060.01 4412.31 5035.58 4428.59 5066.68 4475.98C5097.78 4428.92 5073.36 4412.31 5066.68 4412.31Z" fill="black"/>
<path d="M4285.11 4021.52C4278.43 4021.52 4254.01 4037.8 4285.11 4085.19C4316.21 4038.13 4291.78 4021.52 4285.11 4021.52Z" fill="black"/>
<path d="M5066.68 4021.52C5060.01 4021.52 5035.58 4037.8 5066.68 4085.19C5097.78 4038.13 5073.36 4021.52 5066.68 4021.52Z" fill="black"/>
<path d="M3911.9 4681.14C3968.24 4684.23 3970.2 4654.76 3966.94 4648.57C3963.68 4642.39 3936.17 4630.5 3911.9 4681.14Z" fill="black"/>
<path d="M4695.92 4675.28L4701.79 4681.3C4749.17 4681.3 4750.63 4654.43 4747.87 4648.74C4745.1 4643.04 4719.86 4631.64 4695.92 4675.28Z" fill="black"/>
<path d="M3953.91 5033.99C3946.79 5033.84 3939.85 5036.27 3934.38 5040.83C3931.06 5043.45 3928 5046.4 3925.26 5049.62C3921.99 5053.55 3919.04 5057.74 3916.46 5062.16C3916.51 5062.48 3916.51 5062.81 3916.46 5063.13C3915 5065.74 3913.37 5068.67 3911.9 5071.93C3928.1 5074.38 3944.63 5070.91 3958.47 5062.16C3959.63 5061.26 3960.72 5060.28 3961.73 5059.23C3963.36 5057.47 3964.73 5055.5 3965.8 5053.36C3967.39 5051.49 3968.36 5049.18 3968.58 5046.73C3968.8 5044.29 3968.25 5041.84 3967.02 5039.71C3965.79 5037.59 3963.93 5035.9 3961.7 5034.87C3959.47 5033.85 3956.98 5033.54 3954.57 5033.99H3953.91Z" fill="black"/>
<path d="M5084.27 4876.53C5140.45 4879.63 5142.56 4850.15 5139.31 4843.97C5136.05 4837.78 5108.53 4825.89 5084.27 4876.53Z" fill="black"/>
<path d="M3911.9 4290.35C3968.24 4293.44 3970.2 4263.97 3966.94 4257.79C3963.68 4251.6 3936.17 4239.71 3911.9 4290.35Z" fill="black"/>
<path d="M4747.87 4258.27C4744.45 4252.41 4717.74 4239.71 4692.83 4290.84C4749.01 4293.45 4751.12 4263.97 4747.87 4258.27Z" fill="black"/>
<path d="M4302.69 4485.74C4307.41 4485.99 4312.14 4485.99 4316.86 4485.74C4316.86 4477.6 4317.67 4469.46 4318 4461.97C4311.83 4469.16 4306.68 4477.16 4302.69 4485.74Z" fill="black"/>
<path d="M5084.27 4485.75C5140.45 4488.84 5142.56 4459.37 5139.31 4453.18C5136.05 4446.99 5108.53 4435.11 5084.27 4485.75Z" fill="black"/>
<path d="M4302.69 4094.96C4359.03 4098.05 4360.99 4068.58 4357.73 4062.39C4354.47 4056.2 4326.95 4044.32 4302.69 4094.96Z" fill="black"/>
<path d="M5084.27 4094.96C5140.45 4098.05 5142.56 4068.58 5139.31 4062.39C5136.05 4056.2 5108.53 4044.32 5084.27 4094.96Z" fill="black"/>
<path d="M4242.28 4875.23L4251.24 4850.97C4232.35 4831.43 4215.74 4839.9 4213.14 4844.46C4210.53 4849.02 4211.35 4869.53 4242.28 4875.23Z" fill="black"/>
<path d="M5385.5 4649.06C5384.28 4653.72 5384.7 4658.66 5386.69 4663.04C5388.67 4667.43 5392.11 4671 5396.41 4673.16C5399.83 4663.72 5402.76 4653.95 5405.53 4644.01C5402.06 4642.84 5398.32 4642.69 5394.77 4643.59C5391.22 4644.48 5388 4646.38 5385.5 4649.06Z" fill="black"/>
<path d="M4994.71 4844.46C4991.29 4850.16 4993.57 4879.63 5049.75 4877.02C5024.84 4825.89 4998.13 4838.59 4994.71 4844.46Z" fill="black"/>
<path d="M4603.93 4258.27C4600.67 4263.97 4602.79 4293.45 4658.96 4290.84C4634.05 4239.71 4607.35 4252.41 4603.93 4258.27Z" fill="black"/>
<path d="M4213.14 4453.67C4209.88 4459.37 4212 4488.84 4268.17 4486.23C4243.26 4435.11 4216.56 4447.81 4213.14 4453.67Z" fill="black"/>
<path d="M4994.71 4453.67C4991.29 4459.37 4993.57 4488.84 5049.75 4486.23C5024.84 4435.11 4998.13 4447.81 4994.71 4453.67Z" fill="black"/>
<path d="M4213.14 4062.88C4209.88 4068.58 4212 4098.05 4268.17 4095.45C4243.26 4044.32 4216.56 4057.02 4213.14 4062.88Z" fill="black"/>
<path d="M4994.71 4062.88C4991.29 4068.58 4993.57 4098.05 5049.75 4095.45C5024.84 4044.32 4998.13 4057.02 4994.71 4062.88Z" fill="black"/>
<path d="M4739.4 3889.79C4743 3887.46 4745.76 3884.04 4747.28 3880.02C4748.8 3876.01 4749.01 3871.62 4747.87 3867.49C4744.61 3861.95 4721.33 3851.2 4698.04 3889.79C4696.11 3892.94 4694.37 3896.2 4692.83 3899.56C4709.02 3902.02 4725.56 3898.55 4739.4 3889.79Z" fill="black"/>
<path d="M3957.82 3889.79C3961.42 3887.46 3964.18 3884.04 3965.7 3880.02C3967.23 3876.01 3967.43 3871.62 3966.29 3867.49C3963.03 3861.95 3939.75 3851.2 3916.46 3889.79C3914.53 3892.94 3912.79 3896.2 3911.25 3899.56C3927.45 3902.02 3943.98 3898.55 3957.82 3889.79Z" fill="black"/>
<path d="M3894.32 5780.07C3887.64 5780.07 3863.22 5796.35 3894.32 5843.73C3925.42 5796.68 3901 5780.07 3894.32 5780.07Z" fill="black"/>
<path d="M3894.32 6170.86C3887.64 6170.86 3863.22 6187.14 3894.32 6234.52C3925.42 6187.47 3901 6170.86 3894.32 6170.86Z" fill="black"/>
<path d="M4285.11 5975.46C4278.43 5975.46 4254.01 5991.75 4285.11 6039.13C4316.21 5992.07 4291.78 5975.46 4285.11 5975.46Z" fill="black"/>
<path d="M3894.32 5389.28C3887.64 5389.28 3863.22 5405.56 3894.32 5452.95C3925.42 5405.89 3901 5389.28 3894.32 5389.28Z" fill="black"/>
<path d="M4285.11 5584.67C4278.43 5584.67 4254.01 5600.96 4285.11 5648.34C4316.21 5601.28 4291.78 5584.67 4285.11 5584.67Z" fill="black"/>
<path d="M3911.9 5853.5C3968.24 5856.6 3970.2 5827.13 3966.94 5820.94C3963.68 5814.75 3936.17 5802.86 3911.9 5853.5Z" fill="black"/>
<path d="M3953.91 6206.35H3950.5C3946.3 6206.66 3942.23 6207.94 3938.61 6210.1L3934.38 6213.03C3927.13 6218.96 3921.05 6226.2 3916.46 6234.36C3914.53 6237.51 3912.79 6240.77 3911.25 6244.13C3927.45 6246.58 3943.98 6243.11 3957.82 6234.36C3961.42 6232.02 3964.18 6228.6 3965.7 6224.59C3967.23 6220.58 3967.43 6216.19 3966.29 6212.05C3964.76 6210.26 3962.86 6208.83 3960.73 6207.85C3958.59 6206.86 3956.27 6206.35 3953.91 6206.35Z" fill="black"/>
<path d="M4302.69 6048.9C4359.03 6051.99 4360.99 6022.52 4357.73 6016.33C4354.47 6010.14 4326.95 5998.26 4302.69 6048.9Z" fill="black"/>
<path d="M3911.9 5462.72C3968.24 5465.81 3970.2 5436.34 3966.94 5430.15C3963.68 5423.96 3936.17 5412.08 3911.9 5462.72Z" fill="black"/>
<path d="M4302.69 5658.11C4359.03 5661.2 4360.99 5631.73 4357.73 5625.54C4354.47 5619.36 4326.95 5607.47 4302.69 5658.11Z" fill="black"/>
<path d="M4213.14 6016.82C4209.88 6022.52 4212 6051.99 4268.17 6049.39C4243.26 5998.26 4216.56 6010.96 4213.14 6016.82Z" fill="black"/>
<path d="M4213.14 5626.03C4209.88 5631.73 4212 5661.2 4268.17 5658.6C4243.26 5607.47 4216.56 5620.17 4213.14 5626.03Z" fill="black"/>
<path d="M4285.11 6366.25C4278.43 6366.25 4254.01 6382.53 4285.11 6429.92C4316.21 6382.86 4291.78 6366.25 4285.11 6366.25Z" fill="black"/>
<path d="M4302.69 6439.69C4359.03 6442.78 4360.99 6413.31 4357.73 6407.12C4354.47 6400.93 4326.95 6389.05 4302.69 6439.69Z" fill="black"/>
<path d="M4213.14 6407.61C4209.88 6413.31 4212 6442.78 4268.17 6440.17C4243.26 6389.05 4216.56 6401.75 4213.14 6407.61Z" fill="black"/>
<path d="M3112.74 2653.76C3106.07 2653.76 3081.64 2670.05 3112.74 2717.43C3143.84 2670.37 3119.42 2653.76 3112.74 2653.76Z" fill="black"/>
<path d="M2731.24 2463.74C2731.24 2472.53 2732.54 2484.75 2733.52 2500.05C2736.61 2494.4 2738.04 2487.99 2737.64 2481.57C2737.23 2475.14 2735.01 2468.96 2731.24 2463.74Z" fill="black"/>
<path d="M3172.34 2689.26C3165.21 2689.12 3158.28 2691.54 3152.8 2696.1C3149.48 2698.73 3146.43 2701.67 3143.68 2704.89C3140.41 2708.82 3137.47 2713.01 3134.89 2717.43V2718.41C3133.42 2721.01 3131.79 2723.94 3130.33 2727.2C3146.52 2729.65 3163.06 2726.18 3176.9 2717.43C3178.05 2716.53 3179.14 2715.55 3180.15 2714.5C3181.78 2712.75 3183.15 2710.77 3184.22 2708.64C3185.37 2706.6 3186.07 2704.34 3186.27 2702C3186.47 2699.67 3186.16 2697.32 3185.36 2695.12C3183.78 2693.22 3181.79 2691.7 3179.53 2690.69C3177.27 2689.67 3174.81 2689.18 3172.34 2689.26Z" fill="black"/>
<path d="M2739.54 2531.8C2795.88 2534.9 2797.83 2505.43 2794.58 2499.24C2791.32 2493.05 2763.8 2481.16 2739.54 2531.8Z" fill="black"/>
<path d="M2346.15 3453.41C2345.86 3450.92 2345.14 3448.5 2344.03 3446.25C2343.56 3445.23 2343.01 3444.25 2342.4 3443.32C2341.37 3441.73 2340.11 3440.3 2338.66 3439.08C2337.49 3438.07 2336.17 3437.25 2334.75 3436.64C2333.74 3436.11 2332.63 3435.84 2331.49 3435.84C2330.36 3435.84 2329.24 3436.11 2328.24 3436.64C2320.75 3439.9 2308.53 3452.92 2322.21 3483.21C2324.92 3488.85 2328.02 3494.29 2331.49 3499.49C2334.96 3494.29 2338.06 3488.85 2340.77 3483.21C2344.61 3475.57 2346.73 3467.17 2346.96 3458.62C2347.05 3457.1 2347.05 3455.58 2346.96 3454.06L2346.15 3453.41Z" fill="black"/>
<path d="M3112.74 3435.34C3106.07 3435.34 3081.64 3451.62 3112.74 3499C3143.84 3451.95 3119.42 3435.34 3112.74 3435.34Z" fill="black"/>
<path d="M3112.74 3826.13C3106.07 3826.13 3081.64 3842.41 3112.74 3889.79C3143.84 3842.74 3119.42 3826.13 3112.74 3826.13Z" fill="black"/>
<path d="M2346.15 3844.2C2345.86 3841.71 2345.14 3839.29 2344.03 3837.04C2343.56 3836.02 2343.01 3835.04 2342.4 3834.11C2341.37 3832.52 2340.11 3831.09 2338.66 3829.87C2337.49 3828.86 2336.17 3828.04 2334.75 3827.43C2333.74 3826.9 2332.63 3826.63 2331.49 3826.63C2330.36 3826.63 2329.24 3826.9 2328.24 3827.43C2320.75 3830.69 2308.53 3843.71 2322.21 3874C2324.92 3879.64 2328.02 3885.08 2331.49 3890.28C2334.96 3885.08 2338.06 3879.64 2340.77 3874C2344.61 3866.36 2346.73 3857.96 2346.96 3849.41C2347.05 3847.89 2347.05 3846.37 2346.96 3844.85L2346.15 3844.2Z" fill="black"/>
<path d="M2721.95 3630.73C2715.28 3630.73 2690.85 3647.02 2721.95 3694.4C2753.05 3647.34 2728.63 3630.73 2721.95 3630.73Z" fill="black"/>
<path d="M3503.53 3630.73C3496.86 3630.73 3472.43 3647.02 3503.53 3694.4C3534.63 3647.34 3510.21 3630.73 3503.53 3630.73Z" fill="black"/>
<path d="M3112.74 3044.55C3106.07 3044.55 3081.64 3060.83 3112.74 3108.22C3143.84 3061.16 3119.42 3044.55 3112.74 3044.55Z" fill="black"/>
<path d="M2721.95 3239.94C2715.28 3239.94 2690.85 3256.23 2721.95 3303.61C2753.05 3256.55 2728.63 3239.94 2721.95 3239.94Z" fill="black"/>
<path d="M3503.53 3239.94C3496.86 3239.94 3472.43 3256.23 3503.53 3303.61C3534.63 3256.55 3510.21 3239.94 3503.53 3239.94Z" fill="black"/>
<path d="M2348.75 3508.77C2405.09 3511.87 2407.04 3482.4 2403.79 3476.21C2400.53 3470.02 2373.01 3458.13 2348.75 3508.77Z" fill="black"/>
<path d="M3130.33 3508.77C3186.5 3511.87 3188.62 3482.4 3185.36 3476.21C3182.11 3470.02 3154.59 3458.13 3130.33 3508.77Z" fill="black"/>
<path d="M2739.54 3704.17C2795.88 3707.26 2797.83 3677.79 2794.58 3671.6C2791.32 3665.42 2763.8 3653.53 2739.54 3704.17Z" fill="black"/>
<path d="M3521.12 3704.17C3577.29 3707.26 3579.41 3677.79 3576.15 3671.6C3572.9 3665.42 3545.38 3653.53 3521.12 3704.17Z" fill="black"/>
<path d="M3130.33 3117.99C3186.5 3121.08 3188.62 3091.61 3185.36 3085.42C3182.11 3079.23 3154.59 3067.35 3130.33 3117.99Z" fill="black"/>
<path d="M2739.54 3313.38C2795.88 3316.47 2797.83 3287 2794.58 3280.81C2791.32 3274.63 2763.8 3262.74 2739.54 3313.38Z" fill="black"/>
<path d="M3521.12 3313.38C3577.29 3316.47 3579.41 3287 3576.15 3280.81C3572.9 3274.63 3545.38 3262.74 3521.12 3313.38Z" fill="black"/>
<path d="M2793.92 2890.52C2790.67 2884.98 2766.9 2874.23 2743.29 2914.13C2743.29 2917.06 2743.29 2919.82 2743.29 2922.59C2795.06 2924.87 2797.18 2896.05 2793.92 2890.52Z" fill="black"/>
<path d="M3040.77 3476.7C3037.52 3482.4 3039.63 3511.87 3095.81 3509.26C3070.9 3458.14 3044.19 3470.84 3040.77 3476.7Z" fill="black"/>
<path d="M3040.77 3867.49C3039.63 3871.62 3039.84 3876.01 3041.36 3880.02C3042.88 3884.04 3045.64 3887.46 3049.24 3889.79C3063.09 3898.52 3079.62 3901.99 3095.81 3899.56C3094.27 3896.2 3092.53 3892.94 3090.6 3889.79C3067.31 3850.71 3044.03 3861.95 3040.77 3867.49Z" fill="black"/>
<path d="M2649.98 3672.09C2646.73 3677.79 2648.84 3707.26 2705.02 3704.66C2680.11 3653.53 2653.4 3666.23 2649.98 3672.09Z" fill="black"/>
<path d="M3822.35 3476.7C3818.93 3482.4 3821.21 3511.87 3877.39 3509.26C3852.47 3458.14 3825.77 3470.84 3822.35 3476.7Z" fill="black"/>
<path d="M3872.17 3889.79C3848.89 3850.71 3825.61 3861.95 3822.35 3867.49C3821.21 3871.62 3821.41 3876.01 3822.94 3880.02C3824.46 3884.04 3827.22 3887.46 3830.82 3889.79C3844.66 3898.55 3861.19 3902.02 3877.39 3899.56C3875.85 3896.2 3874.11 3892.94 3872.17 3889.79Z" fill="black"/>
<path d="M3431.56 3672.09C3428.14 3677.79 3430.42 3707.26 3486.6 3704.66C3461.68 3653.53 3434.98 3666.23 3431.56 3672.09Z" fill="black"/>
<path d="M3040.77 3085.91C3037.52 3091.61 3039.63 3121.08 3095.81 3118.48C3070.9 3067.35 3044.19 3080.05 3040.77 3085.91Z" fill="black"/>
<path d="M2649.98 3281.3C2646.73 3287 2648.84 3316.47 2705.02 3313.87C2680.11 3262.74 2653.4 3275.44 2649.98 3281.3Z" fill="black"/>
<path d="M3431.56 3281.3C3428.14 3287 3430.42 3316.47 3486.6 3313.87C3461.68 3262.74 3434.98 3275.44 3431.56 3281.3Z" fill="black"/>
<path d="M3455.99 2920.15C3454.52 2915.59 3453.05 2911.19 3451.75 2906.47C3450.45 2901.75 3448.17 2892.31 3446.54 2884.65C3443.76 2884.34 3440.94 2884.71 3438.33 2885.73C3435.72 2886.75 3433.39 2888.4 3431.56 2890.51C3428.96 2894.91 3429.77 2913.47 3455.99 2920.15Z" fill="black"/>
<path d="M3090.6 2717.43C3088.02 2713.01 3085.08 2708.82 3081.81 2704.89C3079.1 2701.63 3076.04 2698.68 3072.69 2696.1C3067.21 2691.54 3060.27 2689.12 3053.15 2689.26C3050.78 2689.28 3048.45 2689.81 3046.31 2690.83C3044.18 2691.84 3042.29 2693.3 3040.77 2695.12C3039.98 2697.32 3039.67 2699.67 3039.87 2702C3040.07 2704.34 3040.76 2706.6 3041.91 2708.64C3042.99 2710.77 3044.36 2712.75 3045.98 2714.5L3049.24 2717.43C3063.09 2726.15 3079.62 2729.62 3095.81 2727.2C3094.34 2723.94 3092.72 2721.01 3091.25 2718.41L3090.6 2717.43Z" fill="black"/>
<path d="M2346.15 4625.78C2345.86 4623.29 2345.14 4620.86 2344.03 4618.61C2343.56 4617.6 2343.01 4616.62 2342.4 4615.68C2341.37 4614.1 2340.11 4612.67 2338.66 4611.45C2337.49 4610.44 2336.17 4609.62 2334.75 4609.01C2333.74 4608.48 2332.63 4608.2 2331.49 4608.2C2330.36 4608.2 2329.24 4608.48 2328.24 4609.01C2320.75 4612.26 2308.53 4625.29 2322.21 4655.58C2324.92 4661.21 2328.02 4666.65 2331.49 4671.86C2334.96 4666.65 2338.06 4661.21 2340.77 4655.58C2344.61 4647.93 2346.73 4639.54 2346.96 4630.99C2347.05 4629.47 2347.05 4627.95 2346.96 4626.43L2346.15 4625.78Z" fill="black"/>
<path d="M3112.74 4607.7C3106.07 4607.7 3081.64 4623.99 3112.74 4671.37C3143.84 4624.31 3119.42 4607.7 3112.74 4607.7Z" fill="black"/>
<path d="M3112.74 4998.49C3106.07 4998.49 3081.64 5014.78 3112.74 5062.16C3143.84 5015.1 3119.42 4998.49 3112.74 4998.49Z" fill="black"/>
<path d="M2346.15 5016.57C2345.86 5014.07 2345.14 5011.65 2344.03 5009.4C2343.56 5008.39 2343.01 5007.41 2342.4 5006.47C2341.37 5004.88 2340.11 5003.46 2338.66 5002.24C2337.49 5001.23 2336.17 5000.4 2334.75 4999.79C2333.75 4999.25 2332.63 4998.97 2331.49 4998.97C2330.35 4998.97 2329.24 4999.25 2328.24 4999.79C2320.75 5003.05 2308.53 5016.08 2322.21 5046.36C2324.92 5052 2328.02 5057.44 2331.49 5062.65C2334.96 5057.44 2338.06 5052 2340.77 5046.36C2344.61 5038.72 2346.73 5030.33 2346.96 5021.78C2347.05 5020.26 2347.05 5018.74 2346.96 5017.22L2346.15 5016.57Z" fill="black"/>
<path d="M2721.95 4803.1C2715.28 4803.1 2690.85 4819.38 2721.95 4866.76C2753.05 4819.71 2728.63 4803.1 2721.95 4803.1Z" fill="black"/>
<path d="M3503.53 4803.1C3496.86 4803.1 3472.43 4819.38 3503.53 4866.76C3534.63 4819.71 3510.21 4803.1 3503.53 4803.1Z" fill="black"/>
<path d="M2346.15 4234.99C2345.86 4232.5 2345.14 4230.07 2344.03 4227.82C2343.56 4226.81 2343.01 4225.83 2342.4 4224.89C2341.37 4223.31 2340.11 4221.88 2338.66 4220.66C2337.49 4219.65 2336.17 4218.83 2334.75 4218.22C2333.74 4217.69 2332.63 4217.41 2331.49 4217.41C2330.36 4217.41 2329.24 4217.69 2328.24 4218.22C2320.75 4221.47 2308.53 4234.5 2322.21 4264.79C2324.92 4270.42 2328.02 4275.87 2331.49 4281.07C2334.96 4275.87 2338.06 4270.42 2340.77 4264.79C2344.61 4257.14 2346.73 4248.75 2346.96 4240.2C2347.05 4238.68 2347.05 4237.16 2346.96 4235.64L2346.15 4234.99Z" fill="black"/>
<path d="M3112.74 4216.92C3106.07 4216.92 3081.64 4233.2 3112.74 4280.58C3143.84 4233.52 3119.42 4216.92 3112.74 4216.92Z" fill="black"/>
<path d="M2721.95 4412.31C2715.28 4412.31 2690.85 4428.59 2721.95 4475.98C2753.05 4428.92 2728.63 4412.31 2721.95 4412.31Z" fill="black"/>
<path d="M3503.53 4412.31C3496.86 4412.31 3472.43 4428.59 3503.53 4475.98C3534.63 4428.92 3510.21 4412.31 3503.53 4412.31Z" fill="black"/>
<path d="M2721.95 4021.52C2715.28 4021.52 2690.85 4037.8 2721.95 4085.19C2753.05 4038.13 2728.63 4021.52 2721.95 4021.52Z" fill="black"/>
<path d="M3503.53 4021.52C3496.86 4021.52 3472.43 4037.8 3503.53 4085.19C3534.63 4038.13 3510.21 4021.52 3503.53 4021.52Z" fill="black"/>
<path d="M2348.75 4681.14C2405.09 4684.23 2407.04 4654.76 2403.79 4648.57C2400.53 4642.39 2373.01 4630.5 2348.75 4681.14Z" fill="black"/>
<path d="M3130.33 4681.14C3186.5 4684.23 3188.62 4654.76 3185.36 4648.57C3182.11 4642.39 3154.59 4630.5 3130.33 4681.14Z" fill="black"/>
<path d="M3172.34 5033.99C3165.21 5033.85 3158.28 5036.27 3152.8 5040.83C3149.48 5043.46 3146.43 5046.4 3143.68 5049.62C3140.41 5053.55 3137.47 5057.74 3134.89 5062.16V5063.13C3133.42 5065.74 3131.79 5068.67 3130.33 5071.93C3146.52 5074.38 3163.06 5070.91 3176.9 5062.16C3178.05 5061.26 3179.14 5060.28 3180.15 5059.23C3181.78 5057.47 3183.15 5055.5 3184.22 5053.37C3185.37 5051.33 3186.07 5049.06 3186.27 5046.73C3186.47 5044.4 3186.16 5042.05 3185.36 5039.85C3183.78 5037.95 3181.79 5036.43 3179.53 5035.41C3177.27 5034.4 3174.81 5033.91 3172.34 5033.99Z" fill="black"/>
<path d="M2390.76 5033.99C2383.64 5033.84 2376.7 5036.27 2371.22 5040.83C2367.9 5043.45 2364.85 5046.4 2362.1 5049.62C2358.83 5053.55 2355.89 5057.74 2353.31 5062.16V5063.13C2351.85 5065.74 2350.22 5068.67 2348.75 5071.93C2364.94 5074.38 2381.48 5070.91 2395.32 5062.16C2396.48 5061.26 2397.57 5060.28 2398.58 5059.23C2400.2 5057.47 2401.57 5055.5 2402.65 5053.36C2404.24 5051.49 2405.21 5049.18 2405.42 5046.73C2405.64 5044.29 2405.1 5041.84 2403.87 5039.71C2402.64 5037.59 2400.78 5035.9 2398.55 5034.87C2396.32 5033.85 2393.83 5033.54 2391.41 5033.99H2390.76Z" fill="black"/>
<path d="M2739.54 4876.53C2795.88 4879.63 2797.83 4850.15 2794.58 4843.97C2791.32 4837.78 2763.8 4825.89 2739.54 4876.53Z" fill="black"/>
<path d="M3521.12 4876.53C3577.29 4879.63 3579.41 4850.15 3576.15 4843.97C3572.9 4837.78 3545.38 4825.89 3521.12 4876.53Z" fill="black"/>
<path d="M2348.75 4290.35C2405.09 4293.44 2407.04 4263.97 2403.79 4257.79C2400.53 4251.6 2373.01 4239.71 2348.75 4290.35Z" fill="black"/>
<path d="M3130.33 4290.35C3186.5 4293.44 3188.62 4263.97 3185.36 4257.79C3182.11 4251.6 3154.59 4239.71 3130.33 4290.35Z" fill="black"/>
<path d="M2739.54 4485.75C2795.88 4488.84 2797.83 4459.37 2794.58 4453.18C2791.32 4446.99 2763.8 4435.11 2739.54 4485.75Z" fill="black"/>
<path d="M3521.12 4485.75C3577.29 4488.84 3579.41 4459.37 3576.15 4453.18C3572.9 4446.99 3545.38 4435.11 3521.12 4485.75Z" fill="black"/>
<path d="M2739.54 4094.96C2795.88 4098.05 2797.83 4068.58 2794.58 4062.39C2791.32 4056.2 2763.8 4044.32 2739.54 4094.96Z" fill="black"/>
<path d="M3521.12 4094.96C3577.29 4098.05 3579.41 4068.58 3576.15 4062.39C3572.9 4056.2 3545.38 4044.32 3521.12 4094.96Z" fill="black"/>
<path d="M3040.77 4649.06C3037.52 4654.76 3039.63 4684.23 3095.81 4681.63C3070.9 4630.5 3044.19 4643.2 3040.77 4649.06Z" fill="black"/>
<path d="M2649.98 4844.46C2646.73 4850.16 2648.84 4879.63 2705.02 4877.02C2680.11 4825.89 2653.4 4838.59 2649.98 4844.46Z" fill="black"/>
<path d="M3822.35 4649.06C3818.93 4654.76 3821.21 4684.23 3877.39 4681.63C3852.47 4630.5 3825.77 4643.2 3822.35 4649.06Z" fill="black"/>
<path d="M3431.56 4844.46C3428.14 4850.16 3430.42 4879.63 3486.6 4877.02C3461.68 4825.89 3434.98 4838.59 3431.56 4844.46Z" fill="black"/>
<path d="M2423.49 5111.01C2423.49 5111.01 2846.84 5219.61 3378.64 4807.17C3910.44 4394.72 4116.91 4557.39 4095.09 4850.48C4073.27 5143.57 3617.51 5415.01 3422.12 5447.57C3100.86 5501.14 2814.28 5588.75 2423.49 5111.01Z" fill="black"/>
<path d="M3040.77 4258.27C3037.52 4263.97 3039.63 4293.45 3095.81 4290.84C3070.9 4239.71 3044.19 4252.41 3040.77 4258.27Z" fill="black"/>
<path d="M2649.98 4453.67C2646.73 4459.37 2648.84 4488.84 2705.02 4486.23C2680.11 4435.11 2653.4 4447.81 2649.98 4453.67Z" fill="black"/>
<path d="M3822.35 4258.27C3818.93 4263.97 3821.21 4293.45 3877.39 4290.84C3852.47 4239.71 3825.77 4252.41 3822.35 4258.27Z" fill="black"/>
<path d="M3431.56 4453.67C3428.14 4459.37 3430.42 4488.84 3486.6 4486.23C3461.68 4435.11 3434.98 4447.81 3431.56 4453.67Z" fill="black"/>
<path d="M2649.98 4062.88C2646.73 4068.58 2648.84 4098.05 2705.02 4095.45C2680.11 4044.32 2653.4 4057.02 2649.98 4062.88Z" fill="black"/>
<path d="M3431.56 4062.88C3428.14 4068.58 3430.42 4098.05 3486.6 4095.45C3461.68 4044.32 3434.98 4057.02 3431.56 4062.88Z" fill="black"/>
<path d="M3176.25 3889.79C3179.84 3887.46 3182.61 3884.04 3184.13 3880.02C3185.65 3876.01 3185.86 3871.62 3184.71 3867.49C3181.46 3861.95 3158.17 3851.2 3134.89 3889.79C3132.95 3892.94 3131.21 3896.2 3129.68 3899.56C3145.87 3902.02 3162.4 3898.55 3176.25 3889.79Z" fill="black"/>
<path d="M2394.67 3889.79C2398.27 3887.46 2401.03 3884.04 2402.55 3880.02C2404.07 3876.01 2404.28 3871.62 2403.14 3867.49C2399.88 3861.95 2376.6 3851.2 2353.31 3889.79C2351.38 3892.94 2349.64 3896.2 2348.1 3899.56C2364.29 3902.02 2380.83 3898.55 2394.67 3889.79Z" fill="black"/>
<path d="M2346.15 5798.14C2345.86 5795.65 2345.14 5793.23 2344.03 5790.98C2343.56 5789.96 2343.01 5788.98 2342.4 5788.05C2341.37 5786.46 2340.11 5785.03 2338.66 5783.81C2337.49 5782.8 2336.17 5781.98 2334.75 5781.37C2333.75 5780.83 2332.63 5780.55 2331.49 5780.55C2330.35 5780.55 2329.24 5780.83 2328.24 5781.37C2320.75 5784.63 2308.53 5797.65 2322.21 5827.94C2324.92 5833.58 2328.02 5839.02 2331.49 5844.22C2334.96 5839.02 2338.06 5833.58 2340.77 5827.94C2344.61 5820.3 2346.73 5811.9 2346.96 5803.35C2347.05 5801.83 2347.05 5800.31 2346.96 5798.79L2346.15 5798.14Z" fill="black"/>
<path d="M3112.74 5780.07C3106.07 5780.07 3081.64 5796.35 3112.74 5843.73C3143.84 5796.68 3119.42 5780.07 3112.74 5780.07Z" fill="black"/>
<path d="M3112.74 6170.86C3106.07 6170.86 3081.64 6187.14 3112.74 6234.52C3143.84 6187.47 3119.42 6170.86 3112.74 6170.86Z" fill="black"/>
<path d="M2346.15 6188.93C2345.86 6186.44 2345.14 6184.01 2344.03 6181.77C2343.56 6180.75 2343.01 6179.77 2342.4 6178.83C2341.37 6177.25 2340.11 6175.82 2338.66 6174.6C2337.49 6173.59 2336.17 6172.77 2334.75 6172.16C2333.75 6171.62 2332.63 6171.33 2331.49 6171.33C2330.35 6171.33 2329.24 6171.62 2328.24 6172.16C2320.75 6175.42 2308.53 6188.44 2322.21 6218.73C2324.92 6224.37 2328.02 6229.81 2331.49 6235.01C2334.96 6229.81 2338.06 6224.37 2340.77 6218.73C2344.61 6211.09 2346.73 6202.69 2346.96 6194.14C2347.05 6192.62 2347.05 6191.1 2346.96 6189.58L2346.15 6188.93Z" fill="black"/>
<path d="M2721.95 5975.46C2715.28 5975.46 2690.85 5991.75 2721.95 6039.13C2753.05 5992.07 2728.63 5975.46 2721.95 5975.46Z" fill="black"/>
<path d="M3503.53 5975.46C3496.86 5975.46 3472.43 5991.75 3503.53 6039.13C3534.63 5992.07 3510.21 5975.46 3503.53 5975.46Z" fill="black"/>
<path d="M2346.15 5407.35C2345.86 5404.86 2345.14 5402.44 2344.03 5400.19C2343.56 5399.18 2343.01 5398.2 2342.4 5397.26C2341.37 5395.67 2340.11 5394.25 2338.66 5393.03C2337.49 5392.02 2336.17 5391.19 2334.75 5390.58C2333.75 5390.04 2332.63 5389.76 2331.49 5389.76C2330.35 5389.76 2329.24 5390.04 2328.24 5390.58C2320.75 5393.84 2308.53 5406.87 2322.21 5437.15C2324.92 5442.79 2328.02 5448.23 2331.49 5453.43C2334.96 5448.23 2338.06 5442.79 2340.77 5437.15C2344.61 5429.51 2346.73 5421.12 2346.96 5412.56C2347.05 5411.05 2347.05 5409.52 2346.96 5408.01L2346.15 5407.35Z" fill="black"/>
<path d="M3112.74 5389.28C3106.07 5389.28 3081.64 5405.56 3112.74 5452.95C3143.84 5405.89 3119.42 5389.28 3112.74 5389.28Z" fill="black"/>
<path d="M2721.95 5584.67C2715.28 5584.67 2690.85 5600.96 2721.95 5648.34C2753.05 5601.28 2728.63 5584.67 2721.95 5584.67Z" fill="black"/>
<path d="M3503.53 5584.67C3496.86 5584.67 3472.43 5600.96 3503.53 5648.34C3534.63 5601.28 3510.21 5584.67 3503.53 5584.67Z" fill="black"/>
<path d="M2721.95 5193.89C2715.28 5193.89 2690.85 5210.17 2721.95 5257.55C2753.05 5210.49 2728.63 5193.89 2721.95 5193.89Z" fill="black"/>
<path d="M3503.53 5193.89C3496.86 5193.89 3472.43 5210.17 3503.53 5257.55C3534.63 5210.49 3510.21 5193.89 3503.53 5193.89Z" fill="black"/>
<path d="M2348.75 5853.5C2405.09 5856.6 2407.04 5827.13 2403.79 5820.94C2400.53 5814.75 2373.01 5802.86 2348.75 5853.5Z" fill="black"/>
<path d="M3130.33 5853.5C3186.5 5856.6 3188.62 5827.13 3185.36 5820.94C3182.11 5814.75 3154.59 5802.86 3130.33 5853.5Z" fill="black"/>
<path d="M3172.34 6206.35H3168.92C3164.72 6206.66 3160.65 6207.94 3157.03 6210.1L3152.8 6213.03C3145.55 6218.96 3139.48 6226.2 3134.89 6234.36C3132.95 6237.51 3131.21 6240.77 3129.68 6244.13C3145.87 6246.58 3162.4 6243.11 3176.25 6234.36C3179.84 6232.02 3182.61 6228.6 3184.13 6224.59C3185.65 6220.58 3185.86 6216.19 3184.71 6212.05C3183.18 6210.26 3181.29 6208.83 3179.15 6207.85C3177.01 6206.86 3174.69 6206.35 3172.34 6206.35Z" fill="black"/>
<path d="M2390.76 6206.35H2387.34C2383.14 6206.66 2379.07 6207.94 2375.46 6210.1L2371.22 6213.03C2363.98 6218.96 2357.9 6226.2 2353.31 6234.36C2351.38 6237.51 2349.64 6240.77 2348.1 6244.13C2364.29 6246.58 2380.83 6243.11 2394.67 6234.36C2398.27 6232.02 2401.03 6228.6 2402.55 6224.59C2404.07 6220.58 2404.28 6216.19 2403.14 6212.05C2401.61 6210.26 2399.71 6208.83 2397.57 6207.85C2395.44 6206.86 2393.11 6206.35 2390.76 6206.35Z" fill="black"/>
<path d="M2739.54 6048.9C2795.88 6051.99 2797.83 6022.52 2794.58 6016.33C2791.32 6010.14 2763.8 5998.26 2739.54 6048.9Z" fill="black"/>
<path d="M3521.12 6048.9C3577.29 6051.99 3579.41 6022.52 3576.15 6016.33C3572.9 6010.14 3545.38 5998.26 3521.12 6048.9Z" fill="black"/>
<path d="M2348.75 5462.72C2405.09 5465.81 2407.04 5436.34 2403.79 5430.15C2400.53 5423.96 2373.01 5412.08 2348.75 5462.72Z" fill="black"/>
<path d="M3130.33 5462.72C3186.5 5465.81 3188.62 5436.34 3185.36 5430.15C3182.11 5423.96 3154.59 5412.08 3130.33 5462.72Z" fill="black"/>
<path d="M2739.54 5658.11C2795.88 5661.2 2797.83 5631.73 2794.58 5625.54C2791.32 5619.36 2763.8 5607.47 2739.54 5658.11Z" fill="black"/>
<path d="M3521.12 5658.11C3577.29 5661.2 3579.41 5631.73 3576.15 5625.54C3572.9 5619.36 3545.38 5607.47 3521.12 5658.11Z" fill="black"/>
<path d="M2739.54 5267.32C2795.88 5270.42 2797.83 5240.94 2794.58 5234.76C2791.32 5228.57 2763.8 5216.68 2739.54 5267.32Z" fill="black"/>
<path d="M3521.12 5267.32C3577.29 5270.42 3579.41 5240.94 3576.15 5234.76C3572.9 5228.57 3545.38 5216.68 3521.12 5267.32Z" fill="black"/>
<path d="M3040.77 5821.43C3037.52 5827.13 3039.63 5856.6 3095.81 5853.99C3070.9 5802.86 3044.19 5815.57 3040.77 5821.43Z" fill="black"/>
<path d="M3072.69 6214.01L3068.45 6211.08C3064.85 6208.9 3060.77 6207.61 3056.57 6207.33H3053.15C3050.78 6207.35 3048.45 6207.88 3046.31 6208.9C3044.18 6209.91 3042.29 6211.37 3040.77 6213.19C3039.63 6217.33 3039.84 6221.72 3041.36 6225.73C3042.88 6229.74 3045.64 6233.16 3049.24 6235.5C3063.09 6244.23 3079.62 6247.69 3095.81 6245.27C3094.27 6241.91 3092.53 6238.65 3090.6 6235.5C3086.08 6227.24 3079.99 6219.94 3072.69 6214.01Z" fill="black"/>
<path d="M2649.98 6016.82C2646.73 6022.52 2648.84 6051.99 2705.02 6049.39C2680.11 5998.26 2653.4 6010.96 2649.98 6016.82Z" fill="black"/>
<path d="M3822.35 5821.43C3818.93 5827.13 3821.21 5856.6 3877.39 5853.99C3852.47 5802.86 3825.77 5815.57 3822.35 5821.43Z" fill="black"/>
<path d="M3872.17 6234.52C3867.58 6226.36 3861.51 6219.13 3854.26 6213.19L3850.03 6210.26C3846.41 6208.1 3842.34 6206.82 3838.14 6206.52H3834.72C3832.36 6206.54 3830.03 6207.07 3827.89 6208.08C3825.75 6209.1 3823.86 6210.56 3822.35 6212.38C3821.21 6216.51 3821.41 6220.91 3822.94 6224.92C3824.46 6228.93 3827.22 6232.35 3830.82 6234.69C3844.66 6243.44 3861.19 6246.91 3877.39 6244.45C3875.85 6241.1 3874.11 6237.83 3872.17 6234.69V6234.52Z" fill="black"/>
<path d="M3431.56 6016.82C3428.14 6022.52 3430.42 6051.99 3486.6 6049.39C3461.68 5998.26 3434.98 6010.96 3431.56 6016.82Z" fill="black"/>
<path d="M3040.77 5430.64C3037.52 5436.34 3039.63 5465.81 3095.81 5463.2C3070.9 5412.08 3044.19 5424.78 3040.77 5430.64Z" fill="black"/>
<path d="M2649.98 5626.03C2646.73 5631.73 2648.84 5661.2 2705.02 5658.6C2680.11 5607.47 2653.4 5620.17 2649.98 5626.03Z" fill="black"/>
<path d="M3822.35 5430.64C3818.93 5436.34 3821.21 5465.81 3877.39 5463.2C3852.47 5412.08 3825.77 5424.78 3822.35 5430.64Z" fill="black"/>
<path d="M3431.56 5626.03C3428.14 5631.73 3430.42 5661.2 3486.6 5658.6C3461.68 5607.47 3434.98 5620.17 3431.56 5626.03Z" fill="black"/>
<path d="M2649.98 5235.24C2646.73 5240.94 2648.84 5270.42 2705.02 5267.81C2680.11 5216.68 2653.4 5229.38 2649.98 5235.24Z" fill="black"/>
<path d="M3431.56 5235.24C3428.14 5240.94 3430.42 5270.42 3486.6 5267.81C3461.68 5216.68 3434.98 5229.38 3431.56 5235.24Z" fill="black"/>
<path d="M3090.6 5062.16C3088.02 5057.74 3085.08 5053.55 3081.81 5049.62C3079.1 5046.36 3076.04 5043.41 3072.69 5040.83C3067.21 5036.27 3060.27 5033.85 3053.15 5033.99C3050.78 5034.01 3048.45 5034.54 3046.31 5035.56C3044.18 5036.57 3042.29 5038.03 3040.77 5039.85C3039.98 5042.05 3039.67 5044.4 3039.87 5046.73C3040.07 5049.06 3040.76 5051.33 3041.91 5053.37C3042.99 5055.5 3044.36 5057.47 3045.98 5059.23L3049.24 5062.16C3063.09 5070.88 3079.62 5074.35 3095.81 5071.93C3094.34 5068.67 3092.72 5065.74 3091.25 5063.13L3090.6 5062.16Z" fill="black"/>
<path d="M3872.17 5062.16C3869.59 5057.74 3866.65 5053.55 3863.38 5049.62C3860.64 5046.4 3857.58 5043.46 3854.26 5040.83C3848.78 5036.27 3841.85 5033.85 3834.72 5033.99C3832.36 5034.01 3830.03 5034.54 3827.89 5035.56C3825.75 5036.57 3823.86 5038.03 3822.35 5039.85C3821.56 5042.05 3821.25 5044.4 3821.44 5046.73C3821.64 5049.06 3822.34 5051.33 3823.49 5053.37C3824.56 5055.5 3825.93 5057.47 3827.56 5059.23C3828.57 5060.28 3829.66 5061.26 3830.82 5062.16C3844.66 5070.91 3861.19 5074.38 3877.39 5071.93C3875.92 5068.67 3874.29 5065.74 3872.83 5063.13C3872.55 5062.85 3872.33 5062.52 3872.17 5062.16Z" fill="black"/>
<path d="M2721.95 6366.25C2715.28 6366.25 2690.85 6382.53 2721.95 6429.92C2753.05 6382.86 2728.63 6366.25 2721.95 6366.25Z" fill="black"/>
<path d="M3503.53 6366.25C3496.86 6366.25 3472.43 6382.53 3503.53 6429.92C3534.63 6382.86 3510.21 6366.25 3503.53 6366.25Z" fill="black"/>
<path d="M2739.54 6439.69C2795.88 6442.78 2797.83 6413.31 2794.58 6407.12C2791.32 6400.93 2763.8 6389.05 2739.54 6439.69Z" fill="black"/>
<path d="M3521.12 6439.69C3577.29 6442.78 3579.41 6413.31 3576.15 6407.12C3572.9 6400.93 3545.38 6389.05 3521.12 6439.69Z" fill="black"/>
<path d="M2649.98 6407.61C2646.73 6413.31 2648.84 6442.78 2705.02 6440.17C2680.11 6389.05 2653.4 6401.75 2649.98 6407.61Z" fill="black"/>
<path d="M3431.56 6407.61C3428.14 6413.31 3430.42 6442.78 3486.6 6440.17C3461.68 6389.05 3434.98 6401.75 3431.56 6407.61Z" fill="black"/>
<path d="M1549.59 3826.13C1542.91 3826.13 1518.49 3842.41 1549.59 3889.79C1580.69 3842.74 1556.27 3826.13 1549.59 3826.13Z" fill="black"/>
<path d="M1940.38 3630.73C1933.7 3630.73 1909.28 3647.02 1940.38 3694.4C1971.48 3647.34 1947.05 3630.73 1940.38 3630.73Z" fill="black"/>
<path d="M1954.71 3254.92L1924.91 3262.58C1925.91 3277.48 1931.29 3291.76 1940.38 3303.61C1955.52 3280.81 1957.96 3265.02 1954.71 3254.92Z" fill="black"/>
<path d="M1567.18 3508.77C1623.35 3511.87 1625.47 3482.4 1622.21 3476.21C1618.96 3470.02 1591.44 3458.13 1567.18 3508.77Z" fill="black"/>
<path d="M1957.96 3704.17C2014.14 3707.26 2016.26 3677.79 2013 3671.6C2009.74 3665.42 1982.23 3653.53 1957.96 3704.17Z" fill="black"/>
<path d="M1957.96 3313.38C2014.14 3316.47 2016.26 3287 2013 3280.81C2009.74 3274.63 1982.23 3262.74 1957.96 3313.38Z" fill="black"/>
<path d="M1477.62 3867.49C1476.48 3871.62 1476.68 3876.01 1478.21 3880.02C1479.73 3884.04 1482.49 3887.46 1486.09 3889.79C1499.94 3898.52 1516.46 3901.99 1532.66 3899.56C1531.12 3896.2 1529.38 3892.94 1527.45 3889.79C1504.16 3850.71 1480.88 3861.95 1477.62 3867.49Z" fill="black"/>
<path d="M2259.2 3476.7C2255.78 3482.4 2258.06 3511.87 2314.23 3509.26C2289.32 3458.14 2262.62 3470.84 2259.2 3476.7Z" fill="black"/>
<path d="M2309.02 3889.79C2285.74 3850.71 2262.45 3861.95 2259.2 3867.49C2258.05 3871.62 2258.26 3876.01 2259.78 3880.02C2261.3 3884.04 2264.07 3887.46 2267.66 3889.79C2281.51 3898.55 2298.04 3902.02 2314.23 3899.56C2312.7 3896.2 2310.96 3892.94 2309.02 3889.79Z" fill="black"/>
<path d="M1868.41 3672.09C1864.99 3677.79 1867.27 3707.26 1923.44 3704.66C1898.53 3653.53 1871.83 3666.23 1868.41 3672.09Z" fill="black"/>
<path d="M1880.29 3275.6L1871.83 3278.21C1870.48 3278.98 1869.31 3280.04 1868.41 3281.3C1864.99 3287 1867.27 3316.47 1923.44 3313.87C1907.65 3281.14 1891.2 3274.63 1880.29 3275.6Z" fill="black"/>
<path d="M768.014 4607.7C761.338 4607.7 736.913 4623.99 768.014 4671.37C799.114 4624.31 774.69 4607.7 768.014 4607.7Z" fill="black"/>
<path d="M1158.8 4803.1C1152.13 4803.1 1127.7 4819.38 1158.8 4866.76C1189.9 4819.71 1165.48 4803.1 1158.8 4803.1Z" fill="black"/>
<path d="M1549.59 4216.92C1542.91 4216.92 1518.49 4233.2 1549.59 4280.58C1580.69 4233.52 1556.27 4216.92 1549.59 4216.92Z" fill="black"/>
<path d="M1158.8 4412.31C1152.13 4412.31 1127.7 4428.59 1158.8 4475.98C1189.9 4428.92 1165.48 4412.31 1158.8 4412.31Z" fill="black"/>
<path d="M1940.38 4412.31C1933.7 4412.31 1909.28 4428.59 1940.38 4475.98C1971.48 4428.92 1947.05 4412.31 1940.38 4412.31Z" fill="black"/>
<path d="M1158.8 4021.52C1152.13 4021.52 1127.7 4037.8 1158.8 4085.19C1189.9 4038.13 1165.48 4021.52 1158.8 4021.52Z" fill="black"/>
<path d="M1940.38 4021.52C1933.7 4021.52 1909.28 4037.8 1940.38 4085.19C1971.48 4038.13 1947.05 4021.52 1940.38 4021.52Z" fill="black"/>
<path d="M785.599 4681.14C841.938 4684.23 844.055 4654.76 840.635 4648.57C837.216 4642.39 809.861 4630.5 785.599 4681.14Z" fill="black"/>
<path d="M1185.34 4859.92C1199.83 4854.55 1214 4848.53 1228 4841.69C1221.17 4837.13 1203.58 4834.04 1185.34 4859.92Z" fill="black"/>
<path d="M839.984 4258.27C838.064 4255.82 835.364 4254.1 832.331 4253.39C822.236 4266.25 812.629 4278.46 804.325 4290.03C841.612 4286.12 842.915 4263.32 839.984 4258.27Z" fill="black"/>
<path d="M1567.18 4290.35C1623.35 4293.44 1625.47 4263.97 1622.21 4257.79C1618.96 4251.6 1591.44 4239.71 1567.18 4290.35Z" fill="black"/>
<path d="M1176.39 4485.75C1232.73 4488.84 1234.68 4459.37 1231.42 4453.18C1228.17 4446.99 1200.65 4435.11 1176.39 4485.75Z" fill="black"/>
<path d="M1957.96 4485.75C2014.14 4488.84 2016.26 4459.37 2013 4453.18C2009.74 4446.99 1982.23 4435.11 1957.96 4485.75Z" fill="black"/>
<path d="M1176.39 4094.96C1232.73 4098.05 1234.68 4068.58 1231.42 4062.39C1228.17 4056.2 1200.65 4044.32 1176.39 4094.96Z" fill="black"/>
<path d="M1957.96 4094.96C2014.14 4098.05 2016.26 4068.58 2013 4062.39C2009.74 4056.2 1982.23 4044.32 1957.96 4094.96Z" fill="black"/>
<path d="M1086.83 4844.46C1083.74 4849.67 1085.37 4874.42 1128.19 4877.02L1140.4 4874.25C1115.98 4826.55 1090.25 4838.76 1086.83 4844.46Z" fill="black"/>
<path d="M2259.2 4649.06C2255.78 4654.76 2258.06 4684.23 2314.23 4681.63C2289.32 4630.5 2262.62 4643.2 2259.2 4649.06Z" fill="black"/>
<path d="M1477.62 4258.27C1474.36 4263.97 1476.48 4293.45 1532.66 4290.84C1507.74 4239.71 1481.04 4252.41 1477.62 4258.27Z" fill="black"/>
<path d="M1086.83 4453.67C1083.58 4459.37 1085.69 4488.84 1141.87 4486.23C1116.96 4435.11 1090.25 4447.81 1086.83 4453.67Z" fill="black"/>
<path d="M2259.2 4258.27C2255.78 4263.97 2258.06 4293.45 2314.23 4290.84C2289.32 4239.71 2262.62 4252.41 2259.2 4258.27Z" fill="black"/>
<path d="M1086.83 4062.88C1083.58 4068.58 1085.69 4098.05 1141.87 4095.45C1116.96 4044.32 1090.25 4057.02 1086.83 4062.88Z" fill="black"/>
<path d="M1868.41 4062.88C1864.99 4068.58 1867.27 4098.05 1923.44 4095.45C1898.53 4044.32 1871.83 4057.02 1868.41 4062.88Z" fill="black"/>
<path d="M1613.09 3889.79C1616.69 3887.46 1619.45 3884.04 1620.97 3880.02C1622.5 3876.01 1622.7 3871.62 1621.56 3867.49C1618.3 3861.95 1595.02 3851.2 1571.73 3889.79C1569.8 3892.94 1568.06 3896.2 1566.52 3899.56C1582.72 3902.02 1599.25 3898.55 1613.09 3889.79Z" fill="black"/>
<path d="M1940.38 5975.46C1933.7 5975.46 1909.28 5991.75 1940.38 6039.13C1971.48 5992.07 1947.05 5975.46 1940.38 5975.46Z" fill="black"/>
<path d="M1952.92 5623.59L1939.24 5646.55L1940.38 5648.34C1945.65 5640.69 1949.86 5632.36 1952.92 5623.59Z" fill="black"/>
<path d="M1957.96 6048.9C2014.14 6051.99 2016.26 6022.52 2013 6016.33C2009.74 6010.14 1982.23 5998.26 1957.96 6048.9Z" fill="black"/>
<path d="M1957.96 5658.11C2014.14 5661.2 2016.26 5631.73 2013 5625.54C2009.74 5619.36 1982.23 5607.47 1957.96 5658.11Z" fill="black"/>
<path d="M2259.2 5821.43C2255.78 5827.13 2258.06 5856.6 2314.23 5853.99C2289.32 5802.86 2262.62 5815.57 2259.2 5821.43Z" fill="black"/>
<path d="M2309.02 6234.52C2304.43 6226.36 2298.36 6219.13 2291.11 6213.19L2286.88 6210.26C2283.26 6208.1 2279.19 6206.82 2274.99 6206.52H2271.57C2269.21 6206.54 2266.87 6207.07 2264.74 6208.08C2262.6 6209.1 2260.71 6210.56 2259.2 6212.38C2258.05 6216.51 2258.26 6220.91 2259.78 6224.92C2261.3 6228.93 2264.07 6232.35 2267.66 6234.69C2281.51 6243.44 2298.04 6246.91 2314.23 6244.45C2312.7 6241.1 2310.96 6237.83 2309.02 6234.69V6234.52Z" fill="black"/>
<path d="M1868.41 6016.82C1864.99 6022.52 1867.27 6051.99 1923.44 6049.39C1898.53 5998.26 1871.83 6010.96 1868.41 6016.82Z" fill="black"/>
<path d="M2259.2 5430.64C2255.78 5436.34 2258.06 5465.81 2314.23 5463.2C2289.32 5412.08 2262.62 5424.78 2259.2 5430.64Z" fill="black"/>
<path d="M2309.02 5062.16C2306.44 5057.74 2303.5 5053.55 2300.23 5049.62C2297.48 5046.4 2294.43 5043.46 2291.11 5040.83C2285.63 5036.27 2278.69 5033.85 2271.57 5033.99C2269.21 5034.01 2266.87 5034.54 2264.74 5035.56C2262.6 5036.57 2260.71 5038.03 2259.2 5039.85C2258.4 5042.05 2258.1 5044.4 2258.29 5046.73C2258.49 5049.06 2259.19 5051.33 2260.34 5053.37C2261.41 5055.5 2262.78 5057.47 2264.41 5059.23C2265.42 5060.28 2266.51 5061.26 2267.66 5062.16C2281.51 5070.91 2298.04 5074.38 2314.23 5071.93C2312.77 5068.67 2311.14 5065.74 2309.67 5063.13L2309.02 5062.16Z" fill="black"/>
<path d="M1940.38 6366.25C1933.7 6366.25 1909.28 6382.53 1940.38 6429.92C1971.48 6382.86 1947.05 6366.25 1940.38 6366.25Z" fill="black"/>
<path d="M1957.96 6439.69C2014.14 6442.78 2016.26 6413.31 2013 6407.12C2009.74 6400.93 1982.23 6389.05 1957.96 6439.69Z" fill="black"/>
<path d="M1868.41 6407.61C1864.99 6413.31 1867.27 6442.78 1923.44 6440.17C1898.53 6389.05 1871.83 6401.75 1868.41 6407.61Z" fill="black"/>
<path d="M729.749 4651.67C732.983 4661.73 736.734 4671.62 740.984 4681.3H751.08C746.134 4670.03 738.866 4659.93 729.749 4651.67Z" fill="black"/>
</g>
</g>
<path d="M4534.24 6446.2C4534.24 6446.2 4563.38 6046.46 4387.69 5646.55C4212 5246.64 4172.43 5217.82 4172.43 5100.75C4172.43 4983.67 4289.99 4847.06 4309.53 4583.77C4329.07 4320.47 4319.3 4192.98 4319.3 4192.98C4319.3 4192.98 4738.59 4856.02 5031.19 4895.1C5323.79 4934.17 5499.32 4661.11 5392.02 4290.51C5284.71 3919.92 4816.58 3617.71 4631.44 3373.79C4446.31 3129.87 4026.7 3129.55 3812.25 3129.55C3597.81 3129.55 3490.51 3051.55 3451.43 2905.33C3412.35 2759.11 3412.51 2465.7 3412.51 2465.7C3412.51 2465.7 3158.82 2621.69 2729.77 2446.16C2729.77 2446.16 2768.85 2982.51 2720 3060.51C2671.15 3138.5 2603.42 3217.96 2310.81 3217.96C2018.21 3217.96 1774.46 3276.58 1638.01 3413.36C1501.56 3550.13 935.89 4095.93 789.67 4310.54C643.45 4525.15 721.282 4759.13 896.811 4846.9C1072.34 4934.66 1247.87 4856.51 1374.71 4739.59C1501.56 4622.68 1901.3 4251.92 1901.3 4251.92C1901.3 4251.92 1901.3 4476.3 2008.6 4798.05C2115.91 5119.8 2204 5080.88 2125.51 5314.87C2047.03 5548.85 1891.53 5617.24 1842.84 5919.45C1813.68 6093.41 1800.6 6269.68 1803.77 6446.04" stroke="#263238" stroke-linecap="round" stroke-linejoin="round"/>
<path d="M1901.3 4252.09C1909.3 4146.62 1930.92 4042.63 1965.62 3942.71Z" fill="white"/>
<path d="M1901.3 4252.09C1909.3 4146.62 1930.92 4042.63 1965.62 3942.71" stroke="#263238" stroke-linecap="round" stroke-linejoin="round"/>
<path d="M4318.98 4193.63C4297.5 4112.7 4267.65 4034.23 4229.91 3959.48" stroke="#263238" stroke-linecap="round" stroke-linejoin="round"/>
<path d="M2886.57 5274.49L3500.76 5077.63" stroke="#263238" stroke-linecap="round" stroke-linejoin="round"/>
<path d="M3164.69 5112.31C3308.17 5054.57 3457.9 5013.75 3610.84 4990.68" stroke="#263238" stroke-linecap="round" stroke-linejoin="round"/>
<path d="M2993.39 3871.88C3479.92 3965.67 3667.66 3499.33 3732.96 3126.62C3570.94 3108.7 3485.62 3033.32 3451.75 2906.47C3412.84 2759.93 3412.84 2466.84 3412.84 2466.84C3412.84 2466.84 3159.15 2622.82 2730.1 2447.3C2730.1 2447.3 2769.18 2983.65 2720.33 3061.65C2686.46 3116.03 2642.82 3170.42 2520.7 3198.26C2516.3 3365.65 2550.01 3786.23 2993.39 3871.88Z" fill="#B2B2B2"/>
<mask id="mask1_801_1029" style="mask-type:luminance" maskUnits="userSpaceOnUse" x="2520" y="2447" width="1213" height="1438">
<path d="M2993.39 3871.88C3479.92 3965.67 3667.66 3499.33 3732.96 3126.62C3570.94 3108.7 3485.62 3033.32 3451.75 2906.47C3412.84 2759.93 3412.84 2466.84 3412.84 2466.84C3412.84 2466.84 3159.15 2622.82 2730.1 2447.3C2730.1 2447.3 2769.18 2983.65 2720.33 3061.65C2686.46 3116.03 2642.82 3170.42 2520.7 3198.26C2516.3 3365.65 2550.01 3786.23 2993.39 3871.88Z" fill="white"/>
</mask>
<g mask="url(#mask1_801_1029)">
<path opacity="0.2" d="M3441.17 2858.27C3412.84 2704.24 3412.84 2467.49 3412.84 2467.49C3412.84 2467.49 3159.15 2623.48 2730.1 2447.95C2730.1 2447.95 2746.38 2672.16 2744.75 2851.76C3114.05 2980.07 3327.68 2925.69 3441.17 2858.27Z" fill="black"/>
</g>
<path d="M2993.39 3871.88C3479.92 3965.67 3667.66 3499.33 3732.96 3126.62C3570.94 3108.7 3485.62 3033.32 3451.75 2906.47C3412.84 2759.93 3412.84 2466.84 3412.84 2466.84C3412.84 2466.84 3159.15 2622.82 2730.1 2447.3C2730.1 2447.3 2769.18 2983.65 2720.33 3061.65C2686.46 3116.03 2642.82 3170.42 2520.7 3198.26C2516.3 3365.65 2550.01 3786.23 2993.39 3871.88Z" stroke="#263238" stroke-linecap="round" stroke-linejoin="round"/>
<path d="M3729.05 2280.56C3795.77 2280.56 3849.87 2226.47 3849.87 2159.74C3849.87 2093.01 3795.77 2038.92 3729.05 2038.92C3662.32 2038.92 3608.23 2093.01 3608.23 2159.74C3608.23 2226.47 3662.32 2280.56 3729.05 2280.56Z" fill="#007FFF" stroke="#263238" stroke-linecap="round" stroke-linejoin="round"/>
<path d="M2438.47 2280.56C2505.2 2280.56 2559.29 2226.47 2559.29 2159.74C2559.29 2093.01 2505.2 2038.92 2438.47 2038.92C2371.74 2038.92 2317.65 2093.01 2317.65 2159.74C2317.65 2226.47 2371.74 2280.56 2438.47 2280.56Z" fill="#007FFF" stroke="#263238" stroke-linecap="round" stroke-linejoin="round"/>
<path d="M3717.98 1747.95C3717.98 1747.95 3778.39 1561.18 3849.87 1627.13C3921.35 1693.07 3827.89 1945.62 3778.39 2006.03C3728.89 2066.44 3679.55 2066.44 3685.09 1984.05C3690.62 1901.66 3717.98 1747.95 3717.98 1747.95Z" fill="#B2B2B2" stroke="#263238" stroke-linecap="round" stroke-linejoin="round"/>
<path d="M2469.08 1935.85C2469.08 1935.85 2485.37 2372.07 2806.46 2586.03C3127.56 2799.98 3366.1 2676.56 3497.83 2495.49C3629.56 2314.43 3711.95 2133.36 3711.95 1870.07C3711.95 1606.78 3744.52 1491.33 3654.31 1326.71C3564.1 1162.09 3250.98 1079.86 3250.98 1079.86C3120.9 1242.2 2980.7 1396.16 2831.21 1540.83C2584.2 1779.37 2469.08 1935.85 2469.08 1935.85Z" fill="#B2B2B2"/>
<mask id="mask2_801_1029" style="mask-type:luminance" maskUnits="userSpaceOnUse" x="2469" y="1079" width="1249" height="1621">
<path d="M2469.08 1935.85C2469.08 1935.85 2485.37 2372.07 2806.46 2586.03C3127.56 2799.98 3366.1 2676.56 3497.83 2495.49C3629.56 2314.43 3711.95 2133.36 3711.95 1870.07C3711.95 1606.78 3744.52 1491.33 3654.31 1326.71C3564.1 1162.09 3250.98 1079.86 3250.98 1079.86C3120.9 1242.2 2980.7 1396.16 2831.21 1540.83C2584.2 1779.37 2469.08 1935.85 2469.08 1935.85Z" fill="white"/>
</mask>
<g mask="url(#mask2_801_1029)">
<path opacity="0.2" d="M3250.98 1079.86C3120.9 1242.2 2980.7 1396.16 2831.21 1540.83C2584.2 1779.37 2469.08 1935.85 2469.08 1935.85C2475.05 2020.85 2491.84 2104.73 2519.07 2185.47C2952.85 1853.62 3189.76 1257.35 3252.78 1080.35L3250.98 1079.86Z" fill="black"/>
</g>
<path d="M2469.08 1935.85C2469.08 1935.85 2485.37 2372.07 2806.46 2586.03C3127.56 2799.98 3366.1 2676.56 3497.83 2495.49C3629.56 2314.43 3711.95 2133.36 3711.95 1870.07C3711.95 1606.78 3744.52 1491.33 3654.31 1326.71C3564.1 1162.09 3250.98 1079.86 3250.98 1079.86C3120.9 1242.2 2980.7 1396.16 2831.21 1540.83C2584.2 1779.37 2469.08 1935.85 2469.08 1935.85Z" stroke="#263238" stroke-linecap="round" stroke-linejoin="round"/>
<path d="M2772.76 1884.56L2957.57 1901.82" stroke="#263238" stroke-linecap="round" stroke-linejoin="round"/>
<path d="M3332.89 1878.7C3332.89 1878.7 3454.19 1855.58 3512 1878.7" stroke="#263238" stroke-linecap="round" stroke-linejoin="round"/>
<path d="M2932.65 1800.05C2932.65 1844.02 2912.95 1879.68 2888.69 1879.68C2864.43 1879.68 2844.89 1844.02 2844.89 1800.05C2844.89 1756.09 2864.43 1720.43 2888.69 1720.43C2912.95 1720.43 2932.65 1756.09 2932.65 1800.05Z" fill="#263238"/>
<path d="M3031.49 2078.16C3060.98 2096.66 3095.68 2105.08 3130.36 2102.14C3165.05 2099.2 3197.84 2085.07 3223.79 2061.88" stroke="#263238" stroke-linecap="round" stroke-linejoin="round"/>
<path d="M3081.48 2264.11C3081.48 2264.11 3251.64 2335.6 3350.47 2104.87" stroke="#263238" stroke-linecap="round" stroke-linejoin="round"/>
<path d="M3300.65 1802.82C3300.65 1802.82 3405.02 1731.34 3509.39 1775.3" stroke="#263238" stroke-width="2" stroke-linecap="round" stroke-linejoin="round"/>
<path d="M3267.76 1622.24C3267.76 1622.24 3383.04 1506.96 3542.28 1600.26" stroke="#263238" stroke-width="2" stroke-linecap="round" stroke-linejoin="round"/>
<path d="M3020.58 1550.11C3020.58 1550.11 2921.75 1451.27 2784.32 1544.74" stroke="#263238" stroke-width="2" stroke-linecap="round" stroke-linejoin="round"/>
<path d="M789.67 4310.7C789.67 4310.7 614.141 4506.1 614.141 4710.45C614.141 4914.8 731.052 5101.24 1053.78 5393.02C1376.5 5684.81 1677.74 5900.07 1804.58 5968.46C1931.42 6036.85 2058.1 5948.92 2058.1 5948.92C2058.1 5948.92 2267.83 6158.48 2292.09 6109.8C2316.35 6061.11 2218.98 5987.84 2199.44 5958.69C2182.29 5935.54 2162.69 5914.3 2140.98 5895.35C2140.98 5895.35 2243.4 5909.84 2282.48 5944.2C2321.56 5978.56 2384.74 6036.85 2414.05 6031.96C2443.36 6027.08 2443.36 6002.65 2399.39 5944.2C2363.95 5898.42 2321.14 5858.86 2272.71 5827.13C2243.4 5807.75 2145.87 5754.02 2145.87 5754.02C2145.87 5754.02 2287.2 5744.25 2336.05 5773.56C2384.9 5802.86 2516.47 5890.63 2526.24 5851.55C2536 5812.47 2536 5788.21 2487.16 5744.25C2438.31 5700.28 2340.61 5646.55 2282.48 5636.94C2242.41 5629.57 2203.19 5618.17 2165.41 5602.91C2165.41 5602.91 2277.6 5563.83 2316.51 5563.83C2355.43 5563.83 2511.91 5641.83 2555.38 5632.22C2598.86 5622.61 2574.92 5583.37 2540.89 5558.95C2506.86 5534.52 2355.59 5476.07 2292.09 5471.18C2228.58 5466.3 1872.8 5588.26 1829 5588.26C1785.2 5588.26 1673.01 5432.27 1555.94 5222.54C1438.87 5012.82 1395.07 4686.19 1146.43 4574.16" fill="#007FFF"/>
<mask id="mask3_801_1029" style="mask-type:luminance" maskUnits="userSpaceOnUse" x="614" y="4310" width="1965" height="1808">
<path d="M789.67 4310.7C789.67 4310.7 614.141 4506.1 614.141 4710.45C614.141 4914.8 731.052 5101.24 1053.78 5393.02C1376.5 5684.81 1677.74 5900.07 1804.58 5968.46C1931.42 6036.85 2058.1 5948.92 2058.1 5948.92C2058.1 5948.92 2267.83 6158.48 2292.09 6109.8C2316.35 6061.11 2218.98 5987.84 2199.44 5958.69C2182.29 5935.54 2162.69 5914.3 2140.98 5895.35C2140.98 5895.35 2243.4 5909.84 2282.48 5944.2C2321.56 5978.56 2384.74 6036.85 2414.05 6031.96C2443.36 6027.08 2443.36 6002.65 2399.39 5944.2C2363.95 5898.42 2321.14 5858.86 2272.71 5827.13C2243.4 5807.75 2145.87 5754.02 2145.87 5754.02C2145.87 5754.02 2287.2 5744.25 2336.05 5773.56C2384.9 5802.86 2516.47 5890.63 2526.24 5851.55C2536 5812.47 2536 5788.21 2487.16 5744.25C2438.31 5700.28 2340.61 5646.55 2282.48 5636.94C2242.41 5629.57 2203.19 5618.17 2165.41 5602.91C2165.41 5602.91 2277.6 5563.83 2316.51 5563.83C2355.43 5563.83 2511.91 5641.83 2555.38 5632.22C2598.86 5622.61 2574.92 5583.37 2540.89 5558.95C2506.86 5534.52 2355.59 5476.07 2292.09 5471.18C2228.58 5466.3 1872.8 5588.26 1829 5588.26C1785.2 5588.26 1673.01 5432.27 1555.94 5222.54C1438.87 5012.82 1395.07 4686.19 1146.43 4574.16" fill="white"/>
</mask>
<g mask="url(#mask3_801_1029)">
<g opacity="0.2">
<path d="M768.014 4998.49C774.69 4998.49 799.114 5014.78 768.014 5062.16C799.114 5015.1 774.69 4998.49 768.014 4998.49Z" fill="black"/>
<path d="M1158.8 4803.1C1152.13 4803.1 1127.7 4819.38 1158.8 4866.76C1189.9 4819.71 1165.48 4803.1 1158.8 4803.1Z" fill="black"/>
<path d="M839.984 4649.06C836.564 4643.2 809.861 4630.5 784.948 4681.63C841.287 4684.23 843.403 4654.76 839.984 4649.06Z" fill="black"/>
<path d="M834.448 5059.23C836.074 5057.47 837.444 5055.5 838.518 5053.36C840.106 5051.49 841.076 5049.18 841.294 5046.73C841.512 5044.29 840.969 5041.84 839.738 5039.71C838.507 5037.59 836.649 5035.9 834.419 5034.87C832.189 5033.85 829.696 5033.54 827.283 5033.99C820.16 5033.84 813.223 5036.27 807.744 5040.83C804.426 5043.45 801.372 5046.4 798.626 5049.62C795.354 5053.55 792.413 5057.74 789.833 5062.16H831.191C832.348 5061.26 833.437 5060.28 834.448 5059.23Z" fill="black"/>
<path d="M1230.77 4844.46C1227.35 4838.59 1200.65 4825.89 1175.74 4877.02C1232.07 4879.63 1234.03 4850.16 1230.77 4844.46Z" fill="black"/>
<path d="M1141.87 4876.53C1116.95 4825.89 1090.25 4838.59 1086.83 4843.97C1083.41 4849.34 1085.69 4879.63 1141.87 4876.53Z" fill="black"/>
<path d="M768.014 4607.7V4671.37C799.114 4624.31 774.69 4607.7 768.014 4607.7Z" fill="black"/>
<path d="M768.014 4998.49V5062.16C799.114 5015.1 774.69 4998.49 768.014 4998.49Z" fill="black"/>
<path d="M1549.59 5780.07C1546.7 5780.66 1544.01 5781.97 1541.77 5783.88C1539.52 5785.79 1537.78 5788.23 1536.73 5790.98L1564.24 5811.17C1568.32 5788.7 1554.47 5780.07 1549.59 5780.07Z" fill="black"/>
<path d="M1940.38 5975.46C1936.27 5976.47 1932.6 5978.77 1929.9 5982.02C1927.21 5985.28 1925.63 5989.32 1925.4 5993.54C1935.18 5992.77 1944.91 5991.46 1954.54 5989.63C1953.77 5986.17 1952.02 5983 1949.52 5980.49C1947.01 5977.98 1943.84 5976.24 1940.38 5975.46Z" fill="black"/>
<path d="M1549.59 5389.28C1542.91 5389.28 1518.49 5405.56 1549.59 5452.95C1580.69 5405.89 1556.27 5389.28 1549.59 5389.28Z" fill="black"/>
<path d="M1940.38 5648.34C1971.48 5601.28 1947.05 5584.67 1940.38 5584.67C1933.7 5584.67 1909.12 5601.28 1940.38 5648.34Z" fill="black"/>
<path d="M1158.8 5257.55C1189.9 5210.49 1165.48 5193.89 1158.8 5193.89C1152.13 5193.89 1127.54 5210.49 1158.8 5257.55Z" fill="black"/>
<path d="M1621.56 5821.43C1618.96 5817.03 1603.32 5808.73 1585.25 5826.15C1594.04 5832.66 1602.84 5838.85 1611.47 5844.87C1615.55 5842.68 1618.77 5839.17 1620.6 5834.91C1622.44 5830.65 1622.77 5825.9 1621.56 5821.43Z" fill="black"/>
<path d="M1567.18 5462.72C1623.35 5465.81 1625.47 5436.34 1622.21 5430.15C1618.96 5423.96 1591.44 5412.08 1567.18 5462.72Z" fill="black"/>
<path d="M1957.96 5658.11C2014.14 5661.2 2016.26 5631.73 2013 5625.54C2009.74 5619.36 1982.23 5607.47 1957.96 5658.11Z" fill="black"/>
<path d="M1176.39 5267.32C1232.73 5270.41 1234.68 5240.94 1231.42 5234.76C1228.17 5228.57 1200.65 5216.68 1176.39 5267.32Z" fill="black"/>
<path d="M2308.53 5853.67C2294.53 5842.59 2281.67 5833.64 2271.9 5826.96L2260.5 5819.8L2259.2 5821.43C2255.94 5826.96 2258.06 5854.48 2308.53 5853.67Z" fill="black"/>
<path d="M1532.66 5462.72C1507.74 5412.08 1481.04 5424.78 1477.62 5430.15C1474.2 5435.52 1476.48 5465.81 1532.66 5462.72Z" fill="black"/>
<path d="M1868.41 5626.03C1864.99 5631.73 1867.27 5661.2 1923.44 5658.6C1898.53 5607.47 1871.83 5620.17 1868.41 5626.03Z" fill="black"/>
<path d="M1086.83 5235.24C1083.58 5240.94 1085.69 5270.42 1141.87 5267.81C1116.96 5216.68 1090.25 5229.38 1086.83 5235.24Z" fill="black"/>
<path d="M831.517 5062.16H790.158C790.205 5062.48 790.205 5062.81 790.158 5063.13C788.693 5065.74 787.065 5068.67 785.599 5071.93C801.579 5074.22 817.854 5070.76 831.517 5062.16Z" fill="black"/>
<path d="M768.014 4607.7C761.338 4607.7 736.913 4623.99 768.014 4671.37V4607.7Z" fill="black"/>
<path d="M768.014 5062.16V4998.49C761.338 4998.49 736.751 5015.1 768.014 5062.16Z" fill="black"/>
<path d="M751.08 4681.14C726.167 4630.5 699.463 4643.2 696.044 4648.57C692.624 4653.95 694.904 4684.23 751.08 4681.14Z" fill="black"/>
<path d="M736.751 5049.62C734.004 5046.4 730.95 5043.46 727.632 5040.83L726.493 5040.01C731.54 5047.34 736.588 5054.83 742.775 5062.16H746.358C743.517 5057.71 740.303 5053.52 736.751 5049.62Z" fill="black"/>
<path d="M746.52 5063.13C746.474 5062.81 746.474 5062.48 746.52 5062.16H742.938L750.103 5071.93H751.731C749.614 5068.67 747.986 5065.74 746.52 5063.13Z" fill="black"/>
</g>
</g>
<path d="M789.67 4310.7C789.67 4310.7 614.141 4506.1 614.141 4710.45C614.141 4914.8 731.052 5101.24 1053.78 5393.02C1376.5 5684.81 1677.74 5900.07 1804.58 5968.46C1931.42 6036.85 2058.1 5948.92 2058.1 5948.92C2058.1 5948.92 2267.83 6158.48 2292.09 6109.8C2316.35 6061.11 2218.98 5987.84 2199.44 5958.69C2182.29 5935.54 2162.69 5914.3 2140.98 5895.35C2140.98 5895.35 2243.4 5909.84 2282.48 5944.2C2321.56 5978.56 2384.74 6036.85 2414.05 6031.96C2443.36 6027.08 2443.36 6002.65 2399.39 5944.2C2363.95 5898.42 2321.14 5858.86 2272.71 5827.13C2243.4 5807.75 2145.87 5754.02 2145.87 5754.02C2145.87 5754.02 2287.2 5744.25 2336.05 5773.56C2384.9 5802.86 2516.47 5890.63 2526.24 5851.55C2536 5812.47 2536 5788.21 2487.16 5744.25C2438.31 5700.28 2340.61 5646.55 2282.48 5636.94C2242.41 5629.57 2203.19 5618.17 2165.41 5602.91C2165.41 5602.91 2277.6 5563.83 2316.51 5563.83C2355.43 5563.83 2511.91 5641.83 2555.38 5632.22C2598.86 5622.61 2574.92 5583.37 2540.89 5558.95C2506.86 5534.52 2355.59 5476.07 2292.09 5471.18C2228.58 5466.3 1872.8 5588.26 1829 5588.26C1785.2 5588.26 1673.01 5432.27 1555.94 5222.54C1438.87 5012.82 1395.07 4686.19 1146.43 4574.16" stroke="#263238" stroke-linecap="round" stroke-linejoin="round"/>
<path d="M2540.08 5558.78C2505.88 5534.52 2354.78 5475.9 2291.27 5471.02C2227.77 5466.13 1871.99 5588.09 1828.19 5588.09C1784.39 5588.09 1672.2 5432.1 1555.13 5222.38C1489.99 5105.96 1447.66 4953.39 1380.09 4821.66C1021.86 4772.81 868.316 4982.21 797.323 5132.83C876.367 5225.51 961.788 5312.57 1052.96 5393.35C1374.71 5686.44 1676.92 5900.4 1803.77 5968.79C1930.61 6037.17 2057.29 5949.25 2057.29 5949.25C2057.29 5949.25 2267.01 6158.81 2291.27 6110.12C2315.53 6061.44 2218.16 5988.16 2198.62 5959.02C2181.47 5935.86 2161.88 5914.63 2140.17 5895.68C2140.17 5895.68 2242.59 5910.17 2281.67 5944.52C2320.75 5978.88 2383.92 6037.17 2413.23 6032.29C2442.54 6027.4 2442.54 6002.98 2398.58 5944.52C2363.13 5898.75 2320.32 5859.18 2271.9 5827.45C2242.59 5808.07 2145.05 5754.34 2145.05 5754.34C2145.05 5754.34 2286.39 5744.57 2335.24 5773.88C2384.09 5803.19 2515.65 5890.95 2525.42 5851.88C2535.19 5812.8 2535.19 5788.54 2486.34 5744.57C2437.49 5700.61 2339.8 5646.87 2281.67 5637.27C2241.6 5629.9 2202.37 5618.5 2164.59 5603.24C2164.59 5603.24 2276.78 5564.16 2315.7 5564.16C2354.61 5564.16 2511.09 5642.15 2554.57 5632.55C2598.04 5622.94 2574.11 5583.21 2540.08 5558.78Z" fill="#B2B2B2" stroke="#263238" stroke-linecap="round" stroke-linejoin="round"/>
<path d="M4657.01 4493.72C4616.3 4400.75 4651.15 4197.21 4691.85 3906.56C4732.56 3615.92 4773.27 3319.4 4773.27 3162.44C4773.27 3005.47 4799.16 2787.93 4748.03 2717.75C4696.9 2647.57 4510.79 2457.23 4496.95 2368.98C4483.11 2280.72 4608.48 2145.74 4608.48 2145.74C4608.48 2145.74 4645.77 2075.88 4678.34 2113.17C4710.9 2150.46 4696.9 2196.87 4678.34 2262C4659.78 2327.13 4641.05 2378.26 4641.05 2378.26C4641.05 2378.26 4803.88 2429.38 4845.73 2401.54C4887.57 2373.7 4883.83 2214.45 4880.9 2136.46C4874.87 1984.37 4813.97 2049.34 4771.8 2121.31C4751.45 2155.83 4632.26 2135.32 4701.95 2046.9C4771.64 1958.48 4836.44 1880.49 4901.58 1950.34C4966.71 2020.2 5013.11 2155.02 5013.11 2155.02C5013.11 2155.02 5059.68 1933.41 5102.02 1803.15C5144.35 1672.88 5220.23 1621.27 5247.59 1630.39C5274.94 1639.5 5271.85 1684.93 5244.49 1748.6C5217.14 1812.26 5156.57 1987.96 5141.42 2045.6C5126.28 2103.24 5123.35 2169.84 5153.63 2163.81C5183.92 2157.79 5289.92 1972.81 5320.37 1894C5350.82 1815.2 5396.09 1742.57 5447.54 1709.19C5498.99 1675.81 5541.49 1718.31 5520.32 1772.86C5478.28 1871.5 5430.54 1967.63 5377.36 2060.74C5343.93 2120.92 5315.56 2183.77 5292.53 2248.65C5342.45 2195.46 5395.05 2144.86 5450.15 2097.05C5522.93 2036.48 5601.74 2024.43 5625.84 2045.6C5649.94 2066.77 5628.93 2069.86 5568.36 2118.38C5507.79 2166.91 5417.25 2224.71 5344.8 2342.6C5288.68 2429.04 5244.84 2522.86 5214.53 2621.36C5192.01 2686.02 5162.53 2748.04 5126.61 2806.33C5126.61 2806.33 5183.43 3267.79 5281.94 3521.64C5380.45 3775.49 5554.68 4146.74 5501.6 4411.98C5448.52 4677.23 5346.26 4813.52 5202.32 4855.2C5160.59 4867.39 5116.58 4869.63 5073.82 4861.74C5031.07 4853.85 4990.76 4836.05 4956.12 4809.77" fill="#007FFF"/>
<mask id="mask4_801_1029" style="mask-type:luminance" maskUnits="userSpaceOnUse" x="4495" y="1629" width="1141" height="3238">
<path d="M4657.01 4493.72C4616.3 4400.75 4651.15 4197.21 4691.85 3906.56C4732.56 3615.92 4773.27 3319.4 4773.27 3162.44C4773.27 3005.47 4799.16 2787.93 4748.03 2717.75C4696.9 2647.57 4510.79 2457.23 4496.95 2368.98C4483.11 2280.72 4608.48 2145.74 4608.48 2145.74C4608.48 2145.74 4645.77 2075.88 4678.34 2113.17C4710.9 2150.46 4696.9 2196.87 4678.34 2262C4659.78 2327.13 4641.05 2378.26 4641.05 2378.26C4641.05 2378.26 4803.88 2429.38 4845.73 2401.54C4887.57 2373.7 4883.83 2214.45 4880.9 2136.46C4874.87 1984.37 4813.97 2049.34 4771.8 2121.31C4751.45 2155.83 4632.26 2135.32 4701.95 2046.9C4771.64 1958.48 4836.44 1880.49 4901.58 1950.34C4966.71 2020.2 5013.11 2155.02 5013.11 2155.02C5013.11 2155.02 5059.68 1933.41 5102.02 1803.15C5144.35 1672.88 5220.23 1621.27 5247.59 1630.39C5274.94 1639.5 5271.85 1684.93 5244.49 1748.6C5217.14 1812.26 5156.57 1987.96 5141.42 2045.6C5126.28 2103.24 5123.35 2169.84 5153.63 2163.81C5183.92 2157.79 5289.92 1972.81 5320.37 1894C5350.82 1815.2 5396.09 1742.57 5447.54 1709.19C5498.99 1675.81 5541.49 1718.31 5520.32 1772.86C5478.28 1871.5 5430.54 1967.63 5377.36 2060.74C5343.93 2120.92 5315.56 2183.77 5292.53 2248.65C5342.45 2195.46 5395.05 2144.86 5450.15 2097.05C5522.93 2036.48 5601.74 2024.43 5625.84 2045.6C5649.94 2066.77 5628.93 2069.86 5568.36 2118.38C5507.79 2166.91 5417.25 2224.71 5344.8 2342.6C5288.68 2429.04 5244.84 2522.86 5214.53 2621.36C5192.01 2686.02 5162.53 2748.04 5126.61 2806.33C5126.61 2806.33 5183.43 3267.79 5281.94 3521.64C5380.45 3775.49 5554.68 4146.74 5501.6 4411.98C5448.52 4677.23 5346.26 4813.52 5202.32 4855.2C5160.59 4867.39 5116.58 4869.63 5073.82 4861.74C5031.07 4853.85 4990.76 4836.05 4956.12 4809.77" fill="white"/>
</mask>
<g mask="url(#mask4_801_1029)">
<g opacity="0.2">
<path d="M5457.47 1872.19C5460.41 1872.83 5463.13 1874.19 5465.41 1876.15C5467.68 1878.12 5469.43 1880.61 5470.5 1883.42C5469.47 1880.59 5467.73 1878.07 5465.45 1876.1C5463.17 1874.13 5460.42 1872.79 5457.47 1872.19Z" fill="black"/>
<path d="M5457.47 1872.19V1910.29L5470.5 1883.42C5469.43 1880.61 5467.68 1878.12 5465.41 1876.15C5463.13 1874.19 5460.41 1872.83 5457.47 1872.19Z" fill="black"/>
<path d="M5510.72 4286.12C5510.72 4275.26 5510.23 4264.41 5509.25 4253.55C5499.16 4256.16 5486.46 4265.76 5474.41 4290.51C5486.68 4291.59 5499.05 4290.09 5510.72 4286.12Z" fill="black"/>
<path d="M5457.47 4216.92V4280.58C5488.57 4233.52 5464.15 4216.92 5457.47 4216.92Z" fill="black"/>
<path d="M4675.9 2262.97C4670.2 2262.97 4652.29 2274.86 4664.99 2306.29C4669.06 2293.1 4673.45 2278.6 4677.85 2263.3L4675.9 2262.97Z" fill="black"/>
<path d="M5066.68 2522.03C5097.78 2474.98 5073.36 2458.37 5066.68 2458.37C5060.01 2458.37 5035.42 2474.98 5066.68 2522.03Z" fill="black"/>
<path d="M5450.63 1924.13L5457.47 1910.29V1872.19C5451.28 1872.19 5430.61 1886.19 5450.63 1924.13Z" fill="black"/>
<path d="M5066.68 2067.58C5060.01 2067.58 5035.58 2083.86 5066.68 2131.25C5097.78 2084.19 5073.36 2067.58 5066.68 2067.58Z" fill="black"/>
<path d="M4746.73 2708.64C4747.88 2706.6 4748.57 2704.33 4748.77 2702C4748.97 2699.67 4748.66 2697.32 4747.87 2695.12C4746.35 2693.3 4744.46 2691.84 4742.33 2690.83C4740.19 2689.81 4737.86 2689.28 4735.49 2689.26C4732.45 2689.18 4729.42 2689.62 4726.54 2690.56C4733.21 2698.7 4739.24 2706.03 4744.12 2712.54C4745.16 2711.36 4746.03 2710.05 4746.73 2708.64Z" fill="black"/>
<path d="M5138.65 2499.73C5135.23 2493.86 5108.53 2481.16 5083.62 2532.29C5139.79 2534.9 5141.91 2505.43 5138.65 2499.73Z" fill="black"/>
<path d="M5130.68 2130.92C5130.04 2121.98 5130.04 2113 5130.68 2104.05C5120.25 2100.8 5101.2 2104.05 5083.13 2141.02C5099.68 2143.7 5116.64 2140.1 5130.68 2130.92Z" fill="black"/>
<path d="M5139.14 1719.94C5134.75 1727.27 5130.68 1735.25 5126.44 1743.55C5130.83 1741.52 5134.44 1738.12 5136.73 1733.87C5139.03 1729.61 5139.87 1724.72 5139.14 1719.94Z" fill="black"/>
<path d="M4603.93 2304.33C4600.67 2309.87 4602.79 2338.2 4655.38 2336.9L4656.84 2332.66C4632.58 2286.75 4607.34 2298.63 4603.93 2304.33Z" fill="black"/>
<path d="M4994.71 2499.73C4991.29 2505.43 4993.57 2534.9 5049.75 2532.29C5024.84 2481.16 4998.13 2493.86 4994.71 2499.73Z" fill="black"/>
<path d="M5385.5 1913.54C5382.25 1919.24 5384.36 1948.55 5439.89 1946.11C5415.46 1895.14 5388.92 1907.68 5385.5 1913.54Z" fill="black"/>
<path d="M5049.75 2141.02C5044.15 2127.92 5035.02 2116.65 5023.37 2108.45C5020.77 2120.66 5018.49 2130.92 5016.86 2138.74C5027.61 2141.41 5038.74 2142.18 5049.75 2141.02Z" fill="black"/>
<path d="M5004.65 2132.39C5002.04 2125.55 4998.78 2117.57 4995.04 2108.61C4993.73 2113.08 4993.97 2117.85 4995.71 2122.17C4997.46 2126.48 5000.6 2130.08 5004.65 2132.39Z" fill="black"/>
<path d="M5066.68 3694.4C5097.78 3647.34 5073.36 3630.73 5066.68 3630.73C5060.01 3630.73 5035.42 3647.34 5066.68 3694.4Z" fill="black"/>
<path d="M5066.68 3239.94C5060.01 3239.94 5035.58 3256.23 5066.68 3303.61C5097.78 3256.55 5073.36 3239.94 5066.68 3239.94Z" fill="black"/>
<path d="M5066.68 2849.16C5060.01 2849.16 5035.58 2865.44 5066.68 2912.82C5097.78 2865.76 5073.36 2849.16 5066.68 2849.16Z" fill="black"/>
<path d="M4748.52 3478.49C4748.52 3481.91 4747.7 3485.49 4747.21 3488.91C4748.68 3485.64 4749.13 3482.01 4748.52 3478.49Z" fill="black"/>
<path d="M4747.87 3867.49C4744.61 3861.95 4721.32 3851.2 4698.04 3889.79H4739.4C4743 3887.46 4745.76 3884.03 4747.28 3880.02C4748.8 3876.01 4749.01 3871.62 4747.87 3867.49Z" fill="black"/>
<path d="M5084.27 3704.17C5140.45 3707.26 5142.56 3677.79 5139.31 3671.6C5136.05 3665.41 5108.53 3653.53 5084.27 3704.17Z" fill="black"/>
<path d="M5138.65 3281.3C5135.23 3275.44 5108.53 3262.74 5083.62 3313.87C5139.79 3316.47 5141.91 3287 5138.65 3281.3Z" fill="black"/>
<path d="M5084.27 2922.59C5125.63 2924.87 5137.68 2909.57 5139.79 2898.98L5138.33 2889.38C5132.14 2883.35 5107.07 2874.88 5084.27 2922.59Z" fill="black"/>
<path d="M5416.6 3867.81C5400.32 3856.58 5387.78 3863.41 5385.5 3867.81C5384.36 3871.95 5384.57 3876.34 5386.09 3880.35C5387.61 3884.36 5390.37 3887.78 5393.97 3890.12H5424.26L5416.6 3867.81Z" fill="black"/>
<path d="M4994.71 3672.09C4991.29 3677.79 4993.57 3707.26 5049.75 3704.66C5024.84 3653.53 4998.13 3666.23 4994.71 3672.09Z" fill="black"/>
<path d="M4994.71 3281.3C4991.29 3287 4993.57 3316.47 5049.75 3313.87C5024.84 3262.74 4998.13 3275.44 4994.71 3281.3Z" fill="black"/>
<path d="M4994.71 2890.51C4991.29 2896.21 4993.57 2925.69 5049.75 2923.08C5024.84 2871.95 4998.13 2884.65 4994.71 2890.51Z" fill="black"/>
<path d="M5066.68 4803.1C5060.33 4803.1 5038.19 4818.08 5062.13 4859.44L5070.27 4861.06C5095.67 4818.4 5073.03 4803.1 5066.68 4803.1Z" fill="black"/>
<path d="M4675.9 4280.58C4707 4233.52 4682.57 4216.92 4675.9 4216.92C4669.22 4216.92 4644.63 4233.52 4675.9 4280.58Z" fill="black"/>
<path d="M5457.47 4216.92C5450.8 4216.92 5426.37 4233.2 5457.47 4280.58V4216.92Z" fill="black"/>
<path d="M5066.68 4475.97C5097.78 4428.92 5073.36 4412.31 5066.68 4412.31C5060.01 4412.31 5035.42 4428.92 5066.68 4475.97Z" fill="black"/>
<path d="M5066.68 4021.52C5060.01 4021.52 5035.58 4037.8 5066.68 4085.19C5097.78 4038.13 5073.36 4021.52 5066.68 4021.52Z" fill="black"/>
<path d="M5138.65 4844.46C5135.56 4839.08 5113.25 4828.17 5089.81 4864.16C5103.19 4865.87 5116.69 4866.58 5130.19 4866.27C5133.71 4863.98 5136.42 4860.65 5137.94 4856.73C5139.46 4852.81 5139.71 4848.52 5138.65 4844.46Z" fill="black"/>
<path d="M4693.48 4290.35C4749.66 4293.44 4751.77 4263.97 4748.52 4257.78C4745.26 4251.6 4717.74 4239.71 4693.48 4290.35Z" fill="black"/>
<path d="M5084.27 4485.74C5140.45 4488.84 5142.56 4459.37 5139.31 4453.18C5136.05 4446.99 5108.53 4435.1 5084.27 4485.74Z" fill="black"/>
<path d="M5138.65 4062.88C5135.23 4057.02 5108.53 4044.32 5083.62 4095.44C5139.79 4098.05 5141.91 4068.58 5138.65 4062.88Z" fill="black"/>
<path d="M5385.5 4649.06C5382.9 4653.46 5383.71 4671.86 5409.76 4678.7C5414.16 4670.88 5418.56 4662.41 5422.63 4654.76C5404.23 4636.2 5388.11 4644.5 5385.5 4649.06Z" fill="black"/>
<path d="M5004 4839.08C5013.29 4843.47 5022.8 4847.38 5032.49 4850.81C5029.18 4846.53 5024.81 4843.2 5019.81 4841.14C5014.81 4839.09 5009.36 4838.38 5004 4839.08Z" fill="black"/>
<path d="M4658.96 4290.35C4655.21 4282.12 4650.33 4274.45 4644.47 4267.55C4644.47 4275.21 4643.17 4282.7 4642.68 4290.19C4648.1 4290.57 4653.54 4290.63 4658.96 4290.35Z" fill="black"/>
<path d="M5440.54 4290.35C5415.63 4239.71 5388.92 4252.41 5385.5 4257.78C5382.08 4263.16 5384.36 4293.44 5440.54 4290.35Z" fill="black"/>
<path d="M4994.71 4453.67C4991.29 4459.37 4993.57 4488.84 5049.75 4486.23C5024.84 4435.11 4998.13 4447.81 4994.71 4453.67Z" fill="black"/>
<path d="M4994.71 4062.88C4991.29 4068.58 4993.57 4098.05 5049.75 4095.44C5024.84 4044.32 4998.13 4057.02 4994.71 4062.88Z" fill="black"/>
<path d="M4698.04 3889.79C4696.25 3892.72 4694.62 3895.98 4692.83 3899.4C4709.02 3901.85 4725.56 3898.38 4739.4 3889.63H4698.04V3889.79Z" fill="black"/>
<path d="M5424.26 3889.79H5393.64C5403.59 3896.46 5415.37 3899.88 5427.35 3899.56L5424.26 3889.79Z" fill="black"/>
</g>
</g>
<path d="M4657.01 4493.72C4616.3 4400.75 4651.15 4197.21 4691.85 3906.56C4732.56 3615.92 4773.27 3319.4 4773.27 3162.44C4773.27 3005.47 4799.16 2787.93 4748.03 2717.75C4696.9 2647.57 4510.79 2457.23 4496.95 2368.98C4483.11 2280.72 4608.48 2145.74 4608.48 2145.74C4608.48 2145.74 4645.77 2075.88 4678.34 2113.17C4710.9 2150.46 4696.9 2196.87 4678.34 2262C4659.78 2327.13 4641.05 2378.26 4641.05 2378.26C4641.05 2378.26 4803.88 2429.38 4845.73 2401.54C4887.57 2373.7 4883.83 2214.45 4880.9 2136.46C4874.87 1984.37 4813.97 2049.34 4771.8 2121.31C4751.45 2155.83 4632.26 2135.32 4701.95 2046.9C4771.64 1958.48 4836.44 1880.49 4901.58 1950.34C4966.71 2020.2 5013.11 2155.02 5013.11 2155.02C5013.11 2155.02 5059.68 1933.41 5102.02 1803.15C5144.35 1672.88 5220.23 1621.27 5247.59 1630.39C5274.94 1639.5 5271.85 1684.93 5244.49 1748.6C5217.14 1812.26 5156.57 1987.96 5141.42 2045.6C5126.28 2103.24 5123.35 2169.84 5153.63 2163.81C5183.92 2157.79 5289.92 1972.81 5320.37 1894C5350.82 1815.2 5396.09 1742.57 5447.54 1709.19C5498.99 1675.81 5541.49 1718.31 5520.32 1772.86C5478.28 1871.5 5430.54 1967.63 5377.36 2060.74C5343.93 2120.92 5315.56 2183.77 5292.53 2248.65C5342.45 2195.46 5395.05 2144.86 5450.15 2097.05C5522.93 2036.48 5601.74 2024.43 5625.84 2045.6C5649.94 2066.77 5628.93 2069.86 5568.36 2118.38C5507.79 2166.91 5417.25 2224.71 5344.8 2342.6C5288.68 2429.04 5244.84 2522.86 5214.53 2621.36C5192.01 2686.02 5162.53 2748.04 5126.61 2806.33C5126.61 2806.33 5183.43 3267.79 5281.94 3521.64C5380.45 3775.49 5554.68 4146.74 5501.6 4411.98C5448.52 4677.23 5346.26 4813.52 5202.32 4855.2C5160.59 4867.39 5116.58 4869.63 5073.82 4861.74C5031.07 4853.85 4990.76 4836.05 4956.12 4809.77" stroke="#263238" stroke-linecap="round" stroke-linejoin="round"/>
<path d="M5344.79 2342.6C5417.58 2224.38 5508.6 2166.74 5569.17 2118.38C5629.74 2070.02 5650.59 2066.77 5626.65 2045.6C5602.72 2024.43 5523.74 2036.48 5450.96 2097.05C5395.87 2144.86 5343.26 2195.46 5293.34 2248.65C5316.11 2183.8 5344.21 2120.95 5377.36 2060.74C5430.38 1967.61 5477.95 1871.49 5519.84 1772.86C5541 1718.31 5498.67 1675.16 5447.05 1709.19C5395.43 1743.23 5350.17 1815.2 5319.88 1894C5289.6 1972.81 5183.43 2157.79 5153.15 2163.81C5122.86 2169.84 5125.79 2103.08 5140.93 2045.6C5156.08 1988.12 5216.81 1812.26 5244 1748.6C5271.2 1684.93 5274.29 1639.5 5247.1 1630.39C5219.91 1621.27 5144.03 1672.72 5101.53 1803.15C5059.03 1933.57 5012.62 2155.02 5012.62 2155.02C5012.62 2155.02 4966.22 2020.03 4901.09 1950.34C4835.96 1880.65 4770.82 1958.48 4701.46 2046.9C4632.09 2135.32 4750.31 2155.83 4771.31 2121.31C4813.49 2049.34 4874.38 1984.37 4880.41 2136.46C4883.34 2214.45 4887.08 2373.53 4845.24 2401.54C4803.39 2429.55 4640.56 2378.26 4640.56 2378.26C4640.56 2378.26 4659.12 2327.13 4677.85 2262C4696.58 2196.87 4710.42 2150.3 4677.85 2113.17C4645.28 2076.05 4608 2145.74 4608 2145.74C4608 2145.74 4482.46 2280.56 4496.46 2368.98C4510.46 2457.39 4696.41 2647.9 4747.54 2717.75C4798.67 2787.61 4772.78 3005.47 4772.78 3162.44C4772.78 3319.4 4732.07 3615.92 4691.36 3906.56C4691.36 3910.47 4690.22 3914.05 4689.74 3917.8C4754.05 3985.37 4885.13 4082.26 5106.74 4074.77C5255.24 4069.72 5360.43 3994.98 5431.58 3912.75C5384.36 3772.23 5325.09 3635.94 5281.13 3521.96C5182.62 3268.11 5125.79 2806.66 5125.79 2806.66C5161.71 2748.37 5191.2 2686.35 5213.72 2621.69C5244.25 2523.03 5288.37 2429.1 5344.79 2342.6Z" fill="#B2B2B2" stroke="#263238" stroke-linecap="round" stroke-linejoin="round"/>
<path d="M4898.97 2788.1C4898.97 2788.1 4871.78 2672.98 4911.18 2600.19C4931.91 2558.81 4966.06 2525.68 5008.07 2506.24" stroke="#263238" stroke-linecap="round" stroke-linejoin="round"/>
</svg>
