<svg width="107" height="100" viewBox="0 0 107 100" fill="none" xmlns="http://www.w3.org/2000/svg">
<path d="M103.611 0H3.38899C1.5173 0 0 1.55359 0 3.47003V96.53C0 98.4464 1.5173 100 3.38899 100H103.611C105.483 100 107 98.4464 107 96.53V3.47003C107 1.55359 105.483 0 103.611 0Z" fill="#007FFF"/>
<path d="M40.8224 56.831V69.3476C40.8224 72.0294 39.7337 74.4604 37.9812 76.2152C36.2229 77.9758 33.7951 79.0602 31.117 79.0602C25.7549 79.0602 21.4116 74.7111 21.4116 69.3476V50.2665C21.6969 45.6318 27.484 43.4631 30.8434 46.8211L40.8224 56.831Z" fill="white"/>
<path d="M85.6 31.4245V48.3893C85.5651 43.5389 79.5974 41.2128 76.1682 44.6349L60.7514 60.084L60.7106 60.1307C60.6 60.2531 60.4836 60.3697 60.3671 60.4921C58.5274 62.3285 56.0821 63.2205 53.6194 63.2205H53.5087C50.9994 63.2554 48.5018 62.3577 46.6387 60.4921C46.4931 60.3405 46.3476 60.1948 46.2137 60.0374L40.8166 54.6448L30.8376 44.6408C27.4084 41.2128 21.4408 43.5447 21.4 48.3952V31.4245C21.4 26.1193 25.5279 21.5895 30.8259 21.4321C33.4517 21.3622 35.8446 22.3241 37.6319 23.9623L50.9237 37.2777L53.4971 39.8486L55.5057 37.8432L69.3622 23.9623C71.1554 22.3241 73.5541 21.3622 76.1799 21.4321C81.478 21.5895 85.6 26.1252 85.6 31.4245Z" fill="white"/>
<path d="M85.5999 50.5697V69.3476C85.5999 74.7169 81.2508 79.0602 75.8945 79.0602C73.2163 79.0602 70.7886 77.9758 69.0303 76.2152C67.2778 74.4604 66.1891 72.0294 66.1891 69.3476V56.8193L76.174 46.8153C79.5973 43.3932 85.565 45.7193 85.5999 50.5697Z" fill="white"/>
</svg>
